<?xml version="1.0" encoding="utf-8" standalone="no"?>
<!DOCTYPE svg PUBLIC "-//W3C//DTD SVG 1.1//EN"
  "http://www.w3.org/Graphics/SVG/1.1/DTD/svg11.dtd">
<svg xmlns:xlink="http://www.w3.org/1999/xlink" width="460.8pt" height="259.2pt" viewBox="0 0 460.8 259.2" xmlns="http://www.w3.org/2000/svg" version="1.1">
 <metadata>
  <rdf:RDF xmlns:dc="http://purl.org/dc/elements/1.1/" xmlns:cc="http://creativecommons.org/ns#" xmlns:rdf="http://www.w3.org/1999/02/22-rdf-syntax-ns#">
   <cc:Work>
    <dc:type rdf:resource="http://purl.org/dc/dcmitype/StillImage"/>
    <dc:date>2025-12-14T20:27:27.032864</dc:date>
    <dc:format>image/svg+xml</dc:format>
    <dc:creator>
     <cc:Agent>
      <dc:title>Matplotlib v3.8.2, https://matplotlib.org/</dc:title>
     </cc:Agent>
    </dc:creator>
   </cc:Work>
  </rdf:RDF>
 </metadata>
 <defs>
  <style type="text/css">*{stroke-linejoin: round; stroke-linecap: butt}</style>
 </defs>
 <g id="figure_1">
  <g id="patch_1">
   <path d="M 0 259.2 
L 460.8 259.2 
L 460.8 0 
L 0 0 
z
" style="fill: #ffffff"/>
  </g>
  <g id="axes_1">
   <g id="patch_2">
    <path d="M 51.455 214.12 
L 448.92 214.12 
L 448.92 29.31 
L 51.455 29.31 
z
" style="fill: #ffffff"/>
   </g>
   <g id="PolyCollection_1">
    <defs>
     <path id="md3d6c22ab1" d="M 69.521591 -53.480455 
L 69.521591 -53.480455 
L 70.124816 -53.480923 
L 70.728041 -53.482328 
L 71.331266 -53.484669 
L 71.934491 -53.487947 
L 72.537716 -53.492161 
L 73.140941 -53.497312 
L 73.744166 -53.503399 
L 74.347391 -53.510423 
L 74.950617 -53.518383 
L 75.553842 -53.52728 
L 76.157067 -53.537113 
L 76.760292 -53.547883 
L 77.363517 -53.559589 
L 77.966742 -53.572232 
L 78.569967 -53.585811 
L 79.173192 -53.600327 
L 79.776417 -53.615779 
L 80.379642 -53.632168 
L 80.982867 -53.649493 
L 81.586092 -53.667755 
L 82.189317 -53.686953 
L 82.792542 -53.707088 
L 83.395768 -53.72816 
L 83.998993 -53.750167 
L 84.602218 -53.773112 
L 85.205443 -53.796993 
L 85.808668 -53.82181 
L 86.411893 -53.847564 
L 87.015118 -53.874254 
L 87.618343 -53.901881 
L 88.221568 -53.930444 
L 88.824793 -53.959944 
L 89.428018 -53.99038 
L 90.031243 -54.021753 
L 90.634468 -54.054063 
L 91.237694 -54.087308 
L 91.840919 -54.121491 
L 92.444144 -54.15661 
L 93.047369 -54.192665 
L 93.650594 -54.229657 
L 94.253819 -54.267585 
L 94.857044 -54.30645 
L 95.460269 -54.346251 
L 96.063494 -54.386989 
L 96.666719 -54.428664 
L 97.269944 -54.471275 
L 97.873169 -54.514822 
L 98.476394 -54.559306 
L 99.079619 -54.604726 
L 99.682845 -54.651083 
L 100.28607 -54.698377 
L 100.889295 -54.746606 
L 101.49252 -54.795773 
L 102.095745 -54.845876 
L 102.69897 -54.896915 
L 103.302195 -54.948891 
L 103.90542 -55.001804 
L 104.508645 -55.055652 
L 105.11187 -55.110438 
L 105.715095 -55.16616 
L 106.31832 -55.222818 
L 106.921545 -55.280413 
L 107.52477 -55.338945 
L 108.127996 -55.398413 
L 108.731221 -55.458817 
L 109.334446 -55.520158 
L 109.937671 -55.582435 
L 110.540896 -55.645649 
L 111.144121 -55.7098 
L 111.747346 -55.774887 
L 112.350571 -55.84091 
L 112.953796 -55.90787 
L 113.557021 -55.975767 
L 114.160246 -56.0446 
L 114.763471 -56.114369 
L 115.366696 -56.185075 
L 115.969921 -56.256717 
L 116.573147 -56.329296 
L 117.176372 -56.402812 
L 117.779597 -56.477264 
L 118.382822 -56.552652 
L 118.986047 -56.628977 
L 119.589272 -56.706239 
L 120.192497 -56.784437 
L 120.795722 -56.863571 
L 121.398947 -56.943642 
L 122.002172 -57.02465 
L 122.605397 -57.106594 
L 123.208622 -57.189474 
L 123.811847 -57.273291 
L 124.415072 -57.358045 
L 125.018298 -57.443735 
L 125.621523 -57.530361 
L 126.224748 -57.617924 
L 126.827973 -57.706424 
L 127.431198 -57.79586 
L 128.034423 -57.886233 
L 128.637648 -57.977542 
L 129.240873 -58.069787 
L 129.844098 -58.162969 
L 130.447323 -58.257088 
L 131.050548 -58.352143 
L 131.653773 -58.448134 
L 132.256998 -58.545062 
L 132.860223 -58.642927 
L 133.463449 -58.741728 
L 134.066674 -58.841465 
L 134.669899 -58.94214 
L 135.273124 -59.04375 
L 135.876349 -59.146297 
L 136.479574 -59.249781 
L 137.082799 -59.354201 
L 137.686024 -59.459557 
L 138.289249 -59.56585 
L 138.892474 -59.67308 
L 139.495699 -59.781246 
L 140.098924 -59.890349 
L 140.702149 -60.000388 
L 141.305374 -60.111363 
L 141.9086 -60.223276 
L 142.511825 -60.336124 
L 143.11505 -60.449909 
L 143.718275 -60.564631 
L 144.3215 -60.680289 
L 144.924725 -60.796884 
L 145.52795 -60.914415 
L 146.131175 -61.032882 
L 146.7344 -61.152286 
L 147.337625 -61.272627 
L 147.94085 -61.393904 
L 148.544075 -61.516118 
L 149.1473 -61.639268 
L 149.750525 -61.763355 
L 150.353751 -61.888378 
L 150.956976 -62.014337 
L 151.560201 -62.141233 
L 152.163426 -62.269066 
L 152.766651 -62.397835 
L 153.369876 -62.527541 
L 153.973101 -62.658183 
L 154.576326 -62.789762 
L 155.179551 -62.922277 
L 155.782776 -63.055729 
L 156.386001 -63.190117 
L 156.989226 -63.325441 
L 157.592451 -63.461703 
L 158.195677 -63.5989 
L 158.798902 -63.737034 
L 159.402127 -63.876105 
L 160.005352 -64.016112 
L 160.608577 -64.157056 
L 161.211802 -64.298936 
L 161.815027 -64.441753 
L 162.418252 -64.585506 
L 163.021477 -64.730196 
L 163.624702 -64.875822 
L 164.227927 -65.022385 
L 164.831152 -65.169884 
L 165.434377 -65.31832 
L 166.037602 -65.467692 
L 166.640828 -65.618001 
L 167.244053 -65.769246 
L 167.847278 -65.921427 
L 168.450503 -66.074546 
L 169.053728 -66.2286 
L 169.656953 -66.383592 
L 170.260178 -66.539519 
L 170.863403 -66.696384 
L 171.466628 -66.854184 
L 172.069853 -67.012922 
L 172.673078 -67.172595 
L 173.276303 -67.333206 
L 173.879528 -67.494752 
L 174.482753 -67.657236 
L 175.085979 -67.820655 
L 175.689204 -67.985012 
L 176.292429 -68.150304 
L 176.895654 -68.316534 
L 177.498879 -68.483699 
L 178.102104 -68.651802 
L 178.705329 -68.820841 
L 179.308554 -68.990816 
L 179.911779 -69.161728 
L 180.515004 -69.333576 
L 181.118229 -69.506361 
L 181.721454 -69.680082 
L 182.324679 -69.85474 
L 182.927904 -70.030334 
L 183.53113 -70.206865 
L 184.134355 -70.384332 
L 184.73758 -70.562736 
L 185.340805 -70.742076 
L 185.94403 -70.922353 
L 186.547255 -71.103566 
L 187.15048 -71.285716 
L 187.753705 -71.468803 
L 188.35693 -71.652825 
L 188.960155 -71.837785 
L 189.56338 -72.02368 
L 190.166605 -72.210513 
L 190.76983 -72.398282 
L 191.373055 -72.586987 
L 191.976281 -72.776629 
L 192.579506 -72.967207 
L 193.182731 -73.158722 
L 193.785956 -73.351173 
L 194.389181 -73.544561 
L 194.992406 -73.738886 
L 195.595631 -73.934146 
L 196.198856 -74.130344 
L 196.802081 -74.327478 
L 197.405306 -74.525548 
L 198.008531 -74.724555 
L 198.611756 -74.924498 
L 199.214981 -75.125378 
L 199.818206 -75.327195 
L 200.421432 -75.529947 
L 201.024657 -75.733637 
L 201.627882 -75.938263 
L 202.231107 -76.143825 
L 202.834332 -76.350324 
L 203.437557 -76.557759 
L 204.040782 -76.766131 
L 204.644007 -76.97544 
L 205.247232 -77.185685 
L 205.850457 -77.396866 
L 206.453682 -77.608984 
L 207.056907 -77.822038 
L 207.660132 -78.036029 
L 208.263357 -78.250957 
L 208.866583 -78.466821 
L 209.469808 -78.683621 
L 210.073033 -78.901358 
L 210.676258 -79.120031 
L 211.279483 -79.339641 
L 211.882708 -79.560188 
L 212.485933 -79.781671 
L 213.089158 -80.00409 
L 213.692383 -80.227446 
L 214.295608 -80.451738 
L 214.898833 -80.676967 
L 215.502058 -80.903133 
L 216.105283 -81.130235 
L 216.708508 -81.358273 
L 217.311734 -81.587248 
L 217.914959 -81.81716 
L 218.518184 -82.048008 
L 219.121409 -82.279792 
L 219.724634 -82.512513 
L 220.327859 -82.746171 
L 220.931084 -82.980765 
L 221.534309 -83.216295 
L 222.137534 -83.452762 
L 222.740759 -83.690166 
L 223.343984 -83.928506 
L 223.947209 -84.167782 
L 224.550434 -84.407995 
L 225.15366 -84.649145 
L 225.756885 -84.891231 
L 226.36011 -85.134253 
L 226.963335 -85.378212 
L 227.56656 -85.623108 
L 228.169785 -85.86894 
L 228.77301 -86.115708 
L 229.376235 -86.363413 
L 229.97946 -86.612055 
L 230.582685 -86.861633 
L 231.18591 -87.112147 
L 231.789135 -87.363598 
L 232.39236 -87.615986 
L 232.995585 -87.86931 
L 233.598811 -88.12357 
L 234.202036 -88.378767 
L 234.805261 -88.634901 
L 235.408486 -88.891971 
L 236.011711 -89.149978 
L 236.614936 -89.408921 
L 237.218161 -89.6688 
L 237.821386 -89.929616 
L 238.424611 -90.191369 
L 239.027836 -90.454058 
L 239.631061 -90.717683 
L 240.234286 -90.982245 
L 240.837511 -91.247744 
L 241.440736 -91.514179 
L 242.043962 -91.781551 
L 242.647187 -92.049859 
L 243.250412 -92.319103 
L 243.853637 -92.589284 
L 244.456862 -92.860402 
L 245.060087 -93.132456 
L 245.663312 -93.405447 
L 246.266537 -93.679374 
L 246.869762 -93.954237 
L 247.472987 -94.230038 
L 248.076212 -94.506774 
L 248.679437 -94.784447 
L 249.282662 -95.063057 
L 249.885887 -95.342603 
L 250.489113 -95.623086 
L 251.092338 -95.904505 
L 251.695563 -96.18686 
L 252.298788 -96.470153 
L 252.902013 -96.754381 
L 253.505238 -97.039546 
L 254.108463 -97.325648 
L 254.711688 -97.612686 
L 255.314913 -97.900661 
L 255.918138 -98.189572 
L 256.521363 -98.47942 
L 257.124588 -98.770204 
L 257.727813 -99.061924 
L 258.331038 -99.354582 
L 258.934264 -99.648175 
L 259.537489 -99.942705 
L 260.140714 -100.238172 
L 260.743939 -100.534575 
L 261.347164 -100.831915 
L 261.950389 -101.130191 
L 262.553614 -101.429404 
L 263.156839 -101.729553 
L 263.760064 -102.030639 
L 264.363289 -102.332661 
L 264.966514 -102.635619 
L 265.569739 -102.939515 
L 266.172964 -103.244346 
L 266.776189 -103.550115 
L 267.379415 -103.856819 
L 267.98264 -104.16446 
L 268.585865 -104.473038 
L 269.18909 -104.782552 
L 269.792315 -105.093003 
L 270.39554 -105.40439 
L 270.998765 -105.716714 
L 271.60199 -106.029974 
L 272.205215 -106.344171 
L 272.80844 -106.659304 
L 273.411665 -106.975374 
L 274.01489 -107.29238 
L 274.618115 -107.610323 
L 275.22134 -107.929202 
L 275.824566 -108.249018 
L 276.427791 -108.56977 
L 277.031016 -108.891459 
L 277.634241 -109.214084 
L 278.237466 -109.537646 
L 278.840691 -109.862144 
L 279.443916 -110.187579 
L 280.047141 -110.51395 
L 280.650366 -110.841258 
L 281.253591 -111.169502 
L 281.856816 -111.498683 
L 282.460041 -111.8288 
L 283.063266 -112.159854 
L 283.666492 -112.491844 
L 284.269717 -112.824771 
L 284.872942 -113.158634 
L 285.476167 -113.493434 
L 286.079392 -113.829171 
L 286.682617 -114.165843 
L 287.285842 -114.503453 
L 287.889067 -114.841998 
L 288.492292 -115.181481 
L 289.095517 -115.5219 
L 289.698742 -115.863255 
L 290.301967 -116.205547 
L 290.905192 -116.548775 
L 291.508417 -116.89294 
L 292.111643 -117.238041 
L 292.714868 -117.584079 
L 293.318093 -117.931053 
L 293.921318 -118.278964 
L 294.524543 -118.627811 
L 295.127768 -118.977595 
L 295.730993 -119.328316 
L 296.334218 -119.679972 
L 296.937443 -120.032566 
L 297.540668 -120.386096 
L 298.143893 -120.740562 
L 298.747118 -121.095965 
L 299.350343 -121.452304 
L 299.953568 -121.80958 
L 300.556794 -122.167792 
L 301.160019 -122.526941 
L 301.763244 -122.887027 
L 302.366469 -123.248049 
L 302.969694 -123.610007 
L 303.572919 -123.972902 
L 304.176144 -124.336733 
L 304.779369 -124.701501 
L 305.382594 -125.067205 
L 305.985819 -125.433846 
L 306.589044 -125.801424 
L 307.192269 -126.169938 
L 307.795494 -126.539388 
L 308.398719 -126.909775 
L 309.001945 -127.281098 
L 309.60517 -127.653358 
L 310.208395 -128.026555 
L 310.81162 -128.400688 
L 311.414845 -128.775757 
L 312.01807 -129.151763 
L 312.621295 -129.528705 
L 313.22452 -129.906584 
L 313.827745 -130.2854 
L 314.43097 -130.665152 
L 315.034195 -131.04584 
L 315.63742 -131.427465 
L 316.240645 -131.810026 
L 316.84387 -132.193524 
L 317.447096 -132.577959 
L 318.050321 -132.96333 
L 318.653546 -133.349637 
L 319.256771 -133.736881 
L 319.859996 -134.125062 
L 320.463221 -134.514179 
L 321.066446 -134.904232 
L 321.669671 -135.295222 
L 322.272896 -135.687149 
L 322.876121 -136.080012 
L 323.479346 -136.473811 
L 324.082571 -136.868547 
L 324.685796 -137.264219 
L 325.289021 -137.660828 
L 325.892247 -138.058374 
L 326.495472 -138.456856 
L 327.098697 -138.856274 
L 327.701922 -139.256629 
L 328.305147 -139.657921 
L 328.908372 -140.060149 
L 329.511597 -140.463313 
L 330.114822 -140.867414 
L 330.718047 -141.272452 
L 331.321272 -141.678426 
L 331.924497 -142.085336 
L 332.527722 -142.493183 
L 333.130947 -142.901967 
L 333.734172 -143.311687 
L 334.337398 -143.722344 
L 334.940623 -144.133937 
L 335.543848 -144.546466 
L 336.147073 -144.959932 
L 336.750298 -145.374335 
L 337.353523 -145.789674 
L 337.956748 -146.205949 
L 338.559973 -146.623161 
L 339.163198 -147.04131 
L 339.766423 -147.460395 
L 340.369648 -147.880416 
L 340.972873 -148.301375 
L 341.576098 -148.723269 
L 342.179323 -149.1461 
L 342.782549 -149.569868 
L 343.385774 -149.994572 
L 343.988999 -150.420212 
L 344.592224 -150.846789 
L 345.195449 -151.274303 
L 345.798674 -151.702753 
L 346.401899 -152.13214 
L 347.005124 -152.562463 
L 347.608349 -152.993722 
L 348.211574 -153.425918 
L 348.814799 -153.859051 
L 349.418024 -154.29312 
L 350.021249 -154.728126 
L 350.624475 -155.164068 
L 351.2277 -155.600946 
L 351.830925 -156.038762 
L 352.43415 -156.477513 
L 353.037375 -156.917201 
L 353.6406 -157.357826 
L 354.243825 -157.799387 
L 354.84705 -158.241885 
L 355.450275 -158.685319 
L 356.0535 -159.129689 
L 356.656725 -159.574997 
L 357.25995 -160.02124 
L 357.863175 -160.46842 
L 358.4664 -160.916537 
L 359.069626 -161.36559 
L 359.672851 -161.81558 
L 360.276076 -162.266506 
L 360.879301 -162.718369 
L 361.482526 -163.171168 
L 362.085751 -163.624903 
L 362.688976 -164.079576 
L 363.292201 -164.535184 
L 363.895426 -164.991729 
L 364.498651 -165.449211 
L 365.101876 -165.907629 
L 365.705101 -166.366984 
L 366.308326 -166.827275 
L 366.911551 -167.288503 
L 367.514777 -167.750667 
L 368.118002 -168.213768 
L 368.721227 -168.677805 
L 369.324452 -169.142779 
L 369.927677 -169.608689 
L 370.530902 -170.075536 
L 371.134127 -170.543319 
L 371.737352 -171.012038 
L 372.340577 -171.481695 
L 372.943802 -171.952287 
L 373.547027 -172.423817 
L 374.150252 -172.896282 
L 374.753477 -173.369685 
L 375.356702 -173.844023 
L 375.959928 -174.319298 
L 376.563153 -174.79551 
L 377.166378 -175.272658 
L 377.769603 -175.750743 
L 378.372828 -176.229764 
L 378.976053 -176.709722 
L 379.579278 -177.190616 
L 380.182503 -177.672447 
L 380.785728 -178.155214 
L 381.388953 -178.638918 
L 381.992178 -179.123558 
L 382.595403 -179.609135 
L 383.198628 -180.095648 
L 383.801853 -180.583098 
L 384.405079 -181.071484 
L 385.008304 -181.560807 
L 385.611529 -182.051067 
L 386.214754 -182.542262 
L 386.817979 -183.034395 
L 387.421204 -183.527463 
L 388.024429 -184.021469 
L 388.627654 -184.51641 
L 389.230879 -185.012289 
L 389.834104 -185.509104 
L 390.437329 -186.006855 
L 391.040554 -186.505543 
L 391.643779 -187.005167 
L 392.247004 -187.505728 
L 392.85023 -188.007225 
L 393.453455 -188.509659 
L 394.05668 -189.013029 
L 394.659905 -189.517336 
L 395.26313 -190.022579 
L 395.866355 -190.528759 
L 396.46958 -191.035875 
L 397.072805 -191.543928 
L 397.67603 -192.052918 
L 398.279255 -192.562843 
L 398.88248 -193.073706 
L 399.485705 -193.585505 
L 400.08893 -194.09824 
L 400.692155 -194.611912 
L 401.295381 -195.12652 
L 401.898606 -195.642065 
L 402.501831 -196.158546 
L 403.105056 -196.675964 
L 403.708281 -197.194319 
L 404.311506 -197.713609 
L 404.914731 -198.233837 
L 405.517956 -198.755001 
L 406.121181 -199.277101 
L 406.724406 -199.800138 
L 407.327631 -200.324111 
L 407.930856 -200.849021 
L 408.534081 -201.374868 
L 409.137306 -201.901651 
L 409.740532 -202.42937 
L 410.343757 -202.958026 
L 410.946982 -203.487618 
L 411.550207 -204.018147 
L 412.153432 -204.549613 
L 412.756657 -205.082014 
L 413.359882 -205.615353 
L 413.963107 -206.149628 
L 414.566332 -206.684839 
L 415.169557 -207.220987 
L 415.772782 -207.758071 
L 416.376007 -208.296092 
L 416.979232 -208.83505 
L 417.582458 -209.374944 
L 418.185683 -209.915774 
L 418.788908 -210.457541 
L 419.392133 -211.000245 
L 419.995358 -211.543885 
L 420.598583 -212.088461 
L 421.201808 -212.633974 
L 421.805033 -213.180423 
L 422.408258 -213.727809 
L 423.011483 -214.276132 
L 423.614708 -214.825391 
L 424.217933 -215.375586 
L 424.821158 -215.926718 
L 425.424383 -216.478787 
L 426.027609 -217.031792 
L 426.630834 -217.585733 
L 427.234059 -218.140611 
L 427.837284 -218.696426 
L 428.440509 -219.253176 
L 429.043734 -219.810864 
L 429.646959 -220.369488 
L 430.250184 -220.929048 
L 430.853409 -221.489545 
L 430.853409 -221.489545 
L 430.853409 -221.489545 
L 430.250184 -221.209063 
L 429.646959 -220.92858 
L 429.043734 -220.648098 
L 428.440509 -220.367615 
L 427.837284 -220.087132 
L 427.234059 -219.80665 
L 426.630834 -219.526167 
L 426.027609 -219.245684 
L 425.424383 -218.965202 
L 424.821158 -218.684719 
L 424.217933 -218.404237 
L 423.614708 -218.123754 
L 423.011483 -217.843271 
L 422.408258 -217.562789 
L 421.805033 -217.282306 
L 421.201808 -217.001823 
L 420.598583 -216.721341 
L 419.995358 -216.440858 
L 419.392133 -216.160376 
L 418.788908 -215.879893 
L 418.185683 -215.59941 
L 417.582458 -215.318928 
L 416.979232 -215.038445 
L 416.376007 -214.757963 
L 415.772782 -214.47748 
L 415.169557 -214.196997 
L 414.566332 -213.916515 
L 413.963107 -213.636032 
L 413.359882 -213.355549 
L 412.756657 -213.075067 
L 412.153432 -212.794584 
L 411.550207 -212.514102 
L 410.946982 -212.233619 
L 410.343757 -211.953136 
L 409.740532 -211.672654 
L 409.137306 -211.392171 
L 408.534081 -211.111688 
L 407.930856 -210.831206 
L 407.327631 -210.550723 
L 406.724406 -210.270241 
L 406.121181 -209.989758 
L 405.517956 -209.709275 
L 404.914731 -209.428793 
L 404.311506 -209.14831 
L 403.708281 -208.867827 
L 403.105056 -208.587345 
L 402.501831 -208.306862 
L 401.898606 -208.02638 
L 401.295381 -207.745897 
L 400.692155 -207.465414 
L 400.08893 -207.184932 
L 399.485705 -206.904449 
L 398.88248 -206.623966 
L 398.279255 -206.343484 
L 397.67603 -206.063001 
L 397.072805 -205.782519 
L 396.46958 -205.502036 
L 395.866355 -205.221553 
L 395.26313 -204.941071 
L 394.659905 -204.660588 
L 394.05668 -204.380105 
L 393.453455 -204.099623 
L 392.85023 -203.81914 
L 392.247004 -203.538658 
L 391.643779 -203.258175 
L 391.040554 -202.977692 
L 390.437329 -202.69721 
L 389.834104 -202.416727 
L 389.230879 -202.136244 
L 388.627654 -201.855762 
L 388.024429 -201.575279 
L 387.421204 -201.294797 
L 386.817979 -201.014314 
L 386.214754 -200.733831 
L 385.611529 -200.453349 
L 385.008304 -200.172866 
L 384.405079 -199.892384 
L 383.801853 -199.611901 
L 383.198628 -199.331418 
L 382.595403 -199.050936 
L 381.992178 -198.770453 
L 381.388953 -198.48997 
L 380.785728 -198.209488 
L 380.182503 -197.929005 
L 379.579278 -197.648523 
L 378.976053 -197.36804 
L 378.372828 -197.087557 
L 377.769603 -196.807075 
L 377.166378 -196.526592 
L 376.563153 -196.246109 
L 375.959928 -195.965627 
L 375.356702 -195.685144 
L 374.753477 -195.404662 
L 374.150252 -195.124179 
L 373.547027 -194.843696 
L 372.943802 -194.563214 
L 372.340577 -194.282731 
L 371.737352 -194.002248 
L 371.134127 -193.721766 
L 370.530902 -193.441283 
L 369.927677 -193.160801 
L 369.324452 -192.880318 
L 368.721227 -192.599835 
L 368.118002 -192.319353 
L 367.514777 -192.03887 
L 366.911551 -191.758387 
L 366.308326 -191.477905 
L 365.705101 -191.197422 
L 365.101876 -190.91694 
L 364.498651 -190.636457 
L 363.895426 -190.355974 
L 363.292201 -190.075492 
L 362.688976 -189.795009 
L 362.085751 -189.514526 
L 361.482526 -189.234044 
L 360.879301 -188.953561 
L 360.276076 -188.673079 
L 359.672851 -188.392596 
L 359.069626 -188.112113 
L 358.4664 -187.831631 
L 357.863175 -187.551148 
L 357.25995 -187.270666 
L 356.656725 -186.990183 
L 356.0535 -186.7097 
L 355.450275 -186.429218 
L 354.84705 -186.148735 
L 354.243825 -185.868252 
L 353.6406 -185.58777 
L 353.037375 -185.307287 
L 352.43415 -185.026805 
L 351.830925 -184.746322 
L 351.2277 -184.465839 
L 350.624475 -184.185357 
L 350.021249 -183.904874 
L 349.418024 -183.624391 
L 348.814799 -183.343909 
L 348.211574 -183.063426 
L 347.608349 -182.782944 
L 347.005124 -182.502461 
L 346.401899 -182.221978 
L 345.798674 -181.941496 
L 345.195449 -181.661013 
L 344.592224 -181.38053 
L 343.988999 -181.100048 
L 343.385774 -180.819565 
L 342.782549 -180.539083 
L 342.179323 -180.2586 
L 341.576098 -179.978117 
L 340.972873 -179.697635 
L 340.369648 -179.417152 
L 339.766423 -179.136669 
L 339.163198 -178.856187 
L 338.559973 -178.575704 
L 337.956748 -178.295222 
L 337.353523 -178.014739 
L 336.750298 -177.734256 
L 336.147073 -177.453774 
L 335.543848 -177.173291 
L 334.940623 -176.892808 
L 334.337398 -176.612326 
L 333.734172 -176.331843 
L 333.130947 -176.051361 
L 332.527722 -175.770878 
L 331.924497 -175.490395 
L 331.321272 -175.209913 
L 330.718047 -174.92943 
L 330.114822 -174.648947 
L 329.511597 -174.368465 
L 328.908372 -174.087982 
L 328.305147 -173.8075 
L 327.701922 -173.527017 
L 327.098697 -173.246534 
L 326.495472 -172.966052 
L 325.892247 -172.685569 
L 325.289021 -172.405087 
L 324.685796 -172.124604 
L 324.082571 -171.844121 
L 323.479346 -171.563639 
L 322.876121 -171.283156 
L 322.272896 -171.002673 
L 321.669671 -170.722191 
L 321.066446 -170.441708 
L 320.463221 -170.161226 
L 319.859996 -169.880743 
L 319.256771 -169.60026 
L 318.653546 -169.319778 
L 318.050321 -169.039295 
L 317.447096 -168.758812 
L 316.84387 -168.47833 
L 316.240645 -168.197847 
L 315.63742 -167.917365 
L 315.034195 -167.636882 
L 314.43097 -167.356399 
L 313.827745 -167.075917 
L 313.22452 -166.795434 
L 312.621295 -166.514951 
L 312.01807 -166.234469 
L 311.414845 -165.953986 
L 310.81162 -165.673504 
L 310.208395 -165.393021 
L 309.60517 -165.112538 
L 309.001945 -164.832056 
L 308.398719 -164.551573 
L 307.795494 -164.27109 
L 307.192269 -163.990608 
L 306.589044 -163.710125 
L 305.985819 -163.429643 
L 305.382594 -163.14916 
L 304.779369 -162.868677 
L 304.176144 -162.588195 
L 303.572919 -162.307712 
L 302.969694 -162.027229 
L 302.366469 -161.746747 
L 301.763244 -161.466264 
L 301.160019 -161.185782 
L 300.556794 -160.905299 
L 299.953568 -160.624816 
L 299.350343 -160.344334 
L 298.747118 -160.063851 
L 298.143893 -159.783368 
L 297.540668 -159.502886 
L 296.937443 -159.222403 
L 296.334218 -158.941921 
L 295.730993 -158.661438 
L 295.127768 -158.380955 
L 294.524543 -158.100473 
L 293.921318 -157.81999 
L 293.318093 -157.539508 
L 292.714868 -157.259025 
L 292.111643 -156.978542 
L 291.508417 -156.69806 
L 290.905192 -156.417577 
L 290.301967 -156.137094 
L 289.698742 -155.856612 
L 289.095517 -155.576129 
L 288.492292 -155.295647 
L 287.889067 -155.015164 
L 287.285842 -154.734681 
L 286.682617 -154.454199 
L 286.079392 -154.173716 
L 285.476167 -153.893233 
L 284.872942 -153.612751 
L 284.269717 -153.332268 
L 283.666492 -153.051786 
L 283.063266 -152.771303 
L 282.460041 -152.49082 
L 281.856816 -152.210338 
L 281.253591 -151.929855 
L 280.650366 -151.649372 
L 280.047141 -151.36889 
L 279.443916 -151.088407 
L 278.840691 -150.807925 
L 278.237466 -150.527442 
L 277.634241 -150.246959 
L 277.031016 -149.966477 
L 276.427791 -149.685994 
L 275.824566 -149.405511 
L 275.22134 -149.125029 
L 274.618115 -148.844546 
L 274.01489 -148.564064 
L 273.411665 -148.283581 
L 272.80844 -148.003098 
L 272.205215 -147.722616 
L 271.60199 -147.442133 
L 270.998765 -147.16165 
L 270.39554 -146.881168 
L 269.792315 -146.600685 
L 269.18909 -146.320203 
L 268.585865 -146.03972 
L 267.98264 -145.759237 
L 267.379415 -145.478755 
L 266.776189 -145.198272 
L 266.172964 -144.917789 
L 265.569739 -144.637307 
L 264.966514 -144.356824 
L 264.363289 -144.076342 
L 263.760064 -143.795859 
L 263.156839 -143.515376 
L 262.553614 -143.234894 
L 261.950389 -142.954411 
L 261.347164 -142.673929 
L 260.743939 -142.393446 
L 260.140714 -142.112963 
L 259.537489 -141.832481 
L 258.934264 -141.551998 
L 258.331038 -141.271515 
L 257.727813 -140.991033 
L 257.124588 -140.71055 
L 256.521363 -140.430068 
L 255.918138 -140.149585 
L 255.314913 -139.869102 
L 254.711688 -139.58862 
L 254.108463 -139.308137 
L 253.505238 -139.027654 
L 252.902013 -138.747172 
L 252.298788 -138.466689 
L 251.695563 -138.186207 
L 251.092338 -137.905724 
L 250.489113 -137.625241 
L 249.885887 -137.344759 
L 249.282662 -137.064276 
L 248.679437 -136.783793 
L 248.076212 -136.503311 
L 247.472987 -136.222828 
L 246.869762 -135.942346 
L 246.266537 -135.661863 
L 245.663312 -135.38138 
L 245.060087 -135.100898 
L 244.456862 -134.820415 
L 243.853637 -134.539932 
L 243.250412 -134.25945 
L 242.647187 -133.978967 
L 242.043962 -133.698485 
L 241.440736 -133.418002 
L 240.837511 -133.137519 
L 240.234286 -132.857037 
L 239.631061 -132.576554 
L 239.027836 -132.296071 
L 238.424611 -132.015589 
L 237.821386 -131.735106 
L 237.218161 -131.454624 
L 236.614936 -131.174141 
L 236.011711 -130.893658 
L 235.408486 -130.613176 
L 234.805261 -130.332693 
L 234.202036 -130.052211 
L 233.598811 -129.771728 
L 232.995585 -129.491245 
L 232.39236 -129.210763 
L 231.789135 -128.93028 
L 231.18591 -128.649797 
L 230.582685 -128.369315 
L 229.97946 -128.088832 
L 229.376235 -127.80835 
L 228.77301 -127.527867 
L 228.169785 -127.247384 
L 227.56656 -126.966902 
L 226.963335 -126.686419 
L 226.36011 -126.405936 
L 225.756885 -126.125454 
L 225.15366 -125.844971 
L 224.550434 -125.564489 
L 223.947209 -125.284006 
L 223.343984 -125.003523 
L 222.740759 -124.723041 
L 222.137534 -124.442558 
L 221.534309 -124.162075 
L 220.931084 -123.881593 
L 220.327859 -123.60111 
L 219.724634 -123.320628 
L 219.121409 -123.040145 
L 218.518184 -122.759662 
L 217.914959 -122.47918 
L 217.311734 -122.198697 
L 216.708508 -121.918214 
L 216.105283 -121.637732 
L 215.502058 -121.357249 
L 214.898833 -121.076767 
L 214.295608 -120.796284 
L 213.692383 -120.515801 
L 213.089158 -120.235319 
L 212.485933 -119.954836 
L 211.882708 -119.674353 
L 211.279483 -119.393871 
L 210.676258 -119.113388 
L 210.073033 -118.832906 
L 209.469808 -118.552423 
L 208.866583 -118.27194 
L 208.263357 -117.991458 
L 207.660132 -117.710975 
L 207.056907 -117.430492 
L 206.453682 -117.15001 
L 205.850457 -116.869527 
L 205.247232 -116.589045 
L 204.644007 -116.308562 
L 204.040782 -116.028079 
L 203.437557 -115.747597 
L 202.834332 -115.467114 
L 202.231107 -115.186632 
L 201.627882 -114.906149 
L 201.024657 -114.625666 
L 200.421432 -114.345184 
L 199.818206 -114.064701 
L 199.214981 -113.784218 
L 198.611756 -113.503736 
L 198.008531 -113.223253 
L 197.405306 -112.942771 
L 196.802081 -112.662288 
L 196.198856 -112.381805 
L 195.595631 -112.101323 
L 194.992406 -111.82084 
L 194.389181 -111.540357 
L 193.785956 -111.259875 
L 193.182731 -110.979392 
L 192.579506 -110.69891 
L 191.976281 -110.418427 
L 191.373055 -110.137944 
L 190.76983 -109.857462 
L 190.166605 -109.576979 
L 189.56338 -109.296496 
L 188.960155 -109.016014 
L 188.35693 -108.735531 
L 187.753705 -108.455049 
L 187.15048 -108.174566 
L 186.547255 -107.894083 
L 185.94403 -107.613601 
L 185.340805 -107.333118 
L 184.73758 -107.052635 
L 184.134355 -106.772153 
L 183.53113 -106.49167 
L 182.927904 -106.211188 
L 182.324679 -105.930705 
L 181.721454 -105.650222 
L 181.118229 -105.36974 
L 180.515004 -105.089257 
L 179.911779 -104.808774 
L 179.308554 -104.528292 
L 178.705329 -104.247809 
L 178.102104 -103.967327 
L 177.498879 -103.686844 
L 176.895654 -103.406361 
L 176.292429 -103.125879 
L 175.689204 -102.845396 
L 175.085979 -102.564913 
L 174.482753 -102.284431 
L 173.879528 -102.003948 
L 173.276303 -101.723466 
L 172.673078 -101.442983 
L 172.069853 -101.1625 
L 171.466628 -100.882018 
L 170.863403 -100.601535 
L 170.260178 -100.321053 
L 169.656953 -100.04057 
L 169.053728 -99.760087 
L 168.450503 -99.479605 
L 167.847278 -99.199122 
L 167.244053 -98.918639 
L 166.640828 -98.638157 
L 166.037602 -98.357674 
L 165.434377 -98.077192 
L 164.831152 -97.796709 
L 164.227927 -97.516226 
L 163.624702 -97.235744 
L 163.021477 -96.955261 
L 162.418252 -96.674778 
L 161.815027 -96.394296 
L 161.211802 -96.113813 
L 160.608577 -95.833331 
L 160.005352 -95.552848 
L 159.402127 -95.272365 
L 158.798902 -94.991883 
L 158.195677 -94.7114 
L 157.592451 -94.430917 
L 156.989226 -94.150435 
L 156.386001 -93.869952 
L 155.782776 -93.58947 
L 155.179551 -93.308987 
L 154.576326 -93.028504 
L 153.973101 -92.748022 
L 153.369876 -92.467539 
L 152.766651 -92.187056 
L 152.163426 -91.906574 
L 151.560201 -91.626091 
L 150.956976 -91.345609 
L 150.353751 -91.065126 
L 149.750525 -90.784643 
L 149.1473 -90.504161 
L 148.544075 -90.223678 
L 147.94085 -89.943195 
L 147.337625 -89.662713 
L 146.7344 -89.38223 
L 146.131175 -89.101748 
L 145.52795 -88.821265 
L 144.924725 -88.540782 
L 144.3215 -88.2603 
L 143.718275 -87.979817 
L 143.11505 -87.699334 
L 142.511825 -87.418852 
L 141.9086 -87.138369 
L 141.305374 -86.857887 
L 140.702149 -86.577404 
L 140.098924 -86.296921 
L 139.495699 -86.016439 
L 138.892474 -85.735956 
L 138.289249 -85.455474 
L 137.686024 -85.174991 
L 137.082799 -84.894508 
L 136.479574 -84.614026 
L 135.876349 -84.333543 
L 135.273124 -84.05306 
L 134.669899 -83.772578 
L 134.066674 -83.492095 
L 133.463449 -83.211613 
L 132.860223 -82.93113 
L 132.256998 -82.650647 
L 131.653773 -82.370165 
L 131.050548 -82.089682 
L 130.447323 -81.809199 
L 129.844098 -81.528717 
L 129.240873 -81.248234 
L 128.637648 -80.967752 
L 128.034423 -80.687269 
L 127.431198 -80.406786 
L 126.827973 -80.126304 
L 126.224748 -79.845821 
L 125.621523 -79.565338 
L 125.018298 -79.284856 
L 124.415072 -79.004373 
L 123.811847 -78.723891 
L 123.208622 -78.443408 
L 122.605397 -78.162925 
L 122.002172 -77.882443 
L 121.398947 -77.60196 
L 120.795722 -77.321477 
L 120.192497 -77.040995 
L 119.589272 -76.760512 
L 118.986047 -76.48003 
L 118.382822 -76.199547 
L 117.779597 -75.919064 
L 117.176372 -75.638582 
L 116.573147 -75.358099 
L 115.969921 -75.077616 
L 115.366696 -74.797134 
L 114.763471 -74.516651 
L 114.160246 -74.236169 
L 113.557021 -73.955686 
L 112.953796 -73.675203 
L 112.350571 -73.394721 
L 111.747346 -73.114238 
L 111.144121 -72.833756 
L 110.540896 -72.553273 
L 109.937671 -72.27279 
L 109.334446 -71.992308 
L 108.731221 -71.711825 
L 108.127996 -71.431342 
L 107.52477 -71.15086 
L 106.921545 -70.870377 
L 106.31832 -70.589895 
L 105.715095 -70.309412 
L 105.11187 -70.028929 
L 104.508645 -69.748447 
L 103.90542 -69.467964 
L 103.302195 -69.187481 
L 102.69897 -68.906999 
L 102.095745 -68.626516 
L 101.49252 -68.346034 
L 100.889295 -68.065551 
L 100.28607 -67.785068 
L 99.682845 -67.504586 
L 99.079619 -67.224103 
L 98.476394 -66.94362 
L 97.873169 -66.663138 
L 97.269944 -66.382655 
L 96.666719 -66.102173 
L 96.063494 -65.82169 
L 95.460269 -65.541207 
L 94.857044 -65.260725 
L 94.253819 -64.980242 
L 93.650594 -64.699759 
L 93.047369 -64.419277 
L 92.444144 -64.138794 
L 91.840919 -63.858312 
L 91.237694 -63.577829 
L 90.634468 -63.297346 
L 90.031243 -63.016864 
L 89.428018 -62.736381 
L 88.824793 -62.455898 
L 88.221568 -62.175416 
L 87.618343 -61.894933 
L 87.015118 -61.614451 
L 86.411893 -61.333968 
L 85.808668 -61.053485 
L 85.205443 -60.773003 
L 84.602218 -60.49252 
L 83.998993 -60.212037 
L 83.395768 -59.931555 
L 82.792542 -59.651072 
L 82.189317 -59.37059 
L 81.586092 -59.090107 
L 80.982867 -58.809624 
L 80.379642 -58.529142 
L 79.776417 -58.248659 
L 79.173192 -57.968177 
L 78.569967 -57.687694 
L 77.966742 -57.407211 
L 77.363517 -57.126729 
L 76.760292 -56.846246 
L 76.157067 -56.565763 
L 75.553842 -56.285281 
L 74.950617 -56.004798 
L 74.347391 -55.724316 
L 73.744166 -55.443833 
L 73.140941 -55.16335 
L 72.537716 -54.882868 
L 71.934491 -54.602385 
L 71.331266 -54.321902 
L 70.728041 -54.04142 
L 70.124816 -53.760937 
L 69.521591 -53.480455 
z
" style="stroke: #2ca02c; stroke-opacity: 0.18"/>
    </defs>
    <g clip-path="url(#p7b3e00c9ff)">
     <use xlink:href="#md3d6c22ab1" x="0" y="259.2" style="fill: #2ca02c; fill-opacity: 0.18; stroke: #2ca02c; stroke-opacity: 0.18"/>
    </g>
   </g>
   <g id="matplotlib.axis_1">
    <g id="xtick_1">
     <g id="line2d_1">
      <path d="M 69.521591 214.12 
L 69.521591 29.31 
" clip-path="url(#p7b3e00c9ff)" style="fill: none; stroke: #b0b0b0; stroke-opacity: 0.25; stroke-width: 0.8; stroke-linecap: square"/>
     </g>
     <g id="line2d_2">
      <defs>
       <path id="m4e127e4686" d="M 0 0 
L 0 3.5 
" style="stroke: #000000; stroke-width: 0.8"/>
      </defs>
      <g>
       <use xlink:href="#m4e127e4686" x="69.521591" y="214.12" style="stroke: #000000; stroke-width: 0.8"/>
      </g>
     </g>
     <g id="text_1">
      <!-- 0.0 -->
      <g transform="translate(60.774872 229.478281) scale(0.11 -0.11)">
       <defs>
        <path id="DejaVuSans-30" d="M 2034 4250 
Q 1547 4250 1301 3770 
Q 1056 3291 1056 2328 
Q 1056 1369 1301 889 
Q 1547 409 2034 409 
Q 2525 409 2770 889 
Q 3016 1369 3016 2328 
Q 3016 3291 2770 3770 
Q 2525 4250 2034 4250 
z
M 2034 4750 
Q 2819 4750 3233 4129 
Q 3647 3509 3647 2328 
Q 3647 1150 3233 529 
Q 2819 -91 2034 -91 
Q 1250 -91 836 529 
Q 422 1150 422 2328 
Q 422 3509 836 4129 
Q 1250 4750 2034 4750 
z
" transform="scale(0.015625)"/>
        <path id="DejaVuSans-2e" d="M 684 794 
L 1344 794 
L 1344 0 
L 684 0 
L 684 794 
z
" transform="scale(0.015625)"/>
       </defs>
       <use xlink:href="#DejaVuSans-30"/>
       <use xlink:href="#DejaVuSans-2e" x="63.623047"/>
       <use xlink:href="#DejaVuSans-30" x="95.410156"/>
      </g>
     </g>
    </g>
    <g id="xtick_2">
     <g id="line2d_3">
      <path d="M 141.787955 214.12 
L 141.787955 29.31 
" clip-path="url(#p7b3e00c9ff)" style="fill: none; stroke: #b0b0b0; stroke-opacity: 0.25; stroke-width: 0.8; stroke-linecap: square"/>
     </g>
     <g id="line2d_4">
      <g>
       <use xlink:href="#m4e127e4686" x="141.787955" y="214.12" style="stroke: #000000; stroke-width: 0.8"/>
      </g>
     </g>
     <g id="text_2">
      <!-- 0.2 -->
      <g transform="translate(133.041236 229.478281) scale(0.11 -0.11)">
       <defs>
        <path id="DejaVuSans-32" d="M 1228 531 
L 3431 531 
L 3431 0 
L 469 0 
L 469 531 
Q 828 903 1448 1529 
Q 2069 2156 2228 2338 
Q 2531 2678 2651 2914 
Q 2772 3150 2772 3378 
Q 2772 3750 2511 3984 
Q 2250 4219 1831 4219 
Q 1534 4219 1204 4116 
Q 875 4013 500 3803 
L 500 4441 
Q 881 4594 1212 4672 
Q 1544 4750 1819 4750 
Q 2544 4750 2975 4387 
Q 3406 4025 3406 3419 
Q 3406 3131 3298 2873 
Q 3191 2616 2906 2266 
Q 2828 2175 2409 1742 
Q 1991 1309 1228 531 
z
" transform="scale(0.015625)"/>
       </defs>
       <use xlink:href="#DejaVuSans-30"/>
       <use xlink:href="#DejaVuSans-2e" x="63.623047"/>
       <use xlink:href="#DejaVuSans-32" x="95.410156"/>
      </g>
     </g>
    </g>
    <g id="xtick_3">
     <g id="line2d_5">
      <path d="M 214.054318 214.12 
L 214.054318 29.31 
" clip-path="url(#p7b3e00c9ff)" style="fill: none; stroke: #b0b0b0; stroke-opacity: 0.25; stroke-width: 0.8; stroke-linecap: square"/>
     </g>
     <g id="line2d_6">
      <g>
       <use xlink:href="#m4e127e4686" x="214.054318" y="214.12" style="stroke: #000000; stroke-width: 0.8"/>
      </g>
     </g>
     <g id="text_3">
      <!-- 0.4 -->
      <g transform="translate(205.307599 229.478281) scale(0.11 -0.11)">
       <defs>
        <path id="DejaVuSans-34" d="M 2419 4116 
L 825 1625 
L 2419 1625 
L 2419 4116 
z
M 2253 4666 
L 3047 4666 
L 3047 1625 
L 3713 1625 
L 3713 1100 
L 3047 1100 
L 3047 0 
L 2419 0 
L 2419 1100 
L 313 1100 
L 313 1709 
L 2253 4666 
z
" transform="scale(0.015625)"/>
       </defs>
       <use xlink:href="#DejaVuSans-30"/>
       <use xlink:href="#DejaVuSans-2e" x="63.623047"/>
       <use xlink:href="#DejaVuSans-34" x="95.410156"/>
      </g>
     </g>
    </g>
    <g id="xtick_4">
     <g id="line2d_7">
      <path d="M 286.320682 214.12 
L 286.320682 29.31 
" clip-path="url(#p7b3e00c9ff)" style="fill: none; stroke: #b0b0b0; stroke-opacity: 0.25; stroke-width: 0.8; stroke-linecap: square"/>
     </g>
     <g id="line2d_8">
      <g>
       <use xlink:href="#m4e127e4686" x="286.320682" y="214.12" style="stroke: #000000; stroke-width: 0.8"/>
      </g>
     </g>
     <g id="text_4">
      <!-- 0.6 -->
      <g transform="translate(277.573963 229.478281) scale(0.11 -0.11)">
       <defs>
        <path id="DejaVuSans-36" d="M 2113 2584 
Q 1688 2584 1439 2293 
Q 1191 2003 1191 1497 
Q 1191 994 1439 701 
Q 1688 409 2113 409 
Q 2538 409 2786 701 
Q 3034 994 3034 1497 
Q 3034 2003 2786 2293 
Q 2538 2584 2113 2584 
z
M 3366 4563 
L 3366 3988 
Q 3128 4100 2886 4159 
Q 2644 4219 2406 4219 
Q 1781 4219 1451 3797 
Q 1122 3375 1075 2522 
Q 1259 2794 1537 2939 
Q 1816 3084 2150 3084 
Q 2853 3084 3261 2657 
Q 3669 2231 3669 1497 
Q 3669 778 3244 343 
Q 2819 -91 2113 -91 
Q 1303 -91 875 529 
Q 447 1150 447 2328 
Q 447 3434 972 4092 
Q 1497 4750 2381 4750 
Q 2619 4750 2861 4703 
Q 3103 4656 3366 4563 
z
" transform="scale(0.015625)"/>
       </defs>
       <use xlink:href="#DejaVuSans-30"/>
       <use xlink:href="#DejaVuSans-2e" x="63.623047"/>
       <use xlink:href="#DejaVuSans-36" x="95.410156"/>
      </g>
     </g>
    </g>
    <g id="xtick_5">
     <g id="line2d_9">
      <path d="M 358.587045 214.12 
L 358.587045 29.31 
" clip-path="url(#p7b3e00c9ff)" style="fill: none; stroke: #b0b0b0; stroke-opacity: 0.25; stroke-width: 0.8; stroke-linecap: square"/>
     </g>
     <g id="line2d_10">
      <g>
       <use xlink:href="#m4e127e4686" x="358.587045" y="214.12" style="stroke: #000000; stroke-width: 0.8"/>
      </g>
     </g>
     <g id="text_5">
      <!-- 0.8 -->
      <g transform="translate(349.840327 229.478281) scale(0.11 -0.11)">
       <defs>
        <path id="DejaVuSans-38" d="M 2034 2216 
Q 1584 2216 1326 1975 
Q 1069 1734 1069 1313 
Q 1069 891 1326 650 
Q 1584 409 2034 409 
Q 2484 409 2743 651 
Q 3003 894 3003 1313 
Q 3003 1734 2745 1975 
Q 2488 2216 2034 2216 
z
M 1403 2484 
Q 997 2584 770 2862 
Q 544 3141 544 3541 
Q 544 4100 942 4425 
Q 1341 4750 2034 4750 
Q 2731 4750 3128 4425 
Q 3525 4100 3525 3541 
Q 3525 3141 3298 2862 
Q 3072 2584 2669 2484 
Q 3125 2378 3379 2068 
Q 3634 1759 3634 1313 
Q 3634 634 3220 271 
Q 2806 -91 2034 -91 
Q 1263 -91 848 271 
Q 434 634 434 1313 
Q 434 1759 690 2068 
Q 947 2378 1403 2484 
z
M 1172 3481 
Q 1172 3119 1398 2916 
Q 1625 2713 2034 2713 
Q 2441 2713 2670 2916 
Q 2900 3119 2900 3481 
Q 2900 3844 2670 4047 
Q 2441 4250 2034 4250 
Q 1625 4250 1398 4047 
Q 1172 3844 1172 3481 
z
" transform="scale(0.015625)"/>
       </defs>
       <use xlink:href="#DejaVuSans-30"/>
       <use xlink:href="#DejaVuSans-2e" x="63.623047"/>
       <use xlink:href="#DejaVuSans-38" x="95.410156"/>
      </g>
     </g>
    </g>
    <g id="xtick_6">
     <g id="line2d_11">
      <path d="M 430.853409 214.12 
L 430.853409 29.31 
" clip-path="url(#p7b3e00c9ff)" style="fill: none; stroke: #b0b0b0; stroke-opacity: 0.25; stroke-width: 0.8; stroke-linecap: square"/>
     </g>
     <g id="line2d_12">
      <g>
       <use xlink:href="#m4e127e4686" x="430.853409" y="214.12" style="stroke: #000000; stroke-width: 0.8"/>
      </g>
     </g>
     <g id="text_6">
      <!-- 1.0 -->
      <g transform="translate(422.10669 229.478281) scale(0.11 -0.11)">
       <defs>
        <path id="DejaVuSans-31" d="M 794 531 
L 1825 531 
L 1825 4091 
L 703 3866 
L 703 4441 
L 1819 4666 
L 2450 4666 
L 2450 531 
L 3481 531 
L 3481 0 
L 794 0 
L 794 531 
z
" transform="scale(0.015625)"/>
       </defs>
       <use xlink:href="#DejaVuSans-31"/>
       <use xlink:href="#DejaVuSans-2e" x="63.623047"/>
       <use xlink:href="#DejaVuSans-30" x="95.410156"/>
      </g>
     </g>
    </g>
    <g id="text_7">
     <!-- x -->
     <g transform="translate(246.932188 244.124219) scale(0.11 -0.11)">
      <defs>
       <path id="DejaVuSans-78" d="M 3513 3500 
L 2247 1797 
L 3578 0 
L 2900 0 
L 1881 1375 
L 863 0 
L 184 0 
L 1544 1831 
L 300 3500 
L 978 3500 
L 1906 2253 
L 2834 3500 
L 3513 3500 
z
" transform="scale(0.015625)"/>
      </defs>
      <use xlink:href="#DejaVuSans-78"/>
     </g>
    </g>
   </g>
   <g id="matplotlib.axis_2">
    <g id="ytick_1">
     <g id="line2d_13">
      <path d="M 51.455 205.719545 
L 448.92 205.719545 
" clip-path="url(#p7b3e00c9ff)" style="fill: none; stroke: #b0b0b0; stroke-opacity: 0.25; stroke-width: 0.8; stroke-linecap: square"/>
     </g>
     <g id="line2d_14">
      <defs>
       <path id="m9541f32031" d="M 0 0 
L -3.5 0 
" style="stroke: #000000; stroke-width: 0.8"/>
      </defs>
      <g>
       <use xlink:href="#m9541f32031" x="51.455" y="205.719545" style="stroke: #000000; stroke-width: 0.8"/>
      </g>
     </g>
     <g id="text_8">
      <!-- 0.0 -->
      <g transform="translate(26.961563 209.898686) scale(0.11 -0.11)">
       <use xlink:href="#DejaVuSans-30"/>
       <use xlink:href="#DejaVuSans-2e" x="63.623047"/>
       <use xlink:href="#DejaVuSans-30" x="95.410156"/>
      </g>
     </g>
    </g>
    <g id="ytick_2">
     <g id="line2d_15">
      <path d="M 51.455 172.117727 
L 448.92 172.117727 
" clip-path="url(#p7b3e00c9ff)" style="fill: none; stroke: #b0b0b0; stroke-opacity: 0.25; stroke-width: 0.8; stroke-linecap: square"/>
     </g>
     <g id="line2d_16">
      <g>
       <use xlink:href="#m9541f32031" x="51.455" y="172.117727" style="stroke: #000000; stroke-width: 0.8"/>
      </g>
     </g>
     <g id="text_9">
      <!-- 0.2 -->
      <g transform="translate(26.961563 176.296868) scale(0.11 -0.11)">
       <use xlink:href="#DejaVuSans-30"/>
       <use xlink:href="#DejaVuSans-2e" x="63.623047"/>
       <use xlink:href="#DejaVuSans-32" x="95.410156"/>
      </g>
     </g>
    </g>
    <g id="ytick_3">
     <g id="line2d_17">
      <path d="M 51.455 138.515909 
L 448.92 138.515909 
" clip-path="url(#p7b3e00c9ff)" style="fill: none; stroke: #b0b0b0; stroke-opacity: 0.25; stroke-width: 0.8; stroke-linecap: square"/>
     </g>
     <g id="line2d_18">
      <g>
       <use xlink:href="#m9541f32031" x="51.455" y="138.515909" style="stroke: #000000; stroke-width: 0.8"/>
      </g>
     </g>
     <g id="text_10">
      <!-- 0.4 -->
      <g transform="translate(26.961563 142.69505) scale(0.11 -0.11)">
       <use xlink:href="#DejaVuSans-30"/>
       <use xlink:href="#DejaVuSans-2e" x="63.623047"/>
       <use xlink:href="#DejaVuSans-34" x="95.410156"/>
      </g>
     </g>
    </g>
    <g id="ytick_4">
     <g id="line2d_19">
      <path d="M 51.455 104.914091 
L 448.92 104.914091 
" clip-path="url(#p7b3e00c9ff)" style="fill: none; stroke: #b0b0b0; stroke-opacity: 0.25; stroke-width: 0.8; stroke-linecap: square"/>
     </g>
     <g id="line2d_20">
      <g>
       <use xlink:href="#m9541f32031" x="51.455" y="104.914091" style="stroke: #000000; stroke-width: 0.8"/>
      </g>
     </g>
     <g id="text_11">
      <!-- 0.6 -->
      <g transform="translate(26.961563 109.093232) scale(0.11 -0.11)">
       <use xlink:href="#DejaVuSans-30"/>
       <use xlink:href="#DejaVuSans-2e" x="63.623047"/>
       <use xlink:href="#DejaVuSans-36" x="95.410156"/>
      </g>
     </g>
    </g>
    <g id="ytick_5">
     <g id="line2d_21">
      <path d="M 51.455 71.312273 
L 448.92 71.312273 
" clip-path="url(#p7b3e00c9ff)" style="fill: none; stroke: #b0b0b0; stroke-opacity: 0.25; stroke-width: 0.8; stroke-linecap: square"/>
     </g>
     <g id="line2d_22">
      <g>
       <use xlink:href="#m9541f32031" x="51.455" y="71.312273" style="stroke: #000000; stroke-width: 0.8"/>
      </g>
     </g>
     <g id="text_12">
      <!-- 0.8 -->
      <g transform="translate(26.961563 75.491413) scale(0.11 -0.11)">
       <use xlink:href="#DejaVuSans-30"/>
       <use xlink:href="#DejaVuSans-2e" x="63.623047"/>
       <use xlink:href="#DejaVuSans-38" x="95.410156"/>
      </g>
     </g>
    </g>
    <g id="ytick_6">
     <g id="line2d_23">
      <path d="M 51.455 37.710455 
L 448.92 37.710455 
" clip-path="url(#p7b3e00c9ff)" style="fill: none; stroke: #b0b0b0; stroke-opacity: 0.25; stroke-width: 0.8; stroke-linecap: square"/>
     </g>
     <g id="line2d_24">
      <g>
       <use xlink:href="#m9541f32031" x="51.455" y="37.710455" style="stroke: #000000; stroke-width: 0.8"/>
      </g>
     </g>
     <g id="text_13">
      <!-- 1.0 -->
      <g transform="translate(26.961563 41.889595) scale(0.11 -0.11)">
       <use xlink:href="#DejaVuSans-31"/>
       <use xlink:href="#DejaVuSans-2e" x="63.623047"/>
       <use xlink:href="#DejaVuSans-30" x="95.410156"/>
      </g>
     </g>
    </g>
    <g id="text_14">
     <!-- y -->
     <g transform="translate(20.673906 124.970313) rotate(-90) scale(0.11 -0.11)">
      <defs>
       <path id="DejaVuSans-79" d="M 2059 -325 
Q 1816 -950 1584 -1140 
Q 1353 -1331 966 -1331 
L 506 -1331 
L 506 -850 
L 844 -850 
Q 1081 -850 1212 -737 
Q 1344 -625 1503 -206 
L 1606 56 
L 191 3500 
L 800 3500 
L 1894 763 
L 2988 3500 
L 3597 3500 
L 2059 -325 
z
" transform="scale(0.015625)"/>
      </defs>
      <use xlink:href="#DejaVuSans-79"/>
     </g>
    </g>
   </g>
   <g id="line2d_25">
    <path d="M 69.521591 205.719545 
L 430.853409 37.710455 
L 430.853409 37.710455 
" clip-path="url(#p7b3e00c9ff)" style="fill: none; stroke: #1f77b4; stroke-width: 1.5; stroke-linecap: square"/>
   </g>
   <g id="line2d_26">
    <path d="M 69.521591 205.719545 
L 78.569967 205.614189 
L 87.618343 205.298119 
L 96.666719 204.771336 
L 105.715095 204.03384 
L 114.763471 203.085631 
L 123.811847 201.926709 
L 132.860223 200.557073 
L 142.511825 198.863876 
L 152.163426 196.930934 
L 161.815027 194.758247 
L 171.466628 192.345816 
L 181.118229 189.693639 
L 190.76983 186.801718 
L 200.421432 183.670053 
L 210.073033 180.298642 
L 219.724634 176.687487 
L 229.376235 172.836587 
L 239.027836 168.745942 
L 248.679437 164.415553 
L 258.331038 159.845418 
L 267.98264 155.03554 
L 277.634241 149.985916 
L 287.285842 144.696547 
L 297.540668 138.813904 
L 307.795494 132.660612 
L 318.050321 126.23667 
L 328.305147 119.542079 
L 338.559973 112.576839 
L 348.814799 105.340949 
L 359.069626 97.83441 
L 369.324452 90.057221 
L 379.579278 82.009384 
L 389.834104 73.690896 
L 400.692155 64.588088 
L 411.550207 55.181853 
L 422.408258 45.472191 
L 430.853409 37.710455 
L 430.853409 37.710455 
" clip-path="url(#p7b3e00c9ff)" style="fill: none; stroke: #ff7f0e; stroke-width: 1.5; stroke-linecap: square"/>
   </g>
   <g id="patch_3">
    <path d="M 51.455 214.12 
L 51.455 29.31 
" style="fill: none; stroke: #000000; stroke-width: 0.8; stroke-linejoin: miter; stroke-linecap: square"/>
   </g>
   <g id="patch_4">
    <path d="M 51.455 214.12 
L 448.92 214.12 
" style="fill: none; stroke: #000000; stroke-width: 0.8; stroke-linejoin: miter; stroke-linecap: square"/>
   </g>
   <g id="text_15">
    <!-- Area tra $x$ e $x^2$ su $[0,1]$ -->
    <g transform="translate(180.0475 23.31) scale(0.12 -0.12)">
     <defs>
      <path id="DejaVuSans-41" d="M 2188 4044 
L 1331 1722 
L 3047 1722 
L 2188 4044 
z
M 1831 4666 
L 2547 4666 
L 4325 0 
L 3669 0 
L 3244 1197 
L 1141 1197 
L 716 0 
L 50 0 
L 1831 4666 
z
" transform="scale(0.015625)"/>
      <path id="DejaVuSans-72" d="M 2631 2963 
Q 2534 3019 2420 3045 
Q 2306 3072 2169 3072 
Q 1681 3072 1420 2755 
Q 1159 2438 1159 1844 
L 1159 0 
L 581 0 
L 581 3500 
L 1159 3500 
L 1159 2956 
Q 1341 3275 1631 3429 
Q 1922 3584 2338 3584 
Q 2397 3584 2469 3576 
Q 2541 3569 2628 3553 
L 2631 2963 
z
" transform="scale(0.015625)"/>
      <path id="DejaVuSans-65" d="M 3597 1894 
L 3597 1613 
L 953 1613 
Q 991 1019 1311 708 
Q 1631 397 2203 397 
Q 2534 397 2845 478 
Q 3156 559 3463 722 
L 3463 178 
Q 3153 47 2828 -22 
Q 2503 -91 2169 -91 
Q 1331 -91 842 396 
Q 353 884 353 1716 
Q 353 2575 817 3079 
Q 1281 3584 2069 3584 
Q 2775 3584 3186 3129 
Q 3597 2675 3597 1894 
z
M 3022 2063 
Q 3016 2534 2758 2815 
Q 2500 3097 2075 3097 
Q 1594 3097 1305 2825 
Q 1016 2553 972 2059 
L 3022 2063 
z
" transform="scale(0.015625)"/>
      <path id="DejaVuSans-61" d="M 2194 1759 
Q 1497 1759 1228 1600 
Q 959 1441 959 1056 
Q 959 750 1161 570 
Q 1363 391 1709 391 
Q 2188 391 2477 730 
Q 2766 1069 2766 1631 
L 2766 1759 
L 2194 1759 
z
M 3341 1997 
L 3341 0 
L 2766 0 
L 2766 531 
Q 2569 213 2275 61 
Q 1981 -91 1556 -91 
Q 1019 -91 701 211 
Q 384 513 384 1019 
Q 384 1609 779 1909 
Q 1175 2209 1959 2209 
L 2766 2209 
L 2766 2266 
Q 2766 2663 2505 2880 
Q 2244 3097 1772 3097 
Q 1472 3097 1187 3025 
Q 903 2953 641 2809 
L 641 3341 
Q 956 3463 1253 3523 
Q 1550 3584 1831 3584 
Q 2591 3584 2966 3190 
Q 3341 2797 3341 1997 
z
" transform="scale(0.015625)"/>
      <path id="DejaVuSans-20" transform="scale(0.015625)"/>
      <path id="DejaVuSans-74" d="M 1172 4494 
L 1172 3500 
L 2356 3500 
L 2356 3053 
L 1172 3053 
L 1172 1153 
Q 1172 725 1289 603 
Q 1406 481 1766 481 
L 2356 481 
L 2356 0 
L 1766 0 
Q 1100 0 847 248 
Q 594 497 594 1153 
L 594 3053 
L 172 3053 
L 172 3500 
L 594 3500 
L 594 4494 
L 1172 4494 
z
" transform="scale(0.015625)"/>
      <path id="DejaVuSans-Oblique-78" d="M 3841 3500 
L 2234 1784 
L 3219 0 
L 2559 0 
L 1819 1388 
L 531 0 
L -166 0 
L 1556 1844 
L 641 3500 
L 1300 3500 
L 1972 2234 
L 3144 3500 
L 3841 3500 
z
" transform="scale(0.015625)"/>
      <path id="DejaVuSans-73" d="M 2834 3397 
L 2834 2853 
Q 2591 2978 2328 3040 
Q 2066 3103 1784 3103 
Q 1356 3103 1142 2972 
Q 928 2841 928 2578 
Q 928 2378 1081 2264 
Q 1234 2150 1697 2047 
L 1894 2003 
Q 2506 1872 2764 1633 
Q 3022 1394 3022 966 
Q 3022 478 2636 193 
Q 2250 -91 1575 -91 
Q 1294 -91 989 -36 
Q 684 19 347 128 
L 347 722 
Q 666 556 975 473 
Q 1284 391 1588 391 
Q 1994 391 2212 530 
Q 2431 669 2431 922 
Q 2431 1156 2273 1281 
Q 2116 1406 1581 1522 
L 1381 1569 
Q 847 1681 609 1914 
Q 372 2147 372 2553 
Q 372 3047 722 3315 
Q 1072 3584 1716 3584 
Q 2034 3584 2315 3537 
Q 2597 3491 2834 3397 
z
" transform="scale(0.015625)"/>
      <path id="DejaVuSans-75" d="M 544 1381 
L 544 3500 
L 1119 3500 
L 1119 1403 
Q 1119 906 1312 657 
Q 1506 409 1894 409 
Q 2359 409 2629 706 
Q 2900 1003 2900 1516 
L 2900 3500 
L 3475 3500 
L 3475 0 
L 2900 0 
L 2900 538 
Q 2691 219 2414 64 
Q 2138 -91 1772 -91 
Q 1169 -91 856 284 
Q 544 659 544 1381 
z
M 1991 3584 
L 1991 3584 
z
" transform="scale(0.015625)"/>
      <path id="DejaVuSans-5b" d="M 550 4863 
L 1875 4863 
L 1875 4416 
L 1125 4416 
L 1125 -397 
L 1875 -397 
L 1875 -844 
L 550 -844 
L 550 4863 
z
" transform="scale(0.015625)"/>
      <path id="DejaVuSans-2c" d="M 750 794 
L 1409 794 
L 1409 256 
L 897 -744 
L 494 -744 
L 750 256 
L 750 794 
z
" transform="scale(0.015625)"/>
      <path id="DejaVuSans-5d" d="M 1947 4863 
L 1947 -844 
L 622 -844 
L 622 -397 
L 1369 -397 
L 1369 4416 
L 622 4416 
L 622 4863 
L 1947 4863 
z
" transform="scale(0.015625)"/>
     </defs>
     <use xlink:href="#DejaVuSans-41" transform="translate(0 0.765625)"/>
     <use xlink:href="#DejaVuSans-72" transform="translate(68.408203 0.765625)"/>
     <use xlink:href="#DejaVuSans-65" transform="translate(109.521484 0.765625)"/>
     <use xlink:href="#DejaVuSans-61" transform="translate(171.044922 0.765625)"/>
     <use xlink:href="#DejaVuSans-20" transform="translate(232.324219 0.765625)"/>
     <use xlink:href="#DejaVuSans-74" transform="translate(264.111328 0.765625)"/>
     <use xlink:href="#DejaVuSans-72" transform="translate(303.320312 0.765625)"/>
     <use xlink:href="#DejaVuSans-61" transform="translate(344.433594 0.765625)"/>
     <use xlink:href="#DejaVuSans-20" transform="translate(405.712891 0.765625)"/>
     <use xlink:href="#DejaVuSans-Oblique-78" transform="translate(437.5 0.765625)"/>
     <use xlink:href="#DejaVuSans-20" transform="translate(496.679688 0.765625)"/>
     <use xlink:href="#DejaVuSans-65" transform="translate(528.466797 0.765625)"/>
     <use xlink:href="#DejaVuSans-20" transform="translate(589.990234 0.765625)"/>
     <use xlink:href="#DejaVuSans-Oblique-78" transform="translate(621.777344 0.765625)"/>
     <use xlink:href="#DejaVuSans-32" transform="translate(685.423177 39.046875) scale(0.7)"/>
     <use xlink:href="#DejaVuSans-20" transform="translate(732.693685 0.765625)"/>
     <use xlink:href="#DejaVuSans-73" transform="translate(764.480794 0.765625)"/>
     <use xlink:href="#DejaVuSans-75" transform="translate(816.580404 0.765625)"/>
     <use xlink:href="#DejaVuSans-20" transform="translate(879.95931 0.765625)"/>
     <use xlink:href="#DejaVuSans-5b" transform="translate(911.746419 0.765625)"/>
     <use xlink:href="#DejaVuSans-30" transform="translate(950.760091 0.765625)"/>
     <use xlink:href="#DejaVuSans-2c" transform="translate(1014.383138 0.765625)"/>
     <use xlink:href="#DejaVuSans-31" transform="translate(1065.652669 0.765625)"/>
     <use xlink:href="#DejaVuSans-5d" transform="translate(1129.275716 0.765625)"/>
    </g>
   </g>
   <g id="legend_1">
    <g id="line2d_27">
     <path d="M 61.355 43.718281 
L 72.355 43.718281 
L 83.355 43.718281 
" style="fill: none; stroke: #1f77b4; stroke-width: 1.5; stroke-linecap: square"/>
    </g>
    <g id="text_16">
     <!-- $f(x)=x$ -->
     <g transform="translate(92.155 47.568281) scale(0.11 -0.11)">
      <defs>
       <path id="DejaVuSans-Oblique-66" d="M 3059 4863 
L 2969 4384 
L 2419 4384 
Q 2106 4384 1964 4261 
Q 1822 4138 1753 3809 
L 1691 3500 
L 2638 3500 
L 2553 3053 
L 1606 3053 
L 1013 0 
L 434 0 
L 1031 3053 
L 481 3053 
L 563 3500 
L 1113 3500 
L 1159 3744 
Q 1278 4363 1576 4613 
Q 1875 4863 2516 4863 
L 3059 4863 
z
" transform="scale(0.015625)"/>
       <path id="DejaVuSans-28" d="M 1984 4856 
Q 1566 4138 1362 3434 
Q 1159 2731 1159 2009 
Q 1159 1288 1364 580 
Q 1569 -128 1984 -844 
L 1484 -844 
Q 1016 -109 783 600 
Q 550 1309 550 2009 
Q 550 2706 781 3412 
Q 1013 4119 1484 4856 
L 1984 4856 
z
" transform="scale(0.015625)"/>
       <path id="DejaVuSans-29" d="M 513 4856 
L 1013 4856 
Q 1481 4119 1714 3412 
Q 1947 2706 1947 2009 
Q 1947 1309 1714 600 
Q 1481 -109 1013 -844 
L 513 -844 
Q 928 -128 1133 580 
Q 1338 1288 1338 2009 
Q 1338 2731 1133 3434 
Q 928 4138 513 4856 
z
" transform="scale(0.015625)"/>
       <path id="DejaVuSans-3d" d="M 678 2906 
L 4684 2906 
L 4684 2381 
L 678 2381 
L 678 2906 
z
M 678 1631 
L 4684 1631 
L 4684 1100 
L 678 1100 
L 678 1631 
z
" transform="scale(0.015625)"/>
      </defs>
      <use xlink:href="#DejaVuSans-Oblique-66" transform="translate(0 0.015625)"/>
      <use xlink:href="#DejaVuSans-28" transform="translate(35.205078 0.015625)"/>
      <use xlink:href="#DejaVuSans-Oblique-78" transform="translate(74.21875 0.015625)"/>
      <use xlink:href="#DejaVuSans-29" transform="translate(133.398438 0.015625)"/>
      <use xlink:href="#DejaVuSans-3d" transform="translate(191.894531 0.015625)"/>
      <use xlink:href="#DejaVuSans-Oblique-78" transform="translate(295.166016 0.015625)"/>
     </g>
    </g>
    <g id="line2d_28">
     <path d="M 61.355 61.515938 
L 72.355 61.515938 
L 83.355 61.515938 
" style="fill: none; stroke: #ff7f0e; stroke-width: 1.5; stroke-linecap: square"/>
    </g>
    <g id="text_17">
     <!-- $g(x)=x^2$ -->
     <g transform="translate(92.155 65.365938) scale(0.11 -0.11)">
      <defs>
       <path id="DejaVuSans-Oblique-67" d="M 3816 3500 
L 3219 434 
Q 3047 -456 2561 -893 
Q 2075 -1331 1253 -1331 
Q 950 -1331 690 -1286 
Q 431 -1241 206 -1147 
L 313 -588 
Q 525 -725 762 -790 
Q 1000 -856 1269 -856 
Q 1816 -856 2167 -557 
Q 2519 -259 2631 300 
L 2681 563 
Q 2441 288 2122 144 
Q 1803 0 1434 0 
Q 903 0 598 351 
Q 294 703 294 1319 
Q 294 1803 478 2267 
Q 663 2731 997 3091 
Q 1219 3328 1514 3456 
Q 1809 3584 2131 3584 
Q 2484 3584 2746 3420 
Q 3009 3256 3138 2956 
L 3238 3500 
L 3816 3500 
z
M 2950 2216 
Q 2950 2641 2750 2872 
Q 2550 3103 2181 3103 
Q 1953 3103 1747 3012 
Q 1541 2922 1394 2759 
Q 1156 2491 1023 2127 
Q 891 1763 891 1375 
Q 891 944 1092 712 
Q 1294 481 1672 481 
Q 2219 481 2584 976 
Q 2950 1472 2950 2216 
z
" transform="scale(0.015625)"/>
      </defs>
      <use xlink:href="#DejaVuSans-Oblique-67" transform="translate(0 0.765625)"/>
      <use xlink:href="#DejaVuSans-28" transform="translate(63.476562 0.765625)"/>
      <use xlink:href="#DejaVuSans-Oblique-78" transform="translate(102.490234 0.765625)"/>
      <use xlink:href="#DejaVuSans-29" transform="translate(161.669922 0.765625)"/>
      <use xlink:href="#DejaVuSans-3d" transform="translate(220.166016 0.765625)"/>
      <use xlink:href="#DejaVuSans-Oblique-78" transform="translate(323.4375 0.765625)"/>
      <use xlink:href="#DejaVuSans-32" transform="translate(387.083333 39.046875) scale(0.7)"/>
     </g>
    </g>
    <g id="patch_5">
     <path d="M 61.355 81.534219 
L 83.355 81.534219 
L 83.355 73.834219 
L 61.355 73.834219 
z
" style="fill: #2ca02c; fill-opacity: 0.18; stroke: #2ca02c; stroke-opacity: 0.18; stroke-linejoin: miter"/>
    </g>
    <g id="text_18">
     <!-- area tra le curve -->
     <g transform="translate(92.155 81.534219) scale(0.11 -0.11)">
      <defs>
       <path id="DejaVuSans-6c" d="M 603 4863 
L 1178 4863 
L 1178 0 
L 603 0 
L 603 4863 
z
" transform="scale(0.015625)"/>
       <path id="DejaVuSans-63" d="M 3122 3366 
L 3122 2828 
Q 2878 2963 2633 3030 
Q 2388 3097 2138 3097 
Q 1578 3097 1268 2742 
Q 959 2388 959 1747 
Q 959 1106 1268 751 
Q 1578 397 2138 397 
Q 2388 397 2633 464 
Q 2878 531 3122 666 
L 3122 134 
Q 2881 22 2623 -34 
Q 2366 -91 2075 -91 
Q 1284 -91 818 406 
Q 353 903 353 1747 
Q 353 2603 823 3093 
Q 1294 3584 2113 3584 
Q 2378 3584 2631 3529 
Q 2884 3475 3122 3366 
z
" transform="scale(0.015625)"/>
       <path id="DejaVuSans-76" d="M 191 3500 
L 800 3500 
L 1894 563 
L 2988 3500 
L 3597 3500 
L 2284 0 
L 1503 0 
L 191 3500 
z
" transform="scale(0.015625)"/>
      </defs>
      <use xlink:href="#DejaVuSans-61"/>
      <use xlink:href="#DejaVuSans-72" x="61.279297"/>
      <use xlink:href="#DejaVuSans-65" x="100.142578"/>
      <use xlink:href="#DejaVuSans-61" x="161.666016"/>
      <use xlink:href="#DejaVuSans-20" x="222.945312"/>
      <use xlink:href="#DejaVuSans-74" x="254.732422"/>
      <use xlink:href="#DejaVuSans-72" x="293.941406"/>
      <use xlink:href="#DejaVuSans-61" x="335.054688"/>
      <use xlink:href="#DejaVuSans-20" x="396.333984"/>
      <use xlink:href="#DejaVuSans-6c" x="428.121094"/>
      <use xlink:href="#DejaVuSans-65" x="455.904297"/>
      <use xlink:href="#DejaVuSans-20" x="517.427734"/>
      <use xlink:href="#DejaVuSans-63" x="549.214844"/>
      <use xlink:href="#DejaVuSans-75" x="604.195312"/>
      <use xlink:href="#DejaVuSans-72" x="667.574219"/>
      <use xlink:href="#DejaVuSans-76" x="708.6875"/>
      <use xlink:href="#DejaVuSans-65" x="767.867188"/>
     </g>
    </g>
   </g>
  </g>
 </g>
 <defs>
  <clipPath id="p7b3e00c9ff">
   <rect x="51.455" y="29.31" width="397.465" height="184.81"/>
  </clipPath>
 </defs>
</svg>
