<?xml version="1.0" encoding="utf-8" standalone="no"?>
<!DOCTYPE svg PUBLIC "-//W3C//DTD SVG 1.1//EN"
  "http://www.w3.org/Graphics/SVG/1.1/DTD/svg11.dtd">
<svg xmlns:xlink="http://www.w3.org/1999/xlink" width="576pt" height="259.2pt" viewBox="0 0 576 259.2" xmlns="http://www.w3.org/2000/svg" version="1.1">
 <metadata>
  <rdf:RDF xmlns:dc="http://purl.org/dc/elements/1.1/" xmlns:cc="http://creativecommons.org/ns#" xmlns:rdf="http://www.w3.org/1999/02/22-rdf-syntax-ns#">
   <cc:Work>
    <dc:type rdf:resource="http://purl.org/dc/dcmitype/StillImage"/>
    <dc:date>2025-12-15T08:30:18.747010</dc:date>
    <dc:format>image/svg+xml</dc:format>
    <dc:creator>
     <cc:Agent>
      <dc:title>Matplotlib v3.8.2, https://matplotlib.org/</dc:title>
     </cc:Agent>
    </dc:creator>
   </cc:Work>
  </rdf:RDF>
 </metadata>
 <defs>
  <style type="text/css">*{stroke-linejoin: round; stroke-linecap: butt}</style>
 </defs>
 <g id="figure_1">
  <g id="patch_1">
   <path d="M 0 259.2 
L 576 259.2 
L 576 0 
L 0 0 
z
" style="fill: #ffffff"/>
  </g>
  <g id="axes_1">
   <g id="patch_2">
    <path d="M 90.884481 71.208 
Q 146.973333 71.208 201.385133 71.208 
" clip-path="url(#p579da6df59)" style="fill: none; stroke: #1f77b4; stroke-width: 1.5; stroke-linecap: round"/>
    <path d="M 196.585133 68.808 
L 201.385133 71.208 
L 196.585133 73.608 
z
" clip-path="url(#p579da6df59)" style="fill: #1f77b4; stroke: #1f77b4; stroke-width: 1.5; stroke-linecap: round"/>
   </g>
   <g id="patch_3">
    <path d="M 90.849026 137.622857 
Q 146.972722 148.257516 201.448687 158.579953 
" clip-path="url(#p579da6df59)" style="fill: none; stroke: #1f77b4; stroke-width: 1.5; stroke-linecap: round"/>
    <path d="M 197.179422 155.32828 
L 201.448687 158.579953 
L 196.28579 160.044362 
z
" clip-path="url(#p579da6df59)" style="fill: #1f77b4; stroke: #1f77b4; stroke-width: 1.5; stroke-linecap: round"/>
   </g>
   <g id="patch_4">
    <path d="M 90.884481 203.292 
Q 146.973333 203.292 201.385133 203.292 
" clip-path="url(#p579da6df59)" style="fill: none; stroke: #1f77b4; stroke-width: 1.5; stroke-linecap: round"/>
    <path d="M 196.585133 200.892 
L 201.385133 203.292 
L 196.585133 205.692 
z
" clip-path="url(#p579da6df59)" style="fill: #1f77b4; stroke: #1f77b4; stroke-width: 1.5; stroke-linecap: round"/>
   </g>
   <g id="PathCollection_1">
    <defs>
     <path id="md676f00149" d="M 0 7.416198 
C 1.966799 7.416198 3.853307 6.634781 5.244044 5.244044 
C 6.634781 3.853307 7.416198 1.966799 7.416198 0 
C 7.416198 -1.966799 6.634781 -3.853307 5.244044 -5.244044 
C 3.853307 -6.634781 1.966799 -7.416198 0 -7.416198 
C -1.966799 -7.416198 -3.853307 -6.634781 -5.244044 -5.244044 
C -6.634781 -3.853307 -7.416198 -1.966799 -7.416198 0 
C -7.416198 1.966799 -6.634781 3.853307 -5.244044 5.244044 
C -3.853307 6.634781 -1.966799 7.416198 0 7.416198 
z
" style="stroke: #000000"/>
    </defs>
    <g clip-path="url(#p579da6df59)">
     <use xlink:href="#md676f00149" x="79.425" y="71.208" style="fill: #ffffff; stroke: #000000"/>
    </g>
   </g>
   <g id="text_1">
    <!-- 1 -->
    <g transform="translate(75.925625 74.243312) scale(0.11 -0.11)">
     <defs>
      <path id="DejaVuSans-31" d="M 794 531 
L 1825 531 
L 1825 4091 
L 703 3866 
L 703 4441 
L 1819 4666 
L 2450 4666 
L 2450 531 
L 3481 531 
L 3481 0 
L 794 0 
L 794 531 
z
" transform="scale(0.015625)"/>
     </defs>
     <use xlink:href="#DejaVuSans-31"/>
    </g>
   </g>
   <g id="PathCollection_2">
    <g clip-path="url(#p579da6df59)">
     <use xlink:href="#md676f00149" x="79.425" y="137.25" style="fill: #ffffff; stroke: #000000"/>
    </g>
   </g>
   <g id="text_2">
    <!-- 2 -->
    <g transform="translate(75.925625 140.285312) scale(0.11 -0.11)">
     <defs>
      <path id="DejaVuSans-32" d="M 1228 531 
L 3431 531 
L 3431 0 
L 469 0 
L 469 531 
Q 828 903 1448 1529 
Q 2069 2156 2228 2338 
Q 2531 2678 2651 2914 
Q 2772 3150 2772 3378 
Q 2772 3750 2511 3984 
Q 2250 4219 1831 4219 
Q 1534 4219 1204 4116 
Q 875 4013 500 3803 
L 500 4441 
Q 881 4594 1212 4672 
Q 1544 4750 1819 4750 
Q 2544 4750 2975 4387 
Q 3406 4025 3406 3419 
Q 3406 3131 3298 2873 
Q 3191 2616 2906 2266 
Q 2828 2175 2409 1742 
Q 1991 1309 1228 531 
z
" transform="scale(0.015625)"/>
     </defs>
     <use xlink:href="#DejaVuSans-32"/>
    </g>
   </g>
   <g id="PathCollection_3">
    <g clip-path="url(#p579da6df59)">
     <use xlink:href="#md676f00149" x="79.425" y="203.292" style="fill: #ffffff; stroke: #000000"/>
    </g>
   </g>
   <g id="text_3">
    <!-- 3 -->
    <g transform="translate(75.925625 206.327312) scale(0.11 -0.11)">
     <defs>
      <path id="DejaVuSans-33" d="M 2597 2516 
Q 3050 2419 3304 2112 
Q 3559 1806 3559 1356 
Q 3559 666 3084 287 
Q 2609 -91 1734 -91 
Q 1441 -91 1130 -33 
Q 819 25 488 141 
L 488 750 
Q 750 597 1062 519 
Q 1375 441 1716 441 
Q 2309 441 2620 675 
Q 2931 909 2931 1356 
Q 2931 1769 2642 2001 
Q 2353 2234 1838 2234 
L 1294 2234 
L 1294 2753 
L 1863 2753 
Q 2328 2753 2575 2939 
Q 2822 3125 2822 3475 
Q 2822 3834 2567 4026 
Q 2313 4219 1838 4219 
Q 1578 4219 1281 4162 
Q 984 4106 628 3988 
L 628 4550 
Q 988 4650 1302 4700 
Q 1616 4750 1894 4750 
Q 2613 4750 3031 4423 
Q 3450 4097 3450 3541 
Q 3450 3153 3228 2886 
Q 3006 2619 2597 2516 
z
" transform="scale(0.015625)"/>
     </defs>
     <use xlink:href="#DejaVuSans-33"/>
    </g>
   </g>
   <g id="PathCollection_4">
    <g clip-path="url(#p579da6df59)">
     <use xlink:href="#md676f00149" x="214.515" y="71.208" style="fill: #ffffff; stroke: #000000"/>
    </g>
   </g>
   <g id="text_4">
    <!-- a -->
    <g transform="translate(211.144531 74.243312) scale(0.11 -0.11)">
     <defs>
      <path id="DejaVuSans-61" d="M 2194 1759 
Q 1497 1759 1228 1600 
Q 959 1441 959 1056 
Q 959 750 1161 570 
Q 1363 391 1709 391 
Q 2188 391 2477 730 
Q 2766 1069 2766 1631 
L 2766 1759 
L 2194 1759 
z
M 3341 1997 
L 3341 0 
L 2766 0 
L 2766 531 
Q 2569 213 2275 61 
Q 1981 -91 1556 -91 
Q 1019 -91 701 211 
Q 384 513 384 1019 
Q 384 1609 779 1909 
Q 1175 2209 1959 2209 
L 2766 2209 
L 2766 2266 
Q 2766 2663 2505 2880 
Q 2244 3097 1772 3097 
Q 1472 3097 1187 3025 
Q 903 2953 641 2809 
L 641 3341 
Q 956 3463 1253 3523 
Q 1550 3584 1831 3584 
Q 2591 3584 2966 3190 
Q 3341 2797 3341 1997 
z
" transform="scale(0.015625)"/>
     </defs>
     <use xlink:href="#DejaVuSans-61"/>
    </g>
   </g>
   <g id="PathCollection_5">
    <g clip-path="url(#p579da6df59)">
     <use xlink:href="#md676f00149" x="214.515" y="115.236" style="fill: #ffffff; stroke: #000000"/>
    </g>
   </g>
   <g id="text_5">
    <!-- b -->
    <g transform="translate(211.023359 118.271312) scale(0.11 -0.11)">
     <defs>
      <path id="DejaVuSans-62" d="M 3116 1747 
Q 3116 2381 2855 2742 
Q 2594 3103 2138 3103 
Q 1681 3103 1420 2742 
Q 1159 2381 1159 1747 
Q 1159 1113 1420 752 
Q 1681 391 2138 391 
Q 2594 391 2855 752 
Q 3116 1113 3116 1747 
z
M 1159 2969 
Q 1341 3281 1617 3432 
Q 1894 3584 2278 3584 
Q 2916 3584 3314 3078 
Q 3713 2572 3713 1747 
Q 3713 922 3314 415 
Q 2916 -91 2278 -91 
Q 1894 -91 1617 61 
Q 1341 213 1159 525 
L 1159 0 
L 581 0 
L 581 4863 
L 1159 4863 
L 1159 2969 
z
" transform="scale(0.015625)"/>
     </defs>
     <use xlink:href="#DejaVuSans-62"/>
    </g>
   </g>
   <g id="PathCollection_6">
    <g clip-path="url(#p579da6df59)">
     <use xlink:href="#md676f00149" x="214.515" y="159.264" style="fill: #ffffff; stroke: #000000"/>
    </g>
   </g>
   <g id="text_6">
    <!-- c -->
    <g transform="translate(211.490859 162.299312) scale(0.11 -0.11)">
     <defs>
      <path id="DejaVuSans-63" d="M 3122 3366 
L 3122 2828 
Q 2878 2963 2633 3030 
Q 2388 3097 2138 3097 
Q 1578 3097 1268 2742 
Q 959 2388 959 1747 
Q 959 1106 1268 751 
Q 1578 397 2138 397 
Q 2388 397 2633 464 
Q 2878 531 3122 666 
L 3122 134 
Q 2881 22 2623 -34 
Q 2366 -91 2075 -91 
Q 1284 -91 818 406 
Q 353 903 353 1747 
Q 353 2603 823 3093 
Q 1294 3584 2113 3584 
Q 2378 3584 2631 3529 
Q 2884 3475 3122 3366 
z
" transform="scale(0.015625)"/>
     </defs>
     <use xlink:href="#DejaVuSans-63"/>
    </g>
   </g>
   <g id="PathCollection_7">
    <g clip-path="url(#p579da6df59)">
     <use xlink:href="#md676f00149" x="214.515" y="203.292" style="fill: #ffffff; stroke: #000000"/>
    </g>
   </g>
   <g id="text_7">
    <!-- d -->
    <g transform="translate(211.023359 206.327312) scale(0.11 -0.11)">
     <defs>
      <path id="DejaVuSans-64" d="M 2906 2969 
L 2906 4863 
L 3481 4863 
L 3481 0 
L 2906 0 
L 2906 525 
Q 2725 213 2448 61 
Q 2172 -91 1784 -91 
Q 1150 -91 751 415 
Q 353 922 353 1747 
Q 353 2572 751 3078 
Q 1150 3584 1784 3584 
Q 2172 3584 2448 3432 
Q 2725 3281 2906 2969 
z
M 947 1747 
Q 947 1113 1208 752 
Q 1469 391 1925 391 
Q 2381 391 2643 752 
Q 2906 1113 2906 1747 
Q 2906 2381 2643 2742 
Q 2381 3103 1925 3103 
Q 1469 3103 1208 2742 
Q 947 2381 947 1747 
z
" transform="scale(0.015625)"/>
     </defs>
     <use xlink:href="#DejaVuSans-64"/>
    </g>
   </g>
   <g id="text_8">
    <!-- A -->
    <g transform="translate(75.320625 40.3884) scale(0.12 -0.12)">
     <defs>
      <path id="DejaVuSans-41" d="M 2188 4044 
L 1331 1722 
L 3047 1722 
L 2188 4044 
z
M 1831 4666 
L 2547 4666 
L 4325 0 
L 3669 0 
L 3244 1197 
L 1141 1197 
L 716 0 
L 50 0 
L 1831 4666 
z
" transform="scale(0.015625)"/>
     </defs>
     <use xlink:href="#DejaVuSans-41"/>
    </g>
   </g>
   <g id="text_9">
    <!-- B -->
    <g transform="translate(210.398438 40.3884) scale(0.12 -0.12)">
     <defs>
      <path id="DejaVuSans-42" d="M 1259 2228 
L 1259 519 
L 2272 519 
Q 2781 519 3026 730 
Q 3272 941 3272 1375 
Q 3272 1813 3026 2020 
Q 2781 2228 2272 2228 
L 1259 2228 
z
M 1259 4147 
L 1259 2741 
L 2194 2741 
Q 2656 2741 2882 2914 
Q 3109 3088 3109 3444 
Q 3109 3797 2882 3972 
Q 2656 4147 2194 4147 
L 1259 4147 
z
M 628 4666 
L 2241 4666 
Q 2963 4666 3353 4366 
Q 3744 4066 3744 3513 
Q 3744 3084 3544 2831 
Q 3344 2578 2956 2516 
Q 3422 2416 3680 2098 
Q 3938 1781 3938 1306 
Q 3938 681 3513 340 
Q 3088 0 2303 0 
L 628 0 
L 628 4666 
z
" transform="scale(0.015625)"/>
     </defs>
     <use xlink:href="#DejaVuSans-42"/>
    </g>
   </g>
   <g id="text_10">
    <!-- Iniettiva (non suriettiva) -->
    <g transform="translate(74.314688 21.18) scale(0.12 -0.12)">
     <defs>
      <path id="DejaVuSans-49" d="M 628 4666 
L 1259 4666 
L 1259 0 
L 628 0 
L 628 4666 
z
" transform="scale(0.015625)"/>
      <path id="DejaVuSans-6e" d="M 3513 2113 
L 3513 0 
L 2938 0 
L 2938 2094 
Q 2938 2591 2744 2837 
Q 2550 3084 2163 3084 
Q 1697 3084 1428 2787 
Q 1159 2491 1159 1978 
L 1159 0 
L 581 0 
L 581 3500 
L 1159 3500 
L 1159 2956 
Q 1366 3272 1645 3428 
Q 1925 3584 2291 3584 
Q 2894 3584 3203 3211 
Q 3513 2838 3513 2113 
z
" transform="scale(0.015625)"/>
      <path id="DejaVuSans-69" d="M 603 3500 
L 1178 3500 
L 1178 0 
L 603 0 
L 603 3500 
z
M 603 4863 
L 1178 4863 
L 1178 4134 
L 603 4134 
L 603 4863 
z
" transform="scale(0.015625)"/>
      <path id="DejaVuSans-65" d="M 3597 1894 
L 3597 1613 
L 953 1613 
Q 991 1019 1311 708 
Q 1631 397 2203 397 
Q 2534 397 2845 478 
Q 3156 559 3463 722 
L 3463 178 
Q 3153 47 2828 -22 
Q 2503 -91 2169 -91 
Q 1331 -91 842 396 
Q 353 884 353 1716 
Q 353 2575 817 3079 
Q 1281 3584 2069 3584 
Q 2775 3584 3186 3129 
Q 3597 2675 3597 1894 
z
M 3022 2063 
Q 3016 2534 2758 2815 
Q 2500 3097 2075 3097 
Q 1594 3097 1305 2825 
Q 1016 2553 972 2059 
L 3022 2063 
z
" transform="scale(0.015625)"/>
      <path id="DejaVuSans-74" d="M 1172 4494 
L 1172 3500 
L 2356 3500 
L 2356 3053 
L 1172 3053 
L 1172 1153 
Q 1172 725 1289 603 
Q 1406 481 1766 481 
L 2356 481 
L 2356 0 
L 1766 0 
Q 1100 0 847 248 
Q 594 497 594 1153 
L 594 3053 
L 172 3053 
L 172 3500 
L 594 3500 
L 594 4494 
L 1172 4494 
z
" transform="scale(0.015625)"/>
      <path id="DejaVuSans-76" d="M 191 3500 
L 800 3500 
L 1894 563 
L 2988 3500 
L 3597 3500 
L 2284 0 
L 1503 0 
L 191 3500 
z
" transform="scale(0.015625)"/>
      <path id="DejaVuSans-20" transform="scale(0.015625)"/>
      <path id="DejaVuSans-28" d="M 1984 4856 
Q 1566 4138 1362 3434 
Q 1159 2731 1159 2009 
Q 1159 1288 1364 580 
Q 1569 -128 1984 -844 
L 1484 -844 
Q 1016 -109 783 600 
Q 550 1309 550 2009 
Q 550 2706 781 3412 
Q 1013 4119 1484 4856 
L 1984 4856 
z
" transform="scale(0.015625)"/>
      <path id="DejaVuSans-6f" d="M 1959 3097 
Q 1497 3097 1228 2736 
Q 959 2375 959 1747 
Q 959 1119 1226 758 
Q 1494 397 1959 397 
Q 2419 397 2687 759 
Q 2956 1122 2956 1747 
Q 2956 2369 2687 2733 
Q 2419 3097 1959 3097 
z
M 1959 3584 
Q 2709 3584 3137 3096 
Q 3566 2609 3566 1747 
Q 3566 888 3137 398 
Q 2709 -91 1959 -91 
Q 1206 -91 779 398 
Q 353 888 353 1747 
Q 353 2609 779 3096 
Q 1206 3584 1959 3584 
z
" transform="scale(0.015625)"/>
      <path id="DejaVuSans-73" d="M 2834 3397 
L 2834 2853 
Q 2591 2978 2328 3040 
Q 2066 3103 1784 3103 
Q 1356 3103 1142 2972 
Q 928 2841 928 2578 
Q 928 2378 1081 2264 
Q 1234 2150 1697 2047 
L 1894 2003 
Q 2506 1872 2764 1633 
Q 3022 1394 3022 966 
Q 3022 478 2636 193 
Q 2250 -91 1575 -91 
Q 1294 -91 989 -36 
Q 684 19 347 128 
L 347 722 
Q 666 556 975 473 
Q 1284 391 1588 391 
Q 1994 391 2212 530 
Q 2431 669 2431 922 
Q 2431 1156 2273 1281 
Q 2116 1406 1581 1522 
L 1381 1569 
Q 847 1681 609 1914 
Q 372 2147 372 2553 
Q 372 3047 722 3315 
Q 1072 3584 1716 3584 
Q 2034 3584 2315 3537 
Q 2597 3491 2834 3397 
z
" transform="scale(0.015625)"/>
      <path id="DejaVuSans-75" d="M 544 1381 
L 544 3500 
L 1119 3500 
L 1119 1403 
Q 1119 906 1312 657 
Q 1506 409 1894 409 
Q 2359 409 2629 706 
Q 2900 1003 2900 1516 
L 2900 3500 
L 3475 3500 
L 3475 0 
L 2900 0 
L 2900 538 
Q 2691 219 2414 64 
Q 2138 -91 1772 -91 
Q 1169 -91 856 284 
Q 544 659 544 1381 
z
M 1991 3584 
L 1991 3584 
z
" transform="scale(0.015625)"/>
      <path id="DejaVuSans-72" d="M 2631 2963 
Q 2534 3019 2420 3045 
Q 2306 3072 2169 3072 
Q 1681 3072 1420 2755 
Q 1159 2438 1159 1844 
L 1159 0 
L 581 0 
L 581 3500 
L 1159 3500 
L 1159 2956 
Q 1341 3275 1631 3429 
Q 1922 3584 2338 3584 
Q 2397 3584 2469 3576 
Q 2541 3569 2628 3553 
L 2631 2963 
z
" transform="scale(0.015625)"/>
      <path id="DejaVuSans-29" d="M 513 4856 
L 1013 4856 
Q 1481 4119 1714 3412 
Q 1947 2706 1947 2009 
Q 1947 1309 1714 600 
Q 1481 -109 1013 -844 
L 513 -844 
Q 928 -128 1133 580 
Q 1338 1288 1338 2009 
Q 1338 2731 1133 3434 
Q 928 4138 513 4856 
z
" transform="scale(0.015625)"/>
     </defs>
     <use xlink:href="#DejaVuSans-49"/>
     <use xlink:href="#DejaVuSans-6e" x="29.492188"/>
     <use xlink:href="#DejaVuSans-69" x="92.871094"/>
     <use xlink:href="#DejaVuSans-65" x="120.654297"/>
     <use xlink:href="#DejaVuSans-74" x="182.177734"/>
     <use xlink:href="#DejaVuSans-74" x="221.386719"/>
     <use xlink:href="#DejaVuSans-69" x="260.595703"/>
     <use xlink:href="#DejaVuSans-76" x="288.378906"/>
     <use xlink:href="#DejaVuSans-61" x="347.558594"/>
     <use xlink:href="#DejaVuSans-20" x="408.837891"/>
     <use xlink:href="#DejaVuSans-28" x="440.625"/>
     <use xlink:href="#DejaVuSans-6e" x="479.638672"/>
     <use xlink:href="#DejaVuSans-6f" x="543.017578"/>
     <use xlink:href="#DejaVuSans-6e" x="604.199219"/>
     <use xlink:href="#DejaVuSans-20" x="667.578125"/>
     <use xlink:href="#DejaVuSans-73" x="699.365234"/>
     <use xlink:href="#DejaVuSans-75" x="751.464844"/>
     <use xlink:href="#DejaVuSans-72" x="814.84375"/>
     <use xlink:href="#DejaVuSans-69" x="855.957031"/>
     <use xlink:href="#DejaVuSans-65" x="883.740234"/>
     <use xlink:href="#DejaVuSans-74" x="945.263672"/>
     <use xlink:href="#DejaVuSans-74" x="984.472656"/>
     <use xlink:href="#DejaVuSans-69" x="1023.681641"/>
     <use xlink:href="#DejaVuSans-76" x="1051.464844"/>
     <use xlink:href="#DejaVuSans-61" x="1110.644531"/>
     <use xlink:href="#DejaVuSans-29" x="1171.923828"/>
    </g>
   </g>
  </g>
  <g id="axes_2">
   <g id="patch_5">
    <path d="M 372.944481 71.208 
Q 429.033333 71.208 483.445133 71.208 
" clip-path="url(#pe890cd9304)" style="fill: none; stroke: #1f77b4; stroke-width: 1.5; stroke-linecap: round"/>
    <path d="M 478.645133 68.808 
L 483.445133 71.208 
L 478.645133 73.608 
z
" clip-path="url(#pe890cd9304)" style="fill: #1f77b4; stroke: #1f77b4; stroke-width: 1.5; stroke-linecap: round"/>
   </g>
   <g id="patch_6">
    <path d="M 372.909026 115.608857 
Q 429.032722 126.243516 483.508687 136.565953 
" clip-path="url(#pe890cd9304)" style="fill: none; stroke: #1f77b4; stroke-width: 1.5; stroke-linecap: round"/>
    <path d="M 479.239422 133.31428 
L 483.508687 136.565953 
L 478.34579 138.030362 
z
" clip-path="url(#pe890cd9304)" style="fill: #1f77b4; stroke: #1f77b4; stroke-width: 1.5; stroke-linecap: round"/>
   </g>
   <g id="patch_7">
    <path d="M 372.909026 158.891143 
Q 429.032722 148.256484 483.508687 137.934047 
" clip-path="url(#pe890cd9304)" style="fill: none; stroke: #1f77b4; stroke-width: 1.5; stroke-linecap: round"/>
    <path d="M 478.34579 136.469638 
L 483.508687 137.934047 
L 479.239422 141.18572 
z
" clip-path="url(#pe890cd9304)" style="fill: #1f77b4; stroke: #1f77b4; stroke-width: 1.5; stroke-linecap: round"/>
   </g>
   <g id="patch_8">
    <path d="M 372.944481 203.292 
Q 429.033333 203.292 483.445133 203.292 
" clip-path="url(#pe890cd9304)" style="fill: none; stroke: #1f77b4; stroke-width: 1.5; stroke-linecap: round"/>
    <path d="M 478.645133 200.892 
L 483.445133 203.292 
L 478.645133 205.692 
z
" clip-path="url(#pe890cd9304)" style="fill: #1f77b4; stroke: #1f77b4; stroke-width: 1.5; stroke-linecap: round"/>
   </g>
   <g id="PathCollection_8">
    <g clip-path="url(#pe890cd9304)">
     <use xlink:href="#md676f00149" x="361.485" y="71.208" style="fill: #ffffff; stroke: #000000"/>
    </g>
   </g>
   <g id="text_11">
    <!-- 1 -->
    <g transform="translate(357.985625 74.243312) scale(0.11 -0.11)">
     <use xlink:href="#DejaVuSans-31"/>
    </g>
   </g>
   <g id="PathCollection_9">
    <g clip-path="url(#pe890cd9304)">
     <use xlink:href="#md676f00149" x="361.485" y="115.236" style="fill: #ffffff; stroke: #000000"/>
    </g>
   </g>
   <g id="text_12">
    <!-- 2 -->
    <g transform="translate(357.985625 118.271312) scale(0.11 -0.11)">
     <use xlink:href="#DejaVuSans-32"/>
    </g>
   </g>
   <g id="PathCollection_10">
    <g clip-path="url(#pe890cd9304)">
     <use xlink:href="#md676f00149" x="361.485" y="159.264" style="fill: #ffffff; stroke: #000000"/>
    </g>
   </g>
   <g id="text_13">
    <!-- 3 -->
    <g transform="translate(357.985625 162.299312) scale(0.11 -0.11)">
     <use xlink:href="#DejaVuSans-33"/>
    </g>
   </g>
   <g id="PathCollection_11">
    <g clip-path="url(#pe890cd9304)">
     <use xlink:href="#md676f00149" x="361.485" y="203.292" style="fill: #ffffff; stroke: #000000"/>
    </g>
   </g>
   <g id="text_14">
    <!-- 4 -->
    <g transform="translate(357.985625 206.327312) scale(0.11 -0.11)">
     <defs>
      <path id="DejaVuSans-34" d="M 2419 4116 
L 825 1625 
L 2419 1625 
L 2419 4116 
z
M 2253 4666 
L 3047 4666 
L 3047 1625 
L 3713 1625 
L 3713 1100 
L 3047 1100 
L 3047 0 
L 2419 0 
L 2419 1100 
L 313 1100 
L 313 1709 
L 2253 4666 
z
" transform="scale(0.015625)"/>
     </defs>
     <use xlink:href="#DejaVuSans-34"/>
    </g>
   </g>
   <g id="PathCollection_12">
    <g clip-path="url(#pe890cd9304)">
     <use xlink:href="#md676f00149" x="496.575" y="71.208" style="fill: #ffffff; stroke: #000000"/>
    </g>
   </g>
   <g id="text_15">
    <!-- a -->
    <g transform="translate(493.204531 74.243312) scale(0.11 -0.11)">
     <use xlink:href="#DejaVuSans-61"/>
    </g>
   </g>
   <g id="PathCollection_13">
    <g clip-path="url(#pe890cd9304)">
     <use xlink:href="#md676f00149" x="496.575" y="137.25" style="fill: #ffffff; stroke: #000000"/>
    </g>
   </g>
   <g id="text_16">
    <!-- b -->
    <g transform="translate(493.083359 140.285312) scale(0.11 -0.11)">
     <use xlink:href="#DejaVuSans-62"/>
    </g>
   </g>
   <g id="PathCollection_14">
    <g clip-path="url(#pe890cd9304)">
     <use xlink:href="#md676f00149" x="496.575" y="203.292" style="fill: #ffffff; stroke: #000000"/>
    </g>
   </g>
   <g id="text_17">
    <!-- c -->
    <g transform="translate(493.550859 206.327312) scale(0.11 -0.11)">
     <use xlink:href="#DejaVuSans-63"/>
    </g>
   </g>
   <g id="text_18">
    <!-- A -->
    <g transform="translate(357.380625 40.3884) scale(0.12 -0.12)">
     <use xlink:href="#DejaVuSans-41"/>
    </g>
   </g>
   <g id="text_19">
    <!-- B -->
    <g transform="translate(492.458438 40.3884) scale(0.12 -0.12)">
     <use xlink:href="#DejaVuSans-42"/>
    </g>
   </g>
   <g id="text_20">
    <!-- Suriettiva (non iniettiva) -->
    <g transform="translate(355.794375 21.18) scale(0.12 -0.12)">
     <defs>
      <path id="DejaVuSans-53" d="M 3425 4513 
L 3425 3897 
Q 3066 4069 2747 4153 
Q 2428 4238 2131 4238 
Q 1616 4238 1336 4038 
Q 1056 3838 1056 3469 
Q 1056 3159 1242 3001 
Q 1428 2844 1947 2747 
L 2328 2669 
Q 3034 2534 3370 2195 
Q 3706 1856 3706 1288 
Q 3706 609 3251 259 
Q 2797 -91 1919 -91 
Q 1588 -91 1214 -16 
Q 841 59 441 206 
L 441 856 
Q 825 641 1194 531 
Q 1563 422 1919 422 
Q 2459 422 2753 634 
Q 3047 847 3047 1241 
Q 3047 1584 2836 1778 
Q 2625 1972 2144 2069 
L 1759 2144 
Q 1053 2284 737 2584 
Q 422 2884 422 3419 
Q 422 4038 858 4394 
Q 1294 4750 2059 4750 
Q 2388 4750 2728 4690 
Q 3069 4631 3425 4513 
z
" transform="scale(0.015625)"/>
     </defs>
     <use xlink:href="#DejaVuSans-53"/>
     <use xlink:href="#DejaVuSans-75" x="63.476562"/>
     <use xlink:href="#DejaVuSans-72" x="126.855469"/>
     <use xlink:href="#DejaVuSans-69" x="167.96875"/>
     <use xlink:href="#DejaVuSans-65" x="195.751953"/>
     <use xlink:href="#DejaVuSans-74" x="257.275391"/>
     <use xlink:href="#DejaVuSans-74" x="296.484375"/>
     <use xlink:href="#DejaVuSans-69" x="335.693359"/>
     <use xlink:href="#DejaVuSans-76" x="363.476562"/>
     <use xlink:href="#DejaVuSans-61" x="422.65625"/>
     <use xlink:href="#DejaVuSans-20" x="483.935547"/>
     <use xlink:href="#DejaVuSans-28" x="515.722656"/>
     <use xlink:href="#DejaVuSans-6e" x="554.736328"/>
     <use xlink:href="#DejaVuSans-6f" x="618.115234"/>
     <use xlink:href="#DejaVuSans-6e" x="679.296875"/>
     <use xlink:href="#DejaVuSans-20" x="742.675781"/>
     <use xlink:href="#DejaVuSans-69" x="774.462891"/>
     <use xlink:href="#DejaVuSans-6e" x="802.246094"/>
     <use xlink:href="#DejaVuSans-69" x="865.625"/>
     <use xlink:href="#DejaVuSans-65" x="893.408203"/>
     <use xlink:href="#DejaVuSans-74" x="954.931641"/>
     <use xlink:href="#DejaVuSans-74" x="994.140625"/>
     <use xlink:href="#DejaVuSans-69" x="1033.349609"/>
     <use xlink:href="#DejaVuSans-76" x="1061.132812"/>
     <use xlink:href="#DejaVuSans-61" x="1120.3125"/>
     <use xlink:href="#DejaVuSans-29" x="1181.591797"/>
    </g>
   </g>
  </g>
 </g>
 <defs>
  <clipPath id="p579da6df59">
   <rect x="11.88" y="27.18" width="270.18" height="220.14"/>
  </clipPath>
  <clipPath id="pe890cd9304">
   <rect x="293.94" y="27.18" width="270.18" height="220.14"/>
  </clipPath>
 </defs>
</svg>
