<?xml version="1.0" encoding="utf-8" standalone="no"?>
<!DOCTYPE svg PUBLIC "-//W3C//DTD SVG 1.1//EN"
  "http://www.w3.org/Graphics/SVG/1.1/DTD/svg11.dtd">
<svg xmlns:xlink="http://www.w3.org/1999/xlink" width="460.8pt" height="259.2pt" viewBox="0 0 460.8 259.2" xmlns="http://www.w3.org/2000/svg" version="1.1">
 <metadata>
  <rdf:RDF xmlns:dc="http://purl.org/dc/elements/1.1/" xmlns:cc="http://creativecommons.org/ns#" xmlns:rdf="http://www.w3.org/1999/02/22-rdf-syntax-ns#">
   <cc:Work>
    <dc:type rdf:resource="http://purl.org/dc/dcmitype/StillImage"/>
    <dc:date>2025-12-14T20:27:25.742193</dc:date>
    <dc:format>image/svg+xml</dc:format>
    <dc:creator>
     <cc:Agent>
      <dc:title>Matplotlib v3.8.2, https://matplotlib.org/</dc:title>
     </cc:Agent>
    </dc:creator>
   </cc:Work>
  </rdf:RDF>
 </metadata>
 <defs>
  <style type="text/css">*{stroke-linejoin: round; stroke-linecap: butt}</style>
 </defs>
 <g id="figure_1">
  <g id="patch_1">
   <path d="M 0 259.2 
L 460.8 259.2 
L 460.8 0 
L 0 0 
z
" style="fill: #ffffff"/>
  </g>
  <g id="axes_1">
   <g id="patch_2">
    <path d="M 51.455 214.12 
L 448.92 214.12 
L 448.92 27.66 
L 51.455 27.66 
z
" style="fill: #ffffff"/>
   </g>
   <g id="matplotlib.axis_1">
    <g id="xtick_1">
     <g id="line2d_1">
      <path d="M 60.256672 214.12 
L 60.256672 27.66 
" clip-path="url(#p96dd9e82d7)" style="fill: none; stroke: #b0b0b0; stroke-opacity: 0.25; stroke-width: 0.8; stroke-linecap: square"/>
     </g>
     <g id="line2d_2">
      <defs>
       <path id="mfac7227276" d="M 0 0 
L 0 3.5 
" style="stroke: #000000; stroke-width: 0.8"/>
      </defs>
      <g>
       <use xlink:href="#mfac7227276" x="60.256672" y="214.12" style="stroke: #000000; stroke-width: 0.8"/>
      </g>
     </g>
     <g id="text_1">
      <!-- 0 -->
      <g transform="translate(56.757297 229.478281) scale(0.11 -0.11)">
       <defs>
        <path id="DejaVuSans-30" d="M 2034 4250 
Q 1547 4250 1301 3770 
Q 1056 3291 1056 2328 
Q 1056 1369 1301 889 
Q 1547 409 2034 409 
Q 2525 409 2770 889 
Q 3016 1369 3016 2328 
Q 3016 3291 2770 3770 
Q 2525 4250 2034 4250 
z
M 2034 4750 
Q 2819 4750 3233 4129 
Q 3647 3509 3647 2328 
Q 3647 1150 3233 529 
Q 2819 -91 2034 -91 
Q 1250 -91 836 529 
Q 422 1150 422 2328 
Q 422 3509 836 4129 
Q 1250 4750 2034 4750 
z
" transform="scale(0.015625)"/>
       </defs>
       <use xlink:href="#DejaVuSans-30"/>
      </g>
     </g>
    </g>
    <g id="xtick_2">
     <g id="line2d_3">
      <path d="M 106.581265 214.12 
L 106.581265 27.66 
" clip-path="url(#p96dd9e82d7)" style="fill: none; stroke: #b0b0b0; stroke-opacity: 0.25; stroke-width: 0.8; stroke-linecap: square"/>
     </g>
     <g id="line2d_4">
      <g>
       <use xlink:href="#mfac7227276" x="106.581265" y="214.12" style="stroke: #000000; stroke-width: 0.8"/>
      </g>
     </g>
     <g id="text_2">
      <!-- 5 -->
      <g transform="translate(103.08189 229.478281) scale(0.11 -0.11)">
       <defs>
        <path id="DejaVuSans-35" d="M 691 4666 
L 3169 4666 
L 3169 4134 
L 1269 4134 
L 1269 2991 
Q 1406 3038 1543 3061 
Q 1681 3084 1819 3084 
Q 2600 3084 3056 2656 
Q 3513 2228 3513 1497 
Q 3513 744 3044 326 
Q 2575 -91 1722 -91 
Q 1428 -91 1123 -41 
Q 819 9 494 109 
L 494 744 
Q 775 591 1075 516 
Q 1375 441 1709 441 
Q 2250 441 2565 725 
Q 2881 1009 2881 1497 
Q 2881 1984 2565 2268 
Q 2250 2553 1709 2553 
Q 1456 2553 1204 2497 
Q 953 2441 691 2322 
L 691 4666 
z
" transform="scale(0.015625)"/>
       </defs>
       <use xlink:href="#DejaVuSans-35"/>
      </g>
     </g>
    </g>
    <g id="xtick_3">
     <g id="line2d_5">
      <path d="M 152.905857 214.12 
L 152.905857 27.66 
" clip-path="url(#p96dd9e82d7)" style="fill: none; stroke: #b0b0b0; stroke-opacity: 0.25; stroke-width: 0.8; stroke-linecap: square"/>
     </g>
     <g id="line2d_6">
      <g>
       <use xlink:href="#mfac7227276" x="152.905857" y="214.12" style="stroke: #000000; stroke-width: 0.8"/>
      </g>
     </g>
     <g id="text_3">
      <!-- 10 -->
      <g transform="translate(145.907107 229.478281) scale(0.11 -0.11)">
       <defs>
        <path id="DejaVuSans-31" d="M 794 531 
L 1825 531 
L 1825 4091 
L 703 3866 
L 703 4441 
L 1819 4666 
L 2450 4666 
L 2450 531 
L 3481 531 
L 3481 0 
L 794 0 
L 794 531 
z
" transform="scale(0.015625)"/>
       </defs>
       <use xlink:href="#DejaVuSans-31"/>
       <use xlink:href="#DejaVuSans-30" x="63.623047"/>
      </g>
     </g>
    </g>
    <g id="xtick_4">
     <g id="line2d_7">
      <path d="M 199.230449 214.12 
L 199.230449 27.66 
" clip-path="url(#p96dd9e82d7)" style="fill: none; stroke: #b0b0b0; stroke-opacity: 0.25; stroke-width: 0.8; stroke-linecap: square"/>
     </g>
     <g id="line2d_8">
      <g>
       <use xlink:href="#mfac7227276" x="199.230449" y="214.12" style="stroke: #000000; stroke-width: 0.8"/>
      </g>
     </g>
     <g id="text_4">
      <!-- 15 -->
      <g transform="translate(192.231699 229.478281) scale(0.11 -0.11)">
       <use xlink:href="#DejaVuSans-31"/>
       <use xlink:href="#DejaVuSans-35" x="63.623047"/>
      </g>
     </g>
    </g>
    <g id="xtick_5">
     <g id="line2d_9">
      <path d="M 245.555041 214.12 
L 245.555041 27.66 
" clip-path="url(#p96dd9e82d7)" style="fill: none; stroke: #b0b0b0; stroke-opacity: 0.25; stroke-width: 0.8; stroke-linecap: square"/>
     </g>
     <g id="line2d_10">
      <g>
       <use xlink:href="#mfac7227276" x="245.555041" y="214.12" style="stroke: #000000; stroke-width: 0.8"/>
      </g>
     </g>
     <g id="text_5">
      <!-- 20 -->
      <g transform="translate(238.556291 229.478281) scale(0.11 -0.11)">
       <defs>
        <path id="DejaVuSans-32" d="M 1228 531 
L 3431 531 
L 3431 0 
L 469 0 
L 469 531 
Q 828 903 1448 1529 
Q 2069 2156 2228 2338 
Q 2531 2678 2651 2914 
Q 2772 3150 2772 3378 
Q 2772 3750 2511 3984 
Q 2250 4219 1831 4219 
Q 1534 4219 1204 4116 
Q 875 4013 500 3803 
L 500 4441 
Q 881 4594 1212 4672 
Q 1544 4750 1819 4750 
Q 2544 4750 2975 4387 
Q 3406 4025 3406 3419 
Q 3406 3131 3298 2873 
Q 3191 2616 2906 2266 
Q 2828 2175 2409 1742 
Q 1991 1309 1228 531 
z
" transform="scale(0.015625)"/>
       </defs>
       <use xlink:href="#DejaVuSans-32"/>
       <use xlink:href="#DejaVuSans-30" x="63.623047"/>
      </g>
     </g>
    </g>
    <g id="xtick_6">
     <g id="line2d_11">
      <path d="M 291.879633 214.12 
L 291.879633 27.66 
" clip-path="url(#p96dd9e82d7)" style="fill: none; stroke: #b0b0b0; stroke-opacity: 0.25; stroke-width: 0.8; stroke-linecap: square"/>
     </g>
     <g id="line2d_12">
      <g>
       <use xlink:href="#mfac7227276" x="291.879633" y="214.12" style="stroke: #000000; stroke-width: 0.8"/>
      </g>
     </g>
     <g id="text_6">
      <!-- 25 -->
      <g transform="translate(284.880883 229.478281) scale(0.11 -0.11)">
       <use xlink:href="#DejaVuSans-32"/>
       <use xlink:href="#DejaVuSans-35" x="63.623047"/>
      </g>
     </g>
    </g>
    <g id="xtick_7">
     <g id="line2d_13">
      <path d="M 338.204225 214.12 
L 338.204225 27.66 
" clip-path="url(#p96dd9e82d7)" style="fill: none; stroke: #b0b0b0; stroke-opacity: 0.25; stroke-width: 0.8; stroke-linecap: square"/>
     </g>
     <g id="line2d_14">
      <g>
       <use xlink:href="#mfac7227276" x="338.204225" y="214.12" style="stroke: #000000; stroke-width: 0.8"/>
      </g>
     </g>
     <g id="text_7">
      <!-- 30 -->
      <g transform="translate(331.205475 229.478281) scale(0.11 -0.11)">
       <defs>
        <path id="DejaVuSans-33" d="M 2597 2516 
Q 3050 2419 3304 2112 
Q 3559 1806 3559 1356 
Q 3559 666 3084 287 
Q 2609 -91 1734 -91 
Q 1441 -91 1130 -33 
Q 819 25 488 141 
L 488 750 
Q 750 597 1062 519 
Q 1375 441 1716 441 
Q 2309 441 2620 675 
Q 2931 909 2931 1356 
Q 2931 1769 2642 2001 
Q 2353 2234 1838 2234 
L 1294 2234 
L 1294 2753 
L 1863 2753 
Q 2328 2753 2575 2939 
Q 2822 3125 2822 3475 
Q 2822 3834 2567 4026 
Q 2313 4219 1838 4219 
Q 1578 4219 1281 4162 
Q 984 4106 628 3988 
L 628 4550 
Q 988 4650 1302 4700 
Q 1616 4750 1894 4750 
Q 2613 4750 3031 4423 
Q 3450 4097 3450 3541 
Q 3450 3153 3228 2886 
Q 3006 2619 2597 2516 
z
" transform="scale(0.015625)"/>
       </defs>
       <use xlink:href="#DejaVuSans-33"/>
       <use xlink:href="#DejaVuSans-30" x="63.623047"/>
      </g>
     </g>
    </g>
    <g id="xtick_8">
     <g id="line2d_15">
      <path d="M 384.528817 214.12 
L 384.528817 27.66 
" clip-path="url(#p96dd9e82d7)" style="fill: none; stroke: #b0b0b0; stroke-opacity: 0.25; stroke-width: 0.8; stroke-linecap: square"/>
     </g>
     <g id="line2d_16">
      <g>
       <use xlink:href="#mfac7227276" x="384.528817" y="214.12" style="stroke: #000000; stroke-width: 0.8"/>
      </g>
     </g>
     <g id="text_8">
      <!-- 35 -->
      <g transform="translate(377.530067 229.478281) scale(0.11 -0.11)">
       <use xlink:href="#DejaVuSans-33"/>
       <use xlink:href="#DejaVuSans-35" x="63.623047"/>
      </g>
     </g>
    </g>
    <g id="xtick_9">
     <g id="line2d_17">
      <path d="M 430.853409 214.12 
L 430.853409 27.66 
" clip-path="url(#p96dd9e82d7)" style="fill: none; stroke: #b0b0b0; stroke-opacity: 0.25; stroke-width: 0.8; stroke-linecap: square"/>
     </g>
     <g id="line2d_18">
      <g>
       <use xlink:href="#mfac7227276" x="430.853409" y="214.12" style="stroke: #000000; stroke-width: 0.8"/>
      </g>
     </g>
     <g id="text_9">
      <!-- 40 -->
      <g transform="translate(423.854659 229.478281) scale(0.11 -0.11)">
       <defs>
        <path id="DejaVuSans-34" d="M 2419 4116 
L 825 1625 
L 2419 1625 
L 2419 4116 
z
M 2253 4666 
L 3047 4666 
L 3047 1625 
L 3713 1625 
L 3713 1100 
L 3047 1100 
L 3047 0 
L 2419 0 
L 2419 1100 
L 313 1100 
L 313 1709 
L 2253 4666 
z
" transform="scale(0.015625)"/>
       </defs>
       <use xlink:href="#DejaVuSans-34"/>
       <use xlink:href="#DejaVuSans-30" x="63.623047"/>
      </g>
     </g>
    </g>
    <g id="text_10">
     <!-- n -->
     <g transform="translate(246.701875 244.124219) scale(0.11 -0.11)">
      <defs>
       <path id="DejaVuSans-6e" d="M 3513 2113 
L 3513 0 
L 2938 0 
L 2938 2094 
Q 2938 2591 2744 2837 
Q 2550 3084 2163 3084 
Q 1697 3084 1428 2787 
Q 1159 2491 1159 1978 
L 1159 0 
L 581 0 
L 581 3500 
L 1159 3500 
L 1159 2956 
Q 1366 3272 1645 3428 
Q 1925 3584 2291 3584 
Q 2894 3584 3203 3211 
Q 3513 2838 3513 2113 
z
" transform="scale(0.015625)"/>
      </defs>
      <use xlink:href="#DejaVuSans-6e"/>
     </g>
    </g>
   </g>
   <g id="matplotlib.axis_2">
    <g id="ytick_1">
     <g id="line2d_19">
      <path d="M 51.455 205.644545 
L 448.92 205.644545 
" clip-path="url(#p96dd9e82d7)" style="fill: none; stroke: #b0b0b0; stroke-opacity: 0.25; stroke-width: 0.8; stroke-linecap: square"/>
     </g>
     <g id="line2d_20">
      <defs>
       <path id="m99a5480e8d" d="M 0 0 
L -3.5 0 
" style="stroke: #000000; stroke-width: 0.8"/>
      </defs>
      <g>
       <use xlink:href="#m99a5480e8d" x="51.455" y="205.644545" style="stroke: #000000; stroke-width: 0.8"/>
      </g>
     </g>
     <g id="text_11">
      <!-- 0.0 -->
      <g transform="translate(26.961563 209.823686) scale(0.11 -0.11)">
       <defs>
        <path id="DejaVuSans-2e" d="M 684 794 
L 1344 794 
L 1344 0 
L 684 0 
L 684 794 
z
" transform="scale(0.015625)"/>
       </defs>
       <use xlink:href="#DejaVuSans-30"/>
       <use xlink:href="#DejaVuSans-2e" x="63.623047"/>
       <use xlink:href="#DejaVuSans-30" x="95.410156"/>
      </g>
     </g>
    </g>
    <g id="ytick_2">
     <g id="line2d_21">
      <path d="M 51.455 171.742727 
L 448.92 171.742727 
" clip-path="url(#p96dd9e82d7)" style="fill: none; stroke: #b0b0b0; stroke-opacity: 0.25; stroke-width: 0.8; stroke-linecap: square"/>
     </g>
     <g id="line2d_22">
      <g>
       <use xlink:href="#m99a5480e8d" x="51.455" y="171.742727" style="stroke: #000000; stroke-width: 0.8"/>
      </g>
     </g>
     <g id="text_12">
      <!-- 0.2 -->
      <g transform="translate(26.961563 175.921868) scale(0.11 -0.11)">
       <use xlink:href="#DejaVuSans-30"/>
       <use xlink:href="#DejaVuSans-2e" x="63.623047"/>
       <use xlink:href="#DejaVuSans-32" x="95.410156"/>
      </g>
     </g>
    </g>
    <g id="ytick_3">
     <g id="line2d_23">
      <path d="M 51.455 137.840909 
L 448.92 137.840909 
" clip-path="url(#p96dd9e82d7)" style="fill: none; stroke: #b0b0b0; stroke-opacity: 0.25; stroke-width: 0.8; stroke-linecap: square"/>
     </g>
     <g id="line2d_24">
      <g>
       <use xlink:href="#m99a5480e8d" x="51.455" y="137.840909" style="stroke: #000000; stroke-width: 0.8"/>
      </g>
     </g>
     <g id="text_13">
      <!-- 0.4 -->
      <g transform="translate(26.961563 142.02005) scale(0.11 -0.11)">
       <use xlink:href="#DejaVuSans-30"/>
       <use xlink:href="#DejaVuSans-2e" x="63.623047"/>
       <use xlink:href="#DejaVuSans-34" x="95.410156"/>
      </g>
     </g>
    </g>
    <g id="ytick_4">
     <g id="line2d_25">
      <path d="M 51.455 103.939091 
L 448.92 103.939091 
" clip-path="url(#p96dd9e82d7)" style="fill: none; stroke: #b0b0b0; stroke-opacity: 0.25; stroke-width: 0.8; stroke-linecap: square"/>
     </g>
     <g id="line2d_26">
      <g>
       <use xlink:href="#m99a5480e8d" x="51.455" y="103.939091" style="stroke: #000000; stroke-width: 0.8"/>
      </g>
     </g>
     <g id="text_14">
      <!-- 0.6 -->
      <g transform="translate(26.961563 108.118232) scale(0.11 -0.11)">
       <defs>
        <path id="DejaVuSans-36" d="M 2113 2584 
Q 1688 2584 1439 2293 
Q 1191 2003 1191 1497 
Q 1191 994 1439 701 
Q 1688 409 2113 409 
Q 2538 409 2786 701 
Q 3034 994 3034 1497 
Q 3034 2003 2786 2293 
Q 2538 2584 2113 2584 
z
M 3366 4563 
L 3366 3988 
Q 3128 4100 2886 4159 
Q 2644 4219 2406 4219 
Q 1781 4219 1451 3797 
Q 1122 3375 1075 2522 
Q 1259 2794 1537 2939 
Q 1816 3084 2150 3084 
Q 2853 3084 3261 2657 
Q 3669 2231 3669 1497 
Q 3669 778 3244 343 
Q 2819 -91 2113 -91 
Q 1303 -91 875 529 
Q 447 1150 447 2328 
Q 447 3434 972 4092 
Q 1497 4750 2381 4750 
Q 2619 4750 2861 4703 
Q 3103 4656 3366 4563 
z
" transform="scale(0.015625)"/>
       </defs>
       <use xlink:href="#DejaVuSans-30"/>
       <use xlink:href="#DejaVuSans-2e" x="63.623047"/>
       <use xlink:href="#DejaVuSans-36" x="95.410156"/>
      </g>
     </g>
    </g>
    <g id="ytick_5">
     <g id="line2d_27">
      <path d="M 51.455 70.037273 
L 448.92 70.037273 
" clip-path="url(#p96dd9e82d7)" style="fill: none; stroke: #b0b0b0; stroke-opacity: 0.25; stroke-width: 0.8; stroke-linecap: square"/>
     </g>
     <g id="line2d_28">
      <g>
       <use xlink:href="#m99a5480e8d" x="51.455" y="70.037273" style="stroke: #000000; stroke-width: 0.8"/>
      </g>
     </g>
     <g id="text_15">
      <!-- 0.8 -->
      <g transform="translate(26.961563 74.216413) scale(0.11 -0.11)">
       <defs>
        <path id="DejaVuSans-38" d="M 2034 2216 
Q 1584 2216 1326 1975 
Q 1069 1734 1069 1313 
Q 1069 891 1326 650 
Q 1584 409 2034 409 
Q 2484 409 2743 651 
Q 3003 894 3003 1313 
Q 3003 1734 2745 1975 
Q 2488 2216 2034 2216 
z
M 1403 2484 
Q 997 2584 770 2862 
Q 544 3141 544 3541 
Q 544 4100 942 4425 
Q 1341 4750 2034 4750 
Q 2731 4750 3128 4425 
Q 3525 4100 3525 3541 
Q 3525 3141 3298 2862 
Q 3072 2584 2669 2484 
Q 3125 2378 3379 2068 
Q 3634 1759 3634 1313 
Q 3634 634 3220 271 
Q 2806 -91 2034 -91 
Q 1263 -91 848 271 
Q 434 634 434 1313 
Q 434 1759 690 2068 
Q 947 2378 1403 2484 
z
M 1172 3481 
Q 1172 3119 1398 2916 
Q 1625 2713 2034 2713 
Q 2441 2713 2670 2916 
Q 2900 3119 2900 3481 
Q 2900 3844 2670 4047 
Q 2441 4250 2034 4250 
Q 1625 4250 1398 4047 
Q 1172 3844 1172 3481 
z
" transform="scale(0.015625)"/>
       </defs>
       <use xlink:href="#DejaVuSans-30"/>
       <use xlink:href="#DejaVuSans-2e" x="63.623047"/>
       <use xlink:href="#DejaVuSans-38" x="95.410156"/>
      </g>
     </g>
    </g>
    <g id="ytick_6">
     <g id="line2d_29">
      <path d="M 51.455 36.135455 
L 448.92 36.135455 
" clip-path="url(#p96dd9e82d7)" style="fill: none; stroke: #b0b0b0; stroke-opacity: 0.25; stroke-width: 0.8; stroke-linecap: square"/>
     </g>
     <g id="line2d_30">
      <g>
       <use xlink:href="#m99a5480e8d" x="51.455" y="36.135455" style="stroke: #000000; stroke-width: 0.8"/>
      </g>
     </g>
     <g id="text_16">
      <!-- 1.0 -->
      <g transform="translate(26.961563 40.314595) scale(0.11 -0.11)">
       <use xlink:href="#DejaVuSans-31"/>
       <use xlink:href="#DejaVuSans-2e" x="63.623047"/>
       <use xlink:href="#DejaVuSans-30" x="95.410156"/>
      </g>
     </g>
    </g>
    <g id="text_17">
     <!-- $a_n$ -->
     <g transform="translate(20.673906 126.885) rotate(-90) scale(0.11 -0.11)">
      <defs>
       <path id="DejaVuSans-Oblique-61" d="M 3438 1997 
L 3047 0 
L 2472 0 
L 2578 531 
Q 2325 219 2001 64 
Q 1678 -91 1281 -91 
Q 834 -91 548 182 
Q 263 456 263 884 
Q 263 1497 752 1853 
Q 1241 2209 2100 2209 
L 2900 2209 
L 2931 2363 
Q 2938 2388 2941 2417 
Q 2944 2447 2944 2509 
Q 2944 2788 2717 2942 
Q 2491 3097 2081 3097 
Q 1800 3097 1504 3025 
Q 1209 2953 897 2809 
L 997 3341 
Q 1322 3463 1633 3523 
Q 1944 3584 2234 3584 
Q 2853 3584 3176 3315 
Q 3500 3047 3500 2534 
Q 3500 2431 3484 2292 
Q 3469 2153 3438 1997 
z
M 2816 1759 
L 2241 1759 
Q 1534 1759 1195 1570 
Q 856 1381 856 984 
Q 856 709 1029 553 
Q 1203 397 1509 397 
Q 1978 397 2328 733 
Q 2678 1069 2791 1631 
L 2816 1759 
z
" transform="scale(0.015625)"/>
       <path id="DejaVuSans-Oblique-6e" d="M 3566 2113 
L 3156 0 
L 2578 0 
L 2988 2091 
Q 3016 2238 3031 2350 
Q 3047 2463 3047 2528 
Q 3047 2791 2881 2937 
Q 2716 3084 2419 3084 
Q 1956 3084 1622 2776 
Q 1288 2469 1184 1941 
L 800 0 
L 225 0 
L 903 3500 
L 1478 3500 
L 1363 2950 
Q 1603 3253 1940 3418 
Q 2278 3584 2650 3584 
Q 3113 3584 3367 3334 
Q 3622 3084 3622 2631 
Q 3622 2519 3608 2391 
Q 3594 2263 3566 2113 
z
" transform="scale(0.015625)"/>
      </defs>
      <use xlink:href="#DejaVuSans-Oblique-61"/>
      <use xlink:href="#DejaVuSans-Oblique-6e" transform="translate(61.279297 -16.40625) scale(0.7)"/>
     </g>
    </g>
   </g>
   <g id="LineCollection_1">
    <path d="M 69.521591 205.644545 
L 69.521591 36.135455 
" clip-path="url(#p96dd9e82d7)" style="fill: none; stroke: #1f77b4; stroke-width: 1.5"/>
    <path d="M 78.786509 205.644545 
L 78.786509 120.89 
" clip-path="url(#p96dd9e82d7)" style="fill: none; stroke: #1f77b4; stroke-width: 1.5"/>
    <path d="M 88.051428 205.644545 
L 88.051428 149.141515 
" clip-path="url(#p96dd9e82d7)" style="fill: none; stroke: #1f77b4; stroke-width: 1.5"/>
    <path d="M 97.316346 205.644545 
L 97.316346 163.267273 
" clip-path="url(#p96dd9e82d7)" style="fill: none; stroke: #1f77b4; stroke-width: 1.5"/>
    <path d="M 106.581265 205.644545 
L 106.581265 171.742727 
" clip-path="url(#p96dd9e82d7)" style="fill: none; stroke: #1f77b4; stroke-width: 1.5"/>
    <path d="M 115.846183 205.644545 
L 115.846183 177.39303 
" clip-path="url(#p96dd9e82d7)" style="fill: none; stroke: #1f77b4; stroke-width: 1.5"/>
    <path d="M 125.111101 205.644545 
L 125.111101 181.428961 
" clip-path="url(#p96dd9e82d7)" style="fill: none; stroke: #1f77b4; stroke-width: 1.5"/>
    <path d="M 134.37602 205.644545 
L 134.37602 184.455909 
" clip-path="url(#p96dd9e82d7)" style="fill: none; stroke: #1f77b4; stroke-width: 1.5"/>
    <path d="M 143.640938 205.644545 
L 143.640938 186.810202 
" clip-path="url(#p96dd9e82d7)" style="fill: none; stroke: #1f77b4; stroke-width: 1.5"/>
    <path d="M 152.905857 205.644545 
L 152.905857 188.693636 
" clip-path="url(#p96dd9e82d7)" style="fill: none; stroke: #1f77b4; stroke-width: 1.5"/>
    <path d="M 162.170775 205.644545 
L 162.170775 190.234628 
" clip-path="url(#p96dd9e82d7)" style="fill: none; stroke: #1f77b4; stroke-width: 1.5"/>
    <path d="M 171.435693 205.644545 
L 171.435693 191.518788 
" clip-path="url(#p96dd9e82d7)" style="fill: none; stroke: #1f77b4; stroke-width: 1.5"/>
    <path d="M 180.700612 205.644545 
L 180.700612 192.605385 
" clip-path="url(#p96dd9e82d7)" style="fill: none; stroke: #1f77b4; stroke-width: 1.5"/>
    <path d="M 189.96553 205.644545 
L 189.96553 193.536753 
" clip-path="url(#p96dd9e82d7)" style="fill: none; stroke: #1f77b4; stroke-width: 1.5"/>
    <path d="M 199.230449 205.644545 
L 199.230449 194.343939 
" clip-path="url(#p96dd9e82d7)" style="fill: none; stroke: #1f77b4; stroke-width: 1.5"/>
    <path d="M 208.495367 205.644545 
L 208.495367 195.050227 
" clip-path="url(#p96dd9e82d7)" style="fill: none; stroke: #1f77b4; stroke-width: 1.5"/>
    <path d="M 217.760286 205.644545 
L 217.760286 195.673422 
" clip-path="url(#p96dd9e82d7)" style="fill: none; stroke: #1f77b4; stroke-width: 1.5"/>
    <path d="M 227.025204 205.644545 
L 227.025204 196.227374 
" clip-path="url(#p96dd9e82d7)" style="fill: none; stroke: #1f77b4; stroke-width: 1.5"/>
    <path d="M 236.290122 205.644545 
L 236.290122 196.723014 
" clip-path="url(#p96dd9e82d7)" style="fill: none; stroke: #1f77b4; stroke-width: 1.5"/>
    <path d="M 245.555041 205.644545 
L 245.555041 197.169091 
" clip-path="url(#p96dd9e82d7)" style="fill: none; stroke: #1f77b4; stroke-width: 1.5"/>
    <path d="M 254.819959 205.644545 
L 254.819959 197.572684 
" clip-path="url(#p96dd9e82d7)" style="fill: none; stroke: #1f77b4; stroke-width: 1.5"/>
    <path d="M 264.084878 205.644545 
L 264.084878 197.939587 
" clip-path="url(#p96dd9e82d7)" style="fill: none; stroke: #1f77b4; stroke-width: 1.5"/>
    <path d="M 273.349796 205.644545 
L 273.349796 198.274585 
" clip-path="url(#p96dd9e82d7)" style="fill: none; stroke: #1f77b4; stroke-width: 1.5"/>
    <path d="M 282.614714 205.644545 
L 282.614714 198.581667 
" clip-path="url(#p96dd9e82d7)" style="fill: none; stroke: #1f77b4; stroke-width: 1.5"/>
    <path d="M 291.879633 205.644545 
L 291.879633 198.864182 
" clip-path="url(#p96dd9e82d7)" style="fill: none; stroke: #1f77b4; stroke-width: 1.5"/>
    <path d="M 301.144551 205.644545 
L 301.144551 199.124965 
" clip-path="url(#p96dd9e82d7)" style="fill: none; stroke: #1f77b4; stroke-width: 1.5"/>
    <path d="M 310.40947 205.644545 
L 310.40947 199.366431 
" clip-path="url(#p96dd9e82d7)" style="fill: none; stroke: #1f77b4; stroke-width: 1.5"/>
    <path d="M 319.674388 205.644545 
L 319.674388 199.590649 
" clip-path="url(#p96dd9e82d7)" style="fill: none; stroke: #1f77b4; stroke-width: 1.5"/>
    <path d="M 328.939307 205.644545 
L 328.939307 199.799404 
" clip-path="url(#p96dd9e82d7)" style="fill: none; stroke: #1f77b4; stroke-width: 1.5"/>
    <path d="M 338.204225 205.644545 
L 338.204225 199.994242 
" clip-path="url(#p96dd9e82d7)" style="fill: none; stroke: #1f77b4; stroke-width: 1.5"/>
    <path d="M 347.469143 205.644545 
L 347.469143 200.17651 
" clip-path="url(#p96dd9e82d7)" style="fill: none; stroke: #1f77b4; stroke-width: 1.5"/>
    <path d="M 356.734062 205.644545 
L 356.734062 200.347386 
" clip-path="url(#p96dd9e82d7)" style="fill: none; stroke: #1f77b4; stroke-width: 1.5"/>
    <path d="M 365.99898 205.644545 
L 365.99898 200.507906 
" clip-path="url(#p96dd9e82d7)" style="fill: none; stroke: #1f77b4; stroke-width: 1.5"/>
    <path d="M 375.263899 205.644545 
L 375.263899 200.658984 
" clip-path="url(#p96dd9e82d7)" style="fill: none; stroke: #1f77b4; stroke-width: 1.5"/>
    <path d="M 384.528817 205.644545 
L 384.528817 200.801429 
" clip-path="url(#p96dd9e82d7)" style="fill: none; stroke: #1f77b4; stroke-width: 1.5"/>
    <path d="M 393.793735 205.644545 
L 393.793735 200.93596 
" clip-path="url(#p96dd9e82d7)" style="fill: none; stroke: #1f77b4; stroke-width: 1.5"/>
    <path d="M 403.058654 205.644545 
L 403.058654 201.063219 
" clip-path="url(#p96dd9e82d7)" style="fill: none; stroke: #1f77b4; stroke-width: 1.5"/>
    <path d="M 412.323572 205.644545 
L 412.323572 201.18378 
" clip-path="url(#p96dd9e82d7)" style="fill: none; stroke: #1f77b4; stroke-width: 1.5"/>
    <path d="M 421.588491 205.644545 
L 421.588491 201.298159 
" clip-path="url(#p96dd9e82d7)" style="fill: none; stroke: #1f77b4; stroke-width: 1.5"/>
    <path d="M 430.853409 205.644545 
L 430.853409 201.406818 
" clip-path="url(#p96dd9e82d7)" style="fill: none; stroke: #1f77b4; stroke-width: 1.5"/>
   </g>
   <g id="line2d_31">
    <defs>
     <path id="md8066ed37c" d="M 0 3 
C 0.795609 3 1.55874 2.683901 2.12132 2.12132 
C 2.683901 1.55874 3 0.795609 3 0 
C 3 -0.795609 2.683901 -1.55874 2.12132 -2.12132 
C 1.55874 -2.683901 0.795609 -3 0 -3 
C -0.795609 -3 -1.55874 -2.683901 -2.12132 -2.12132 
C -2.683901 -1.55874 -3 -0.795609 -3 0 
C -3 0.795609 -2.683901 1.55874 -2.12132 2.12132 
C -1.55874 2.683901 -0.795609 3 0 3 
z
" style="stroke: #1f77b4"/>
    </defs>
    <g clip-path="url(#p96dd9e82d7)">
     <use xlink:href="#md8066ed37c" x="69.521591" y="36.135455" style="fill: #1f77b4; stroke: #1f77b4"/>
     <use xlink:href="#md8066ed37c" x="78.786509" y="120.89" style="fill: #1f77b4; stroke: #1f77b4"/>
     <use xlink:href="#md8066ed37c" x="88.051428" y="149.141515" style="fill: #1f77b4; stroke: #1f77b4"/>
     <use xlink:href="#md8066ed37c" x="97.316346" y="163.267273" style="fill: #1f77b4; stroke: #1f77b4"/>
     <use xlink:href="#md8066ed37c" x="106.581265" y="171.742727" style="fill: #1f77b4; stroke: #1f77b4"/>
     <use xlink:href="#md8066ed37c" x="115.846183" y="177.39303" style="fill: #1f77b4; stroke: #1f77b4"/>
     <use xlink:href="#md8066ed37c" x="125.111101" y="181.428961" style="fill: #1f77b4; stroke: #1f77b4"/>
     <use xlink:href="#md8066ed37c" x="134.37602" y="184.455909" style="fill: #1f77b4; stroke: #1f77b4"/>
     <use xlink:href="#md8066ed37c" x="143.640938" y="186.810202" style="fill: #1f77b4; stroke: #1f77b4"/>
     <use xlink:href="#md8066ed37c" x="152.905857" y="188.693636" style="fill: #1f77b4; stroke: #1f77b4"/>
     <use xlink:href="#md8066ed37c" x="162.170775" y="190.234628" style="fill: #1f77b4; stroke: #1f77b4"/>
     <use xlink:href="#md8066ed37c" x="171.435693" y="191.518788" style="fill: #1f77b4; stroke: #1f77b4"/>
     <use xlink:href="#md8066ed37c" x="180.700612" y="192.605385" style="fill: #1f77b4; stroke: #1f77b4"/>
     <use xlink:href="#md8066ed37c" x="189.96553" y="193.536753" style="fill: #1f77b4; stroke: #1f77b4"/>
     <use xlink:href="#md8066ed37c" x="199.230449" y="194.343939" style="fill: #1f77b4; stroke: #1f77b4"/>
     <use xlink:href="#md8066ed37c" x="208.495367" y="195.050227" style="fill: #1f77b4; stroke: #1f77b4"/>
     <use xlink:href="#md8066ed37c" x="217.760286" y="195.673422" style="fill: #1f77b4; stroke: #1f77b4"/>
     <use xlink:href="#md8066ed37c" x="227.025204" y="196.227374" style="fill: #1f77b4; stroke: #1f77b4"/>
     <use xlink:href="#md8066ed37c" x="236.290122" y="196.723014" style="fill: #1f77b4; stroke: #1f77b4"/>
     <use xlink:href="#md8066ed37c" x="245.555041" y="197.169091" style="fill: #1f77b4; stroke: #1f77b4"/>
     <use xlink:href="#md8066ed37c" x="254.819959" y="197.572684" style="fill: #1f77b4; stroke: #1f77b4"/>
     <use xlink:href="#md8066ed37c" x="264.084878" y="197.939587" style="fill: #1f77b4; stroke: #1f77b4"/>
     <use xlink:href="#md8066ed37c" x="273.349796" y="198.274585" style="fill: #1f77b4; stroke: #1f77b4"/>
     <use xlink:href="#md8066ed37c" x="282.614714" y="198.581667" style="fill: #1f77b4; stroke: #1f77b4"/>
     <use xlink:href="#md8066ed37c" x="291.879633" y="198.864182" style="fill: #1f77b4; stroke: #1f77b4"/>
     <use xlink:href="#md8066ed37c" x="301.144551" y="199.124965" style="fill: #1f77b4; stroke: #1f77b4"/>
     <use xlink:href="#md8066ed37c" x="310.40947" y="199.366431" style="fill: #1f77b4; stroke: #1f77b4"/>
     <use xlink:href="#md8066ed37c" x="319.674388" y="199.590649" style="fill: #1f77b4; stroke: #1f77b4"/>
     <use xlink:href="#md8066ed37c" x="328.939307" y="199.799404" style="fill: #1f77b4; stroke: #1f77b4"/>
     <use xlink:href="#md8066ed37c" x="338.204225" y="199.994242" style="fill: #1f77b4; stroke: #1f77b4"/>
     <use xlink:href="#md8066ed37c" x="347.469143" y="200.17651" style="fill: #1f77b4; stroke: #1f77b4"/>
     <use xlink:href="#md8066ed37c" x="356.734062" y="200.347386" style="fill: #1f77b4; stroke: #1f77b4"/>
     <use xlink:href="#md8066ed37c" x="365.99898" y="200.507906" style="fill: #1f77b4; stroke: #1f77b4"/>
     <use xlink:href="#md8066ed37c" x="375.263899" y="200.658984" style="fill: #1f77b4; stroke: #1f77b4"/>
     <use xlink:href="#md8066ed37c" x="384.528817" y="200.801429" style="fill: #1f77b4; stroke: #1f77b4"/>
     <use xlink:href="#md8066ed37c" x="393.793735" y="200.93596" style="fill: #1f77b4; stroke: #1f77b4"/>
     <use xlink:href="#md8066ed37c" x="403.058654" y="201.063219" style="fill: #1f77b4; stroke: #1f77b4"/>
     <use xlink:href="#md8066ed37c" x="412.323572" y="201.18378" style="fill: #1f77b4; stroke: #1f77b4"/>
     <use xlink:href="#md8066ed37c" x="421.588491" y="201.298159" style="fill: #1f77b4; stroke: #1f77b4"/>
     <use xlink:href="#md8066ed37c" x="430.853409" y="201.406818" style="fill: #1f77b4; stroke: #1f77b4"/>
    </g>
   </g>
   <g id="line2d_32"/>
   <g id="line2d_33">
    <path d="M 51.455 205.644545 
L 448.92 205.644545 
" clip-path="url(#p96dd9e82d7)" style="fill: none; stroke: #000000; stroke-opacity: 0.25; stroke-linecap: square"/>
   </g>
   <g id="patch_3">
    <path d="M 51.455 214.12 
L 51.455 27.66 
" style="fill: none; stroke: #000000; stroke-width: 0.8; stroke-linejoin: miter; stroke-linecap: square"/>
   </g>
   <g id="patch_4">
    <path d="M 51.455 214.12 
L 448.92 214.12 
" style="fill: none; stroke: #000000; stroke-width: 0.8; stroke-linejoin: miter; stroke-linecap: square"/>
   </g>
   <g id="text_18">
    <!-- Successione: $a_n=1/n\to 0$ -->
    <g transform="translate(174.5275 21.66) scale(0.12 -0.12)">
     <defs>
      <path id="DejaVuSans-53" d="M 3425 4513 
L 3425 3897 
Q 3066 4069 2747 4153 
Q 2428 4238 2131 4238 
Q 1616 4238 1336 4038 
Q 1056 3838 1056 3469 
Q 1056 3159 1242 3001 
Q 1428 2844 1947 2747 
L 2328 2669 
Q 3034 2534 3370 2195 
Q 3706 1856 3706 1288 
Q 3706 609 3251 259 
Q 2797 -91 1919 -91 
Q 1588 -91 1214 -16 
Q 841 59 441 206 
L 441 856 
Q 825 641 1194 531 
Q 1563 422 1919 422 
Q 2459 422 2753 634 
Q 3047 847 3047 1241 
Q 3047 1584 2836 1778 
Q 2625 1972 2144 2069 
L 1759 2144 
Q 1053 2284 737 2584 
Q 422 2884 422 3419 
Q 422 4038 858 4394 
Q 1294 4750 2059 4750 
Q 2388 4750 2728 4690 
Q 3069 4631 3425 4513 
z
" transform="scale(0.015625)"/>
      <path id="DejaVuSans-75" d="M 544 1381 
L 544 3500 
L 1119 3500 
L 1119 1403 
Q 1119 906 1312 657 
Q 1506 409 1894 409 
Q 2359 409 2629 706 
Q 2900 1003 2900 1516 
L 2900 3500 
L 3475 3500 
L 3475 0 
L 2900 0 
L 2900 538 
Q 2691 219 2414 64 
Q 2138 -91 1772 -91 
Q 1169 -91 856 284 
Q 544 659 544 1381 
z
M 1991 3584 
L 1991 3584 
z
" transform="scale(0.015625)"/>
      <path id="DejaVuSans-63" d="M 3122 3366 
L 3122 2828 
Q 2878 2963 2633 3030 
Q 2388 3097 2138 3097 
Q 1578 3097 1268 2742 
Q 959 2388 959 1747 
Q 959 1106 1268 751 
Q 1578 397 2138 397 
Q 2388 397 2633 464 
Q 2878 531 3122 666 
L 3122 134 
Q 2881 22 2623 -34 
Q 2366 -91 2075 -91 
Q 1284 -91 818 406 
Q 353 903 353 1747 
Q 353 2603 823 3093 
Q 1294 3584 2113 3584 
Q 2378 3584 2631 3529 
Q 2884 3475 3122 3366 
z
" transform="scale(0.015625)"/>
      <path id="DejaVuSans-65" d="M 3597 1894 
L 3597 1613 
L 953 1613 
Q 991 1019 1311 708 
Q 1631 397 2203 397 
Q 2534 397 2845 478 
Q 3156 559 3463 722 
L 3463 178 
Q 3153 47 2828 -22 
Q 2503 -91 2169 -91 
Q 1331 -91 842 396 
Q 353 884 353 1716 
Q 353 2575 817 3079 
Q 1281 3584 2069 3584 
Q 2775 3584 3186 3129 
Q 3597 2675 3597 1894 
z
M 3022 2063 
Q 3016 2534 2758 2815 
Q 2500 3097 2075 3097 
Q 1594 3097 1305 2825 
Q 1016 2553 972 2059 
L 3022 2063 
z
" transform="scale(0.015625)"/>
      <path id="DejaVuSans-73" d="M 2834 3397 
L 2834 2853 
Q 2591 2978 2328 3040 
Q 2066 3103 1784 3103 
Q 1356 3103 1142 2972 
Q 928 2841 928 2578 
Q 928 2378 1081 2264 
Q 1234 2150 1697 2047 
L 1894 2003 
Q 2506 1872 2764 1633 
Q 3022 1394 3022 966 
Q 3022 478 2636 193 
Q 2250 -91 1575 -91 
Q 1294 -91 989 -36 
Q 684 19 347 128 
L 347 722 
Q 666 556 975 473 
Q 1284 391 1588 391 
Q 1994 391 2212 530 
Q 2431 669 2431 922 
Q 2431 1156 2273 1281 
Q 2116 1406 1581 1522 
L 1381 1569 
Q 847 1681 609 1914 
Q 372 2147 372 2553 
Q 372 3047 722 3315 
Q 1072 3584 1716 3584 
Q 2034 3584 2315 3537 
Q 2597 3491 2834 3397 
z
" transform="scale(0.015625)"/>
      <path id="DejaVuSans-69" d="M 603 3500 
L 1178 3500 
L 1178 0 
L 603 0 
L 603 3500 
z
M 603 4863 
L 1178 4863 
L 1178 4134 
L 603 4134 
L 603 4863 
z
" transform="scale(0.015625)"/>
      <path id="DejaVuSans-6f" d="M 1959 3097 
Q 1497 3097 1228 2736 
Q 959 2375 959 1747 
Q 959 1119 1226 758 
Q 1494 397 1959 397 
Q 2419 397 2687 759 
Q 2956 1122 2956 1747 
Q 2956 2369 2687 2733 
Q 2419 3097 1959 3097 
z
M 1959 3584 
Q 2709 3584 3137 3096 
Q 3566 2609 3566 1747 
Q 3566 888 3137 398 
Q 2709 -91 1959 -91 
Q 1206 -91 779 398 
Q 353 888 353 1747 
Q 353 2609 779 3096 
Q 1206 3584 1959 3584 
z
" transform="scale(0.015625)"/>
      <path id="DejaVuSans-3a" d="M 750 794 
L 1409 794 
L 1409 0 
L 750 0 
L 750 794 
z
M 750 3309 
L 1409 3309 
L 1409 2516 
L 750 2516 
L 750 3309 
z
" transform="scale(0.015625)"/>
      <path id="DejaVuSans-20" transform="scale(0.015625)"/>
      <path id="DejaVuSans-3d" d="M 678 2906 
L 4684 2906 
L 4684 2381 
L 678 2381 
L 678 2906 
z
M 678 1631 
L 4684 1631 
L 4684 1100 
L 678 1100 
L 678 1631 
z
" transform="scale(0.015625)"/>
      <path id="DejaVuSans-2f" d="M 1625 4666 
L 2156 4666 
L 531 -594 
L 0 -594 
L 1625 4666 
z
" transform="scale(0.015625)"/>
      <path id="DejaVuSans-2192" d="M 5050 2147 
L 5050 1866 
L 3822 638 
L 3447 1013 
L 4175 1741 
L 366 1741 
L 366 2272 
L 4175 2272 
L 3447 3000 
L 3822 3375 
L 5050 2147 
z
" transform="scale(0.015625)"/>
     </defs>
     <use xlink:href="#DejaVuSans-53" transform="translate(0 0.015625)"/>
     <use xlink:href="#DejaVuSans-75" transform="translate(63.476562 0.015625)"/>
     <use xlink:href="#DejaVuSans-63" transform="translate(126.855469 0.015625)"/>
     <use xlink:href="#DejaVuSans-63" transform="translate(181.835938 0.015625)"/>
     <use xlink:href="#DejaVuSans-65" transform="translate(236.816406 0.015625)"/>
     <use xlink:href="#DejaVuSans-73" transform="translate(298.339844 0.015625)"/>
     <use xlink:href="#DejaVuSans-73" transform="translate(350.439453 0.015625)"/>
     <use xlink:href="#DejaVuSans-69" transform="translate(402.539062 0.015625)"/>
     <use xlink:href="#DejaVuSans-6f" transform="translate(430.322266 0.015625)"/>
     <use xlink:href="#DejaVuSans-6e" transform="translate(491.503906 0.015625)"/>
     <use xlink:href="#DejaVuSans-65" transform="translate(554.882812 0.015625)"/>
     <use xlink:href="#DejaVuSans-3a" transform="translate(616.40625 0.015625)"/>
     <use xlink:href="#DejaVuSans-20" transform="translate(650.097656 0.015625)"/>
     <use xlink:href="#DejaVuSans-Oblique-61" transform="translate(681.884766 0.015625)"/>
     <use xlink:href="#DejaVuSans-Oblique-6e" transform="translate(743.164062 -16.390625) scale(0.7)"/>
     <use xlink:href="#DejaVuSans-3d" transform="translate(809.746094 0.015625)"/>
     <use xlink:href="#DejaVuSans-31" transform="translate(913.017578 0.015625)"/>
     <use xlink:href="#DejaVuSans-2f" transform="translate(976.640625 0.015625)"/>
     <use xlink:href="#DejaVuSans-Oblique-6e" transform="translate(1010.332031 0.015625)"/>
     <use xlink:href="#DejaVuSans-2192" transform="translate(1093.193359 0.015625)"/>
     <use xlink:href="#DejaVuSans-30" transform="translate(1196.464844 0.015625)"/>
    </g>
   </g>
  </g>
 </g>
 <defs>
  <clipPath id="p96dd9e82d7">
   <rect x="51.455" y="27.66" width="397.465" height="186.46"/>
  </clipPath>
 </defs>
</svg>
