<?xml version="1.0" encoding="utf-8" standalone="no"?>
<!DOCTYPE svg PUBLIC "-//W3C//DTD SVG 1.1//EN"
  "http://www.w3.org/Graphics/SVG/1.1/DTD/svg11.dtd">
<svg xmlns:xlink="http://www.w3.org/1999/xlink" width="460.8pt" height="259.2pt" viewBox="0 0 460.8 259.2" xmlns="http://www.w3.org/2000/svg" version="1.1">
 <metadata>
  <rdf:RDF xmlns:dc="http://purl.org/dc/elements/1.1/" xmlns:cc="http://creativecommons.org/ns#" xmlns:rdf="http://www.w3.org/1999/02/22-rdf-syntax-ns#">
   <cc:Work>
    <dc:type rdf:resource="http://purl.org/dc/dcmitype/StillImage"/>
    <dc:date>2025-12-14T20:27:26.388304</dc:date>
    <dc:format>image/svg+xml</dc:format>
    <dc:creator>
     <cc:Agent>
      <dc:title>Matplotlib v3.8.2, https://matplotlib.org/</dc:title>
     </cc:Agent>
    </dc:creator>
   </cc:Work>
  </rdf:RDF>
 </metadata>
 <defs>
  <style type="text/css">*{stroke-linejoin: round; stroke-linecap: butt}</style>
 </defs>
 <g id="figure_1">
  <g id="patch_1">
   <path d="M 0 259.2 
L 460.8 259.2 
L 460.8 0 
L 0 0 
z
" style="fill: #ffffff"/>
  </g>
  <g id="axes_1">
   <g id="patch_2">
    <path d="M 60.68 214.12 
L 448.92 214.12 
L 448.92 27.78 
L 60.68 27.78 
z
" style="fill: #ffffff"/>
   </g>
   <g id="matplotlib.axis_1">
    <g id="xtick_1">
     <g id="line2d_1">
      <path d="M 78.327273 214.12 
L 78.327273 27.78 
" clip-path="url(#p1965eb93aa)" style="fill: none; stroke: #b0b0b0; stroke-opacity: 0.25; stroke-width: 0.8; stroke-linecap: square"/>
     </g>
     <g id="line2d_2">
      <defs>
       <path id="m36238e9590" d="M 0 0 
L 0 3.5 
" style="stroke: #000000; stroke-width: 0.8"/>
      </defs>
      <g>
       <use xlink:href="#m36238e9590" x="78.327273" y="214.12" style="stroke: #000000; stroke-width: 0.8"/>
      </g>
     </g>
     <g id="text_1">
      <!-- −0.20 -->
      <g transform="translate(61.472351 229.478281) scale(0.11 -0.11)">
       <defs>
        <path id="DejaVuSans-2212" d="M 678 2272 
L 4684 2272 
L 4684 1741 
L 678 1741 
L 678 2272 
z
" transform="scale(0.015625)"/>
        <path id="DejaVuSans-30" d="M 2034 4250 
Q 1547 4250 1301 3770 
Q 1056 3291 1056 2328 
Q 1056 1369 1301 889 
Q 1547 409 2034 409 
Q 2525 409 2770 889 
Q 3016 1369 3016 2328 
Q 3016 3291 2770 3770 
Q 2525 4250 2034 4250 
z
M 2034 4750 
Q 2819 4750 3233 4129 
Q 3647 3509 3647 2328 
Q 3647 1150 3233 529 
Q 2819 -91 2034 -91 
Q 1250 -91 836 529 
Q 422 1150 422 2328 
Q 422 3509 836 4129 
Q 1250 4750 2034 4750 
z
" transform="scale(0.015625)"/>
        <path id="DejaVuSans-2e" d="M 684 794 
L 1344 794 
L 1344 0 
L 684 0 
L 684 794 
z
" transform="scale(0.015625)"/>
        <path id="DejaVuSans-32" d="M 1228 531 
L 3431 531 
L 3431 0 
L 469 0 
L 469 531 
Q 828 903 1448 1529 
Q 2069 2156 2228 2338 
Q 2531 2678 2651 2914 
Q 2772 3150 2772 3378 
Q 2772 3750 2511 3984 
Q 2250 4219 1831 4219 
Q 1534 4219 1204 4116 
Q 875 4013 500 3803 
L 500 4441 
Q 881 4594 1212 4672 
Q 1544 4750 1819 4750 
Q 2544 4750 2975 4387 
Q 3406 4025 3406 3419 
Q 3406 3131 3298 2873 
Q 3191 2616 2906 2266 
Q 2828 2175 2409 1742 
Q 1991 1309 1228 531 
z
" transform="scale(0.015625)"/>
       </defs>
       <use xlink:href="#DejaVuSans-2212"/>
       <use xlink:href="#DejaVuSans-30" x="83.789062"/>
       <use xlink:href="#DejaVuSans-2e" x="147.412109"/>
       <use xlink:href="#DejaVuSans-32" x="179.199219"/>
       <use xlink:href="#DejaVuSans-30" x="242.822266"/>
      </g>
     </g>
    </g>
    <g id="xtick_2">
     <g id="line2d_3">
      <path d="M 122.445455 214.12 
L 122.445455 27.78 
" clip-path="url(#p1965eb93aa)" style="fill: none; stroke: #b0b0b0; stroke-opacity: 0.25; stroke-width: 0.8; stroke-linecap: square"/>
     </g>
     <g id="line2d_4">
      <g>
       <use xlink:href="#m36238e9590" x="122.445455" y="214.12" style="stroke: #000000; stroke-width: 0.8"/>
      </g>
     </g>
     <g id="text_2">
      <!-- −0.15 -->
      <g transform="translate(105.590533 229.478281) scale(0.11 -0.11)">
       <defs>
        <path id="DejaVuSans-31" d="M 794 531 
L 1825 531 
L 1825 4091 
L 703 3866 
L 703 4441 
L 1819 4666 
L 2450 4666 
L 2450 531 
L 3481 531 
L 3481 0 
L 794 0 
L 794 531 
z
" transform="scale(0.015625)"/>
        <path id="DejaVuSans-35" d="M 691 4666 
L 3169 4666 
L 3169 4134 
L 1269 4134 
L 1269 2991 
Q 1406 3038 1543 3061 
Q 1681 3084 1819 3084 
Q 2600 3084 3056 2656 
Q 3513 2228 3513 1497 
Q 3513 744 3044 326 
Q 2575 -91 1722 -91 
Q 1428 -91 1123 -41 
Q 819 9 494 109 
L 494 744 
Q 775 591 1075 516 
Q 1375 441 1709 441 
Q 2250 441 2565 725 
Q 2881 1009 2881 1497 
Q 2881 1984 2565 2268 
Q 2250 2553 1709 2553 
Q 1456 2553 1204 2497 
Q 953 2441 691 2322 
L 691 4666 
z
" transform="scale(0.015625)"/>
       </defs>
       <use xlink:href="#DejaVuSans-2212"/>
       <use xlink:href="#DejaVuSans-30" x="83.789062"/>
       <use xlink:href="#DejaVuSans-2e" x="147.412109"/>
       <use xlink:href="#DejaVuSans-31" x="179.199219"/>
       <use xlink:href="#DejaVuSans-35" x="242.822266"/>
      </g>
     </g>
    </g>
    <g id="xtick_3">
     <g id="line2d_5">
      <path d="M 166.563636 214.12 
L 166.563636 27.78 
" clip-path="url(#p1965eb93aa)" style="fill: none; stroke: #b0b0b0; stroke-opacity: 0.25; stroke-width: 0.8; stroke-linecap: square"/>
     </g>
     <g id="line2d_6">
      <g>
       <use xlink:href="#m36238e9590" x="166.563636" y="214.12" style="stroke: #000000; stroke-width: 0.8"/>
      </g>
     </g>
     <g id="text_3">
      <!-- −0.10 -->
      <g transform="translate(149.708714 229.478281) scale(0.11 -0.11)">
       <use xlink:href="#DejaVuSans-2212"/>
       <use xlink:href="#DejaVuSans-30" x="83.789062"/>
       <use xlink:href="#DejaVuSans-2e" x="147.412109"/>
       <use xlink:href="#DejaVuSans-31" x="179.199219"/>
       <use xlink:href="#DejaVuSans-30" x="242.822266"/>
      </g>
     </g>
    </g>
    <g id="xtick_4">
     <g id="line2d_7">
      <path d="M 210.681818 214.12 
L 210.681818 27.78 
" clip-path="url(#p1965eb93aa)" style="fill: none; stroke: #b0b0b0; stroke-opacity: 0.25; stroke-width: 0.8; stroke-linecap: square"/>
     </g>
     <g id="line2d_8">
      <g>
       <use xlink:href="#m36238e9590" x="210.681818" y="214.12" style="stroke: #000000; stroke-width: 0.8"/>
      </g>
     </g>
     <g id="text_4">
      <!-- −0.05 -->
      <g transform="translate(193.826896 229.478281) scale(0.11 -0.11)">
       <use xlink:href="#DejaVuSans-2212"/>
       <use xlink:href="#DejaVuSans-30" x="83.789062"/>
       <use xlink:href="#DejaVuSans-2e" x="147.412109"/>
       <use xlink:href="#DejaVuSans-30" x="179.199219"/>
       <use xlink:href="#DejaVuSans-35" x="242.822266"/>
      </g>
     </g>
    </g>
    <g id="xtick_5">
     <g id="line2d_9">
      <path d="M 254.8 214.12 
L 254.8 27.78 
" clip-path="url(#p1965eb93aa)" style="fill: none; stroke: #b0b0b0; stroke-opacity: 0.25; stroke-width: 0.8; stroke-linecap: square"/>
     </g>
     <g id="line2d_10">
      <g>
       <use xlink:href="#m36238e9590" x="254.8" y="214.12" style="stroke: #000000; stroke-width: 0.8"/>
      </g>
     </g>
     <g id="text_5">
      <!-- 0.00 -->
      <g transform="translate(242.553906 229.478281) scale(0.11 -0.11)">
       <use xlink:href="#DejaVuSans-30"/>
       <use xlink:href="#DejaVuSans-2e" x="63.623047"/>
       <use xlink:href="#DejaVuSans-30" x="95.410156"/>
       <use xlink:href="#DejaVuSans-30" x="159.033203"/>
      </g>
     </g>
    </g>
    <g id="xtick_6">
     <g id="line2d_11">
      <path d="M 298.918182 214.12 
L 298.918182 27.78 
" clip-path="url(#p1965eb93aa)" style="fill: none; stroke: #b0b0b0; stroke-opacity: 0.25; stroke-width: 0.8; stroke-linecap: square"/>
     </g>
     <g id="line2d_12">
      <g>
       <use xlink:href="#m36238e9590" x="298.918182" y="214.12" style="stroke: #000000; stroke-width: 0.8"/>
      </g>
     </g>
     <g id="text_6">
      <!-- 0.05 -->
      <g transform="translate(286.672088 229.478281) scale(0.11 -0.11)">
       <use xlink:href="#DejaVuSans-30"/>
       <use xlink:href="#DejaVuSans-2e" x="63.623047"/>
       <use xlink:href="#DejaVuSans-30" x="95.410156"/>
       <use xlink:href="#DejaVuSans-35" x="159.033203"/>
      </g>
     </g>
    </g>
    <g id="xtick_7">
     <g id="line2d_13">
      <path d="M 343.036364 214.12 
L 343.036364 27.78 
" clip-path="url(#p1965eb93aa)" style="fill: none; stroke: #b0b0b0; stroke-opacity: 0.25; stroke-width: 0.8; stroke-linecap: square"/>
     </g>
     <g id="line2d_14">
      <g>
       <use xlink:href="#m36238e9590" x="343.036364" y="214.12" style="stroke: #000000; stroke-width: 0.8"/>
      </g>
     </g>
     <g id="text_7">
      <!-- 0.10 -->
      <g transform="translate(330.79027 229.478281) scale(0.11 -0.11)">
       <use xlink:href="#DejaVuSans-30"/>
       <use xlink:href="#DejaVuSans-2e" x="63.623047"/>
       <use xlink:href="#DejaVuSans-31" x="95.410156"/>
       <use xlink:href="#DejaVuSans-30" x="159.033203"/>
      </g>
     </g>
    </g>
    <g id="xtick_8">
     <g id="line2d_15">
      <path d="M 387.154545 214.12 
L 387.154545 27.78 
" clip-path="url(#p1965eb93aa)" style="fill: none; stroke: #b0b0b0; stroke-opacity: 0.25; stroke-width: 0.8; stroke-linecap: square"/>
     </g>
     <g id="line2d_16">
      <g>
       <use xlink:href="#m36238e9590" x="387.154545" y="214.12" style="stroke: #000000; stroke-width: 0.8"/>
      </g>
     </g>
     <g id="text_8">
      <!-- 0.15 -->
      <g transform="translate(374.908452 229.478281) scale(0.11 -0.11)">
       <use xlink:href="#DejaVuSans-30"/>
       <use xlink:href="#DejaVuSans-2e" x="63.623047"/>
       <use xlink:href="#DejaVuSans-31" x="95.410156"/>
       <use xlink:href="#DejaVuSans-35" x="159.033203"/>
      </g>
     </g>
    </g>
    <g id="xtick_9">
     <g id="line2d_17">
      <path d="M 431.272727 214.12 
L 431.272727 27.78 
" clip-path="url(#p1965eb93aa)" style="fill: none; stroke: #b0b0b0; stroke-opacity: 0.25; stroke-width: 0.8; stroke-linecap: square"/>
     </g>
     <g id="line2d_18">
      <g>
       <use xlink:href="#m36238e9590" x="431.272727" y="214.12" style="stroke: #000000; stroke-width: 0.8"/>
      </g>
     </g>
     <g id="text_9">
      <!-- 0.20 -->
      <g transform="translate(419.026634 229.478281) scale(0.11 -0.11)">
       <use xlink:href="#DejaVuSans-30"/>
       <use xlink:href="#DejaVuSans-2e" x="63.623047"/>
       <use xlink:href="#DejaVuSans-32" x="95.410156"/>
       <use xlink:href="#DejaVuSans-30" x="159.033203"/>
      </g>
     </g>
    </g>
    <g id="text_10">
     <!-- x -->
     <g transform="translate(251.544688 244.124219) scale(0.11 -0.11)">
      <defs>
       <path id="DejaVuSans-78" d="M 3513 3500 
L 2247 1797 
L 3578 0 
L 2900 0 
L 1881 1375 
L 863 0 
L 184 0 
L 1544 1831 
L 300 3500 
L 978 3500 
L 1906 2253 
L 2834 3500 
L 3513 3500 
z
" transform="scale(0.015625)"/>
      </defs>
      <use xlink:href="#DejaVuSans-78"/>
     </g>
    </g>
   </g>
   <g id="matplotlib.axis_2">
    <g id="ytick_1">
     <g id="line2d_19">
      <path d="M 60.68 198.591667 
L 448.92 198.591667 
" clip-path="url(#p1965eb93aa)" style="fill: none; stroke: #b0b0b0; stroke-opacity: 0.25; stroke-width: 0.8; stroke-linecap: square"/>
     </g>
     <g id="line2d_20">
      <defs>
       <path id="m9129eefcc2" d="M 0 0 
L -3.5 0 
" style="stroke: #000000; stroke-width: 0.8"/>
      </defs>
      <g>
       <use xlink:href="#m9129eefcc2" x="60.68" y="198.591667" style="stroke: #000000; stroke-width: 0.8"/>
      </g>
     </g>
     <g id="text_11">
      <!-- −1.0 -->
      <g transform="translate(26.968906 202.770807) scale(0.11 -0.11)">
       <use xlink:href="#DejaVuSans-2212"/>
       <use xlink:href="#DejaVuSans-31" x="83.789062"/>
       <use xlink:href="#DejaVuSans-2e" x="147.412109"/>
       <use xlink:href="#DejaVuSans-30" x="179.199219"/>
      </g>
     </g>
    </g>
    <g id="ytick_2">
     <g id="line2d_21">
      <path d="M 60.68 159.770833 
L 448.92 159.770833 
" clip-path="url(#p1965eb93aa)" style="fill: none; stroke: #b0b0b0; stroke-opacity: 0.25; stroke-width: 0.8; stroke-linecap: square"/>
     </g>
     <g id="line2d_22">
      <g>
       <use xlink:href="#m9129eefcc2" x="60.68" y="159.770833" style="stroke: #000000; stroke-width: 0.8"/>
      </g>
     </g>
     <g id="text_12">
      <!-- −0.5 -->
      <g transform="translate(26.968906 163.949974) scale(0.11 -0.11)">
       <use xlink:href="#DejaVuSans-2212"/>
       <use xlink:href="#DejaVuSans-30" x="83.789062"/>
       <use xlink:href="#DejaVuSans-2e" x="147.412109"/>
       <use xlink:href="#DejaVuSans-35" x="179.199219"/>
      </g>
     </g>
    </g>
    <g id="ytick_3">
     <g id="line2d_23">
      <path d="M 60.68 120.95 
L 448.92 120.95 
" clip-path="url(#p1965eb93aa)" style="fill: none; stroke: #b0b0b0; stroke-opacity: 0.25; stroke-width: 0.8; stroke-linecap: square"/>
     </g>
     <g id="line2d_24">
      <g>
       <use xlink:href="#m9129eefcc2" x="60.68" y="120.95" style="stroke: #000000; stroke-width: 0.8"/>
      </g>
     </g>
     <g id="text_13">
      <!-- 0.0 -->
      <g transform="translate(36.186563 125.129141) scale(0.11 -0.11)">
       <use xlink:href="#DejaVuSans-30"/>
       <use xlink:href="#DejaVuSans-2e" x="63.623047"/>
       <use xlink:href="#DejaVuSans-30" x="95.410156"/>
      </g>
     </g>
    </g>
    <g id="ytick_4">
     <g id="line2d_25">
      <path d="M 60.68 82.129167 
L 448.92 82.129167 
" clip-path="url(#p1965eb93aa)" style="fill: none; stroke: #b0b0b0; stroke-opacity: 0.25; stroke-width: 0.8; stroke-linecap: square"/>
     </g>
     <g id="line2d_26">
      <g>
       <use xlink:href="#m9129eefcc2" x="60.68" y="82.129167" style="stroke: #000000; stroke-width: 0.8"/>
      </g>
     </g>
     <g id="text_14">
      <!-- 0.5 -->
      <g transform="translate(36.186563 86.308307) scale(0.11 -0.11)">
       <use xlink:href="#DejaVuSans-30"/>
       <use xlink:href="#DejaVuSans-2e" x="63.623047"/>
       <use xlink:href="#DejaVuSans-35" x="95.410156"/>
      </g>
     </g>
    </g>
    <g id="ytick_5">
     <g id="line2d_27">
      <path d="M 60.68 43.308333 
L 448.92 43.308333 
" clip-path="url(#p1965eb93aa)" style="fill: none; stroke: #b0b0b0; stroke-opacity: 0.25; stroke-width: 0.8; stroke-linecap: square"/>
     </g>
     <g id="line2d_28">
      <g>
       <use xlink:href="#m9129eefcc2" x="60.68" y="43.308333" style="stroke: #000000; stroke-width: 0.8"/>
      </g>
     </g>
     <g id="text_15">
      <!-- 1.0 -->
      <g transform="translate(36.186563 47.487474) scale(0.11 -0.11)">
       <use xlink:href="#DejaVuSans-31"/>
       <use xlink:href="#DejaVuSans-2e" x="63.623047"/>
       <use xlink:href="#DejaVuSans-30" x="95.410156"/>
      </g>
     </g>
    </g>
    <g id="text_16">
     <!-- y -->
     <g transform="translate(20.68125 124.205312) rotate(-90) scale(0.11 -0.11)">
      <defs>
       <path id="DejaVuSans-79" d="M 2059 -325 
Q 1816 -950 1584 -1140 
Q 1353 -1331 966 -1331 
L 506 -1331 
L 506 -850 
L 844 -850 
Q 1081 -850 1212 -737 
Q 1344 -625 1503 -206 
L 1606 56 
L 191 3500 
L 800 3500 
L 1894 763 
L 2988 3500 
L 3597 3500 
L 2059 -325 
z
" transform="scale(0.015625)"/>
      </defs>
      <use xlink:href="#DejaVuSans-79"/>
     </g>
    </g>
   </g>
   <g id="line2d_29">
    <path d="M 78.327273 46.497521 
L 80.303158 47.863075 
L 82.279044 49.502192 
L 84.298838 51.473317 
L 86.362541 53.809011 
L 88.470152 56.543163 
L 90.621672 59.710597 
L 92.8171 63.346523 
L 95.100346 67.571341 
L 97.4275 72.350893 
L 99.842471 77.820553 
L 102.389168 84.149138 
L 105.067591 91.413698 
L 107.921648 99.811336 
L 111.039156 109.695528 
L 114.59575 121.744295 
L 119.20615 138.213028 
L 127.065783 166.354262 
L 129.963749 175.828152 
L 132.246994 182.564756 
L 134.135063 187.485139 
L 135.75968 191.141013 
L 137.208662 193.875493 
L 138.482011 195.816071 
L 139.579725 197.10626 
L 140.545714 197.924627 
L 141.423885 198.394076 
L 142.214239 198.580809 
L 142.960685 198.542516 
L 143.707131 198.287158 
L 144.497485 197.771198 
L 145.331748 196.942599 
L 146.209919 195.744384 
L 147.175907 194.027474 
L 148.229713 191.663466 
L 149.371336 188.508974 
L 150.600776 184.407617 
L 151.918033 179.19411 
L 153.323107 172.701446 
L 154.859907 164.523631 
L 156.572341 154.156514 
L 158.504318 141.038627 
L 160.875381 123.309726 
L 168.25202 66.88403 
L 169.744911 57.829077 
L 170.930443 51.900559 
L 171.94034 47.92759 
L 172.774603 45.50379 
L 173.433231 44.195303 
L 174.004043 43.524774 
L 174.443128 43.317082 
L 174.838305 43.368146 
L 175.233482 43.651544 
L 175.672568 44.246321 
L 176.199471 45.359129 
L 176.814191 47.221462 
L 177.516728 50.109897 
L 178.307082 54.342452 
L 179.229162 60.597799 
L 180.239059 69.043448 
L 181.424591 80.96246 
L 182.829665 97.540789 
L 184.673825 122.203402 
L 188.230419 170.275129 
L 189.41595 183.129612 
L 190.33803 190.894605 
L 191.040567 195.164722 
L 191.611378 197.429978 
L 192.050464 198.370536 
L 192.357824 198.590138 
L 192.577367 198.517937 
L 192.840818 198.173123 
L 193.192087 197.265692 
L 193.631172 195.396398 
L 194.158075 192.05668 
L 194.772795 186.640217 
L 195.519241 177.901218 
L 196.397412 164.768401 
L 197.495126 144.65423 
L 199.163652 109.230827 
L 201.007812 71.215717 
L 201.929892 56.412239 
L 202.632429 48.415703 
L 203.159332 44.737344 
L 203.5106 43.527378 
L 203.730143 43.308387 
L 203.905777 43.440908 
L 204.12532 43.999784 
L 204.43268 45.530283 
L 204.827857 48.79953 
L 205.310852 54.786066 
L 205.925571 65.477218 
L 206.672017 82.650443 
L 207.725823 112.778298 
L 209.921251 177.265156 
L 210.57988 190.296986 
L 211.062874 196.252241 
L 211.414142 198.32589 
L 211.589777 198.591666 
L 211.721502 198.440844 
L 211.897137 197.76346 
L 212.160588 195.710779 
L 212.511857 191.024955 
L 212.994851 181.016933 
L 213.609571 162.820419 
L 214.487742 128.927308 
L 216.156268 63.0237 
L 216.727079 49.03045 
L 217.122256 44.103582 
L 217.341799 43.309727 
L 217.429616 43.402909 
L 217.561342 43.992831 
L 217.780885 46.192213 
L 218.088245 51.831626 
L 218.527331 64.882009 
L 219.098142 89.435535 
L 221.29357 193.354874 
L 221.60093 197.980303 
L 221.776565 198.582001 
L 221.864382 198.29787 
L 222.040016 196.535516 
L 222.303467 190.895625 
L 222.654736 177.98553 
L 223.181639 148.856183 
L 224.806256 50.275569 
L 225.113616 43.888176 
L 225.245341 43.31236 
L 225.333159 43.689731 
L 225.508793 46.304431 
L 225.772244 54.844312 
L 226.167421 77.164385 
L 226.82605 130.738255 
L 227.572496 185.90911 
L 227.923764 197.647662 
L 228.05549 198.590447 
L 228.099398 198.452606 
L 228.231124 196.657074 
L 228.450667 189.07168 
L 228.758027 169.477421 
L 229.328838 114.423927 
L 229.987467 55.462521 
L 230.294827 43.876731 
L 230.382644 43.311088 
L 230.426552 43.518096 
L 230.558278 46.126175 
L 230.777821 56.99661 
L 231.12909 89.090616 
L 232.182895 196.045686 
L 232.314621 198.560695 
L 232.358529 198.500245 
L 232.446347 196.997436 
L 232.621981 188.498237 
L 232.929341 157.905688 
L 233.895329 44.896012 
L 233.983146 43.331666 
L 234.027055 43.472688 
L 234.158781 47.653817 
L 234.378324 66.617975 
L 234.773501 126.961746 
L 235.256495 192.328855 
L 235.432129 198.590689 
L 235.519946 196.844792 
L 235.695581 183.536741 
L 236.002941 135.026684 
L 236.573752 46.396477 
L 236.661569 43.400016 
L 236.705478 43.495469 
L 236.793295 46.944666 
L 236.968929 66.298223 
L 237.364106 146.892104 
L 237.715375 197.199863 
L 237.759283 198.467541 
L 237.803192 198.360345 
L 237.891009 193.968615 
L 238.066643 169.544052 
L 238.76918 43.466461 
L 238.856998 48.479021 
L 239.032632 77.928149 
L 239.603443 198.469643 
L 239.647352 198.103634 
L 239.779077 184.012396 
L 240.042529 113.143312 
L 240.349889 44.829871 
L 240.393797 43.314098 
L 240.437706 44.495062 
L 240.569432 63.810787 
L 241.096334 198.584304 
L 241.184152 192.416911 
L 241.359786 145.552879 
L 241.711054 43.977169 
L 241.754963 43.662517 
L 241.84278 54.920622 
L 242.062323 133.082415 
L 242.325774 198.498064 
L 242.413592 187.116872 
L 242.633134 100.598321 
L 242.852677 43.3368 
L 242.940494 55.7497 
L 243.335671 198.591315 
L 243.423489 185.417886 
L 243.774757 43.5529 
L 243.862574 55.299265 
L 244.213843 198.215344 
L 244.257751 191.008338 
L 244.477294 73.657585 
L 244.565111 44.596895 
L 244.60902 44.691027 
L 244.740746 101.892408 
L 244.960288 197.849904 
L 245.048106 166.373682 
L 245.267648 43.793269 
L 245.311557 47.165446 
L 245.443283 125.211426 
L 245.575008 197.481439 
L 245.618917 195.391057 
L 245.750643 111.940873 
L 245.882368 43.316168 
L 245.926277 51.917808 
L 246.14582 197.791668 
L 246.233637 169.119378 
L 246.409271 43.582077 
L 246.45318 51.698857 
L 246.672723 197.292051 
L 246.716631 176.529413 
L 246.892265 43.429242 
L 246.936174 60.521757 
L 247.111808 198.199496 
L 247.155717 177.239252 
L 247.331351 47.563701 
L 247.506985 198.540834 
L 247.550894 176.742652 
L 247.68262 43.864999 
L 247.726528 59.128706 
L 247.858254 197.988322 
L 247.902163 181.107792 
L 248.033888 43.351032 
L 248.077797 71.779314 
L 248.209523 193.422974 
L 248.341248 43.383769 
L 248.385157 72.143206 
L 248.472974 194.110368 
L 248.516882 183.54098 
L 248.648608 52.769677 
L 248.780334 189.231465 
L 248.868151 51.920352 
L 248.91206 58.388616 
L 248.999877 196.388113 
L 249.043785 167.886461 
L 249.131602 44.237293 
L 249.175511 105.469115 
L 249.21942 187.655775 
L 249.263328 179.488793 
L 249.351145 44.107402 
L 249.395054 112.297382 
L 249.438962 194.006327 
L 249.482871 161.996568 
L 249.570688 59.564699 
L 249.658505 192.481725 
L 249.746322 45.53243 
L 249.790231 136.330685 
L 249.83414 197.252984 
L 249.878048 105.502187 
L 249.921957 45.592584 
L 250.009774 191.917671 
L 250.097591 62.374381 
L 250.1415 182.429468 
L 250.185408 153.000283 
L 250.229317 44.293022 
L 250.273225 131.9606 
L 250.317134 189.792656 
L 250.361042 62.268314 
L 250.404951 98.091427 
L 250.448859 197.644967 
L 250.492768 73.790294 
L 250.536677 92.225934 
L 250.580585 196.981749 
L 250.624494 63.537909 
L 250.712311 182.300769 
L 250.756219 44.046866 
L 250.800128 170.160976 
L 250.887945 74.287112 
L 250.931854 194.02356 
L 250.975762 44.531972 
L 251.019671 183.251896 
L 251.063579 81.520761 
L 251.151397 126.120222 
L 251.195305 100.806571 
L 251.283122 88.345188 
L 251.327031 151.39458 
L 251.370939 98.655302 
L 251.414848 128.328032 
L 251.458757 135.508959 
L 251.502665 79.467276 
L 251.546574 187.656051 
L 251.590482 43.347054 
L 251.634391 180.169228 
L 251.722208 65.129752 
L 251.766117 196.383923 
L 251.810025 105.347171 
L 251.853934 53.432871 
L 251.941751 178.330863 
L 252.029568 48.803918 
L 252.073477 117.985191 
L 252.161294 197.236506 
L 252.205202 174.383484 
L 252.336928 128.351237 
L 252.468654 198.319356 
L 252.512562 169.326868 
L 252.600379 56.455194 
L 252.644288 182.113871 
L 252.688196 121.504684 
L 252.732105 79.704003 
L 252.776014 172.613228 
L 252.819922 84.720194 
L 252.863831 105.862918 
L 252.907739 196.63112 
L 252.951648 109.843018 
L 253.039465 43.749035 
L 253.083374 48.282236 
L 253.171191 197.018876 
L 253.259008 177.962479 
L 253.302916 47.746075 
L 253.390734 58.313594 
L 253.434642 59.306398 
L 253.478551 197.877665 
L 253.522459 85.316658 
L 253.566368 54.529692 
L 253.698094 147.223758 
L 253.829819 43.310422 
L 253.873728 71.295005 
L 253.917636 185.150306 
L 253.917636 185.150306 
" clip-path="url(#p1965eb93aa)" style="fill: none; stroke: #1f77b4; stroke-linecap: square"/>
   </g>
   <g id="line2d_30">
    <path d="M 255.682364 56.749694 
L 255.770181 198.589578 
L 255.814089 111.907734 
L 255.857998 198.21068 
L 255.901906 94.676242 
L 256.033632 187.370308 
L 256.077541 156.583342 
L 256.121449 44.022335 
L 256.165358 182.593602 
L 256.209266 183.586406 
L 256.253175 180.27888 
L 256.297084 194.153925 
L 256.428809 44.881124 
L 256.560535 198.150965 
L 256.604444 189.917647 
L 256.692261 45.26888 
L 256.736169 136.037082 
L 256.780078 157.179806 
L 256.823986 69.286772 
L 256.867895 162.195997 
L 256.955712 59.786129 
L 256.999621 185.444806 
L 257.043529 164.378852 
L 257.131346 43.580644 
L 257.175255 66.693901 
L 257.263072 113.548763 
L 257.306981 112.86623 
L 257.438706 44.663494 
L 257.482615 57.885585 
L 257.570432 193.096082 
L 257.614341 167.015114 
L 257.658249 63.569137 
L 257.702158 71.087289 
L 257.746066 188.467129 
L 257.789975 136.552829 
L 257.833883 45.516077 
L 257.877792 176.770248 
L 257.965609 61.730772 
L 258.009518 198.552946 
L 258.053426 54.243949 
L 258.097335 162.432724 
L 258.141243 106.391041 
L 258.185152 113.571968 
L 258.229061 143.244698 
L 258.272969 90.50542 
L 258.316878 153.554812 
L 258.360786 91.748041 
L 258.404695 141.093429 
L 258.448603 115.779778 
L 258.492512 105.584245 
L 258.536421 160.379239 
L 258.624238 197.368028 
L 258.668146 47.87644 
L 258.712055 167.612888 
L 258.755963 120.436221 
L 258.799872 71.739024 
L 258.843781 197.853134 
L 258.887689 59.599231 
L 258.975506 178.362091 
L 259.019415 44.918251 
L 259.063323 149.674066 
L 259.107232 168.109706 
L 259.151141 44.255033 
L 259.195049 143.808573 
L 259.238958 179.631686 
L 259.282866 52.107344 
L 259.326775 109.9394 
L 259.370683 197.606978 
L 259.414592 88.899717 
L 259.4585 59.470532 
L 259.502409 179.525619 
L 259.546318 161.593141 
L 259.590226 49.982329 
L 259.634135 96.86917 
L 259.678043 196.307416 
L 259.721952 136.397813 
L 259.76586 44.647016 
L 259.809769 105.569315 
L 259.853678 196.36757 
L 259.897586 144.399076 
L 259.941495 49.418275 
L 259.985403 82.575835 
L 260.029312 182.335301 
L 260.07322 177.969201 
L 260.161038 47.893673 
L 260.204946 129.602618 
L 260.248855 197.792598 
L 260.292763 152.601616 
L 260.38058 54.244225 
L 260.468398 197.662707 
L 260.512306 160.140693 
L 260.600123 45.511887 
L 260.644032 106.364542 
L 260.731849 189.979648 
L 260.819666 52.668535 
L 260.863575 55.38872 
L 260.951392 189.130323 
L 260.9953 188.413959 
L 261.127026 47.789632 
L 261.258752 198.516231 
L 261.30266 165.060499 
L 261.390477 48.477026 
L 261.434386 53.538348 
L 261.566112 198.548968 
L 261.61002 174.61492 
L 261.741746 43.911678 
L 261.785655 74.142003 
L 261.91738 198.035001 
L 261.961289 170.422794 
L 262.093015 43.359166 
L 262.136923 60.964257 
L 262.268649 194.336299 
L 262.312557 193.672089 
L 262.488192 43.700504 
L 262.5321 54.806907 
L 262.707735 198.470758 
L 262.751643 186.718402 
L 262.927277 44.607949 
L 262.971186 49.442618 
L 263.190729 198.317923 
L 263.234637 183.621109 
L 263.45418 44.108332 
L 263.498089 59.536085 
L 263.717632 198.583832 
L 263.76154 189.123831 
L 264.024992 44.418561 
L 264.0689 57.868605 
L 264.332352 198.106731 
L 264.37626 187.693189 
L 264.639712 44.050096 
L 264.727529 59.371618 
L 265.034889 197.303105 
L 265.078797 187.112374 
L 265.386157 43.684656 
L 265.473974 56.315726 
L 265.825243 198.3471 
L 265.869151 192.557398 
L 266.044786 115.432518 
L 266.264329 43.308685 
L 266.352146 56.351969 
L 266.747323 198.5632 
L 266.83514 188.64238 
L 267.098591 82.943248 
L 267.274226 43.401936 
L 267.318134 44.840632 
L 267.44986 74.719845 
L 267.845037 198.237483 
L 267.888946 197.922831 
L 268.020671 174.874513 
L 268.503666 43.315696 
L 268.547574 45.16996 
L 268.6793 68.469932 
L 269.206203 198.585902 
L 269.29402 192.9581 
L 269.469654 155.324595 
L 269.952648 43.796366 
L 269.996557 43.430357 
L 270.084374 49.129023 
L 270.260008 82.016462 
L 270.786911 196.803961 
L 270.83082 198.433539 
L 270.874728 198.301281 
L 270.962545 192.915169 
L 271.182088 155.029598 
L 271.7529 45.041174 
L 271.840717 43.432459 
L 271.928534 47.299391 
L 272.104168 69.410161 
L 272.894522 198.404531 
L 272.938431 198.499984 
L 273.026248 195.503523 
L 273.201882 178.021037 
L 273.640968 98.621147 
L 274.036145 47.176669 
L 274.167871 43.309311 
L 274.211779 43.681109 
L 274.343505 49.571145 
L 274.563048 73.049886 
L 275.529036 197.660231 
L 275.616854 198.568334 
L 275.660762 198.090038 
L 275.792488 193.077556 
L 276.012031 174.248258 
L 276.538933 101.620093 
L 276.978019 53.401763 
L 277.241471 43.399755 
L 277.285379 43.339305 
L 277.373196 44.575411 
L 277.548831 52.179273 
L 277.856191 78.984889 
L 278.997813 194.242684 
L 279.217356 198.588912 
L 279.305173 198.023269 
L 279.480808 193.130221 
L 279.744259 177.499538 
L 280.227253 132.089753 
L 281.017607 60.028266 
L 281.368876 45.242926 
L 281.54451 43.309553 
L 281.632327 43.714831 
L 281.807962 47.158032 
L 282.071413 58.297229 
L 282.510499 88.84567 
L 283.783847 185.111042 
L 284.135116 196.4825 
L 284.354659 198.58764 
L 284.442476 198.354006 
L 284.574201 196.886657 
L 284.793744 191.624431 
L 285.145013 176.829305 
L 285.715824 141.398013 
L 286.901356 65.93209 
L 287.38435 48.727512 
L 287.69171 43.892874 
L 287.867344 43.323399 
L 287.955161 43.625204 
L 288.130795 45.363781 
L 288.394247 50.644745 
L 288.789424 63.802427 
L 289.404144 93.160152 
L 291.072669 177.017991 
L 291.599572 191.982157 
L 291.994749 197.589355 
L 292.214292 198.573466 
L 292.302109 198.547918 
L 292.433835 198.07055 
L 292.653378 196.141188 
L 292.960738 191.207825 
L 293.399824 180.199417 
L 294.058452 157.120656 
L 296.56124 61.989506 
L 297.132052 50.167948 
L 297.571138 45.006491 
L 297.878498 43.459156 
L 298.054132 43.325176 
L 298.185858 43.57411 
L 298.4054 44.635485 
L 298.71276 47.417396 
L 299.151846 53.792869 
L 299.722657 65.672327 
L 300.55692 88.289864 
L 303.498794 172.770681 
L 304.24524 186.46242 
L 304.85996 193.954073 
L 305.342954 197.351975 
L 305.694223 198.459092 
L 305.913765 198.581704 
L 306.0894 198.372622 
L 306.352851 197.561889 
L 306.70412 195.591869 
L 307.187114 191.340704 
L 307.801834 183.642425 
L 308.592188 170.684283 
L 309.733811 147.889581 
L 312.983045 80.854757 
L 314.036851 64.584457 
L 314.871113 54.818886 
L 315.57365 48.89556 
L 316.18837 45.465909 
L 316.671365 43.905375 
L 317.022633 43.382063 
L 317.286085 43.318527 
L 317.549536 43.529464 
L 317.856896 44.112292 
L 318.252073 45.373875 
L 318.778976 47.901853 
L 319.437604 52.307064 
L 320.227959 59.194029 
L 321.237856 70.066318 
L 322.599021 87.316332 
L 328.175409 160.93754 
L 329.448758 173.65534 
L 330.590381 182.919405 
L 331.556369 189.084503 
L 332.434541 193.336546 
L 333.180986 195.946197 
L 333.839615 197.498722 
L 334.366518 198.248456 
L 334.805603 198.548884 
L 335.20078 198.574533 
L 335.595957 198.375226 
L 336.035043 197.898599 
L 336.561946 196.986216 
L 337.220575 195.350743 
L 338.010929 192.713122 
L 338.933009 188.7926 
L 340.030723 183.090081 
L 341.34798 175.01597 
L 343.016505 163.335249 
L 345.475385 144.356941 
L 350.700505 103.706805 
L 352.852025 88.876996 
L 354.696185 77.626076 
L 356.36471 68.764869 
L 357.90151 61.778043 
L 359.306584 56.398013 
L 360.579933 52.353851 
L 361.765464 49.2891 
L 362.863178 47.039505 
L 363.873075 45.454571 
L 364.795155 44.399612 
L 365.629418 43.756319 
L 366.419772 43.409689 
L 367.210126 43.309112 
L 368.000481 43.444728 
L 368.790835 43.80638 
L 369.669006 44.460695 
L 370.634995 45.470716 
L 371.732709 46.963711 
L 372.962149 49.038132 
L 374.323315 51.784412 
L 375.904023 55.499068 
L 377.704274 60.320359 
L 379.811886 66.619957 
L 382.402491 75.097773 
L 385.915176 87.423578 
L 397.594856 129.005987 
L 401.019724 140.059571 
L 404.049415 149.111676 
L 406.859563 156.833278 
L 409.537986 163.55646 
L 412.084683 169.359317 
L 414.543563 174.414224 
L 416.914626 178.78333 
L 419.197871 182.530376 
L 421.393299 185.718312 
L 423.544819 188.45997 
L 425.652431 190.791509 
L 427.716133 192.748113 
L 429.735927 194.363581 
L 431.272727 195.402479 
L 431.272727 195.402479 
" clip-path="url(#p1965eb93aa)" style="fill: none; stroke: #ff7f0e; stroke-linecap: square"/>
   </g>
   <g id="line2d_31">
    <path d="M 254.8 214.12 
L 254.8 27.78 
" clip-path="url(#p1965eb93aa)" style="fill: none; stroke-dasharray: 3.7,1.6; stroke-dashoffset: 0; stroke: #000000; stroke-opacity: 0.25"/>
   </g>
   <g id="patch_3">
    <path d="M 60.68 214.12 
L 60.68 27.78 
" style="fill: none; stroke: #000000; stroke-width: 0.8; stroke-linejoin: miter; stroke-linecap: square"/>
   </g>
   <g id="patch_4">
    <path d="M 60.68 214.12 
L 448.92 214.12 
" style="fill: none; stroke: #000000; stroke-width: 0.8; stroke-linejoin: miter; stroke-linecap: square"/>
   </g>
   <g id="text_17">
    <!-- Limite che non esiste: $\sin(1/x)$ oscilla per $x\to 0$ -->
    <g transform="translate(114.94 21.78) scale(0.12 -0.12)">
     <defs>
      <path id="DejaVuSans-4c" d="M 628 4666 
L 1259 4666 
L 1259 531 
L 3531 531 
L 3531 0 
L 628 0 
L 628 4666 
z
" transform="scale(0.015625)"/>
      <path id="DejaVuSans-69" d="M 603 3500 
L 1178 3500 
L 1178 0 
L 603 0 
L 603 3500 
z
M 603 4863 
L 1178 4863 
L 1178 4134 
L 603 4134 
L 603 4863 
z
" transform="scale(0.015625)"/>
      <path id="DejaVuSans-6d" d="M 3328 2828 
Q 3544 3216 3844 3400 
Q 4144 3584 4550 3584 
Q 5097 3584 5394 3201 
Q 5691 2819 5691 2113 
L 5691 0 
L 5113 0 
L 5113 2094 
Q 5113 2597 4934 2840 
Q 4756 3084 4391 3084 
Q 3944 3084 3684 2787 
Q 3425 2491 3425 1978 
L 3425 0 
L 2847 0 
L 2847 2094 
Q 2847 2600 2669 2842 
Q 2491 3084 2119 3084 
Q 1678 3084 1418 2786 
Q 1159 2488 1159 1978 
L 1159 0 
L 581 0 
L 581 3500 
L 1159 3500 
L 1159 2956 
Q 1356 3278 1631 3431 
Q 1906 3584 2284 3584 
Q 2666 3584 2933 3390 
Q 3200 3197 3328 2828 
z
" transform="scale(0.015625)"/>
      <path id="DejaVuSans-74" d="M 1172 4494 
L 1172 3500 
L 2356 3500 
L 2356 3053 
L 1172 3053 
L 1172 1153 
Q 1172 725 1289 603 
Q 1406 481 1766 481 
L 2356 481 
L 2356 0 
L 1766 0 
Q 1100 0 847 248 
Q 594 497 594 1153 
L 594 3053 
L 172 3053 
L 172 3500 
L 594 3500 
L 594 4494 
L 1172 4494 
z
" transform="scale(0.015625)"/>
      <path id="DejaVuSans-65" d="M 3597 1894 
L 3597 1613 
L 953 1613 
Q 991 1019 1311 708 
Q 1631 397 2203 397 
Q 2534 397 2845 478 
Q 3156 559 3463 722 
L 3463 178 
Q 3153 47 2828 -22 
Q 2503 -91 2169 -91 
Q 1331 -91 842 396 
Q 353 884 353 1716 
Q 353 2575 817 3079 
Q 1281 3584 2069 3584 
Q 2775 3584 3186 3129 
Q 3597 2675 3597 1894 
z
M 3022 2063 
Q 3016 2534 2758 2815 
Q 2500 3097 2075 3097 
Q 1594 3097 1305 2825 
Q 1016 2553 972 2059 
L 3022 2063 
z
" transform="scale(0.015625)"/>
      <path id="DejaVuSans-20" transform="scale(0.015625)"/>
      <path id="DejaVuSans-63" d="M 3122 3366 
L 3122 2828 
Q 2878 2963 2633 3030 
Q 2388 3097 2138 3097 
Q 1578 3097 1268 2742 
Q 959 2388 959 1747 
Q 959 1106 1268 751 
Q 1578 397 2138 397 
Q 2388 397 2633 464 
Q 2878 531 3122 666 
L 3122 134 
Q 2881 22 2623 -34 
Q 2366 -91 2075 -91 
Q 1284 -91 818 406 
Q 353 903 353 1747 
Q 353 2603 823 3093 
Q 1294 3584 2113 3584 
Q 2378 3584 2631 3529 
Q 2884 3475 3122 3366 
z
" transform="scale(0.015625)"/>
      <path id="DejaVuSans-68" d="M 3513 2113 
L 3513 0 
L 2938 0 
L 2938 2094 
Q 2938 2591 2744 2837 
Q 2550 3084 2163 3084 
Q 1697 3084 1428 2787 
Q 1159 2491 1159 1978 
L 1159 0 
L 581 0 
L 581 4863 
L 1159 4863 
L 1159 2956 
Q 1366 3272 1645 3428 
Q 1925 3584 2291 3584 
Q 2894 3584 3203 3211 
Q 3513 2838 3513 2113 
z
" transform="scale(0.015625)"/>
      <path id="DejaVuSans-6e" d="M 3513 2113 
L 3513 0 
L 2938 0 
L 2938 2094 
Q 2938 2591 2744 2837 
Q 2550 3084 2163 3084 
Q 1697 3084 1428 2787 
Q 1159 2491 1159 1978 
L 1159 0 
L 581 0 
L 581 3500 
L 1159 3500 
L 1159 2956 
Q 1366 3272 1645 3428 
Q 1925 3584 2291 3584 
Q 2894 3584 3203 3211 
Q 3513 2838 3513 2113 
z
" transform="scale(0.015625)"/>
      <path id="DejaVuSans-6f" d="M 1959 3097 
Q 1497 3097 1228 2736 
Q 959 2375 959 1747 
Q 959 1119 1226 758 
Q 1494 397 1959 397 
Q 2419 397 2687 759 
Q 2956 1122 2956 1747 
Q 2956 2369 2687 2733 
Q 2419 3097 1959 3097 
z
M 1959 3584 
Q 2709 3584 3137 3096 
Q 3566 2609 3566 1747 
Q 3566 888 3137 398 
Q 2709 -91 1959 -91 
Q 1206 -91 779 398 
Q 353 888 353 1747 
Q 353 2609 779 3096 
Q 1206 3584 1959 3584 
z
" transform="scale(0.015625)"/>
      <path id="DejaVuSans-73" d="M 2834 3397 
L 2834 2853 
Q 2591 2978 2328 3040 
Q 2066 3103 1784 3103 
Q 1356 3103 1142 2972 
Q 928 2841 928 2578 
Q 928 2378 1081 2264 
Q 1234 2150 1697 2047 
L 1894 2003 
Q 2506 1872 2764 1633 
Q 3022 1394 3022 966 
Q 3022 478 2636 193 
Q 2250 -91 1575 -91 
Q 1294 -91 989 -36 
Q 684 19 347 128 
L 347 722 
Q 666 556 975 473 
Q 1284 391 1588 391 
Q 1994 391 2212 530 
Q 2431 669 2431 922 
Q 2431 1156 2273 1281 
Q 2116 1406 1581 1522 
L 1381 1569 
Q 847 1681 609 1914 
Q 372 2147 372 2553 
Q 372 3047 722 3315 
Q 1072 3584 1716 3584 
Q 2034 3584 2315 3537 
Q 2597 3491 2834 3397 
z
" transform="scale(0.015625)"/>
      <path id="DejaVuSans-3a" d="M 750 794 
L 1409 794 
L 1409 0 
L 750 0 
L 750 794 
z
M 750 3309 
L 1409 3309 
L 1409 2516 
L 750 2516 
L 750 3309 
z
" transform="scale(0.015625)"/>
      <path id="DejaVuSans-28" d="M 1984 4856 
Q 1566 4138 1362 3434 
Q 1159 2731 1159 2009 
Q 1159 1288 1364 580 
Q 1569 -128 1984 -844 
L 1484 -844 
Q 1016 -109 783 600 
Q 550 1309 550 2009 
Q 550 2706 781 3412 
Q 1013 4119 1484 4856 
L 1984 4856 
z
" transform="scale(0.015625)"/>
      <path id="DejaVuSans-2f" d="M 1625 4666 
L 2156 4666 
L 531 -594 
L 0 -594 
L 1625 4666 
z
" transform="scale(0.015625)"/>
      <path id="DejaVuSans-Oblique-78" d="M 3841 3500 
L 2234 1784 
L 3219 0 
L 2559 0 
L 1819 1388 
L 531 0 
L -166 0 
L 1556 1844 
L 641 3500 
L 1300 3500 
L 1972 2234 
L 3144 3500 
L 3841 3500 
z
" transform="scale(0.015625)"/>
      <path id="DejaVuSans-29" d="M 513 4856 
L 1013 4856 
Q 1481 4119 1714 3412 
Q 1947 2706 1947 2009 
Q 1947 1309 1714 600 
Q 1481 -109 1013 -844 
L 513 -844 
Q 928 -128 1133 580 
Q 1338 1288 1338 2009 
Q 1338 2731 1133 3434 
Q 928 4138 513 4856 
z
" transform="scale(0.015625)"/>
      <path id="DejaVuSans-6c" d="M 603 4863 
L 1178 4863 
L 1178 0 
L 603 0 
L 603 4863 
z
" transform="scale(0.015625)"/>
      <path id="DejaVuSans-61" d="M 2194 1759 
Q 1497 1759 1228 1600 
Q 959 1441 959 1056 
Q 959 750 1161 570 
Q 1363 391 1709 391 
Q 2188 391 2477 730 
Q 2766 1069 2766 1631 
L 2766 1759 
L 2194 1759 
z
M 3341 1997 
L 3341 0 
L 2766 0 
L 2766 531 
Q 2569 213 2275 61 
Q 1981 -91 1556 -91 
Q 1019 -91 701 211 
Q 384 513 384 1019 
Q 384 1609 779 1909 
Q 1175 2209 1959 2209 
L 2766 2209 
L 2766 2266 
Q 2766 2663 2505 2880 
Q 2244 3097 1772 3097 
Q 1472 3097 1187 3025 
Q 903 2953 641 2809 
L 641 3341 
Q 956 3463 1253 3523 
Q 1550 3584 1831 3584 
Q 2591 3584 2966 3190 
Q 3341 2797 3341 1997 
z
" transform="scale(0.015625)"/>
      <path id="DejaVuSans-70" d="M 1159 525 
L 1159 -1331 
L 581 -1331 
L 581 3500 
L 1159 3500 
L 1159 2969 
Q 1341 3281 1617 3432 
Q 1894 3584 2278 3584 
Q 2916 3584 3314 3078 
Q 3713 2572 3713 1747 
Q 3713 922 3314 415 
Q 2916 -91 2278 -91 
Q 1894 -91 1617 61 
Q 1341 213 1159 525 
z
M 3116 1747 
Q 3116 2381 2855 2742 
Q 2594 3103 2138 3103 
Q 1681 3103 1420 2742 
Q 1159 2381 1159 1747 
Q 1159 1113 1420 752 
Q 1681 391 2138 391 
Q 2594 391 2855 752 
Q 3116 1113 3116 1747 
z
" transform="scale(0.015625)"/>
      <path id="DejaVuSans-72" d="M 2631 2963 
Q 2534 3019 2420 3045 
Q 2306 3072 2169 3072 
Q 1681 3072 1420 2755 
Q 1159 2438 1159 1844 
L 1159 0 
L 581 0 
L 581 3500 
L 1159 3500 
L 1159 2956 
Q 1341 3275 1631 3429 
Q 1922 3584 2338 3584 
Q 2397 3584 2469 3576 
Q 2541 3569 2628 3553 
L 2631 2963 
z
" transform="scale(0.015625)"/>
      <path id="DejaVuSans-2192" d="M 5050 2147 
L 5050 1866 
L 3822 638 
L 3447 1013 
L 4175 1741 
L 366 1741 
L 366 2272 
L 4175 2272 
L 3447 3000 
L 3822 3375 
L 5050 2147 
z
" transform="scale(0.015625)"/>
     </defs>
     <use xlink:href="#DejaVuSans-4c" transform="translate(0 0.015625)"/>
     <use xlink:href="#DejaVuSans-69" transform="translate(55.712891 0.015625)"/>
     <use xlink:href="#DejaVuSans-6d" transform="translate(83.496094 0.015625)"/>
     <use xlink:href="#DejaVuSans-69" transform="translate(180.908203 0.015625)"/>
     <use xlink:href="#DejaVuSans-74" transform="translate(208.691406 0.015625)"/>
     <use xlink:href="#DejaVuSans-65" transform="translate(247.900391 0.015625)"/>
     <use xlink:href="#DejaVuSans-20" transform="translate(309.423828 0.015625)"/>
     <use xlink:href="#DejaVuSans-63" transform="translate(341.210938 0.015625)"/>
     <use xlink:href="#DejaVuSans-68" transform="translate(396.191406 0.015625)"/>
     <use xlink:href="#DejaVuSans-65" transform="translate(459.570312 0.015625)"/>
     <use xlink:href="#DejaVuSans-20" transform="translate(521.09375 0.015625)"/>
     <use xlink:href="#DejaVuSans-6e" transform="translate(552.880859 0.015625)"/>
     <use xlink:href="#DejaVuSans-6f" transform="translate(616.259766 0.015625)"/>
     <use xlink:href="#DejaVuSans-6e" transform="translate(677.441406 0.015625)"/>
     <use xlink:href="#DejaVuSans-20" transform="translate(740.820312 0.015625)"/>
     <use xlink:href="#DejaVuSans-65" transform="translate(772.607422 0.015625)"/>
     <use xlink:href="#DejaVuSans-73" transform="translate(834.130859 0.015625)"/>
     <use xlink:href="#DejaVuSans-69" transform="translate(886.230469 0.015625)"/>
     <use xlink:href="#DejaVuSans-73" transform="translate(914.013672 0.015625)"/>
     <use xlink:href="#DejaVuSans-74" transform="translate(966.113281 0.015625)"/>
     <use xlink:href="#DejaVuSans-65" transform="translate(1005.322266 0.015625)"/>
     <use xlink:href="#DejaVuSans-3a" transform="translate(1066.845703 0.015625)"/>
     <use xlink:href="#DejaVuSans-20" transform="translate(1100.537109 0.015625)"/>
     <use xlink:href="#DejaVuSans-73" transform="translate(1132.324219 0.015625)"/>
     <use xlink:href="#DejaVuSans-69" transform="translate(1184.423828 0.015625)"/>
     <use xlink:href="#DejaVuSans-6e" transform="translate(1212.207031 0.015625)"/>
     <use xlink:href="#DejaVuSans-28" transform="translate(1275.585938 0.015625)"/>
     <use xlink:href="#DejaVuSans-31" transform="translate(1314.599609 0.015625)"/>
     <use xlink:href="#DejaVuSans-2f" transform="translate(1378.222656 0.015625)"/>
     <use xlink:href="#DejaVuSans-Oblique-78" transform="translate(1411.914062 0.015625)"/>
     <use xlink:href="#DejaVuSans-29" transform="translate(1471.09375 0.015625)"/>
     <use xlink:href="#DejaVuSans-20" transform="translate(1510.107422 0.015625)"/>
     <use xlink:href="#DejaVuSans-6f" transform="translate(1541.894531 0.015625)"/>
     <use xlink:href="#DejaVuSans-73" transform="translate(1603.076172 0.015625)"/>
     <use xlink:href="#DejaVuSans-63" transform="translate(1655.175781 0.015625)"/>
     <use xlink:href="#DejaVuSans-69" transform="translate(1710.15625 0.015625)"/>
     <use xlink:href="#DejaVuSans-6c" transform="translate(1737.939453 0.015625)"/>
     <use xlink:href="#DejaVuSans-6c" transform="translate(1765.722656 0.015625)"/>
     <use xlink:href="#DejaVuSans-61" transform="translate(1793.505859 0.015625)"/>
     <use xlink:href="#DejaVuSans-20" transform="translate(1854.785156 0.015625)"/>
     <use xlink:href="#DejaVuSans-70" transform="translate(1886.572266 0.015625)"/>
     <use xlink:href="#DejaVuSans-65" transform="translate(1950.048828 0.015625)"/>
     <use xlink:href="#DejaVuSans-72" transform="translate(2011.572266 0.015625)"/>
     <use xlink:href="#DejaVuSans-20" transform="translate(2052.685547 0.015625)"/>
     <use xlink:href="#DejaVuSans-Oblique-78" transform="translate(2084.472656 0.015625)"/>
     <use xlink:href="#DejaVuSans-2192" transform="translate(2163.134766 0.015625)"/>
     <use xlink:href="#DejaVuSans-30" transform="translate(2266.40625 0.015625)"/>
    </g>
   </g>
   <g id="legend_1">
    <g id="line2d_32">
     <path d="M 366.64 120.135312 
L 377.64 120.135312 
L 388.64 120.135312 
" style="fill: none; stroke: #1f77b4; stroke-linecap: square"/>
    </g>
    <g id="text_18">
     <!-- $\sin(1/x)$ -->
     <g transform="translate(397.44 123.985312) scale(0.11 -0.11)">
      <use xlink:href="#DejaVuSans-73" transform="translate(0 0.015625)"/>
      <use xlink:href="#DejaVuSans-69" transform="translate(52.099609 0.015625)"/>
      <use xlink:href="#DejaVuSans-6e" transform="translate(79.882812 0.015625)"/>
      <use xlink:href="#DejaVuSans-28" transform="translate(143.261719 0.015625)"/>
      <use xlink:href="#DejaVuSans-31" transform="translate(182.275391 0.015625)"/>
      <use xlink:href="#DejaVuSans-2f" transform="translate(245.898438 0.015625)"/>
      <use xlink:href="#DejaVuSans-Oblique-78" transform="translate(279.589844 0.015625)"/>
      <use xlink:href="#DejaVuSans-29" transform="translate(338.769531 0.015625)"/>
     </g>
    </g>
   </g>
  </g>
 </g>
 <defs>
  <clipPath id="p1965eb93aa">
   <rect x="60.68" y="27.78" width="388.24" height="186.34"/>
  </clipPath>
 </defs>
</svg>
