<?xml version="1.0" encoding="utf-8" standalone="no"?>
<!DOCTYPE svg PUBLIC "-//W3C//DTD SVG 1.1//EN"
  "http://www.w3.org/Graphics/SVG/1.1/DTD/svg11.dtd">
<svg xmlns:xlink="http://www.w3.org/1999/xlink" width="489.6pt" height="273.6pt" viewBox="0 0 489.6 273.6" xmlns="http://www.w3.org/2000/svg" version="1.1">
 <metadata>
  <rdf:RDF xmlns:dc="http://purl.org/dc/elements/1.1/" xmlns:cc="http://creativecommons.org/ns#" xmlns:rdf="http://www.w3.org/1999/02/22-rdf-syntax-ns#">
   <cc:Work>
    <dc:type rdf:resource="http://purl.org/dc/dcmitype/StillImage"/>
    <dc:date>2025-12-15T08:30:19.738418</dc:date>
    <dc:format>image/svg+xml</dc:format>
    <dc:creator>
     <cc:Agent>
      <dc:title>Matplotlib v3.8.2, https://matplotlib.org/</dc:title>
     </cc:Agent>
    </dc:creator>
   </cc:Work>
  </rdf:RDF>
 </metadata>
 <defs>
  <style type="text/css">*{stroke-linejoin: round; stroke-linecap: butt}</style>
 </defs>
 <g id="figure_1">
  <g id="patch_1">
   <path d="M 0 273.6 
L 489.6 273.6 
L 489.6 0 
L 0 0 
z
" style="fill: #ffffff"/>
  </g>
  <g id="axes_1">
   <g id="patch_2">
    <path d="M 60.68 228.52 
L 477.72 228.52 
L 477.72 27.78 
L 60.68 27.78 
z
" style="fill: #ffffff"/>
   </g>
   <g id="matplotlib.axis_1">
    <g id="xtick_1">
     <g id="line2d_1">
      <path d="M 117.549091 228.52 
L 117.549091 27.78 
" clip-path="url(#pb996f53aac)" style="fill: none; stroke: #b0b0b0; stroke-opacity: 0.25; stroke-width: 0.8; stroke-linecap: square"/>
     </g>
     <g id="line2d_2">
      <defs>
       <path id="m824fb0e94b" d="M 0 0 
L 0 3.5 
" style="stroke: #000000; stroke-width: 0.8"/>
      </defs>
      <g>
       <use xlink:href="#m824fb0e94b" x="117.549091" y="228.52" style="stroke: #000000; stroke-width: 0.8"/>
      </g>
     </g>
     <g id="text_1">
      <!-- −2 -->
      <g transform="translate(109.440888 243.878281) scale(0.11 -0.11)">
       <defs>
        <path id="DejaVuSans-2212" d="M 678 2272 
L 4684 2272 
L 4684 1741 
L 678 1741 
L 678 2272 
z
" transform="scale(0.015625)"/>
        <path id="DejaVuSans-32" d="M 1228 531 
L 3431 531 
L 3431 0 
L 469 0 
L 469 531 
Q 828 903 1448 1529 
Q 2069 2156 2228 2338 
Q 2531 2678 2651 2914 
Q 2772 3150 2772 3378 
Q 2772 3750 2511 3984 
Q 2250 4219 1831 4219 
Q 1534 4219 1204 4116 
Q 875 4013 500 3803 
L 500 4441 
Q 881 4594 1212 4672 
Q 1544 4750 1819 4750 
Q 2544 4750 2975 4387 
Q 3406 4025 3406 3419 
Q 3406 3131 3298 2873 
Q 3191 2616 2906 2266 
Q 2828 2175 2409 1742 
Q 1991 1309 1228 531 
z
" transform="scale(0.015625)"/>
       </defs>
       <use xlink:href="#DejaVuSans-2212"/>
       <use xlink:href="#DejaVuSans-32" x="83.789062"/>
      </g>
     </g>
    </g>
    <g id="xtick_2">
     <g id="line2d_3">
      <path d="M 193.374545 228.52 
L 193.374545 27.78 
" clip-path="url(#pb996f53aac)" style="fill: none; stroke: #b0b0b0; stroke-opacity: 0.25; stroke-width: 0.8; stroke-linecap: square"/>
     </g>
     <g id="line2d_4">
      <g>
       <use xlink:href="#m824fb0e94b" x="193.374545" y="228.52" style="stroke: #000000; stroke-width: 0.8"/>
      </g>
     </g>
     <g id="text_2">
      <!-- −1 -->
      <g transform="translate(185.266342 243.878281) scale(0.11 -0.11)">
       <defs>
        <path id="DejaVuSans-31" d="M 794 531 
L 1825 531 
L 1825 4091 
L 703 3866 
L 703 4441 
L 1819 4666 
L 2450 4666 
L 2450 531 
L 3481 531 
L 3481 0 
L 794 0 
L 794 531 
z
" transform="scale(0.015625)"/>
       </defs>
       <use xlink:href="#DejaVuSans-2212"/>
       <use xlink:href="#DejaVuSans-31" x="83.789062"/>
      </g>
     </g>
    </g>
    <g id="xtick_3">
     <g id="line2d_5">
      <path d="M 269.2 228.52 
L 269.2 27.78 
" clip-path="url(#pb996f53aac)" style="fill: none; stroke: #b0b0b0; stroke-opacity: 0.25; stroke-width: 0.8; stroke-linecap: square"/>
     </g>
     <g id="line2d_6">
      <g>
       <use xlink:href="#m824fb0e94b" x="269.2" y="228.52" style="stroke: #000000; stroke-width: 0.8"/>
      </g>
     </g>
     <g id="text_3">
      <!-- 0 -->
      <g transform="translate(265.700625 243.878281) scale(0.11 -0.11)">
       <defs>
        <path id="DejaVuSans-30" d="M 2034 4250 
Q 1547 4250 1301 3770 
Q 1056 3291 1056 2328 
Q 1056 1369 1301 889 
Q 1547 409 2034 409 
Q 2525 409 2770 889 
Q 3016 1369 3016 2328 
Q 3016 3291 2770 3770 
Q 2525 4250 2034 4250 
z
M 2034 4750 
Q 2819 4750 3233 4129 
Q 3647 3509 3647 2328 
Q 3647 1150 3233 529 
Q 2819 -91 2034 -91 
Q 1250 -91 836 529 
Q 422 1150 422 2328 
Q 422 3509 836 4129 
Q 1250 4750 2034 4750 
z
" transform="scale(0.015625)"/>
       </defs>
       <use xlink:href="#DejaVuSans-30"/>
      </g>
     </g>
    </g>
    <g id="xtick_4">
     <g id="line2d_7">
      <path d="M 345.025455 228.52 
L 345.025455 27.78 
" clip-path="url(#pb996f53aac)" style="fill: none; stroke: #b0b0b0; stroke-opacity: 0.25; stroke-width: 0.8; stroke-linecap: square"/>
     </g>
     <g id="line2d_8">
      <g>
       <use xlink:href="#m824fb0e94b" x="345.025455" y="228.52" style="stroke: #000000; stroke-width: 0.8"/>
      </g>
     </g>
     <g id="text_4">
      <!-- 1 -->
      <g transform="translate(341.52608 243.878281) scale(0.11 -0.11)">
       <use xlink:href="#DejaVuSans-31"/>
      </g>
     </g>
    </g>
    <g id="xtick_5">
     <g id="line2d_9">
      <path d="M 420.850909 228.52 
L 420.850909 27.78 
" clip-path="url(#pb996f53aac)" style="fill: none; stroke: #b0b0b0; stroke-opacity: 0.25; stroke-width: 0.8; stroke-linecap: square"/>
     </g>
     <g id="line2d_10">
      <g>
       <use xlink:href="#m824fb0e94b" x="420.850909" y="228.52" style="stroke: #000000; stroke-width: 0.8"/>
      </g>
     </g>
     <g id="text_5">
      <!-- 2 -->
      <g transform="translate(417.351534 243.878281) scale(0.11 -0.11)">
       <use xlink:href="#DejaVuSans-32"/>
      </g>
     </g>
    </g>
    <g id="text_6">
     <!-- x -->
     <g transform="translate(265.944687 258.524219) scale(0.11 -0.11)">
      <defs>
       <path id="DejaVuSans-78" d="M 3513 3500 
L 2247 1797 
L 3578 0 
L 2900 0 
L 1881 1375 
L 863 0 
L 184 0 
L 1544 1831 
L 300 3500 
L 978 3500 
L 1906 2253 
L 2834 3500 
L 3513 3500 
z
" transform="scale(0.015625)"/>
      </defs>
      <use xlink:href="#DejaVuSans-78"/>
     </g>
    </g>
   </g>
   <g id="matplotlib.axis_2">
    <g id="ytick_1">
     <g id="line2d_11">
      <path d="M 60.68 228.52 
L 477.72 228.52 
" clip-path="url(#pb996f53aac)" style="fill: none; stroke: #b0b0b0; stroke-opacity: 0.25; stroke-width: 0.8; stroke-linecap: square"/>
     </g>
     <g id="line2d_12">
      <defs>
       <path id="m26707a564f" d="M 0 0 
L -3.5 0 
" style="stroke: #000000; stroke-width: 0.8"/>
      </defs>
      <g>
       <use xlink:href="#m26707a564f" x="60.68" y="228.52" style="stroke: #000000; stroke-width: 0.8"/>
      </g>
     </g>
     <g id="text_7">
      <!-- −2.0 -->
      <g transform="translate(26.968906 232.699141) scale(0.11 -0.11)">
       <defs>
        <path id="DejaVuSans-2e" d="M 684 794 
L 1344 794 
L 1344 0 
L 684 0 
L 684 794 
z
" transform="scale(0.015625)"/>
       </defs>
       <use xlink:href="#DejaVuSans-2212"/>
       <use xlink:href="#DejaVuSans-32" x="83.789062"/>
       <use xlink:href="#DejaVuSans-2e" x="147.412109"/>
       <use xlink:href="#DejaVuSans-30" x="179.199219"/>
      </g>
     </g>
    </g>
    <g id="ytick_2">
     <g id="line2d_13">
      <path d="M 60.68 203.4275 
L 477.72 203.4275 
" clip-path="url(#pb996f53aac)" style="fill: none; stroke: #b0b0b0; stroke-opacity: 0.25; stroke-width: 0.8; stroke-linecap: square"/>
     </g>
     <g id="line2d_14">
      <g>
       <use xlink:href="#m26707a564f" x="60.68" y="203.4275" style="stroke: #000000; stroke-width: 0.8"/>
      </g>
     </g>
     <g id="text_8">
      <!-- −1.5 -->
      <g transform="translate(26.968906 207.606641) scale(0.11 -0.11)">
       <defs>
        <path id="DejaVuSans-35" d="M 691 4666 
L 3169 4666 
L 3169 4134 
L 1269 4134 
L 1269 2991 
Q 1406 3038 1543 3061 
Q 1681 3084 1819 3084 
Q 2600 3084 3056 2656 
Q 3513 2228 3513 1497 
Q 3513 744 3044 326 
Q 2575 -91 1722 -91 
Q 1428 -91 1123 -41 
Q 819 9 494 109 
L 494 744 
Q 775 591 1075 516 
Q 1375 441 1709 441 
Q 2250 441 2565 725 
Q 2881 1009 2881 1497 
Q 2881 1984 2565 2268 
Q 2250 2553 1709 2553 
Q 1456 2553 1204 2497 
Q 953 2441 691 2322 
L 691 4666 
z
" transform="scale(0.015625)"/>
       </defs>
       <use xlink:href="#DejaVuSans-2212"/>
       <use xlink:href="#DejaVuSans-31" x="83.789062"/>
       <use xlink:href="#DejaVuSans-2e" x="147.412109"/>
       <use xlink:href="#DejaVuSans-35" x="179.199219"/>
      </g>
     </g>
    </g>
    <g id="ytick_3">
     <g id="line2d_15">
      <path d="M 60.68 178.335 
L 477.72 178.335 
" clip-path="url(#pb996f53aac)" style="fill: none; stroke: #b0b0b0; stroke-opacity: 0.25; stroke-width: 0.8; stroke-linecap: square"/>
     </g>
     <g id="line2d_16">
      <g>
       <use xlink:href="#m26707a564f" x="60.68" y="178.335" style="stroke: #000000; stroke-width: 0.8"/>
      </g>
     </g>
     <g id="text_9">
      <!-- −1.0 -->
      <g transform="translate(26.968906 182.514141) scale(0.11 -0.11)">
       <use xlink:href="#DejaVuSans-2212"/>
       <use xlink:href="#DejaVuSans-31" x="83.789062"/>
       <use xlink:href="#DejaVuSans-2e" x="147.412109"/>
       <use xlink:href="#DejaVuSans-30" x="179.199219"/>
      </g>
     </g>
    </g>
    <g id="ytick_4">
     <g id="line2d_17">
      <path d="M 60.68 153.2425 
L 477.72 153.2425 
" clip-path="url(#pb996f53aac)" style="fill: none; stroke: #b0b0b0; stroke-opacity: 0.25; stroke-width: 0.8; stroke-linecap: square"/>
     </g>
     <g id="line2d_18">
      <g>
       <use xlink:href="#m26707a564f" x="60.68" y="153.2425" style="stroke: #000000; stroke-width: 0.8"/>
      </g>
     </g>
     <g id="text_10">
      <!-- −0.5 -->
      <g transform="translate(26.968906 157.421641) scale(0.11 -0.11)">
       <use xlink:href="#DejaVuSans-2212"/>
       <use xlink:href="#DejaVuSans-30" x="83.789062"/>
       <use xlink:href="#DejaVuSans-2e" x="147.412109"/>
       <use xlink:href="#DejaVuSans-35" x="179.199219"/>
      </g>
     </g>
    </g>
    <g id="ytick_5">
     <g id="line2d_19">
      <path d="M 60.68 128.15 
L 477.72 128.15 
" clip-path="url(#pb996f53aac)" style="fill: none; stroke: #b0b0b0; stroke-opacity: 0.25; stroke-width: 0.8; stroke-linecap: square"/>
     </g>
     <g id="line2d_20">
      <g>
       <use xlink:href="#m26707a564f" x="60.68" y="128.15" style="stroke: #000000; stroke-width: 0.8"/>
      </g>
     </g>
     <g id="text_11">
      <!-- 0.0 -->
      <g transform="translate(36.186563 132.329141) scale(0.11 -0.11)">
       <use xlink:href="#DejaVuSans-30"/>
       <use xlink:href="#DejaVuSans-2e" x="63.623047"/>
       <use xlink:href="#DejaVuSans-30" x="95.410156"/>
      </g>
     </g>
    </g>
    <g id="ytick_6">
     <g id="line2d_21">
      <path d="M 60.68 103.0575 
L 477.72 103.0575 
" clip-path="url(#pb996f53aac)" style="fill: none; stroke: #b0b0b0; stroke-opacity: 0.25; stroke-width: 0.8; stroke-linecap: square"/>
     </g>
     <g id="line2d_22">
      <g>
       <use xlink:href="#m26707a564f" x="60.68" y="103.0575" style="stroke: #000000; stroke-width: 0.8"/>
      </g>
     </g>
     <g id="text_12">
      <!-- 0.5 -->
      <g transform="translate(36.186563 107.236641) scale(0.11 -0.11)">
       <use xlink:href="#DejaVuSans-30"/>
       <use xlink:href="#DejaVuSans-2e" x="63.623047"/>
       <use xlink:href="#DejaVuSans-35" x="95.410156"/>
      </g>
     </g>
    </g>
    <g id="ytick_7">
     <g id="line2d_23">
      <path d="M 60.68 77.965 
L 477.72 77.965 
" clip-path="url(#pb996f53aac)" style="fill: none; stroke: #b0b0b0; stroke-opacity: 0.25; stroke-width: 0.8; stroke-linecap: square"/>
     </g>
     <g id="line2d_24">
      <g>
       <use xlink:href="#m26707a564f" x="60.68" y="77.965" style="stroke: #000000; stroke-width: 0.8"/>
      </g>
     </g>
     <g id="text_13">
      <!-- 1.0 -->
      <g transform="translate(36.186563 82.144141) scale(0.11 -0.11)">
       <use xlink:href="#DejaVuSans-31"/>
       <use xlink:href="#DejaVuSans-2e" x="63.623047"/>
       <use xlink:href="#DejaVuSans-30" x="95.410156"/>
      </g>
     </g>
    </g>
    <g id="ytick_8">
     <g id="line2d_25">
      <path d="M 60.68 52.8725 
L 477.72 52.8725 
" clip-path="url(#pb996f53aac)" style="fill: none; stroke: #b0b0b0; stroke-opacity: 0.25; stroke-width: 0.8; stroke-linecap: square"/>
     </g>
     <g id="line2d_26">
      <g>
       <use xlink:href="#m26707a564f" x="60.68" y="52.8725" style="stroke: #000000; stroke-width: 0.8"/>
      </g>
     </g>
     <g id="text_14">
      <!-- 1.5 -->
      <g transform="translate(36.186563 57.051641) scale(0.11 -0.11)">
       <use xlink:href="#DejaVuSans-31"/>
       <use xlink:href="#DejaVuSans-2e" x="63.623047"/>
       <use xlink:href="#DejaVuSans-35" x="95.410156"/>
      </g>
     </g>
    </g>
    <g id="ytick_9">
     <g id="line2d_27">
      <path d="M 60.68 27.78 
L 477.72 27.78 
" clip-path="url(#pb996f53aac)" style="fill: none; stroke: #b0b0b0; stroke-opacity: 0.25; stroke-width: 0.8; stroke-linecap: square"/>
     </g>
     <g id="line2d_28">
      <g>
       <use xlink:href="#m26707a564f" x="60.68" y="27.78" style="stroke: #000000; stroke-width: 0.8"/>
      </g>
     </g>
     <g id="text_15">
      <!-- 2.0 -->
      <g transform="translate(36.186563 31.959141) scale(0.11 -0.11)">
       <use xlink:href="#DejaVuSans-32"/>
       <use xlink:href="#DejaVuSans-2e" x="63.623047"/>
       <use xlink:href="#DejaVuSans-30" x="95.410156"/>
      </g>
     </g>
    </g>
    <g id="text_16">
     <!-- y -->
     <g transform="translate(20.68125 131.405312) rotate(-90) scale(0.11 -0.11)">
      <defs>
       <path id="DejaVuSans-79" d="M 2059 -325 
Q 1816 -950 1584 -1140 
Q 1353 -1331 966 -1331 
L 506 -1331 
L 506 -850 
L 844 -850 
Q 1081 -850 1212 -737 
Q 1344 -625 1503 -206 
L 1606 56 
L 191 3500 
L 800 3500 
L 1894 763 
L 2988 3500 
L 3597 3500 
L 2059 -325 
z
" transform="scale(0.015625)"/>
      </defs>
      <use xlink:href="#DejaVuSans-79"/>
     </g>
    </g>
   </g>
   <g id="line2d_29">
    <path d="M 79.636364 158.184325 
L 86.276624 161.585638 
L 92.600682 164.587107 
L 98.608537 167.204176 
L 104.616392 169.576197 
L 110.308045 171.583828 
L 115.683494 173.255497 
L 121.058943 174.700573 
L 126.434392 175.911796 
L 131.493639 176.832683 
L 136.552885 177.536921 
L 141.612131 178.021376 
L 146.671378 178.283894 
L 151.730624 178.323306 
L 156.78987 178.139435 
L 161.849117 177.733101 
L 166.908363 177.106113 
L 171.967609 176.261259 
L 177.343059 175.129108 
L 182.718508 173.760952 
L 188.093957 172.163663 
L 193.785609 170.231606 
L 199.477261 168.062556 
L 205.485116 165.529412 
L 211.809174 162.609889 
L 218.449435 159.286944 
L 225.405899 155.550268 
L 232.994768 151.212195 
L 241.216044 146.253566 
L 251.018333 140.068535 
L 263.982652 131.600372 
L 289.595087 114.813707 
L 299.397377 108.688029 
L 307.934855 103.613939 
L 315.523724 99.362578 
L 322.480188 95.717609 
L 329.120449 92.492379 
L 335.444507 89.674462 
L 341.452362 87.244916 
L 347.144014 85.179765 
L 352.835666 83.356612 
L 358.211115 81.86622 
L 363.586565 80.608341 
L 368.962014 79.589294 
L 374.02126 78.852963 
L 379.080506 78.336014 
L 384.139753 78.040747 
L 389.198999 77.968478 
L 394.258246 78.119526 
L 399.317492 78.493221 
L 404.376738 79.087899 
L 409.435985 79.900913 
L 414.495231 80.928646 
L 419.87068 82.250748 
L 425.246129 83.803431 
L 430.937781 85.690086 
L 436.629434 87.815865 
L 442.637289 90.305913 
L 448.645144 93.033415 
L 454.969202 96.142167 
L 458.763636 98.115675 
L 458.763636 98.115675 
" clip-path="url(#pb996f53aac)" style="fill: none; stroke: #1f77b4; stroke-width: 1.5; stroke-linecap: square"/>
   </g>
   <g id="line2d_30">
    <path d="M 79.636364 253.6125 
L 458.763636 2.6875 
L 458.763636 2.6875 
" clip-path="url(#pb996f53aac)" style="fill: none; stroke-dasharray: 5.55,2.4; stroke-dashoffset: 0; stroke: #ff7f0e; stroke-width: 1.5"/>
   </g>
   <g id="line2d_31">
    <path d="M 79.636364 122.922396 
L 83.747001 128.520686 
L 87.857639 133.758248 
L 91.968277 138.643076 
L 96.078914 143.183167 
L 100.189552 147.386515 
L 104.30019 151.261118 
L 108.410827 154.81497 
L 112.521465 158.056067 
L 116.3159 160.77717 
L 120.110334 163.244886 
L 123.904769 165.465503 
L 127.699204 167.445311 
L 131.493639 169.190597 
L 135.288073 170.707651 
L 139.082508 172.002761 
L 143.193146 173.162634 
L 147.303783 174.077409 
L 151.414421 174.75508 
L 155.525059 175.203643 
L 159.635696 175.431095 
L 163.746334 175.445431 
L 168.173175 175.231703 
L 172.600015 174.790071 
L 177.026856 174.13052 
L 181.769899 173.193382 
L 186.512943 172.02983 
L 191.572189 170.552988 
L 196.631435 168.847418 
L 202.006885 166.801307 
L 207.698537 164.391608 
L 213.706392 161.599652 
L 220.03045 158.412127 
L 226.986913 154.645514 
L 234.575783 150.269628 
L 243.113261 145.074888 
L 253.231754 138.64045 
L 267.777087 129.091698 
L 288.330275 115.622967 
L 298.448768 109.271798 
L 306.986246 104.176303 
L 314.258913 100.082977 
L 321.215376 96.423732 
L 327.539434 93.347572 
L 333.547289 90.673548 
L 339.238942 88.386481 
L 344.614391 86.465934 
L 349.673637 84.887189 
L 354.732883 83.545557 
L 359.475927 82.516379 
L 364.21897 81.720985 
L 368.645811 81.200379 
L 373.072651 80.90411 
L 377.499492 80.842167 
L 381.61013 81.003192 
L 385.720767 81.38287 
L 389.831405 81.989195 
L 393.942043 82.830163 
L 398.05268 83.913769 
L 401.847115 85.136296 
L 405.64155 86.57867 
L 409.435985 88.24718 
L 413.230419 90.148115 
L 417.024854 92.287763 
L 420.819289 94.672414 
L 424.613724 97.308356 
L 428.408158 100.201879 
L 432.202593 103.35927 
L 435.997028 106.78682 
L 440.107665 110.812157 
L 444.218303 115.169932 
L 448.328941 119.868139 
L 452.439578 124.914773 
L 456.550216 130.317832 
L 458.763636 133.377604 
L 458.763636 133.377604 
" clip-path="url(#pb996f53aac)" style="fill: none; stroke-dasharray: 5.55,2.4; stroke-dashoffset: 0; stroke: #2ca02c; stroke-width: 1.5"/>
   </g>
   <g id="line2d_32">
    <path d="M 79.636364 163.763053 
L 99.240943 170.107311 
L 107.146016 172.402467 
L 114.102479 174.195195 
L 120.426537 175.599607 
L 126.434392 176.707194 
L 132.126044 177.533185 
L 137.501494 178.100011 
L 142.876943 178.449206 
L 148.252392 178.57276 
L 153.627841 178.464773 
L 158.687088 178.14813 
L 163.746334 177.621266 
L 169.121783 176.830915 
L 174.497233 175.804465 
L 179.872682 174.545036 
L 185.248131 173.057331 
L 190.62358 171.347547 
L 196.315232 169.303599 
L 202.006885 167.029836 
L 208.01474 164.393887 
L 214.338797 161.374833 
L 220.979058 157.957263 
L 228.251725 153.953484 
L 236.156797 149.333995 
L 245.010478 143.889636 
L 255.761377 136.997849 
L 273.468739 125.326231 
L 288.962681 115.217673 
L 299.081174 108.881084 
L 307.618652 103.796627 
L 315.207521 99.533952 
L 322.163985 95.876793 
L 328.804246 92.638121 
L 335.128304 89.805459 
L 341.136159 87.359712 
L 346.827811 85.276681 
L 352.519463 83.432428 
L 357.894912 81.918247 
L 363.270362 80.631688 
L 368.645811 79.577635 
L 374.02126 78.7594 
L 379.396709 78.178631 
L 384.455956 77.848882 
L 389.831405 77.727135 
L 395.206854 77.837212 
L 400.582303 78.173336 
L 405.957753 78.72762 
L 411.649405 79.541059 
L 417.65726 80.636383 
L 423.981318 82.029197 
L 430.621579 83.724933 
L 438.210448 85.905142 
L 447.380332 88.788157 
L 458.763636 92.536947 
L 458.763636 92.536947 
" clip-path="url(#pb996f53aac)" style="fill: none; stroke-dasharray: 5.55,2.4; stroke-dashoffset: 0; stroke: #d62728; stroke-width: 1.5"/>
   </g>
   <g id="patch_3">
    <path d="M 60.68 228.52 
L 60.68 27.78 
" style="fill: none; stroke: #000000; stroke-width: 0.8; stroke-linejoin: miter; stroke-linecap: square"/>
   </g>
   <g id="patch_4">
    <path d="M 60.68 228.52 
L 477.72 228.52 
" style="fill: none; stroke: #000000; stroke-width: 0.8; stroke-linejoin: miter; stroke-linecap: square"/>
   </g>
   <g id="text_17">
    <!-- Approssimazioni di Taylor per $\sin x$ in 0 -->
    <g transform="translate(151.9 21.78) scale(0.12 -0.12)">
     <defs>
      <path id="DejaVuSans-41" d="M 2188 4044 
L 1331 1722 
L 3047 1722 
L 2188 4044 
z
M 1831 4666 
L 2547 4666 
L 4325 0 
L 3669 0 
L 3244 1197 
L 1141 1197 
L 716 0 
L 50 0 
L 1831 4666 
z
" transform="scale(0.015625)"/>
      <path id="DejaVuSans-70" d="M 1159 525 
L 1159 -1331 
L 581 -1331 
L 581 3500 
L 1159 3500 
L 1159 2969 
Q 1341 3281 1617 3432 
Q 1894 3584 2278 3584 
Q 2916 3584 3314 3078 
Q 3713 2572 3713 1747 
Q 3713 922 3314 415 
Q 2916 -91 2278 -91 
Q 1894 -91 1617 61 
Q 1341 213 1159 525 
z
M 3116 1747 
Q 3116 2381 2855 2742 
Q 2594 3103 2138 3103 
Q 1681 3103 1420 2742 
Q 1159 2381 1159 1747 
Q 1159 1113 1420 752 
Q 1681 391 2138 391 
Q 2594 391 2855 752 
Q 3116 1113 3116 1747 
z
" transform="scale(0.015625)"/>
      <path id="DejaVuSans-72" d="M 2631 2963 
Q 2534 3019 2420 3045 
Q 2306 3072 2169 3072 
Q 1681 3072 1420 2755 
Q 1159 2438 1159 1844 
L 1159 0 
L 581 0 
L 581 3500 
L 1159 3500 
L 1159 2956 
Q 1341 3275 1631 3429 
Q 1922 3584 2338 3584 
Q 2397 3584 2469 3576 
Q 2541 3569 2628 3553 
L 2631 2963 
z
" transform="scale(0.015625)"/>
      <path id="DejaVuSans-6f" d="M 1959 3097 
Q 1497 3097 1228 2736 
Q 959 2375 959 1747 
Q 959 1119 1226 758 
Q 1494 397 1959 397 
Q 2419 397 2687 759 
Q 2956 1122 2956 1747 
Q 2956 2369 2687 2733 
Q 2419 3097 1959 3097 
z
M 1959 3584 
Q 2709 3584 3137 3096 
Q 3566 2609 3566 1747 
Q 3566 888 3137 398 
Q 2709 -91 1959 -91 
Q 1206 -91 779 398 
Q 353 888 353 1747 
Q 353 2609 779 3096 
Q 1206 3584 1959 3584 
z
" transform="scale(0.015625)"/>
      <path id="DejaVuSans-73" d="M 2834 3397 
L 2834 2853 
Q 2591 2978 2328 3040 
Q 2066 3103 1784 3103 
Q 1356 3103 1142 2972 
Q 928 2841 928 2578 
Q 928 2378 1081 2264 
Q 1234 2150 1697 2047 
L 1894 2003 
Q 2506 1872 2764 1633 
Q 3022 1394 3022 966 
Q 3022 478 2636 193 
Q 2250 -91 1575 -91 
Q 1294 -91 989 -36 
Q 684 19 347 128 
L 347 722 
Q 666 556 975 473 
Q 1284 391 1588 391 
Q 1994 391 2212 530 
Q 2431 669 2431 922 
Q 2431 1156 2273 1281 
Q 2116 1406 1581 1522 
L 1381 1569 
Q 847 1681 609 1914 
Q 372 2147 372 2553 
Q 372 3047 722 3315 
Q 1072 3584 1716 3584 
Q 2034 3584 2315 3537 
Q 2597 3491 2834 3397 
z
" transform="scale(0.015625)"/>
      <path id="DejaVuSans-69" d="M 603 3500 
L 1178 3500 
L 1178 0 
L 603 0 
L 603 3500 
z
M 603 4863 
L 1178 4863 
L 1178 4134 
L 603 4134 
L 603 4863 
z
" transform="scale(0.015625)"/>
      <path id="DejaVuSans-6d" d="M 3328 2828 
Q 3544 3216 3844 3400 
Q 4144 3584 4550 3584 
Q 5097 3584 5394 3201 
Q 5691 2819 5691 2113 
L 5691 0 
L 5113 0 
L 5113 2094 
Q 5113 2597 4934 2840 
Q 4756 3084 4391 3084 
Q 3944 3084 3684 2787 
Q 3425 2491 3425 1978 
L 3425 0 
L 2847 0 
L 2847 2094 
Q 2847 2600 2669 2842 
Q 2491 3084 2119 3084 
Q 1678 3084 1418 2786 
Q 1159 2488 1159 1978 
L 1159 0 
L 581 0 
L 581 3500 
L 1159 3500 
L 1159 2956 
Q 1356 3278 1631 3431 
Q 1906 3584 2284 3584 
Q 2666 3584 2933 3390 
Q 3200 3197 3328 2828 
z
" transform="scale(0.015625)"/>
      <path id="DejaVuSans-61" d="M 2194 1759 
Q 1497 1759 1228 1600 
Q 959 1441 959 1056 
Q 959 750 1161 570 
Q 1363 391 1709 391 
Q 2188 391 2477 730 
Q 2766 1069 2766 1631 
L 2766 1759 
L 2194 1759 
z
M 3341 1997 
L 3341 0 
L 2766 0 
L 2766 531 
Q 2569 213 2275 61 
Q 1981 -91 1556 -91 
Q 1019 -91 701 211 
Q 384 513 384 1019 
Q 384 1609 779 1909 
Q 1175 2209 1959 2209 
L 2766 2209 
L 2766 2266 
Q 2766 2663 2505 2880 
Q 2244 3097 1772 3097 
Q 1472 3097 1187 3025 
Q 903 2953 641 2809 
L 641 3341 
Q 956 3463 1253 3523 
Q 1550 3584 1831 3584 
Q 2591 3584 2966 3190 
Q 3341 2797 3341 1997 
z
" transform="scale(0.015625)"/>
      <path id="DejaVuSans-7a" d="M 353 3500 
L 3084 3500 
L 3084 2975 
L 922 459 
L 3084 459 
L 3084 0 
L 275 0 
L 275 525 
L 2438 3041 
L 353 3041 
L 353 3500 
z
" transform="scale(0.015625)"/>
      <path id="DejaVuSans-6e" d="M 3513 2113 
L 3513 0 
L 2938 0 
L 2938 2094 
Q 2938 2591 2744 2837 
Q 2550 3084 2163 3084 
Q 1697 3084 1428 2787 
Q 1159 2491 1159 1978 
L 1159 0 
L 581 0 
L 581 3500 
L 1159 3500 
L 1159 2956 
Q 1366 3272 1645 3428 
Q 1925 3584 2291 3584 
Q 2894 3584 3203 3211 
Q 3513 2838 3513 2113 
z
" transform="scale(0.015625)"/>
      <path id="DejaVuSans-20" transform="scale(0.015625)"/>
      <path id="DejaVuSans-64" d="M 2906 2969 
L 2906 4863 
L 3481 4863 
L 3481 0 
L 2906 0 
L 2906 525 
Q 2725 213 2448 61 
Q 2172 -91 1784 -91 
Q 1150 -91 751 415 
Q 353 922 353 1747 
Q 353 2572 751 3078 
Q 1150 3584 1784 3584 
Q 2172 3584 2448 3432 
Q 2725 3281 2906 2969 
z
M 947 1747 
Q 947 1113 1208 752 
Q 1469 391 1925 391 
Q 2381 391 2643 752 
Q 2906 1113 2906 1747 
Q 2906 2381 2643 2742 
Q 2381 3103 1925 3103 
Q 1469 3103 1208 2742 
Q 947 2381 947 1747 
z
" transform="scale(0.015625)"/>
      <path id="DejaVuSans-54" d="M -19 4666 
L 3928 4666 
L 3928 4134 
L 2272 4134 
L 2272 0 
L 1638 0 
L 1638 4134 
L -19 4134 
L -19 4666 
z
" transform="scale(0.015625)"/>
      <path id="DejaVuSans-6c" d="M 603 4863 
L 1178 4863 
L 1178 0 
L 603 0 
L 603 4863 
z
" transform="scale(0.015625)"/>
      <path id="DejaVuSans-65" d="M 3597 1894 
L 3597 1613 
L 953 1613 
Q 991 1019 1311 708 
Q 1631 397 2203 397 
Q 2534 397 2845 478 
Q 3156 559 3463 722 
L 3463 178 
Q 3153 47 2828 -22 
Q 2503 -91 2169 -91 
Q 1331 -91 842 396 
Q 353 884 353 1716 
Q 353 2575 817 3079 
Q 1281 3584 2069 3584 
Q 2775 3584 3186 3129 
Q 3597 2675 3597 1894 
z
M 3022 2063 
Q 3016 2534 2758 2815 
Q 2500 3097 2075 3097 
Q 1594 3097 1305 2825 
Q 1016 2553 972 2059 
L 3022 2063 
z
" transform="scale(0.015625)"/>
      <path id="DejaVuSans-Oblique-78" d="M 3841 3500 
L 2234 1784 
L 3219 0 
L 2559 0 
L 1819 1388 
L 531 0 
L -166 0 
L 1556 1844 
L 641 3500 
L 1300 3500 
L 1972 2234 
L 3144 3500 
L 3841 3500 
z
" transform="scale(0.015625)"/>
     </defs>
     <use xlink:href="#DejaVuSans-41" transform="translate(0 0.015625)"/>
     <use xlink:href="#DejaVuSans-70" transform="translate(68.408203 0.015625)"/>
     <use xlink:href="#DejaVuSans-70" transform="translate(131.884766 0.015625)"/>
     <use xlink:href="#DejaVuSans-72" transform="translate(195.361328 0.015625)"/>
     <use xlink:href="#DejaVuSans-6f" transform="translate(236.474609 0.015625)"/>
     <use xlink:href="#DejaVuSans-73" transform="translate(297.65625 0.015625)"/>
     <use xlink:href="#DejaVuSans-73" transform="translate(349.755859 0.015625)"/>
     <use xlink:href="#DejaVuSans-69" transform="translate(401.855469 0.015625)"/>
     <use xlink:href="#DejaVuSans-6d" transform="translate(429.638672 0.015625)"/>
     <use xlink:href="#DejaVuSans-61" transform="translate(527.050781 0.015625)"/>
     <use xlink:href="#DejaVuSans-7a" transform="translate(588.330078 0.015625)"/>
     <use xlink:href="#DejaVuSans-69" transform="translate(640.820312 0.015625)"/>
     <use xlink:href="#DejaVuSans-6f" transform="translate(668.603516 0.015625)"/>
     <use xlink:href="#DejaVuSans-6e" transform="translate(729.785156 0.015625)"/>
     <use xlink:href="#DejaVuSans-69" transform="translate(793.164062 0.015625)"/>
     <use xlink:href="#DejaVuSans-20" transform="translate(820.947266 0.015625)"/>
     <use xlink:href="#DejaVuSans-64" transform="translate(852.734375 0.015625)"/>
     <use xlink:href="#DejaVuSans-69" transform="translate(916.210938 0.015625)"/>
     <use xlink:href="#DejaVuSans-20" transform="translate(943.994141 0.015625)"/>
     <use xlink:href="#DejaVuSans-54" transform="translate(975.78125 0.015625)"/>
     <use xlink:href="#DejaVuSans-61" transform="translate(1036.865234 0.015625)"/>
     <use xlink:href="#DejaVuSans-79" transform="translate(1098.144531 0.015625)"/>
     <use xlink:href="#DejaVuSans-6c" transform="translate(1157.324219 0.015625)"/>
     <use xlink:href="#DejaVuSans-6f" transform="translate(1185.107422 0.015625)"/>
     <use xlink:href="#DejaVuSans-72" transform="translate(1246.289062 0.015625)"/>
     <use xlink:href="#DejaVuSans-20" transform="translate(1287.402344 0.015625)"/>
     <use xlink:href="#DejaVuSans-70" transform="translate(1319.189453 0.015625)"/>
     <use xlink:href="#DejaVuSans-65" transform="translate(1382.666016 0.015625)"/>
     <use xlink:href="#DejaVuSans-72" transform="translate(1444.189453 0.015625)"/>
     <use xlink:href="#DejaVuSans-20" transform="translate(1485.302734 0.015625)"/>
     <use xlink:href="#DejaVuSans-73" transform="translate(1517.089844 0.015625)"/>
     <use xlink:href="#DejaVuSans-69" transform="translate(1569.189453 0.015625)"/>
     <use xlink:href="#DejaVuSans-6e" transform="translate(1596.972656 0.015625)"/>
     <use xlink:href="#DejaVuSans-Oblique-78" transform="translate(1676.587239 0.015625)"/>
     <use xlink:href="#DejaVuSans-20" transform="translate(1735.766926 0.015625)"/>
     <use xlink:href="#DejaVuSans-69" transform="translate(1767.554036 0.015625)"/>
     <use xlink:href="#DejaVuSans-6e" transform="translate(1795.337239 0.015625)"/>
     <use xlink:href="#DejaVuSans-20" transform="translate(1858.716145 0.015625)"/>
     <use xlink:href="#DejaVuSans-30" transform="translate(1890.503254 0.015625)"/>
    </g>
   </g>
   <g id="legend_1">
    <g id="line2d_33">
     <path d="M 70.58 42.188281 
L 81.58 42.188281 
L 92.58 42.188281 
" style="fill: none; stroke: #1f77b4; stroke-width: 1.5; stroke-linecap: square"/>
    </g>
    <g id="text_18">
     <!-- $\sin x$ -->
     <g transform="translate(101.38 46.038281) scale(0.11 -0.11)">
      <use xlink:href="#DejaVuSans-73" transform="translate(0 0.015625)"/>
      <use xlink:href="#DejaVuSans-69" transform="translate(52.099609 0.015625)"/>
      <use xlink:href="#DejaVuSans-6e" transform="translate(79.882812 0.015625)"/>
      <use xlink:href="#DejaVuSans-Oblique-78" transform="translate(159.497395 0.015625)"/>
     </g>
    </g>
    <g id="line2d_34">
     <path d="M 70.58 58.334219 
L 81.58 58.334219 
L 92.58 58.334219 
" style="fill: none; stroke-dasharray: 5.55,2.4; stroke-dashoffset: 0; stroke: #ff7f0e; stroke-width: 1.5"/>
    </g>
    <g id="text_19">
     <!-- Taylor ordine 1 -->
     <g transform="translate(101.38 62.184219) scale(0.11 -0.11)">
      <use xlink:href="#DejaVuSans-54"/>
      <use xlink:href="#DejaVuSans-61" x="44.583984"/>
      <use xlink:href="#DejaVuSans-79" x="105.863281"/>
      <use xlink:href="#DejaVuSans-6c" x="165.042969"/>
      <use xlink:href="#DejaVuSans-6f" x="192.826172"/>
      <use xlink:href="#DejaVuSans-72" x="254.007812"/>
      <use xlink:href="#DejaVuSans-20" x="295.121094"/>
      <use xlink:href="#DejaVuSans-6f" x="326.908203"/>
      <use xlink:href="#DejaVuSans-72" x="388.089844"/>
      <use xlink:href="#DejaVuSans-64" x="427.453125"/>
      <use xlink:href="#DejaVuSans-69" x="490.929688"/>
      <use xlink:href="#DejaVuSans-6e" x="518.712891"/>
      <use xlink:href="#DejaVuSans-65" x="582.091797"/>
      <use xlink:href="#DejaVuSans-20" x="643.615234"/>
      <use xlink:href="#DejaVuSans-31" x="675.402344"/>
     </g>
    </g>
    <g id="line2d_35">
     <path d="M 204.673438 42.188281 
L 215.673438 42.188281 
L 226.673438 42.188281 
" style="fill: none; stroke-dasharray: 5.55,2.4; stroke-dashoffset: 0; stroke: #2ca02c; stroke-width: 1.5"/>
    </g>
    <g id="text_20">
     <!-- Taylor ordine 3 -->
     <g transform="translate(235.473438 46.038281) scale(0.11 -0.11)">
      <defs>
       <path id="DejaVuSans-33" d="M 2597 2516 
Q 3050 2419 3304 2112 
Q 3559 1806 3559 1356 
Q 3559 666 3084 287 
Q 2609 -91 1734 -91 
Q 1441 -91 1130 -33 
Q 819 25 488 141 
L 488 750 
Q 750 597 1062 519 
Q 1375 441 1716 441 
Q 2309 441 2620 675 
Q 2931 909 2931 1356 
Q 2931 1769 2642 2001 
Q 2353 2234 1838 2234 
L 1294 2234 
L 1294 2753 
L 1863 2753 
Q 2328 2753 2575 2939 
Q 2822 3125 2822 3475 
Q 2822 3834 2567 4026 
Q 2313 4219 1838 4219 
Q 1578 4219 1281 4162 
Q 984 4106 628 3988 
L 628 4550 
Q 988 4650 1302 4700 
Q 1616 4750 1894 4750 
Q 2613 4750 3031 4423 
Q 3450 4097 3450 3541 
Q 3450 3153 3228 2886 
Q 3006 2619 2597 2516 
z
" transform="scale(0.015625)"/>
      </defs>
      <use xlink:href="#DejaVuSans-54"/>
      <use xlink:href="#DejaVuSans-61" x="44.583984"/>
      <use xlink:href="#DejaVuSans-79" x="105.863281"/>
      <use xlink:href="#DejaVuSans-6c" x="165.042969"/>
      <use xlink:href="#DejaVuSans-6f" x="192.826172"/>
      <use xlink:href="#DejaVuSans-72" x="254.007812"/>
      <use xlink:href="#DejaVuSans-20" x="295.121094"/>
      <use xlink:href="#DejaVuSans-6f" x="326.908203"/>
      <use xlink:href="#DejaVuSans-72" x="388.089844"/>
      <use xlink:href="#DejaVuSans-64" x="427.453125"/>
      <use xlink:href="#DejaVuSans-69" x="490.929688"/>
      <use xlink:href="#DejaVuSans-6e" x="518.712891"/>
      <use xlink:href="#DejaVuSans-65" x="582.091797"/>
      <use xlink:href="#DejaVuSans-20" x="643.615234"/>
      <use xlink:href="#DejaVuSans-33" x="675.402344"/>
     </g>
    </g>
    <g id="line2d_36">
     <path d="M 204.673438 58.334219 
L 215.673438 58.334219 
L 226.673438 58.334219 
" style="fill: none; stroke-dasharray: 5.55,2.4; stroke-dashoffset: 0; stroke: #d62728; stroke-width: 1.5"/>
    </g>
    <g id="text_21">
     <!-- Taylor ordine 5 -->
     <g transform="translate(235.473438 62.184219) scale(0.11 -0.11)">
      <use xlink:href="#DejaVuSans-54"/>
      <use xlink:href="#DejaVuSans-61" x="44.583984"/>
      <use xlink:href="#DejaVuSans-79" x="105.863281"/>
      <use xlink:href="#DejaVuSans-6c" x="165.042969"/>
      <use xlink:href="#DejaVuSans-6f" x="192.826172"/>
      <use xlink:href="#DejaVuSans-72" x="254.007812"/>
      <use xlink:href="#DejaVuSans-20" x="295.121094"/>
      <use xlink:href="#DejaVuSans-6f" x="326.908203"/>
      <use xlink:href="#DejaVuSans-72" x="388.089844"/>
      <use xlink:href="#DejaVuSans-64" x="427.453125"/>
      <use xlink:href="#DejaVuSans-69" x="490.929688"/>
      <use xlink:href="#DejaVuSans-6e" x="518.712891"/>
      <use xlink:href="#DejaVuSans-65" x="582.091797"/>
      <use xlink:href="#DejaVuSans-20" x="643.615234"/>
      <use xlink:href="#DejaVuSans-35" x="675.402344"/>
     </g>
    </g>
   </g>
  </g>
 </g>
 <defs>
  <clipPath id="pb996f53aac">
   <rect x="60.68" y="27.78" width="417.04" height="200.74"/>
  </clipPath>
 </defs>
</svg>
