<?xml version="1.0" encoding="utf-8" standalone="no"?>
<!DOCTYPE svg PUBLIC "-//W3C//DTD SVG 1.1//EN"
  "http://www.w3.org/Graphics/SVG/1.1/DTD/svg11.dtd">
<svg xmlns:xlink="http://www.w3.org/1999/xlink" width="763.2pt" height="259.2pt" viewBox="0 0 763.2 259.2" xmlns="http://www.w3.org/2000/svg" version="1.1">
 <metadata>
  <rdf:RDF xmlns:dc="http://purl.org/dc/elements/1.1/" xmlns:cc="http://creativecommons.org/ns#" xmlns:rdf="http://www.w3.org/1999/02/22-rdf-syntax-ns#">
   <cc:Work>
    <dc:type rdf:resource="http://purl.org/dc/dcmitype/StillImage"/>
    <dc:date>2025-12-15T08:30:18.571266</dc:date>
    <dc:format>image/svg+xml</dc:format>
    <dc:creator>
     <cc:Agent>
      <dc:title>Matplotlib v3.8.2, https://matplotlib.org/</dc:title>
     </cc:Agent>
    </dc:creator>
   </cc:Work>
  </rdf:RDF>
 </metadata>
 <defs>
  <style type="text/css">*{stroke-linejoin: round; stroke-linecap: butt}</style>
 </defs>
 <g id="figure_1">
  <g id="patch_1">
   <path d="M 0 259.2 
L 763.2 259.2 
L 763.2 0 
L 0 0 
z
" style="fill: #ffffff"/>
  </g>
  <g id="axes_1">
   <g id="patch_2">
    <path d="M 19.335 206.635 
L 242.985 206.635 
L 242.985 52.565 
L 19.335 52.565 
L 19.335 206.635 
z
" clip-path="url(#pb43c0f60c7)" style="fill: none; stroke: #000000; stroke-width: 2; stroke-linejoin: miter"/>
   </g>
   <g id="patch_3">
    <path d="M 19.335 206.635 
L 242.985 206.635 
L 242.985 52.565 
L 19.335 52.565 
z
" clip-path="url(#pb43c0f60c7)" style="fill: #2ca02c; opacity: 0.18; stroke: #2ca02c; stroke-linejoin: miter"/>
   </g>
   <g id="patch_4">
    <path d="M 91.4 191.725 
C 107.875743 191.725 123.678899 185.179118 135.329009 173.529009 
C 146.979118 161.878899 153.525 146.075743 153.525 129.6 
C 153.525 113.124257 146.979118 97.321101 135.329009 85.670991 
C 123.678899 74.020882 107.875743 67.475 91.4 67.475 
C 74.924257 67.475 59.121101 74.020882 47.470991 85.670991 
C 35.820882 97.321101 29.275 113.124257 29.275 129.6 
C 29.275 146.075743 35.820882 161.878899 47.470991 173.529009 
C 59.121101 185.179118 74.924257 191.725 91.4 191.725 
z
" clip-path="url(#pb43c0f60c7)" style="fill: #ffffff; stroke: #ffffff; stroke-linejoin: miter"/>
   </g>
   <g id="patch_5">
    <path d="M 91.4 191.725 
C 107.875743 191.725 123.678899 185.179118 135.329009 173.529009 
C 146.979118 161.878899 153.525 146.075743 153.525 129.6 
C 153.525 113.124257 146.979118 97.321101 135.329009 85.670991 
C 123.678899 74.020882 107.875743 67.475 91.4 67.475 
C 74.924257 67.475 59.121101 74.020882 47.470991 85.670991 
C 35.820882 97.321101 29.275 113.124257 29.275 129.6 
C 29.275 146.075743 35.820882 161.878899 47.470991 173.529009 
C 59.121101 185.179118 74.924257 191.725 91.4 191.725 
L 91.4 191.725 
z
" clip-path="url(#pb43c0f60c7)" style="fill: none; stroke: #000000; stroke-width: 2; stroke-linejoin: miter"/>
   </g>
   <g id="patch_6">
    <path d="M 170.92 191.725 
C 187.395743 191.725 203.198899 185.179118 214.849009 173.529009 
C 226.499118 161.878899 233.045 146.075743 233.045 129.6 
C 233.045 113.124257 226.499118 97.321101 214.849009 85.670991 
C 203.198899 74.020882 187.395743 67.475 170.92 67.475 
C 154.444257 67.475 138.641101 74.020882 126.990991 85.670991 
C 115.340882 97.321101 108.795 113.124257 108.795 129.6 
C 108.795 146.075743 115.340882 161.878899 126.990991 173.529009 
C 138.641101 185.179118 154.444257 191.725 170.92 191.725 
L 170.92 191.725 
z
" clip-path="url(#pb43c0f60c7)" style="fill: none; stroke: #000000; stroke-width: 2; stroke-linejoin: miter"/>
   </g>
   <g id="text_1">
    <!-- A -->
    <g transform="translate(49.155 62.505) scale(0.12 -0.12)">
     <defs>
      <path id="DejaVuSans-41" d="M 2188 4044 
L 1331 1722 
L 3047 1722 
L 2188 4044 
z
M 1831 4666 
L 2547 4666 
L 4325 0 
L 3669 0 
L 3244 1197 
L 1141 1197 
L 716 0 
L 50 0 
L 1831 4666 
z
" transform="scale(0.015625)"/>
     </defs>
     <use xlink:href="#DejaVuSans-41"/>
    </g>
   </g>
   <g id="text_2">
    <!-- B -->
    <g transform="translate(203.225 62.505) scale(0.12 -0.12)">
     <defs>
      <path id="DejaVuSans-42" d="M 1259 2228 
L 1259 519 
L 2272 519 
Q 2781 519 3026 730 
Q 3272 941 3272 1375 
Q 3272 1813 3026 2020 
Q 2781 2228 2272 2228 
L 1259 2228 
z
M 1259 4147 
L 1259 2741 
L 2194 2741 
Q 2656 2741 2882 2914 
Q 3109 3088 3109 3444 
Q 3109 3797 2882 3972 
Q 2656 4147 2194 4147 
L 1259 4147 
z
M 628 4666 
L 2241 4666 
Q 2963 4666 3353 4366 
Q 3744 4066 3744 3513 
Q 3744 3084 3544 2831 
Q 3344 2578 2956 2516 
Q 3422 2416 3680 2098 
Q 3938 1781 3938 1306 
Q 3938 681 3513 340 
Q 3088 0 2303 0 
L 628 0 
L 628 4666 
z
" transform="scale(0.015625)"/>
     </defs>
     <use xlink:href="#DejaVuSans-42"/>
    </g>
   </g>
   <g id="text_3">
    <!-- U -->
    <g transform="translate(19.335 52.565) scale(0.12 -0.12)">
     <defs>
      <path id="DejaVuSans-55" d="M 556 4666 
L 1191 4666 
L 1191 1831 
Q 1191 1081 1462 751 
Q 1734 422 2344 422 
Q 2950 422 3222 751 
Q 3494 1081 3494 1831 
L 3494 4666 
L 4128 4666 
L 4128 1753 
Q 4128 841 3676 375 
Q 3225 -91 2344 -91 
Q 1459 -91 1007 375 
Q 556 841 556 1753 
L 556 4666 
z
" transform="scale(0.015625)"/>
     </defs>
     <use xlink:href="#DejaVuSans-55"/>
    </g>
   </g>
   <g id="text_4">
    <!-- Complementare: $A^c$ (in $U$) -->
    <g transform="translate(53.46 29.17) scale(0.12 -0.12)">
     <defs>
      <path id="DejaVuSans-43" d="M 4122 4306 
L 4122 3641 
Q 3803 3938 3442 4084 
Q 3081 4231 2675 4231 
Q 1875 4231 1450 3742 
Q 1025 3253 1025 2328 
Q 1025 1406 1450 917 
Q 1875 428 2675 428 
Q 3081 428 3442 575 
Q 3803 722 4122 1019 
L 4122 359 
Q 3791 134 3420 21 
Q 3050 -91 2638 -91 
Q 1578 -91 968 557 
Q 359 1206 359 2328 
Q 359 3453 968 4101 
Q 1578 4750 2638 4750 
Q 3056 4750 3426 4639 
Q 3797 4528 4122 4306 
z
" transform="scale(0.015625)"/>
      <path id="DejaVuSans-6f" d="M 1959 3097 
Q 1497 3097 1228 2736 
Q 959 2375 959 1747 
Q 959 1119 1226 758 
Q 1494 397 1959 397 
Q 2419 397 2687 759 
Q 2956 1122 2956 1747 
Q 2956 2369 2687 2733 
Q 2419 3097 1959 3097 
z
M 1959 3584 
Q 2709 3584 3137 3096 
Q 3566 2609 3566 1747 
Q 3566 888 3137 398 
Q 2709 -91 1959 -91 
Q 1206 -91 779 398 
Q 353 888 353 1747 
Q 353 2609 779 3096 
Q 1206 3584 1959 3584 
z
" transform="scale(0.015625)"/>
      <path id="DejaVuSans-6d" d="M 3328 2828 
Q 3544 3216 3844 3400 
Q 4144 3584 4550 3584 
Q 5097 3584 5394 3201 
Q 5691 2819 5691 2113 
L 5691 0 
L 5113 0 
L 5113 2094 
Q 5113 2597 4934 2840 
Q 4756 3084 4391 3084 
Q 3944 3084 3684 2787 
Q 3425 2491 3425 1978 
L 3425 0 
L 2847 0 
L 2847 2094 
Q 2847 2600 2669 2842 
Q 2491 3084 2119 3084 
Q 1678 3084 1418 2786 
Q 1159 2488 1159 1978 
L 1159 0 
L 581 0 
L 581 3500 
L 1159 3500 
L 1159 2956 
Q 1356 3278 1631 3431 
Q 1906 3584 2284 3584 
Q 2666 3584 2933 3390 
Q 3200 3197 3328 2828 
z
" transform="scale(0.015625)"/>
      <path id="DejaVuSans-70" d="M 1159 525 
L 1159 -1331 
L 581 -1331 
L 581 3500 
L 1159 3500 
L 1159 2969 
Q 1341 3281 1617 3432 
Q 1894 3584 2278 3584 
Q 2916 3584 3314 3078 
Q 3713 2572 3713 1747 
Q 3713 922 3314 415 
Q 2916 -91 2278 -91 
Q 1894 -91 1617 61 
Q 1341 213 1159 525 
z
M 3116 1747 
Q 3116 2381 2855 2742 
Q 2594 3103 2138 3103 
Q 1681 3103 1420 2742 
Q 1159 2381 1159 1747 
Q 1159 1113 1420 752 
Q 1681 391 2138 391 
Q 2594 391 2855 752 
Q 3116 1113 3116 1747 
z
" transform="scale(0.015625)"/>
      <path id="DejaVuSans-6c" d="M 603 4863 
L 1178 4863 
L 1178 0 
L 603 0 
L 603 4863 
z
" transform="scale(0.015625)"/>
      <path id="DejaVuSans-65" d="M 3597 1894 
L 3597 1613 
L 953 1613 
Q 991 1019 1311 708 
Q 1631 397 2203 397 
Q 2534 397 2845 478 
Q 3156 559 3463 722 
L 3463 178 
Q 3153 47 2828 -22 
Q 2503 -91 2169 -91 
Q 1331 -91 842 396 
Q 353 884 353 1716 
Q 353 2575 817 3079 
Q 1281 3584 2069 3584 
Q 2775 3584 3186 3129 
Q 3597 2675 3597 1894 
z
M 3022 2063 
Q 3016 2534 2758 2815 
Q 2500 3097 2075 3097 
Q 1594 3097 1305 2825 
Q 1016 2553 972 2059 
L 3022 2063 
z
" transform="scale(0.015625)"/>
      <path id="DejaVuSans-6e" d="M 3513 2113 
L 3513 0 
L 2938 0 
L 2938 2094 
Q 2938 2591 2744 2837 
Q 2550 3084 2163 3084 
Q 1697 3084 1428 2787 
Q 1159 2491 1159 1978 
L 1159 0 
L 581 0 
L 581 3500 
L 1159 3500 
L 1159 2956 
Q 1366 3272 1645 3428 
Q 1925 3584 2291 3584 
Q 2894 3584 3203 3211 
Q 3513 2838 3513 2113 
z
" transform="scale(0.015625)"/>
      <path id="DejaVuSans-74" d="M 1172 4494 
L 1172 3500 
L 2356 3500 
L 2356 3053 
L 1172 3053 
L 1172 1153 
Q 1172 725 1289 603 
Q 1406 481 1766 481 
L 2356 481 
L 2356 0 
L 1766 0 
Q 1100 0 847 248 
Q 594 497 594 1153 
L 594 3053 
L 172 3053 
L 172 3500 
L 594 3500 
L 594 4494 
L 1172 4494 
z
" transform="scale(0.015625)"/>
      <path id="DejaVuSans-61" d="M 2194 1759 
Q 1497 1759 1228 1600 
Q 959 1441 959 1056 
Q 959 750 1161 570 
Q 1363 391 1709 391 
Q 2188 391 2477 730 
Q 2766 1069 2766 1631 
L 2766 1759 
L 2194 1759 
z
M 3341 1997 
L 3341 0 
L 2766 0 
L 2766 531 
Q 2569 213 2275 61 
Q 1981 -91 1556 -91 
Q 1019 -91 701 211 
Q 384 513 384 1019 
Q 384 1609 779 1909 
Q 1175 2209 1959 2209 
L 2766 2209 
L 2766 2266 
Q 2766 2663 2505 2880 
Q 2244 3097 1772 3097 
Q 1472 3097 1187 3025 
Q 903 2953 641 2809 
L 641 3341 
Q 956 3463 1253 3523 
Q 1550 3584 1831 3584 
Q 2591 3584 2966 3190 
Q 3341 2797 3341 1997 
z
" transform="scale(0.015625)"/>
      <path id="DejaVuSans-72" d="M 2631 2963 
Q 2534 3019 2420 3045 
Q 2306 3072 2169 3072 
Q 1681 3072 1420 2755 
Q 1159 2438 1159 1844 
L 1159 0 
L 581 0 
L 581 3500 
L 1159 3500 
L 1159 2956 
Q 1341 3275 1631 3429 
Q 1922 3584 2338 3584 
Q 2397 3584 2469 3576 
Q 2541 3569 2628 3553 
L 2631 2963 
z
" transform="scale(0.015625)"/>
      <path id="DejaVuSans-3a" d="M 750 794 
L 1409 794 
L 1409 0 
L 750 0 
L 750 794 
z
M 750 3309 
L 1409 3309 
L 1409 2516 
L 750 2516 
L 750 3309 
z
" transform="scale(0.015625)"/>
      <path id="DejaVuSans-20" transform="scale(0.015625)"/>
      <path id="DejaVuSans-Oblique-41" d="M 2356 4666 
L 3072 4666 
L 3938 0 
L 3278 0 
L 3084 1197 
L 984 1197 
L 325 0 
L -341 0 
L 2356 4666 
z
M 2584 4044 
L 1275 1722 
L 2988 1722 
L 2584 4044 
z
" transform="scale(0.015625)"/>
      <path id="DejaVuSans-Oblique-63" d="M 3431 3366 
L 3316 2797 
Q 3109 2947 2876 3022 
Q 2644 3097 2394 3097 
Q 2119 3097 1870 3000 
Q 1622 2903 1453 2725 
Q 1184 2453 1037 2087 
Q 891 1722 891 1331 
Q 891 859 1127 628 
Q 1363 397 1844 397 
Q 2081 397 2348 469 
Q 2616 541 2906 684 
L 2797 116 
Q 2547 13 2283 -39 
Q 2019 -91 1741 -91 
Q 1044 -91 669 257 
Q 294 606 294 1253 
Q 294 1797 489 2255 
Q 684 2713 1069 3078 
Q 1331 3328 1684 3456 
Q 2038 3584 2456 3584 
Q 2700 3584 2940 3529 
Q 3181 3475 3431 3366 
z
" transform="scale(0.015625)"/>
      <path id="DejaVuSans-28" d="M 1984 4856 
Q 1566 4138 1362 3434 
Q 1159 2731 1159 2009 
Q 1159 1288 1364 580 
Q 1569 -128 1984 -844 
L 1484 -844 
Q 1016 -109 783 600 
Q 550 1309 550 2009 
Q 550 2706 781 3412 
Q 1013 4119 1484 4856 
L 1984 4856 
z
" transform="scale(0.015625)"/>
      <path id="DejaVuSans-69" d="M 603 3500 
L 1178 3500 
L 1178 0 
L 603 0 
L 603 3500 
z
M 603 4863 
L 1178 4863 
L 1178 4134 
L 603 4134 
L 603 4863 
z
" transform="scale(0.015625)"/>
      <path id="DejaVuSans-Oblique-55" d="M 991 4666 
L 1625 4666 
L 1075 1831 
Q 1041 1641 1027 1517 
Q 1013 1394 1013 1300 
Q 1013 869 1253 645 
Q 1494 422 1959 422 
Q 2563 422 2898 753 
Q 3234 1084 3378 1831 
L 3928 4666 
L 4563 4666 
L 4000 1753 
Q 3816 809 3300 359 
Q 2784 -91 1888 -91 
Q 1188 -91 780 261 
Q 372 613 372 1216 
Q 372 1325 387 1461 
Q 403 1597 434 1753 
L 991 4666 
z
" transform="scale(0.015625)"/>
      <path id="DejaVuSans-29" d="M 513 4856 
L 1013 4856 
Q 1481 4119 1714 3412 
Q 1947 2706 1947 2009 
Q 1947 1309 1714 600 
Q 1481 -109 1013 -844 
L 513 -844 
Q 928 -128 1133 580 
Q 1338 1288 1338 2009 
Q 1338 2731 1133 3434 
Q 928 4138 513 4856 
z
" transform="scale(0.015625)"/>
     </defs>
     <use xlink:href="#DejaVuSans-43" transform="translate(0 0.51875)"/>
     <use xlink:href="#DejaVuSans-6f" transform="translate(69.824219 0.51875)"/>
     <use xlink:href="#DejaVuSans-6d" transform="translate(131.005859 0.51875)"/>
     <use xlink:href="#DejaVuSans-70" transform="translate(228.417969 0.51875)"/>
     <use xlink:href="#DejaVuSans-6c" transform="translate(291.894531 0.51875)"/>
     <use xlink:href="#DejaVuSans-65" transform="translate(319.677734 0.51875)"/>
     <use xlink:href="#DejaVuSans-6d" transform="translate(381.201172 0.51875)"/>
     <use xlink:href="#DejaVuSans-65" transform="translate(478.613281 0.51875)"/>
     <use xlink:href="#DejaVuSans-6e" transform="translate(540.136719 0.51875)"/>
     <use xlink:href="#DejaVuSans-74" transform="translate(603.515625 0.51875)"/>
     <use xlink:href="#DejaVuSans-61" transform="translate(642.724609 0.51875)"/>
     <use xlink:href="#DejaVuSans-72" transform="translate(704.003906 0.51875)"/>
     <use xlink:href="#DejaVuSans-65" transform="translate(745.117188 0.51875)"/>
     <use xlink:href="#DejaVuSans-3a" transform="translate(806.640625 0.51875)"/>
     <use xlink:href="#DejaVuSans-20" transform="translate(840.332031 0.51875)"/>
     <use xlink:href="#DejaVuSans-Oblique-41" transform="translate(872.119141 0.51875)"/>
     <use xlink:href="#DejaVuSans-Oblique-63" transform="translate(947.544115 38.8) scale(0.7)"/>
     <use xlink:href="#DejaVuSans-20" transform="translate(988.764818 0.51875)"/>
     <use xlink:href="#DejaVuSans-28" transform="translate(1020.551927 0.51875)"/>
     <use xlink:href="#DejaVuSans-69" transform="translate(1059.565599 0.51875)"/>
     <use xlink:href="#DejaVuSans-6e" transform="translate(1087.348802 0.51875)"/>
     <use xlink:href="#DejaVuSans-20" transform="translate(1150.727708 0.51875)"/>
     <use xlink:href="#DejaVuSans-Oblique-55" transform="translate(1182.514818 0.51875)"/>
     <use xlink:href="#DejaVuSans-29" transform="translate(1255.708177 0.51875)"/>
    </g>
   </g>
  </g>
  <g id="axes_2">
   <g id="patch_7">
    <path d="M 269.775 206.635 
L 493.425 206.635 
L 493.425 52.565 
L 269.775 52.565 
L 269.775 206.635 
z
" clip-path="url(#pbb72bf0716)" style="fill: none; stroke: #000000; stroke-width: 2; stroke-linejoin: miter"/>
   </g>
   <g id="patch_8">
    <path d="M 269.775 206.635 
L 493.425 206.635 
L 493.425 52.565 
L 269.775 52.565 
z
" clip-path="url(#pbb72bf0716)" style="fill: #2ca02c; opacity: 0.18; stroke: #2ca02c; stroke-linejoin: miter"/>
   </g>
   <g id="patch_9">
    <path d="M 341.84 191.725 
C 358.315743 191.725 374.118899 185.179118 385.769009 173.529009 
C 397.419118 161.878899 403.965 146.075743 403.965 129.6 
C 403.965 113.124257 397.419118 97.321101 385.769009 85.670991 
C 374.118899 74.020882 358.315743 67.475 341.84 67.475 
C 325.364257 67.475 309.561101 74.020882 297.910991 85.670991 
C 286.260882 97.321101 279.715 113.124257 279.715 129.6 
C 279.715 146.075743 286.260882 161.878899 297.910991 173.529009 
C 309.561101 185.179118 325.364257 191.725 341.84 191.725 
z
" clip-path="url(#pbb72bf0716)" style="fill: #ffffff; stroke: #ffffff; stroke-linejoin: miter"/>
   </g>
   <g id="patch_10">
    <path d="M 421.36 191.725 
C 437.835743 191.725 453.638899 185.179118 465.289009 173.529009 
C 476.939118 161.878899 483.485 146.075743 483.485 129.6 
C 483.485 113.124257 476.939118 97.321101 465.289009 85.670991 
C 453.638899 74.020882 437.835743 67.475 421.36 67.475 
C 404.884257 67.475 389.081101 74.020882 377.430991 85.670991 
C 365.780882 97.321101 359.235 113.124257 359.235 129.6 
C 359.235 146.075743 365.780882 161.878899 377.430991 173.529009 
C 389.081101 185.179118 404.884257 191.725 421.36 191.725 
z
" clip-path="url(#pbb72bf0716)" style="fill: #ffffff; stroke: #ffffff; stroke-linejoin: miter"/>
   </g>
   <g id="patch_11">
    <path d="M 341.84 191.725 
C 358.315743 191.725 374.118899 185.179118 385.769009 173.529009 
C 397.419118 161.878899 403.965 146.075743 403.965 129.6 
C 403.965 113.124257 397.419118 97.321101 385.769009 85.670991 
C 374.118899 74.020882 358.315743 67.475 341.84 67.475 
C 325.364257 67.475 309.561101 74.020882 297.910991 85.670991 
C 286.260882 97.321101 279.715 113.124257 279.715 129.6 
C 279.715 146.075743 286.260882 161.878899 297.910991 173.529009 
C 309.561101 185.179118 325.364257 191.725 341.84 191.725 
L 341.84 191.725 
z
" clip-path="url(#pbb72bf0716)" style="fill: none; stroke: #000000; stroke-width: 2; stroke-linejoin: miter"/>
   </g>
   <g id="patch_12">
    <path d="M 421.36 191.725 
C 437.835743 191.725 453.638899 185.179118 465.289009 173.529009 
C 476.939118 161.878899 483.485 146.075743 483.485 129.6 
C 483.485 113.124257 476.939118 97.321101 465.289009 85.670991 
C 453.638899 74.020882 437.835743 67.475 421.36 67.475 
C 404.884257 67.475 389.081101 74.020882 377.430991 85.670991 
C 365.780882 97.321101 359.235 113.124257 359.235 129.6 
C 359.235 146.075743 365.780882 161.878899 377.430991 173.529009 
C 389.081101 185.179118 404.884257 191.725 421.36 191.725 
L 421.36 191.725 
z
" clip-path="url(#pbb72bf0716)" style="fill: none; stroke: #000000; stroke-width: 2; stroke-linejoin: miter"/>
   </g>
   <g id="text_5">
    <!-- A -->
    <g transform="translate(299.595 62.505) scale(0.12 -0.12)">
     <use xlink:href="#DejaVuSans-41"/>
    </g>
   </g>
   <g id="text_6">
    <!-- B -->
    <g transform="translate(453.665 62.505) scale(0.12 -0.12)">
     <use xlink:href="#DejaVuSans-42"/>
    </g>
   </g>
   <g id="text_7">
    <!-- U -->
    <g transform="translate(269.775 52.565) scale(0.12 -0.12)">
     <use xlink:href="#DejaVuSans-55"/>
    </g>
   </g>
   <g id="text_8">
    <!-- De Morgan: $(A\cup B)^c$ -->
    <g transform="translate(322.68 29.17) scale(0.12 -0.12)">
     <defs>
      <path id="DejaVuSans-44" d="M 1259 4147 
L 1259 519 
L 2022 519 
Q 2988 519 3436 956 
Q 3884 1394 3884 2338 
Q 3884 3275 3436 3711 
Q 2988 4147 2022 4147 
L 1259 4147 
z
M 628 4666 
L 1925 4666 
Q 3281 4666 3915 4102 
Q 4550 3538 4550 2338 
Q 4550 1131 3912 565 
Q 3275 0 1925 0 
L 628 0 
L 628 4666 
z
" transform="scale(0.015625)"/>
      <path id="DejaVuSans-4d" d="M 628 4666 
L 1569 4666 
L 2759 1491 
L 3956 4666 
L 4897 4666 
L 4897 0 
L 4281 0 
L 4281 4097 
L 3078 897 
L 2444 897 
L 1241 4097 
L 1241 0 
L 628 0 
L 628 4666 
z
" transform="scale(0.015625)"/>
      <path id="DejaVuSans-67" d="M 2906 1791 
Q 2906 2416 2648 2759 
Q 2391 3103 1925 3103 
Q 1463 3103 1205 2759 
Q 947 2416 947 1791 
Q 947 1169 1205 825 
Q 1463 481 1925 481 
Q 2391 481 2648 825 
Q 2906 1169 2906 1791 
z
M 3481 434 
Q 3481 -459 3084 -895 
Q 2688 -1331 1869 -1331 
Q 1566 -1331 1297 -1286 
Q 1028 -1241 775 -1147 
L 775 -588 
Q 1028 -725 1275 -790 
Q 1522 -856 1778 -856 
Q 2344 -856 2625 -561 
Q 2906 -266 2906 331 
L 2906 616 
Q 2728 306 2450 153 
Q 2172 0 1784 0 
Q 1141 0 747 490 
Q 353 981 353 1791 
Q 353 2603 747 3093 
Q 1141 3584 1784 3584 
Q 2172 3584 2450 3431 
Q 2728 3278 2906 2969 
L 2906 3500 
L 3481 3500 
L 3481 434 
z
" transform="scale(0.015625)"/>
      <path id="DejaVuSans-222a" d="M 825 1856 
L 825 3706 
L 1363 3706 
L 1363 1934 
Q 1363 1172 1594 842 
Q 1825 513 2344 513 
Q 2859 513 3090 842 
Q 3322 1172 3322 1934 
L 3322 3706 
L 3859 3706 
L 3859 1856 
Q 3859 931 3476 465 
Q 3094 0 2344 0 
Q 1591 0 1208 465 
Q 825 931 825 1856 
z
" transform="scale(0.015625)"/>
      <path id="DejaVuSans-Oblique-42" d="M 1081 4666 
L 2694 4666 
Q 3350 4666 3675 4422 
Q 4000 4178 4000 3688 
Q 4000 3238 3720 2911 
Q 3441 2584 2988 2516 
Q 3375 2428 3569 2181 
Q 3763 1934 3763 1522 
Q 3763 819 3242 409 
Q 2722 0 1819 0 
L 172 0 
L 1081 4666 
z
M 1234 2228 
L 903 519 
L 1919 519 
Q 2491 519 2800 781 
Q 3109 1044 3109 1522 
Q 3109 1891 2904 2059 
Q 2700 2228 2247 2228 
L 1234 2228 
z
M 1606 4147 
L 1331 2741 
L 2272 2741 
Q 2775 2741 3058 2959 
Q 3341 3178 3341 3566 
Q 3341 3869 3150 4008 
Q 2959 4147 2541 4147 
L 1606 4147 
z
" transform="scale(0.015625)"/>
     </defs>
     <use xlink:href="#DejaVuSans-44" transform="translate(0 0.51875)"/>
     <use xlink:href="#DejaVuSans-65" transform="translate(77.001953 0.51875)"/>
     <use xlink:href="#DejaVuSans-20" transform="translate(138.525391 0.51875)"/>
     <use xlink:href="#DejaVuSans-4d" transform="translate(170.3125 0.51875)"/>
     <use xlink:href="#DejaVuSans-6f" transform="translate(256.591797 0.51875)"/>
     <use xlink:href="#DejaVuSans-72" transform="translate(317.773438 0.51875)"/>
     <use xlink:href="#DejaVuSans-67" transform="translate(358.886719 0.51875)"/>
     <use xlink:href="#DejaVuSans-61" transform="translate(422.363281 0.51875)"/>
     <use xlink:href="#DejaVuSans-6e" transform="translate(483.642578 0.51875)"/>
     <use xlink:href="#DejaVuSans-3a" transform="translate(547.021484 0.51875)"/>
     <use xlink:href="#DejaVuSans-20" transform="translate(580.712891 0.51875)"/>
     <use xlink:href="#DejaVuSans-28" transform="translate(612.5 0.51875)"/>
     <use xlink:href="#DejaVuSans-Oblique-41" transform="translate(651.513672 0.51875)"/>
     <use xlink:href="#DejaVuSans-222a" transform="translate(739.404297 0.51875)"/>
     <use xlink:href="#DejaVuSans-Oblique-42" transform="translate(832.080078 0.51875)"/>
     <use xlink:href="#DejaVuSans-29" transform="translate(900.683594 0.51875)"/>
     <use xlink:href="#DejaVuSans-Oblique-63" transform="translate(940.654297 38.8) scale(0.7)"/>
    </g>
   </g>
  </g>
  <g id="axes_3">
   <g id="patch_13">
    <path d="M 520.215 206.635 
L 743.865 206.635 
L 743.865 52.565 
L 520.215 52.565 
L 520.215 206.635 
z
" clip-path="url(#pd68adbdcae)" style="fill: none; stroke: #000000; stroke-width: 2; stroke-linejoin: miter"/>
   </g>
   <g id="patch_14">
    <path d="M 520.215 206.635 
L 743.865 206.635 
L 743.865 52.565 
L 520.215 52.565 
z
" clip-path="url(#pd68adbdcae)" style="fill: #2ca02c; opacity: 0.18; stroke: #2ca02c; stroke-linejoin: miter"/>
   </g>
   <g id="patch_15">
    <path d="M 592.28 191.725 
C 608.755743 191.725 624.558899 185.179118 636.209009 173.529009 
C 647.859118 161.878899 654.405 146.075743 654.405 129.6 
C 654.405 113.124257 647.859118 97.321101 636.209009 85.670991 
C 624.558899 74.020882 608.755743 67.475 592.28 67.475 
C 575.804257 67.475 560.001101 74.020882 548.350991 85.670991 
C 536.700882 97.321101 530.155 113.124257 530.155 129.6 
C 530.155 146.075743 536.700882 161.878899 548.350991 173.529009 
C 560.001101 185.179118 575.804257 191.725 592.28 191.725 
z
" clip-path="url(#pd68adbdcae)" style="fill: #ffffff; stroke: #ffffff; stroke-linejoin: miter"/>
   </g>
   <g id="patch_16">
    <path d="M 671.8 191.725 
C 688.275743 191.725 704.078899 185.179118 715.729009 173.529009 
C 727.379118 161.878899 733.925 146.075743 733.925 129.6 
C 733.925 113.124257 727.379118 97.321101 715.729009 85.670991 
C 704.078899 74.020882 688.275743 67.475 671.8 67.475 
C 655.324257 67.475 639.521101 74.020882 627.870991 85.670991 
C 616.220882 97.321101 609.675 113.124257 609.675 129.6 
C 609.675 146.075743 616.220882 161.878899 627.870991 173.529009 
C 639.521101 185.179118 655.324257 191.725 671.8 191.725 
z
" clip-path="url(#pd68adbdcae)" style="fill: #ffffff; stroke: #ffffff; stroke-linejoin: miter"/>
   </g>
   <g id="patch_17">
    <path d="M 592.28 191.725 
C 608.755743 191.725 624.558899 185.179118 636.209009 173.529009 
C 647.859118 161.878899 654.405 146.075743 654.405 129.6 
C 654.405 113.124257 647.859118 97.321101 636.209009 85.670991 
C 624.558899 74.020882 608.755743 67.475 592.28 67.475 
C 575.804257 67.475 560.001101 74.020882 548.350991 85.670991 
C 536.700882 97.321101 530.155 113.124257 530.155 129.6 
C 530.155 146.075743 536.700882 161.878899 548.350991 173.529009 
C 560.001101 185.179118 575.804257 191.725 592.28 191.725 
L 592.28 191.725 
z
" clip-path="url(#pd68adbdcae)" style="fill: none; stroke: #000000; stroke-width: 2; stroke-linejoin: miter"/>
   </g>
   <g id="patch_18">
    <path d="M 671.8 191.725 
C 688.275743 191.725 704.078899 185.179118 715.729009 173.529009 
C 727.379118 161.878899 733.925 146.075743 733.925 129.6 
C 733.925 113.124257 727.379118 97.321101 715.729009 85.670991 
C 704.078899 74.020882 688.275743 67.475 671.8 67.475 
C 655.324257 67.475 639.521101 74.020882 627.870991 85.670991 
C 616.220882 97.321101 609.675 113.124257 609.675 129.6 
C 609.675 146.075743 616.220882 161.878899 627.870991 173.529009 
C 639.521101 185.179118 655.324257 191.725 671.8 191.725 
L 671.8 191.725 
z
" clip-path="url(#pd68adbdcae)" style="fill: none; stroke: #000000; stroke-width: 2; stroke-linejoin: miter"/>
   </g>
   <g id="text_9">
    <!-- A -->
    <g transform="translate(550.035 62.505) scale(0.12 -0.12)">
     <use xlink:href="#DejaVuSans-41"/>
    </g>
   </g>
   <g id="text_10">
    <!-- B -->
    <g transform="translate(704.105 62.505) scale(0.12 -0.12)">
     <use xlink:href="#DejaVuSans-42"/>
    </g>
   </g>
   <g id="text_11">
    <!-- U -->
    <g transform="translate(520.215 52.565) scale(0.12 -0.12)">
     <use xlink:href="#DejaVuSans-55"/>
    </g>
   </g>
   <g id="text_12">
    <!-- De Morgan: $A^c\cap B^c$ -->
    <g transform="translate(574.5 29.17) scale(0.12 -0.12)">
     <defs>
      <path id="DejaVuSans-2229" d="M 825 1850 
Q 825 2775 1208 3240 
Q 1591 3706 2344 3706 
Q 3094 3706 3476 3240 
Q 3859 2775 3859 1850 
L 3859 0 
L 3322 0 
L 3322 1772 
Q 3322 2534 3090 2864 
Q 2859 3194 2344 3194 
Q 1825 3194 1594 2864 
Q 1363 2534 1363 1772 
L 1363 0 
L 825 0 
L 825 1850 
z
" transform="scale(0.015625)"/>
     </defs>
     <use xlink:href="#DejaVuSans-44" transform="translate(0 0.51875)"/>
     <use xlink:href="#DejaVuSans-65" transform="translate(77.001953 0.51875)"/>
     <use xlink:href="#DejaVuSans-20" transform="translate(138.525391 0.51875)"/>
     <use xlink:href="#DejaVuSans-4d" transform="translate(170.3125 0.51875)"/>
     <use xlink:href="#DejaVuSans-6f" transform="translate(256.591797 0.51875)"/>
     <use xlink:href="#DejaVuSans-72" transform="translate(317.773438 0.51875)"/>
     <use xlink:href="#DejaVuSans-67" transform="translate(358.886719 0.51875)"/>
     <use xlink:href="#DejaVuSans-61" transform="translate(422.363281 0.51875)"/>
     <use xlink:href="#DejaVuSans-6e" transform="translate(483.642578 0.51875)"/>
     <use xlink:href="#DejaVuSans-3a" transform="translate(547.021484 0.51875)"/>
     <use xlink:href="#DejaVuSans-20" transform="translate(580.712891 0.51875)"/>
     <use xlink:href="#DejaVuSans-Oblique-41" transform="translate(612.5 0.51875)"/>
     <use xlink:href="#DejaVuSans-Oblique-63" transform="translate(687.924974 38.8) scale(0.7)"/>
     <use xlink:href="#DejaVuSans-2229" transform="translate(748.628099 0.51875)"/>
     <use xlink:href="#DejaVuSans-Oblique-42" transform="translate(841.30388 0.51875)"/>
     <use xlink:href="#DejaVuSans-Oblique-63" transform="translate(916.924167 38.8) scale(0.7)"/>
    </g>
   </g>
  </g>
 </g>
 <defs>
  <clipPath id="pb43c0f60c7">
   <rect x="11.88" y="35.17" width="238.56" height="188.86"/>
  </clipPath>
  <clipPath id="pbb72bf0716">
   <rect x="262.32" y="35.17" width="238.56" height="188.86"/>
  </clipPath>
  <clipPath id="pd68adbdcae">
   <rect x="512.76" y="35.17" width="238.56" height="188.86"/>
  </clipPath>
 </defs>
</svg>
