<?xml version="1.0" encoding="utf-8" standalone="no"?>
<!DOCTYPE svg PUBLIC "-//W3C//DTD SVG 1.1//EN"
  "http://www.w3.org/Graphics/SVG/1.1/DTD/svg11.dtd">
<svg xmlns:xlink="http://www.w3.org/1999/xlink" width="532.8pt" height="259.2pt" viewBox="0 0 532.8 259.2" xmlns="http://www.w3.org/2000/svg" version="1.1">
 <metadata>
  <rdf:RDF xmlns:dc="http://purl.org/dc/elements/1.1/" xmlns:cc="http://creativecommons.org/ns#" xmlns:rdf="http://www.w3.org/1999/02/22-rdf-syntax-ns#">
   <cc:Work>
    <dc:type rdf:resource="http://purl.org/dc/dcmitype/StillImage"/>
    <dc:date>2025-12-14T20:27:25.472574</dc:date>
    <dc:format>image/svg+xml</dc:format>
    <dc:creator>
     <cc:Agent>
      <dc:title>Matplotlib v3.8.2, https://matplotlib.org/</dc:title>
     </cc:Agent>
    </dc:creator>
   </cc:Work>
  </rdf:RDF>
 </metadata>
 <defs>
  <style type="text/css">*{stroke-linejoin: round; stroke-linecap: butt}</style>
 </defs>
 <g id="figure_1">
  <g id="patch_1">
   <path d="M 0 259.2 
L 532.8 259.2 
L 532.8 0 
L 0 0 
z
" style="fill: #ffffff"/>
  </g>
  <g id="axes_1">
   <g id="patch_2">
    <path d="M 96.623182 197.394545 
C 114.602505 197.394545 131.847863 190.251284 144.561165 177.537983 
C 157.274466 164.824681 164.417727 147.579324 164.417727 129.6 
C 164.417727 111.620676 157.274466 94.375319 144.561165 81.662017 
C 131.847863 68.948716 114.602505 61.805455 96.623182 61.805455 
C 78.643858 61.805455 61.398501 68.948716 48.685199 81.662017 
C 35.971897 94.375319 28.828636 111.620676 28.828636 129.6 
C 28.828636 147.579324 35.971897 164.824681 48.685199 177.537983 
C 61.398501 190.251284 78.643858 197.394545 96.623182 197.394545 
z
" clip-path="url(#p552306b3eb)" style="fill: #1f77b4; opacity: 0.18; stroke: #1f77b4; stroke-linejoin: miter"/>
   </g>
   <g id="patch_3">
    <path d="M 175.716818 197.394545 
C 193.696142 197.394545 210.941499 190.251284 223.654801 177.537983 
C 236.368103 164.824681 243.511364 147.579324 243.511364 129.6 
C 243.511364 111.620676 236.368103 94.375319 223.654801 81.662017 
C 210.941499 68.948716 193.696142 61.805455 175.716818 61.805455 
C 157.737495 61.805455 140.492137 68.948716 127.778835 81.662017 
C 115.065534 94.375319 107.922273 111.620676 107.922273 129.6 
C 107.922273 147.579324 115.065534 164.824681 127.778835 177.537983 
C 140.492137 190.251284 157.737495 197.394545 175.716818 197.394545 
z
" clip-path="url(#p552306b3eb)" style="fill: #ff7f0e; opacity: 0.18; stroke: #ff7f0e; stroke-linejoin: miter"/>
   </g>
   <g id="patch_4">
    <path d="M 96.623182 197.394545 
C 114.602505 197.394545 131.847863 190.251284 144.561165 177.537983 
C 157.274466 164.824681 164.417727 147.579324 164.417727 129.6 
C 164.417727 111.620676 157.274466 94.375319 144.561165 81.662017 
C 131.847863 68.948716 114.602505 61.805455 96.623182 61.805455 
C 78.643858 61.805455 61.398501 68.948716 48.685199 81.662017 
C 35.971897 94.375319 28.828636 111.620676 28.828636 129.6 
C 28.828636 147.579324 35.971897 164.824681 48.685199 177.537983 
C 61.398501 190.251284 78.643858 197.394545 96.623182 197.394545 
L 96.623182 197.394545 
z
" clip-path="url(#p552306b3eb)" style="fill: none; stroke: #1f77b4; stroke-width: 2; stroke-linejoin: miter"/>
   </g>
   <g id="patch_5">
    <path d="M 175.716818 197.394545 
C 193.696142 197.394545 210.941499 190.251284 223.654801 177.537983 
C 236.368103 164.824681 243.511364 147.579324 243.511364 129.6 
C 243.511364 111.620676 236.368103 94.375319 223.654801 81.662017 
C 210.941499 68.948716 193.696142 61.805455 175.716818 61.805455 
C 157.737495 61.805455 140.492137 68.948716 127.778835 81.662017 
C 115.065534 94.375319 107.922273 111.620676 107.922273 129.6 
C 107.922273 147.579324 115.065534 164.824681 127.778835 177.537983 
C 140.492137 190.251284 157.737495 197.394545 175.716818 197.394545 
L 175.716818 197.394545 
z
" clip-path="url(#p552306b3eb)" style="fill: none; stroke: #ff7f0e; stroke-width: 2; stroke-linejoin: miter"/>
   </g>
   <g id="text_1">
    <!-- A -->
    <g transform="translate(51.426818 58.980682) scale(0.12 -0.12)">
     <defs>
      <path id="DejaVuSans-41" d="M 2188 4044 
L 1331 1722 
L 3047 1722 
L 2188 4044 
z
M 1831 4666 
L 2547 4666 
L 4325 0 
L 3669 0 
L 3244 1197 
L 1141 1197 
L 716 0 
L 50 0 
L 1831 4666 
z
" transform="scale(0.015625)"/>
     </defs>
     <use xlink:href="#DejaVuSans-41"/>
    </g>
   </g>
   <g id="text_2">
    <!-- B -->
    <g transform="translate(212.438864 58.980682) scale(0.12 -0.12)">
     <defs>
      <path id="DejaVuSans-42" d="M 1259 2228 
L 1259 519 
L 2272 519 
Q 2781 519 3026 730 
Q 3272 941 3272 1375 
Q 3272 1813 3026 2020 
Q 2781 2228 2272 2228 
L 1259 2228 
z
M 1259 4147 
L 1259 2741 
L 2194 2741 
Q 2656 2741 2882 2914 
Q 3109 3088 3109 3444 
Q 3109 3797 2882 3972 
Q 2656 4147 2194 4147 
L 1259 4147 
z
M 628 4666 
L 2241 4666 
Q 2963 4666 3353 4366 
Q 3744 4066 3744 3513 
Q 3744 3084 3544 2831 
Q 3344 2578 2956 2516 
Q 3422 2416 3680 2098 
Q 3938 1781 3938 1306 
Q 3938 681 3513 340 
Q 3088 0 2303 0 
L 628 0 
L 628 4666 
z
" transform="scale(0.015625)"/>
     </defs>
     <use xlink:href="#DejaVuSans-42"/>
    </g>
   </g>
   <g id="text_3">
    <!-- Unione: $A\cup B$ -->
    <g transform="translate(96.21 27.557727) scale(0.12 -0.12)">
     <defs>
      <path id="DejaVuSans-55" d="M 556 4666 
L 1191 4666 
L 1191 1831 
Q 1191 1081 1462 751 
Q 1734 422 2344 422 
Q 2950 422 3222 751 
Q 3494 1081 3494 1831 
L 3494 4666 
L 4128 4666 
L 4128 1753 
Q 4128 841 3676 375 
Q 3225 -91 2344 -91 
Q 1459 -91 1007 375 
Q 556 841 556 1753 
L 556 4666 
z
" transform="scale(0.015625)"/>
      <path id="DejaVuSans-6e" d="M 3513 2113 
L 3513 0 
L 2938 0 
L 2938 2094 
Q 2938 2591 2744 2837 
Q 2550 3084 2163 3084 
Q 1697 3084 1428 2787 
Q 1159 2491 1159 1978 
L 1159 0 
L 581 0 
L 581 3500 
L 1159 3500 
L 1159 2956 
Q 1366 3272 1645 3428 
Q 1925 3584 2291 3584 
Q 2894 3584 3203 3211 
Q 3513 2838 3513 2113 
z
" transform="scale(0.015625)"/>
      <path id="DejaVuSans-69" d="M 603 3500 
L 1178 3500 
L 1178 0 
L 603 0 
L 603 3500 
z
M 603 4863 
L 1178 4863 
L 1178 4134 
L 603 4134 
L 603 4863 
z
" transform="scale(0.015625)"/>
      <path id="DejaVuSans-6f" d="M 1959 3097 
Q 1497 3097 1228 2736 
Q 959 2375 959 1747 
Q 959 1119 1226 758 
Q 1494 397 1959 397 
Q 2419 397 2687 759 
Q 2956 1122 2956 1747 
Q 2956 2369 2687 2733 
Q 2419 3097 1959 3097 
z
M 1959 3584 
Q 2709 3584 3137 3096 
Q 3566 2609 3566 1747 
Q 3566 888 3137 398 
Q 2709 -91 1959 -91 
Q 1206 -91 779 398 
Q 353 888 353 1747 
Q 353 2609 779 3096 
Q 1206 3584 1959 3584 
z
" transform="scale(0.015625)"/>
      <path id="DejaVuSans-65" d="M 3597 1894 
L 3597 1613 
L 953 1613 
Q 991 1019 1311 708 
Q 1631 397 2203 397 
Q 2534 397 2845 478 
Q 3156 559 3463 722 
L 3463 178 
Q 3153 47 2828 -22 
Q 2503 -91 2169 -91 
Q 1331 -91 842 396 
Q 353 884 353 1716 
Q 353 2575 817 3079 
Q 1281 3584 2069 3584 
Q 2775 3584 3186 3129 
Q 3597 2675 3597 1894 
z
M 3022 2063 
Q 3016 2534 2758 2815 
Q 2500 3097 2075 3097 
Q 1594 3097 1305 2825 
Q 1016 2553 972 2059 
L 3022 2063 
z
" transform="scale(0.015625)"/>
      <path id="DejaVuSans-3a" d="M 750 794 
L 1409 794 
L 1409 0 
L 750 0 
L 750 794 
z
M 750 3309 
L 1409 3309 
L 1409 2516 
L 750 2516 
L 750 3309 
z
" transform="scale(0.015625)"/>
      <path id="DejaVuSans-20" transform="scale(0.015625)"/>
      <path id="DejaVuSans-Oblique-41" d="M 2356 4666 
L 3072 4666 
L 3938 0 
L 3278 0 
L 3084 1197 
L 984 1197 
L 325 0 
L -341 0 
L 2356 4666 
z
M 2584 4044 
L 1275 1722 
L 2988 1722 
L 2584 4044 
z
" transform="scale(0.015625)"/>
      <path id="DejaVuSans-222a" d="M 825 1856 
L 825 3706 
L 1363 3706 
L 1363 1934 
Q 1363 1172 1594 842 
Q 1825 513 2344 513 
Q 2859 513 3090 842 
Q 3322 1172 3322 1934 
L 3322 3706 
L 3859 3706 
L 3859 1856 
Q 3859 931 3476 465 
Q 3094 0 2344 0 
Q 1591 0 1208 465 
Q 825 931 825 1856 
z
" transform="scale(0.015625)"/>
      <path id="DejaVuSans-Oblique-42" d="M 1081 4666 
L 2694 4666 
Q 3350 4666 3675 4422 
Q 4000 4178 4000 3688 
Q 4000 3238 3720 2911 
Q 3441 2584 2988 2516 
Q 3375 2428 3569 2181 
Q 3763 1934 3763 1522 
Q 3763 819 3242 409 
Q 2722 0 1819 0 
L 172 0 
L 1081 4666 
z
M 1234 2228 
L 903 519 
L 1919 519 
Q 2491 519 2800 781 
Q 3109 1044 3109 1522 
Q 3109 1891 2904 2059 
Q 2700 2228 2247 2228 
L 1234 2228 
z
M 1606 4147 
L 1331 2741 
L 2272 2741 
Q 2775 2741 3058 2959 
Q 3341 3178 3341 3566 
Q 3341 3869 3150 4008 
Q 2959 4147 2541 4147 
L 1606 4147 
z
" transform="scale(0.015625)"/>
     </defs>
     <use xlink:href="#DejaVuSans-55" transform="translate(0 0.015625)"/>
     <use xlink:href="#DejaVuSans-6e" transform="translate(73.193359 0.015625)"/>
     <use xlink:href="#DejaVuSans-69" transform="translate(136.572266 0.015625)"/>
     <use xlink:href="#DejaVuSans-6f" transform="translate(164.355469 0.015625)"/>
     <use xlink:href="#DejaVuSans-6e" transform="translate(225.537109 0.015625)"/>
     <use xlink:href="#DejaVuSans-65" transform="translate(288.916016 0.015625)"/>
     <use xlink:href="#DejaVuSans-3a" transform="translate(350.439453 0.015625)"/>
     <use xlink:href="#DejaVuSans-20" transform="translate(384.130859 0.015625)"/>
     <use xlink:href="#DejaVuSans-Oblique-41" transform="translate(415.917969 0.015625)"/>
     <use xlink:href="#DejaVuSans-222a" transform="translate(503.808594 0.015625)"/>
     <use xlink:href="#DejaVuSans-Oblique-42" transform="translate(596.484375 0.015625)"/>
    </g>
   </g>
  </g>
  <g id="axes_2">
   <g id="patch_6">
    <path d="M 357.083182 197.394545 
C 375.062505 197.394545 392.307863 190.251284 405.021165 177.537983 
C 417.734466 164.824681 424.877727 147.579324 424.877727 129.6 
C 424.877727 111.620676 417.734466 94.375319 405.021165 81.662017 
C 392.307863 68.948716 375.062505 61.805455 357.083182 61.805455 
C 339.103858 61.805455 321.858501 68.948716 309.145199 81.662017 
C 296.431897 94.375319 289.288636 111.620676 289.288636 129.6 
C 289.288636 147.579324 296.431897 164.824681 309.145199 177.537983 
C 321.858501 190.251284 339.103858 197.394545 357.083182 197.394545 
z
" clip-path="url(#p582e92f2ac)" style="fill: #1f77b4; opacity: 0.18; stroke: #1f77b4; stroke-linejoin: miter"/>
   </g>
   <g id="patch_7">
    <path d="M 436.176818 197.394545 
C 454.156142 197.394545 471.401499 190.251284 484.114801 177.537983 
C 496.828103 164.824681 503.971364 147.579324 503.971364 129.6 
C 503.971364 111.620676 496.828103 94.375319 484.114801 81.662017 
C 471.401499 68.948716 454.156142 61.805455 436.176818 61.805455 
C 418.197495 61.805455 400.952137 68.948716 388.238835 81.662017 
C 375.525534 94.375319 368.382273 111.620676 368.382273 129.6 
C 368.382273 147.579324 375.525534 164.824681 388.238835 177.537983 
C 400.952137 190.251284 418.197495 197.394545 436.176818 197.394545 
z
" clip-path="url(#p582e92f2ac)" style="fill: #ff7f0e; opacity: 0.18; stroke: #ff7f0e; stroke-linejoin: miter"/>
   </g>
   <g id="patch_8">
    <path d="M 357.083182 197.394545 
C 375.062505 197.394545 392.307863 190.251284 405.021165 177.537983 
C 417.734466 164.824681 424.877727 147.579324 424.877727 129.6 
C 424.877727 111.620676 417.734466 94.375319 405.021165 81.662017 
C 392.307863 68.948716 375.062505 61.805455 357.083182 61.805455 
C 339.103858 61.805455 321.858501 68.948716 309.145199 81.662017 
C 296.431897 94.375319 289.288636 111.620676 289.288636 129.6 
C 289.288636 147.579324 296.431897 164.824681 309.145199 177.537983 
C 321.858501 190.251284 339.103858 197.394545 357.083182 197.394545 
L 357.083182 197.394545 
z
" clip-path="url(#p582e92f2ac)" style="fill: none; stroke: #1f77b4; stroke-width: 2; stroke-linejoin: miter"/>
   </g>
   <g id="patch_9">
    <path d="M 436.176818 197.394545 
C 454.156142 197.394545 471.401499 190.251284 484.114801 177.537983 
C 496.828103 164.824681 503.971364 147.579324 503.971364 129.6 
C 503.971364 111.620676 496.828103 94.375319 484.114801 81.662017 
C 471.401499 68.948716 454.156142 61.805455 436.176818 61.805455 
C 418.197495 61.805455 400.952137 68.948716 388.238835 81.662017 
C 375.525534 94.375319 368.382273 111.620676 368.382273 129.6 
C 368.382273 147.579324 375.525534 164.824681 388.238835 177.537983 
C 400.952137 190.251284 418.197495 197.394545 436.176818 197.394545 
L 436.176818 197.394545 
z
" clip-path="url(#p582e92f2ac)" style="fill: none; stroke: #ff7f0e; stroke-width: 2; stroke-linejoin: miter"/>
   </g>
   <g id="patch_10">
    <path d="M 272.34 225.642273 
L 331.660227 225.642273 
L 331.660227 33.557727 
L 272.34 33.557727 
z
" clip-path="url(#p582e92f2ac)" style="fill: #ffffff; stroke: #ffffff; stroke-linejoin: miter"/>
   </g>
   <g id="patch_11">
    <path d="M 461.599773 225.642273 
L 520.92 225.642273 
L 520.92 33.557727 
L 461.599773 33.557727 
z
" clip-path="url(#p582e92f2ac)" style="fill: #ffffff; stroke: #ffffff; stroke-linejoin: miter"/>
   </g>
   <g id="text_4">
    <!-- A -->
    <g transform="translate(311.886818 58.980682) scale(0.12 -0.12)">
     <use xlink:href="#DejaVuSans-41"/>
    </g>
   </g>
   <g id="text_5">
    <!-- B -->
    <g transform="translate(472.898864 58.980682) scale(0.12 -0.12)">
     <use xlink:href="#DejaVuSans-42"/>
    </g>
   </g>
   <g id="text_6">
    <!-- Intersezione: $A\cap B$ -->
    <g transform="translate(340.83 27.557727) scale(0.12 -0.12)">
     <defs>
      <path id="DejaVuSans-49" d="M 628 4666 
L 1259 4666 
L 1259 0 
L 628 0 
L 628 4666 
z
" transform="scale(0.015625)"/>
      <path id="DejaVuSans-74" d="M 1172 4494 
L 1172 3500 
L 2356 3500 
L 2356 3053 
L 1172 3053 
L 1172 1153 
Q 1172 725 1289 603 
Q 1406 481 1766 481 
L 2356 481 
L 2356 0 
L 1766 0 
Q 1100 0 847 248 
Q 594 497 594 1153 
L 594 3053 
L 172 3053 
L 172 3500 
L 594 3500 
L 594 4494 
L 1172 4494 
z
" transform="scale(0.015625)"/>
      <path id="DejaVuSans-72" d="M 2631 2963 
Q 2534 3019 2420 3045 
Q 2306 3072 2169 3072 
Q 1681 3072 1420 2755 
Q 1159 2438 1159 1844 
L 1159 0 
L 581 0 
L 581 3500 
L 1159 3500 
L 1159 2956 
Q 1341 3275 1631 3429 
Q 1922 3584 2338 3584 
Q 2397 3584 2469 3576 
Q 2541 3569 2628 3553 
L 2631 2963 
z
" transform="scale(0.015625)"/>
      <path id="DejaVuSans-73" d="M 2834 3397 
L 2834 2853 
Q 2591 2978 2328 3040 
Q 2066 3103 1784 3103 
Q 1356 3103 1142 2972 
Q 928 2841 928 2578 
Q 928 2378 1081 2264 
Q 1234 2150 1697 2047 
L 1894 2003 
Q 2506 1872 2764 1633 
Q 3022 1394 3022 966 
Q 3022 478 2636 193 
Q 2250 -91 1575 -91 
Q 1294 -91 989 -36 
Q 684 19 347 128 
L 347 722 
Q 666 556 975 473 
Q 1284 391 1588 391 
Q 1994 391 2212 530 
Q 2431 669 2431 922 
Q 2431 1156 2273 1281 
Q 2116 1406 1581 1522 
L 1381 1569 
Q 847 1681 609 1914 
Q 372 2147 372 2553 
Q 372 3047 722 3315 
Q 1072 3584 1716 3584 
Q 2034 3584 2315 3537 
Q 2597 3491 2834 3397 
z
" transform="scale(0.015625)"/>
      <path id="DejaVuSans-7a" d="M 353 3500 
L 3084 3500 
L 3084 2975 
L 922 459 
L 3084 459 
L 3084 0 
L 275 0 
L 275 525 
L 2438 3041 
L 353 3041 
L 353 3500 
z
" transform="scale(0.015625)"/>
      <path id="DejaVuSans-2229" d="M 825 1850 
Q 825 2775 1208 3240 
Q 1591 3706 2344 3706 
Q 3094 3706 3476 3240 
Q 3859 2775 3859 1850 
L 3859 0 
L 3322 0 
L 3322 1772 
Q 3322 2534 3090 2864 
Q 2859 3194 2344 3194 
Q 1825 3194 1594 2864 
Q 1363 2534 1363 1772 
L 1363 0 
L 825 0 
L 825 1850 
z
" transform="scale(0.015625)"/>
     </defs>
     <use xlink:href="#DejaVuSans-49" transform="translate(0 0.015625)"/>
     <use xlink:href="#DejaVuSans-6e" transform="translate(29.492188 0.015625)"/>
     <use xlink:href="#DejaVuSans-74" transform="translate(92.871094 0.015625)"/>
     <use xlink:href="#DejaVuSans-65" transform="translate(132.080078 0.015625)"/>
     <use xlink:href="#DejaVuSans-72" transform="translate(193.603516 0.015625)"/>
     <use xlink:href="#DejaVuSans-73" transform="translate(234.716797 0.015625)"/>
     <use xlink:href="#DejaVuSans-65" transform="translate(286.816406 0.015625)"/>
     <use xlink:href="#DejaVuSans-7a" transform="translate(348.339844 0.015625)"/>
     <use xlink:href="#DejaVuSans-69" transform="translate(400.830078 0.015625)"/>
     <use xlink:href="#DejaVuSans-6f" transform="translate(428.613281 0.015625)"/>
     <use xlink:href="#DejaVuSans-6e" transform="translate(489.794922 0.015625)"/>
     <use xlink:href="#DejaVuSans-65" transform="translate(553.173828 0.015625)"/>
     <use xlink:href="#DejaVuSans-3a" transform="translate(614.697266 0.015625)"/>
     <use xlink:href="#DejaVuSans-20" transform="translate(648.388672 0.015625)"/>
     <use xlink:href="#DejaVuSans-Oblique-41" transform="translate(680.175781 0.015625)"/>
     <use xlink:href="#DejaVuSans-2229" transform="translate(768.066406 0.015625)"/>
     <use xlink:href="#DejaVuSans-Oblique-42" transform="translate(860.742188 0.015625)"/>
    </g>
   </g>
  </g>
 </g>
 <defs>
  <clipPath id="p552306b3eb">
   <rect x="11.88" y="33.557727" width="248.58" height="192.084545"/>
  </clipPath>
  <clipPath id="p582e92f2ac">
   <rect x="272.34" y="33.557727" width="248.58" height="192.084545"/>
  </clipPath>
 </defs>
</svg>
