<?xml version="1.0" encoding="utf-8" standalone="no"?>
<!DOCTYPE svg PUBLIC "-//W3C//DTD SVG 1.1//EN"
  "http://www.w3.org/Graphics/SVG/1.1/DTD/svg11.dtd">
<svg xmlns:xlink="http://www.w3.org/1999/xlink" width="734.4pt" height="259.2pt" viewBox="0 0 734.4 259.2" xmlns="http://www.w3.org/2000/svg" version="1.1">
 <metadata>
  <rdf:RDF xmlns:dc="http://purl.org/dc/elements/1.1/" xmlns:cc="http://creativecommons.org/ns#" xmlns:rdf="http://www.w3.org/1999/02/22-rdf-syntax-ns#">
   <cc:Work>
    <dc:type rdf:resource="http://purl.org/dc/dcmitype/StillImage"/>
    <dc:date>2025-12-15T08:30:18.491490</dc:date>
    <dc:format>image/svg+xml</dc:format>
    <dc:creator>
     <cc:Agent>
      <dc:title>Matplotlib v3.8.2, https://matplotlib.org/</dc:title>
     </cc:Agent>
    </dc:creator>
   </cc:Work>
  </rdf:RDF>
 </metadata>
 <defs>
  <style type="text/css">*{stroke-linejoin: round; stroke-linecap: butt}</style>
 </defs>
 <g id="figure_1">
  <g id="patch_1">
   <path d="M 0 259.2 
L 734.4 259.2 
L 734.4 0 
L 0 0 
z
" style="fill: #ffffff"/>
  </g>
  <g id="axes_1">
   <g id="patch_2">
    <path d="M 88.2 189.225 
C 104.012735 189.225 119.17995 182.942534 130.361242 171.761242 
C 141.542534 160.57995 147.825 145.412735 147.825 129.6 
C 147.825 113.787265 141.542534 98.62005 130.361242 87.438758 
C 119.17995 76.257466 104.012735 69.975 88.2 69.975 
C 72.387265 69.975 57.22005 76.257466 46.038758 87.438758 
C 34.857466 98.62005 28.575 113.787265 28.575 129.6 
C 28.575 145.412735 34.857466 160.57995 46.038758 171.761242 
C 57.22005 182.942534 72.387265 189.225 88.2 189.225 
z
" clip-path="url(#p8e8d6d98a2)" style="fill: #1f77b4; opacity: 0.22; stroke: #1f77b4; stroke-linejoin: miter"/>
   </g>
   <g id="patch_3">
    <path d="M 164.52 189.225 
C 180.332735 189.225 195.49995 182.942534 206.681242 171.761242 
C 217.862534 160.57995 224.145 145.412735 224.145 129.6 
C 224.145 113.787265 217.862534 98.62005 206.681242 87.438758 
C 195.49995 76.257466 180.332735 69.975 164.52 69.975 
C 148.707265 69.975 133.54005 76.257466 122.358758 87.438758 
C 111.177466 98.62005 104.895 113.787265 104.895 129.6 
C 104.895 145.412735 111.177466 160.57995 122.358758 171.761242 
C 133.54005 182.942534 148.707265 189.225 164.52 189.225 
z
" clip-path="url(#p66a98454ad)" style="fill: #ffffff; stroke: #ffffff; stroke-linejoin: miter"/>
   </g>
   <g id="patch_4">
    <path d="M 88.2 189.225 
C 104.012735 189.225 119.17995 182.942534 130.361242 171.761242 
C 141.542534 160.57995 147.825 145.412735 147.825 129.6 
C 147.825 113.787265 141.542534 98.62005 130.361242 87.438758 
C 119.17995 76.257466 104.012735 69.975 88.2 69.975 
C 72.387265 69.975 57.22005 76.257466 46.038758 87.438758 
C 34.857466 98.62005 28.575 113.787265 28.575 129.6 
C 28.575 145.412735 34.857466 160.57995 46.038758 171.761242 
C 57.22005 182.942534 72.387265 189.225 88.2 189.225 
L 88.2 189.225 
z
" clip-path="url(#p8e8d6d98a2)" style="fill: none; stroke: #000000; stroke-width: 2; stroke-linejoin: miter"/>
   </g>
   <g id="patch_5">
    <path d="M 164.52 189.225 
C 180.332735 189.225 195.49995 182.942534 206.681242 171.761242 
C 217.862534 160.57995 224.145 145.412735 224.145 129.6 
C 224.145 113.787265 217.862534 98.62005 206.681242 87.438758 
C 195.49995 76.257466 180.332735 69.975 164.52 69.975 
C 148.707265 69.975 133.54005 76.257466 122.358758 87.438758 
C 111.177466 98.62005 104.895 113.787265 104.895 129.6 
C 104.895 145.412735 111.177466 160.57995 122.358758 171.761242 
C 133.54005 182.942534 148.707265 189.225 164.52 189.225 
L 164.52 189.225 
z
" clip-path="url(#p8e8d6d98a2)" style="fill: none; stroke: #000000; stroke-width: 2; stroke-linejoin: miter"/>
   </g>
   <g id="text_1">
    <!-- A -->
    <g transform="translate(47.655 65.205) scale(0.12 -0.12)">
     <defs>
      <path id="DejaVuSans-41" d="M 2188 4044 
L 1331 1722 
L 3047 1722 
L 2188 4044 
z
M 1831 4666 
L 2547 4666 
L 4325 0 
L 3669 0 
L 3244 1197 
L 1141 1197 
L 716 0 
L 50 0 
L 1831 4666 
z
" transform="scale(0.015625)"/>
     </defs>
     <use xlink:href="#DejaVuSans-41"/>
    </g>
   </g>
   <g id="text_2">
    <!-- B -->
    <g transform="translate(195.525 65.205) scale(0.12 -0.12)">
     <defs>
      <path id="DejaVuSans-42" d="M 1259 2228 
L 1259 519 
L 2272 519 
Q 2781 519 3026 730 
Q 3272 941 3272 1375 
Q 3272 1813 3026 2020 
Q 2781 2228 2272 2228 
L 1259 2228 
z
M 1259 4147 
L 1259 2741 
L 2194 2741 
Q 2656 2741 2882 2914 
Q 3109 3088 3109 3444 
Q 3109 3797 2882 3972 
Q 2656 4147 2194 4147 
L 1259 4147 
z
M 628 4666 
L 2241 4666 
Q 2963 4666 3353 4366 
Q 3744 4066 3744 3513 
Q 3744 3084 3544 2831 
Q 3344 2578 2956 2516 
Q 3422 2416 3680 2098 
Q 3938 1781 3938 1306 
Q 3938 681 3513 340 
Q 3088 0 2303 0 
L 628 0 
L 628 4666 
z
" transform="scale(0.015625)"/>
     </defs>
     <use xlink:href="#DejaVuSans-42"/>
    </g>
   </g>
   <g id="text_3">
    <!-- Differenza: $A\setminus B$ -->
    <g transform="translate(77.04 32.97) scale(0.12 -0.12)">
     <defs>
      <path id="DejaVuSans-44" d="M 1259 4147 
L 1259 519 
L 2022 519 
Q 2988 519 3436 956 
Q 3884 1394 3884 2338 
Q 3884 3275 3436 3711 
Q 2988 4147 2022 4147 
L 1259 4147 
z
M 628 4666 
L 1925 4666 
Q 3281 4666 3915 4102 
Q 4550 3538 4550 2338 
Q 4550 1131 3912 565 
Q 3275 0 1925 0 
L 628 0 
L 628 4666 
z
" transform="scale(0.015625)"/>
      <path id="DejaVuSans-69" d="M 603 3500 
L 1178 3500 
L 1178 0 
L 603 0 
L 603 3500 
z
M 603 4863 
L 1178 4863 
L 1178 4134 
L 603 4134 
L 603 4863 
z
" transform="scale(0.015625)"/>
      <path id="DejaVuSans-66" d="M 2375 4863 
L 2375 4384 
L 1825 4384 
Q 1516 4384 1395 4259 
Q 1275 4134 1275 3809 
L 1275 3500 
L 2222 3500 
L 2222 3053 
L 1275 3053 
L 1275 0 
L 697 0 
L 697 3053 
L 147 3053 
L 147 3500 
L 697 3500 
L 697 3744 
Q 697 4328 969 4595 
Q 1241 4863 1831 4863 
L 2375 4863 
z
" transform="scale(0.015625)"/>
      <path id="DejaVuSans-65" d="M 3597 1894 
L 3597 1613 
L 953 1613 
Q 991 1019 1311 708 
Q 1631 397 2203 397 
Q 2534 397 2845 478 
Q 3156 559 3463 722 
L 3463 178 
Q 3153 47 2828 -22 
Q 2503 -91 2169 -91 
Q 1331 -91 842 396 
Q 353 884 353 1716 
Q 353 2575 817 3079 
Q 1281 3584 2069 3584 
Q 2775 3584 3186 3129 
Q 3597 2675 3597 1894 
z
M 3022 2063 
Q 3016 2534 2758 2815 
Q 2500 3097 2075 3097 
Q 1594 3097 1305 2825 
Q 1016 2553 972 2059 
L 3022 2063 
z
" transform="scale(0.015625)"/>
      <path id="DejaVuSans-72" d="M 2631 2963 
Q 2534 3019 2420 3045 
Q 2306 3072 2169 3072 
Q 1681 3072 1420 2755 
Q 1159 2438 1159 1844 
L 1159 0 
L 581 0 
L 581 3500 
L 1159 3500 
L 1159 2956 
Q 1341 3275 1631 3429 
Q 1922 3584 2338 3584 
Q 2397 3584 2469 3576 
Q 2541 3569 2628 3553 
L 2631 2963 
z
" transform="scale(0.015625)"/>
      <path id="DejaVuSans-6e" d="M 3513 2113 
L 3513 0 
L 2938 0 
L 2938 2094 
Q 2938 2591 2744 2837 
Q 2550 3084 2163 3084 
Q 1697 3084 1428 2787 
Q 1159 2491 1159 1978 
L 1159 0 
L 581 0 
L 581 3500 
L 1159 3500 
L 1159 2956 
Q 1366 3272 1645 3428 
Q 1925 3584 2291 3584 
Q 2894 3584 3203 3211 
Q 3513 2838 3513 2113 
z
" transform="scale(0.015625)"/>
      <path id="DejaVuSans-7a" d="M 353 3500 
L 3084 3500 
L 3084 2975 
L 922 459 
L 3084 459 
L 3084 0 
L 275 0 
L 275 525 
L 2438 3041 
L 353 3041 
L 353 3500 
z
" transform="scale(0.015625)"/>
      <path id="DejaVuSans-61" d="M 2194 1759 
Q 1497 1759 1228 1600 
Q 959 1441 959 1056 
Q 959 750 1161 570 
Q 1363 391 1709 391 
Q 2188 391 2477 730 
Q 2766 1069 2766 1631 
L 2766 1759 
L 2194 1759 
z
M 3341 1997 
L 3341 0 
L 2766 0 
L 2766 531 
Q 2569 213 2275 61 
Q 1981 -91 1556 -91 
Q 1019 -91 701 211 
Q 384 513 384 1019 
Q 384 1609 779 1909 
Q 1175 2209 1959 2209 
L 2766 2209 
L 2766 2266 
Q 2766 2663 2505 2880 
Q 2244 3097 1772 3097 
Q 1472 3097 1187 3025 
Q 903 2953 641 2809 
L 641 3341 
Q 956 3463 1253 3523 
Q 1550 3584 1831 3584 
Q 2591 3584 2966 3190 
Q 3341 2797 3341 1997 
z
" transform="scale(0.015625)"/>
      <path id="DejaVuSans-3a" d="M 750 794 
L 1409 794 
L 1409 0 
L 750 0 
L 750 794 
z
M 750 3309 
L 1409 3309 
L 1409 2516 
L 750 2516 
L 750 3309 
z
" transform="scale(0.015625)"/>
      <path id="DejaVuSans-20" transform="scale(0.015625)"/>
      <path id="DejaVuSans-Oblique-41" d="M 2356 4666 
L 3072 4666 
L 3938 0 
L 3278 0 
L 3084 1197 
L 984 1197 
L 325 0 
L -341 0 
L 2356 4666 
z
M 2584 4044 
L 1275 1722 
L 2988 1722 
L 2584 4044 
z
" transform="scale(0.015625)"/>
      <path id="DejaVuSans-2216" d="M 1763 4922 
L 3388 -338 
L 2857 -338 
L 1232 4922 
L 1763 4922 
z
" transform="scale(0.015625)"/>
      <path id="DejaVuSans-Oblique-42" d="M 1081 4666 
L 2694 4666 
Q 3350 4666 3675 4422 
Q 4000 4178 4000 3688 
Q 4000 3238 3720 2911 
Q 3441 2584 2988 2516 
Q 3375 2428 3569 2181 
Q 3763 1934 3763 1522 
Q 3763 819 3242 409 
Q 2722 0 1819 0 
L 172 0 
L 1081 4666 
z
M 1234 2228 
L 903 519 
L 1919 519 
Q 2491 519 2800 781 
Q 3109 1044 3109 1522 
Q 3109 1891 2904 2059 
Q 2700 2228 2247 2228 
L 1234 2228 
z
M 1606 4147 
L 1331 2741 
L 2272 2741 
Q 2775 2741 3058 2959 
Q 3341 3178 3341 3566 
Q 3341 3869 3150 4008 
Q 2959 4147 2541 4147 
L 1606 4147 
z
" transform="scale(0.015625)"/>
     </defs>
     <use xlink:href="#DejaVuSans-44" transform="translate(0 0.09375)"/>
     <use xlink:href="#DejaVuSans-69" transform="translate(77.001953 0.09375)"/>
     <use xlink:href="#DejaVuSans-66" transform="translate(104.785156 0.09375)"/>
     <use xlink:href="#DejaVuSans-66" transform="translate(139.990234 0.09375)"/>
     <use xlink:href="#DejaVuSans-65" transform="translate(175.195312 0.09375)"/>
     <use xlink:href="#DejaVuSans-72" transform="translate(236.71875 0.09375)"/>
     <use xlink:href="#DejaVuSans-65" transform="translate(277.832031 0.09375)"/>
     <use xlink:href="#DejaVuSans-6e" transform="translate(339.355469 0.09375)"/>
     <use xlink:href="#DejaVuSans-7a" transform="translate(402.734375 0.09375)"/>
     <use xlink:href="#DejaVuSans-61" transform="translate(455.224609 0.09375)"/>
     <use xlink:href="#DejaVuSans-3a" transform="translate(516.503906 0.09375)"/>
     <use xlink:href="#DejaVuSans-20" transform="translate(550.195312 0.09375)"/>
     <use xlink:href="#DejaVuSans-Oblique-41" transform="translate(581.982422 0.09375)"/>
     <use xlink:href="#DejaVuSans-2216" transform="translate(669.873047 0.09375)"/>
     <use xlink:href="#DejaVuSans-Oblique-42" transform="translate(753.027344 0.09375)"/>
    </g>
   </g>
  </g>
  <g id="axes_2">
   <g id="patch_6">
    <path d="M 405.36 189.225 
C 421.172735 189.225 436.33995 182.942534 447.521242 171.761242 
C 458.702534 160.57995 464.985 145.412735 464.985 129.6 
C 464.985 113.787265 458.702534 98.62005 447.521242 87.438758 
C 436.33995 76.257466 421.172735 69.975 405.36 69.975 
C 389.547265 69.975 374.38005 76.257466 363.198758 87.438758 
C 352.017466 98.62005 345.735 113.787265 345.735 129.6 
C 345.735 145.412735 352.017466 160.57995 363.198758 171.761242 
C 374.38005 182.942534 389.547265 189.225 405.36 189.225 
z
" clip-path="url(#p193874757a)" style="fill: #ff7f0e; opacity: 0.22; stroke: #ff7f0e; stroke-linejoin: miter"/>
   </g>
   <g id="patch_7">
    <path d="M 329.04 189.225 
C 344.852735 189.225 360.01995 182.942534 371.201242 171.761242 
C 382.382534 160.57995 388.665 145.412735 388.665 129.6 
C 388.665 113.787265 382.382534 98.62005 371.201242 87.438758 
C 360.01995 76.257466 344.852735 69.975 329.04 69.975 
C 313.227265 69.975 298.06005 76.257466 286.878758 87.438758 
C 275.697466 98.62005 269.415 113.787265 269.415 129.6 
C 269.415 145.412735 275.697466 160.57995 286.878758 171.761242 
C 298.06005 182.942534 313.227265 189.225 329.04 189.225 
z
" clip-path="url(#pc4d4937389)" style="fill: #ffffff; stroke: #ffffff; stroke-linejoin: miter"/>
   </g>
   <g id="patch_8">
    <path d="M 329.04 189.225 
C 344.852735 189.225 360.01995 182.942534 371.201242 171.761242 
C 382.382534 160.57995 388.665 145.412735 388.665 129.6 
C 388.665 113.787265 382.382534 98.62005 371.201242 87.438758 
C 360.01995 76.257466 344.852735 69.975 329.04 69.975 
C 313.227265 69.975 298.06005 76.257466 286.878758 87.438758 
C 275.697466 98.62005 269.415 113.787265 269.415 129.6 
C 269.415 145.412735 275.697466 160.57995 286.878758 171.761242 
C 298.06005 182.942534 313.227265 189.225 329.04 189.225 
L 329.04 189.225 
z
" clip-path="url(#p193874757a)" style="fill: none; stroke: #000000; stroke-width: 2; stroke-linejoin: miter"/>
   </g>
   <g id="patch_9">
    <path d="M 405.36 189.225 
C 421.172735 189.225 436.33995 182.942534 447.521242 171.761242 
C 458.702534 160.57995 464.985 145.412735 464.985 129.6 
C 464.985 113.787265 458.702534 98.62005 447.521242 87.438758 
C 436.33995 76.257466 421.172735 69.975 405.36 69.975 
C 389.547265 69.975 374.38005 76.257466 363.198758 87.438758 
C 352.017466 98.62005 345.735 113.787265 345.735 129.6 
C 345.735 145.412735 352.017466 160.57995 363.198758 171.761242 
C 374.38005 182.942534 389.547265 189.225 405.36 189.225 
L 405.36 189.225 
z
" clip-path="url(#p193874757a)" style="fill: none; stroke: #000000; stroke-width: 2; stroke-linejoin: miter"/>
   </g>
   <g id="text_4">
    <!-- A -->
    <g transform="translate(288.495 65.205) scale(0.12 -0.12)">
     <use xlink:href="#DejaVuSans-41"/>
    </g>
   </g>
   <g id="text_5">
    <!-- B -->
    <g transform="translate(436.365 65.205) scale(0.12 -0.12)">
     <use xlink:href="#DejaVuSans-42"/>
    </g>
   </g>
   <g id="text_6">
    <!-- Differenza: $B\setminus A$ -->
    <g transform="translate(317.88 32.97) scale(0.12 -0.12)">
     <use xlink:href="#DejaVuSans-44" transform="translate(0 0.09375)"/>
     <use xlink:href="#DejaVuSans-69" transform="translate(77.001953 0.09375)"/>
     <use xlink:href="#DejaVuSans-66" transform="translate(104.785156 0.09375)"/>
     <use xlink:href="#DejaVuSans-66" transform="translate(139.990234 0.09375)"/>
     <use xlink:href="#DejaVuSans-65" transform="translate(175.195312 0.09375)"/>
     <use xlink:href="#DejaVuSans-72" transform="translate(236.71875 0.09375)"/>
     <use xlink:href="#DejaVuSans-65" transform="translate(277.832031 0.09375)"/>
     <use xlink:href="#DejaVuSans-6e" transform="translate(339.355469 0.09375)"/>
     <use xlink:href="#DejaVuSans-7a" transform="translate(402.734375 0.09375)"/>
     <use xlink:href="#DejaVuSans-61" transform="translate(455.224609 0.09375)"/>
     <use xlink:href="#DejaVuSans-3a" transform="translate(516.503906 0.09375)"/>
     <use xlink:href="#DejaVuSans-20" transform="translate(550.195312 0.09375)"/>
     <use xlink:href="#DejaVuSans-Oblique-42" transform="translate(581.982422 0.09375)"/>
     <use xlink:href="#DejaVuSans-2216" transform="translate(670.068359 0.09375)"/>
     <use xlink:href="#DejaVuSans-Oblique-41" transform="translate(753.222656 0.09375)"/>
    </g>
   </g>
  </g>
  <g id="axes_3">
   <g id="patch_10">
    <path d="M 569.88 189.225 
C 585.692735 189.225 600.85995 182.942534 612.041242 171.761242 
C 623.222534 160.57995 629.505 145.412735 629.505 129.6 
C 629.505 113.787265 623.222534 98.62005 612.041242 87.438758 
C 600.85995 76.257466 585.692735 69.975 569.88 69.975 
C 554.067265 69.975 538.90005 76.257466 527.718758 87.438758 
C 516.537466 98.62005 510.255 113.787265 510.255 129.6 
C 510.255 145.412735 516.537466 160.57995 527.718758 171.761242 
C 538.90005 182.942534 554.067265 189.225 569.88 189.225 
z
" clip-path="url(#pfc8a8b8d25)" style="fill: #1f77b4; opacity: 0.22; stroke: #1f77b4; stroke-linejoin: miter"/>
   </g>
   <g id="patch_11">
    <path d="M 646.2 189.225 
C 662.012735 189.225 677.17995 182.942534 688.361242 171.761242 
C 699.542534 160.57995 705.825 145.412735 705.825 129.6 
C 705.825 113.787265 699.542534 98.62005 688.361242 87.438758 
C 677.17995 76.257466 662.012735 69.975 646.2 69.975 
C 630.387265 69.975 615.22005 76.257466 604.038758 87.438758 
C 592.857466 98.62005 586.575 113.787265 586.575 129.6 
C 586.575 145.412735 592.857466 160.57995 604.038758 171.761242 
C 615.22005 182.942534 630.387265 189.225 646.2 189.225 
z
" clip-path="url(#pfc8a8b8d25)" style="fill: #ff7f0e; opacity: 0.22; stroke: #ff7f0e; stroke-linejoin: miter"/>
   </g>
   <g id="patch_12">
    <path d="M 646.2 189.225 
C 662.012735 189.225 677.17995 182.942534 688.361242 171.761242 
C 699.542534 160.57995 705.825 145.412735 705.825 129.6 
C 705.825 113.787265 699.542534 98.62005 688.361242 87.438758 
C 677.17995 76.257466 662.012735 69.975 646.2 69.975 
C 630.387265 69.975 615.22005 76.257466 604.038758 87.438758 
C 592.857466 98.62005 586.575 113.787265 586.575 129.6 
C 586.575 145.412735 592.857466 160.57995 604.038758 171.761242 
C 615.22005 182.942534 630.387265 189.225 646.2 189.225 
z
" clip-path="url(#p66a98454ad)" style="fill: #ffffff; stroke: #ffffff; stroke-linejoin: miter"/>
   </g>
   <g id="patch_13">
    <path d="M 569.88 189.225 
C 585.692735 189.225 600.85995 182.942534 612.041242 171.761242 
C 623.222534 160.57995 629.505 145.412735 629.505 129.6 
C 629.505 113.787265 623.222534 98.62005 612.041242 87.438758 
C 600.85995 76.257466 585.692735 69.975 569.88 69.975 
C 554.067265 69.975 538.90005 76.257466 527.718758 87.438758 
C 516.537466 98.62005 510.255 113.787265 510.255 129.6 
C 510.255 145.412735 516.537466 160.57995 527.718758 171.761242 
C 538.90005 182.942534 554.067265 189.225 569.88 189.225 
L 569.88 189.225 
z
" clip-path="url(#pfc8a8b8d25)" style="fill: none; stroke: #000000; stroke-width: 2; stroke-linejoin: miter"/>
   </g>
   <g id="patch_14">
    <path d="M 646.2 189.225 
C 662.012735 189.225 677.17995 182.942534 688.361242 171.761242 
C 699.542534 160.57995 705.825 145.412735 705.825 129.6 
C 705.825 113.787265 699.542534 98.62005 688.361242 87.438758 
C 677.17995 76.257466 662.012735 69.975 646.2 69.975 
C 630.387265 69.975 615.22005 76.257466 604.038758 87.438758 
C 592.857466 98.62005 586.575 113.787265 586.575 129.6 
C 586.575 145.412735 592.857466 160.57995 604.038758 171.761242 
C 615.22005 182.942534 630.387265 189.225 646.2 189.225 
L 646.2 189.225 
z
" clip-path="url(#pfc8a8b8d25)" style="fill: none; stroke: #000000; stroke-width: 2; stroke-linejoin: miter"/>
   </g>
   <g id="text_7">
    <!-- A -->
    <g transform="translate(529.335 65.205) scale(0.12 -0.12)">
     <use xlink:href="#DejaVuSans-41"/>
    </g>
   </g>
   <g id="text_8">
    <!-- B -->
    <g transform="translate(677.205 65.205) scale(0.12 -0.12)">
     <use xlink:href="#DejaVuSans-42"/>
    </g>
   </g>
   <g id="text_9">
    <!-- Differenza simmetrica: $A\triangle B$ -->
    <g transform="translate(522.36 32.97) scale(0.12 -0.12)">
     <defs>
      <path id="DejaVuSans-73" d="M 2834 3397 
L 2834 2853 
Q 2591 2978 2328 3040 
Q 2066 3103 1784 3103 
Q 1356 3103 1142 2972 
Q 928 2841 928 2578 
Q 928 2378 1081 2264 
Q 1234 2150 1697 2047 
L 1894 2003 
Q 2506 1872 2764 1633 
Q 3022 1394 3022 966 
Q 3022 478 2636 193 
Q 2250 -91 1575 -91 
Q 1294 -91 989 -36 
Q 684 19 347 128 
L 347 722 
Q 666 556 975 473 
Q 1284 391 1588 391 
Q 1994 391 2212 530 
Q 2431 669 2431 922 
Q 2431 1156 2273 1281 
Q 2116 1406 1581 1522 
L 1381 1569 
Q 847 1681 609 1914 
Q 372 2147 372 2553 
Q 372 3047 722 3315 
Q 1072 3584 1716 3584 
Q 2034 3584 2315 3537 
Q 2597 3491 2834 3397 
z
" transform="scale(0.015625)"/>
      <path id="DejaVuSans-6d" d="M 3328 2828 
Q 3544 3216 3844 3400 
Q 4144 3584 4550 3584 
Q 5097 3584 5394 3201 
Q 5691 2819 5691 2113 
L 5691 0 
L 5113 0 
L 5113 2094 
Q 5113 2597 4934 2840 
Q 4756 3084 4391 3084 
Q 3944 3084 3684 2787 
Q 3425 2491 3425 1978 
L 3425 0 
L 2847 0 
L 2847 2094 
Q 2847 2600 2669 2842 
Q 2491 3084 2119 3084 
Q 1678 3084 1418 2786 
Q 1159 2488 1159 1978 
L 1159 0 
L 581 0 
L 581 3500 
L 1159 3500 
L 1159 2956 
Q 1356 3278 1631 3431 
Q 1906 3584 2284 3584 
Q 2666 3584 2933 3390 
Q 3200 3197 3328 2828 
z
" transform="scale(0.015625)"/>
      <path id="DejaVuSans-74" d="M 1172 4494 
L 1172 3500 
L 2356 3500 
L 2356 3053 
L 1172 3053 
L 1172 1153 
Q 1172 725 1289 603 
Q 1406 481 1766 481 
L 2356 481 
L 2356 0 
L 1766 0 
Q 1100 0 847 248 
Q 594 497 594 1153 
L 594 3053 
L 172 3053 
L 172 3500 
L 594 3500 
L 594 4494 
L 1172 4494 
z
" transform="scale(0.015625)"/>
      <path id="DejaVuSans-63" d="M 3122 3366 
L 3122 2828 
Q 2878 2963 2633 3030 
Q 2388 3097 2138 3097 
Q 1578 3097 1268 2742 
Q 959 2388 959 1747 
Q 959 1106 1268 751 
Q 1578 397 2138 397 
Q 2388 397 2633 464 
Q 2878 531 3122 666 
L 3122 134 
Q 2881 22 2623 -34 
Q 2366 -91 2075 -91 
Q 1284 -91 818 406 
Q 353 903 353 1747 
Q 353 2603 823 3093 
Q 1294 3584 2113 3584 
Q 2378 3584 2631 3529 
Q 2884 3475 3122 3366 
z
" transform="scale(0.015625)"/>
      <path id="DejaVuSans-25b3" d="M 553 -431 
L 4369 -431 
L 2459 3400 
L 553 -431 
z
M 19 -788 
L 2459 4113 
L 4903 -788 
L 19 -788 
z
" transform="scale(0.015625)"/>
     </defs>
     <use xlink:href="#DejaVuSans-44" transform="translate(0 0.015625)"/>
     <use xlink:href="#DejaVuSans-69" transform="translate(77.001953 0.015625)"/>
     <use xlink:href="#DejaVuSans-66" transform="translate(104.785156 0.015625)"/>
     <use xlink:href="#DejaVuSans-66" transform="translate(139.990234 0.015625)"/>
     <use xlink:href="#DejaVuSans-65" transform="translate(175.195312 0.015625)"/>
     <use xlink:href="#DejaVuSans-72" transform="translate(236.71875 0.015625)"/>
     <use xlink:href="#DejaVuSans-65" transform="translate(277.832031 0.015625)"/>
     <use xlink:href="#DejaVuSans-6e" transform="translate(339.355469 0.015625)"/>
     <use xlink:href="#DejaVuSans-7a" transform="translate(402.734375 0.015625)"/>
     <use xlink:href="#DejaVuSans-61" transform="translate(455.224609 0.015625)"/>
     <use xlink:href="#DejaVuSans-20" transform="translate(516.503906 0.015625)"/>
     <use xlink:href="#DejaVuSans-73" transform="translate(548.291016 0.015625)"/>
     <use xlink:href="#DejaVuSans-69" transform="translate(600.390625 0.015625)"/>
     <use xlink:href="#DejaVuSans-6d" transform="translate(628.173828 0.015625)"/>
     <use xlink:href="#DejaVuSans-6d" transform="translate(725.585938 0.015625)"/>
     <use xlink:href="#DejaVuSans-65" transform="translate(822.998047 0.015625)"/>
     <use xlink:href="#DejaVuSans-74" transform="translate(884.521484 0.015625)"/>
     <use xlink:href="#DejaVuSans-72" transform="translate(923.730469 0.015625)"/>
     <use xlink:href="#DejaVuSans-69" transform="translate(964.84375 0.015625)"/>
     <use xlink:href="#DejaVuSans-63" transform="translate(992.626953 0.015625)"/>
     <use xlink:href="#DejaVuSans-61" transform="translate(1047.607422 0.015625)"/>
     <use xlink:href="#DejaVuSans-3a" transform="translate(1108.886719 0.015625)"/>
     <use xlink:href="#DejaVuSans-20" transform="translate(1142.578125 0.015625)"/>
     <use xlink:href="#DejaVuSans-Oblique-41" transform="translate(1174.365234 0.015625)"/>
     <use xlink:href="#DejaVuSans-25b3" transform="translate(1262.255859 0.015625)"/>
     <use xlink:href="#DejaVuSans-Oblique-42" transform="translate(1358.642578 0.015625)"/>
    </g>
   </g>
  </g>
 </g>
 <defs>
  <clipPath id="p8e8d6d98a2">
   <rect x="11.88" y="38.97" width="228.96" height="181.26"/>
  </clipPath>
  <clipPath id="p66a98454ad">
   <path d="M -0.8 260.45 
C -0.468496 260.45 -0.150525 260.318292 0.083883 260.083883 
C 0.318292 259.849475 0.45 259.531504 0.45 259.2 
C 0.45 258.868496 0.318292 258.550525 0.083883 258.316117 
C -0.150525 258.081708 -0.468496 257.95 -0.8 257.95 
C -1.131504 257.95 -1.449475 258.081708 -1.683883 258.316117 
C -1.918292 258.550525 -2.05 258.868496 -2.05 259.2 
C -2.05 259.531504 -1.918292 259.849475 -1.683883 260.083883 
C -1.449475 260.318292 -1.131504 260.45 -0.8 260.45 
z
"/>
  </clipPath>
  <clipPath id="p193874757a">
   <rect x="252.72" y="38.97" width="228.96" height="181.26"/>
  </clipPath>
  <clipPath id="pc4d4937389">
   <path d="M 0.8 260.45 
C 1.131504 260.45 1.449475 260.318292 1.683883 260.083883 
C 1.918292 259.849475 2.05 259.531504 2.05 259.2 
C 2.05 258.868496 1.918292 258.550525 1.683883 258.316117 
C 1.449475 258.081708 1.131504 257.95 0.8 257.95 
C 0.468496 257.95 0.150525 258.081708 -0.083883 258.316117 
C -0.318292 258.550525 -0.45 258.868496 -0.45 259.2 
C -0.45 259.531504 -0.318292 259.849475 -0.083883 260.083883 
C 0.150525 260.318292 0.468496 260.45 0.8 260.45 
z
"/>
  </clipPath>
  <clipPath id="pfc8a8b8d25">
   <rect x="493.56" y="38.97" width="228.96" height="181.26"/>
  </clipPath>
 </defs>
</svg>
