<?xml version="1.0" encoding="utf-8" standalone="no"?>
<!DOCTYPE svg PUBLIC "-//W3C//DTD SVG 1.1//EN"
  "http://www.w3.org/Graphics/SVG/1.1/DTD/svg11.dtd">
<svg xmlns:xlink="http://www.w3.org/1999/xlink" width="460.8pt" height="259.2pt" viewBox="0 0 460.8 259.2" xmlns="http://www.w3.org/2000/svg" version="1.1">
 <metadata>
  <rdf:RDF xmlns:dc="http://purl.org/dc/elements/1.1/" xmlns:cc="http://creativecommons.org/ns#" xmlns:rdf="http://www.w3.org/1999/02/22-rdf-syntax-ns#">
   <cc:Work>
    <dc:type rdf:resource="http://purl.org/dc/dcmitype/StillImage"/>
    <dc:date>2025-12-14T20:27:26.486273</dc:date>
    <dc:format>image/svg+xml</dc:format>
    <dc:creator>
     <cc:Agent>
      <dc:title>Matplotlib v3.8.2, https://matplotlib.org/</dc:title>
     </cc:Agent>
    </dc:creator>
   </cc:Work>
  </rdf:RDF>
 </metadata>
 <defs>
  <style type="text/css">*{stroke-linejoin: round; stroke-linecap: butt}</style>
 </defs>
 <g id="figure_1">
  <g id="patch_1">
   <path d="M 0 259.2 
L 460.8 259.2 
L 460.8 0 
L 0 0 
z
" style="fill: #ffffff"/>
  </g>
  <g id="axes_1">
   <g id="patch_2">
    <path d="M 67.6175 214.12 
L 448.92 214.12 
L 448.92 29.61 
L 67.6175 29.61 
z
" style="fill: #ffffff"/>
   </g>
   <g id="matplotlib.axis_1">
    <g id="xtick_1">
     <g id="line2d_1">
      <path d="M 84.949432 214.12 
L 84.949432 29.61 
" clip-path="url(#p9a28f24b4d)" style="fill: none; stroke: #b0b0b0; stroke-opacity: 0.25; stroke-width: 0.8; stroke-linecap: square"/>
     </g>
     <g id="line2d_2">
      <defs>
       <path id="m02772f9c78" d="M 0 0 
L 0 3.5 
" style="stroke: #000000; stroke-width: 0.8"/>
      </defs>
      <g>
       <use xlink:href="#m02772f9c78" x="84.949432" y="214.12" style="stroke: #000000; stroke-width: 0.8"/>
      </g>
     </g>
     <g id="text_1">
      <!-- −0.20 -->
      <g transform="translate(68.09451 229.478281) scale(0.11 -0.11)">
       <defs>
        <path id="DejaVuSans-2212" d="M 678 2272 
L 4684 2272 
L 4684 1741 
L 678 1741 
L 678 2272 
z
" transform="scale(0.015625)"/>
        <path id="DejaVuSans-30" d="M 2034 4250 
Q 1547 4250 1301 3770 
Q 1056 3291 1056 2328 
Q 1056 1369 1301 889 
Q 1547 409 2034 409 
Q 2525 409 2770 889 
Q 3016 1369 3016 2328 
Q 3016 3291 2770 3770 
Q 2525 4250 2034 4250 
z
M 2034 4750 
Q 2819 4750 3233 4129 
Q 3647 3509 3647 2328 
Q 3647 1150 3233 529 
Q 2819 -91 2034 -91 
Q 1250 -91 836 529 
Q 422 1150 422 2328 
Q 422 3509 836 4129 
Q 1250 4750 2034 4750 
z
" transform="scale(0.015625)"/>
        <path id="DejaVuSans-2e" d="M 684 794 
L 1344 794 
L 1344 0 
L 684 0 
L 684 794 
z
" transform="scale(0.015625)"/>
        <path id="DejaVuSans-32" d="M 1228 531 
L 3431 531 
L 3431 0 
L 469 0 
L 469 531 
Q 828 903 1448 1529 
Q 2069 2156 2228 2338 
Q 2531 2678 2651 2914 
Q 2772 3150 2772 3378 
Q 2772 3750 2511 3984 
Q 2250 4219 1831 4219 
Q 1534 4219 1204 4116 
Q 875 4013 500 3803 
L 500 4441 
Q 881 4594 1212 4672 
Q 1544 4750 1819 4750 
Q 2544 4750 2975 4387 
Q 3406 4025 3406 3419 
Q 3406 3131 3298 2873 
Q 3191 2616 2906 2266 
Q 2828 2175 2409 1742 
Q 1991 1309 1228 531 
z
" transform="scale(0.015625)"/>
       </defs>
       <use xlink:href="#DejaVuSans-2212"/>
       <use xlink:href="#DejaVuSans-30" x="83.789062"/>
       <use xlink:href="#DejaVuSans-2e" x="147.412109"/>
       <use xlink:href="#DejaVuSans-32" x="179.199219"/>
       <use xlink:href="#DejaVuSans-30" x="242.822266"/>
      </g>
     </g>
    </g>
    <g id="xtick_2">
     <g id="line2d_3">
      <path d="M 128.279261 214.12 
L 128.279261 29.61 
" clip-path="url(#p9a28f24b4d)" style="fill: none; stroke: #b0b0b0; stroke-opacity: 0.25; stroke-width: 0.8; stroke-linecap: square"/>
     </g>
     <g id="line2d_4">
      <g>
       <use xlink:href="#m02772f9c78" x="128.279261" y="214.12" style="stroke: #000000; stroke-width: 0.8"/>
      </g>
     </g>
     <g id="text_2">
      <!-- −0.15 -->
      <g transform="translate(111.424339 229.478281) scale(0.11 -0.11)">
       <defs>
        <path id="DejaVuSans-31" d="M 794 531 
L 1825 531 
L 1825 4091 
L 703 3866 
L 703 4441 
L 1819 4666 
L 2450 4666 
L 2450 531 
L 3481 531 
L 3481 0 
L 794 0 
L 794 531 
z
" transform="scale(0.015625)"/>
        <path id="DejaVuSans-35" d="M 691 4666 
L 3169 4666 
L 3169 4134 
L 1269 4134 
L 1269 2991 
Q 1406 3038 1543 3061 
Q 1681 3084 1819 3084 
Q 2600 3084 3056 2656 
Q 3513 2228 3513 1497 
Q 3513 744 3044 326 
Q 2575 -91 1722 -91 
Q 1428 -91 1123 -41 
Q 819 9 494 109 
L 494 744 
Q 775 591 1075 516 
Q 1375 441 1709 441 
Q 2250 441 2565 725 
Q 2881 1009 2881 1497 
Q 2881 1984 2565 2268 
Q 2250 2553 1709 2553 
Q 1456 2553 1204 2497 
Q 953 2441 691 2322 
L 691 4666 
z
" transform="scale(0.015625)"/>
       </defs>
       <use xlink:href="#DejaVuSans-2212"/>
       <use xlink:href="#DejaVuSans-30" x="83.789062"/>
       <use xlink:href="#DejaVuSans-2e" x="147.412109"/>
       <use xlink:href="#DejaVuSans-31" x="179.199219"/>
       <use xlink:href="#DejaVuSans-35" x="242.822266"/>
      </g>
     </g>
    </g>
    <g id="xtick_3">
     <g id="line2d_5">
      <path d="M 171.609091 214.12 
L 171.609091 29.61 
" clip-path="url(#p9a28f24b4d)" style="fill: none; stroke: #b0b0b0; stroke-opacity: 0.25; stroke-width: 0.8; stroke-linecap: square"/>
     </g>
     <g id="line2d_6">
      <g>
       <use xlink:href="#m02772f9c78" x="171.609091" y="214.12" style="stroke: #000000; stroke-width: 0.8"/>
      </g>
     </g>
     <g id="text_3">
      <!-- −0.10 -->
      <g transform="translate(154.754169 229.478281) scale(0.11 -0.11)">
       <use xlink:href="#DejaVuSans-2212"/>
       <use xlink:href="#DejaVuSans-30" x="83.789062"/>
       <use xlink:href="#DejaVuSans-2e" x="147.412109"/>
       <use xlink:href="#DejaVuSans-31" x="179.199219"/>
       <use xlink:href="#DejaVuSans-30" x="242.822266"/>
      </g>
     </g>
    </g>
    <g id="xtick_4">
     <g id="line2d_7">
      <path d="M 214.93892 214.12 
L 214.93892 29.61 
" clip-path="url(#p9a28f24b4d)" style="fill: none; stroke: #b0b0b0; stroke-opacity: 0.25; stroke-width: 0.8; stroke-linecap: square"/>
     </g>
     <g id="line2d_8">
      <g>
       <use xlink:href="#m02772f9c78" x="214.93892" y="214.12" style="stroke: #000000; stroke-width: 0.8"/>
      </g>
     </g>
     <g id="text_4">
      <!-- −0.05 -->
      <g transform="translate(198.083999 229.478281) scale(0.11 -0.11)">
       <use xlink:href="#DejaVuSans-2212"/>
       <use xlink:href="#DejaVuSans-30" x="83.789062"/>
       <use xlink:href="#DejaVuSans-2e" x="147.412109"/>
       <use xlink:href="#DejaVuSans-30" x="179.199219"/>
       <use xlink:href="#DejaVuSans-35" x="242.822266"/>
      </g>
     </g>
    </g>
    <g id="xtick_5">
     <g id="line2d_9">
      <path d="M 258.26875 214.12 
L 258.26875 29.61 
" clip-path="url(#p9a28f24b4d)" style="fill: none; stroke: #b0b0b0; stroke-opacity: 0.25; stroke-width: 0.8; stroke-linecap: square"/>
     </g>
     <g id="line2d_10">
      <g>
       <use xlink:href="#m02772f9c78" x="258.26875" y="214.12" style="stroke: #000000; stroke-width: 0.8"/>
      </g>
     </g>
     <g id="text_5">
      <!-- 0.00 -->
      <g transform="translate(246.022656 229.478281) scale(0.11 -0.11)">
       <use xlink:href="#DejaVuSans-30"/>
       <use xlink:href="#DejaVuSans-2e" x="63.623047"/>
       <use xlink:href="#DejaVuSans-30" x="95.410156"/>
       <use xlink:href="#DejaVuSans-30" x="159.033203"/>
      </g>
     </g>
    </g>
    <g id="xtick_6">
     <g id="line2d_11">
      <path d="M 301.59858 214.12 
L 301.59858 29.61 
" clip-path="url(#p9a28f24b4d)" style="fill: none; stroke: #b0b0b0; stroke-opacity: 0.25; stroke-width: 0.8; stroke-linecap: square"/>
     </g>
     <g id="line2d_12">
      <g>
       <use xlink:href="#m02772f9c78" x="301.59858" y="214.12" style="stroke: #000000; stroke-width: 0.8"/>
      </g>
     </g>
     <g id="text_6">
      <!-- 0.05 -->
      <g transform="translate(289.352486 229.478281) scale(0.11 -0.11)">
       <use xlink:href="#DejaVuSans-30"/>
       <use xlink:href="#DejaVuSans-2e" x="63.623047"/>
       <use xlink:href="#DejaVuSans-30" x="95.410156"/>
       <use xlink:href="#DejaVuSans-35" x="159.033203"/>
      </g>
     </g>
    </g>
    <g id="xtick_7">
     <g id="line2d_13">
      <path d="M 344.928409 214.12 
L 344.928409 29.61 
" clip-path="url(#p9a28f24b4d)" style="fill: none; stroke: #b0b0b0; stroke-opacity: 0.25; stroke-width: 0.8; stroke-linecap: square"/>
     </g>
     <g id="line2d_14">
      <g>
       <use xlink:href="#m02772f9c78" x="344.928409" y="214.12" style="stroke: #000000; stroke-width: 0.8"/>
      </g>
     </g>
     <g id="text_7">
      <!-- 0.10 -->
      <g transform="translate(332.682315 229.478281) scale(0.11 -0.11)">
       <use xlink:href="#DejaVuSans-30"/>
       <use xlink:href="#DejaVuSans-2e" x="63.623047"/>
       <use xlink:href="#DejaVuSans-31" x="95.410156"/>
       <use xlink:href="#DejaVuSans-30" x="159.033203"/>
      </g>
     </g>
    </g>
    <g id="xtick_8">
     <g id="line2d_15">
      <path d="M 388.258239 214.12 
L 388.258239 29.61 
" clip-path="url(#p9a28f24b4d)" style="fill: none; stroke: #b0b0b0; stroke-opacity: 0.25; stroke-width: 0.8; stroke-linecap: square"/>
     </g>
     <g id="line2d_16">
      <g>
       <use xlink:href="#m02772f9c78" x="388.258239" y="214.12" style="stroke: #000000; stroke-width: 0.8"/>
      </g>
     </g>
     <g id="text_8">
      <!-- 0.15 -->
      <g transform="translate(376.012145 229.478281) scale(0.11 -0.11)">
       <use xlink:href="#DejaVuSans-30"/>
       <use xlink:href="#DejaVuSans-2e" x="63.623047"/>
       <use xlink:href="#DejaVuSans-31" x="95.410156"/>
       <use xlink:href="#DejaVuSans-35" x="159.033203"/>
      </g>
     </g>
    </g>
    <g id="xtick_9">
     <g id="line2d_17">
      <path d="M 431.588068 214.12 
L 431.588068 29.61 
" clip-path="url(#p9a28f24b4d)" style="fill: none; stroke: #b0b0b0; stroke-opacity: 0.25; stroke-width: 0.8; stroke-linecap: square"/>
     </g>
     <g id="line2d_18">
      <g>
       <use xlink:href="#m02772f9c78" x="431.588068" y="214.12" style="stroke: #000000; stroke-width: 0.8"/>
      </g>
     </g>
     <g id="text_9">
      <!-- 0.20 -->
      <g transform="translate(419.341974 229.478281) scale(0.11 -0.11)">
       <use xlink:href="#DejaVuSans-30"/>
       <use xlink:href="#DejaVuSans-2e" x="63.623047"/>
       <use xlink:href="#DejaVuSans-32" x="95.410156"/>
       <use xlink:href="#DejaVuSans-30" x="159.033203"/>
      </g>
     </g>
    </g>
    <g id="text_10">
     <!-- x -->
     <g transform="translate(255.013438 244.124219) scale(0.11 -0.11)">
      <defs>
       <path id="DejaVuSans-78" d="M 3513 3500 
L 2247 1797 
L 3578 0 
L 2900 0 
L 1881 1375 
L 863 0 
L 184 0 
L 1544 1831 
L 300 3500 
L 978 3500 
L 1906 2253 
L 2834 3500 
L 3513 3500 
z
" transform="scale(0.015625)"/>
      </defs>
      <use xlink:href="#DejaVuSans-78"/>
     </g>
    </g>
   </g>
   <g id="matplotlib.axis_2">
    <g id="ytick_1">
     <g id="line2d_19">
      <path d="M 67.6175 195.669 
L 448.92 195.669 
" clip-path="url(#p9a28f24b4d)" style="fill: none; stroke: #b0b0b0; stroke-opacity: 0.25; stroke-width: 0.8; stroke-linecap: square"/>
     </g>
     <g id="line2d_20">
      <defs>
       <path id="mb336dfed69" d="M 0 0 
L -3.5 0 
" style="stroke: #000000; stroke-width: 0.8"/>
      </defs>
      <g>
       <use xlink:href="#mb336dfed69" x="67.6175" y="195.669" style="stroke: #000000; stroke-width: 0.8"/>
      </g>
     </g>
     <g id="text_11">
      <!-- −0.04 -->
      <g transform="translate(26.907656 199.848141) scale(0.11 -0.11)">
       <defs>
        <path id="DejaVuSans-34" d="M 2419 4116 
L 825 1625 
L 2419 1625 
L 2419 4116 
z
M 2253 4666 
L 3047 4666 
L 3047 1625 
L 3713 1625 
L 3713 1100 
L 3047 1100 
L 3047 0 
L 2419 0 
L 2419 1100 
L 313 1100 
L 313 1709 
L 2253 4666 
z
" transform="scale(0.015625)"/>
       </defs>
       <use xlink:href="#DejaVuSans-2212"/>
       <use xlink:href="#DejaVuSans-30" x="83.789062"/>
       <use xlink:href="#DejaVuSans-2e" x="147.412109"/>
       <use xlink:href="#DejaVuSans-30" x="179.199219"/>
       <use xlink:href="#DejaVuSans-34" x="242.822266"/>
      </g>
     </g>
    </g>
    <g id="ytick_2">
     <g id="line2d_21">
      <path d="M 67.6175 158.767 
L 448.92 158.767 
" clip-path="url(#p9a28f24b4d)" style="fill: none; stroke: #b0b0b0; stroke-opacity: 0.25; stroke-width: 0.8; stroke-linecap: square"/>
     </g>
     <g id="line2d_22">
      <g>
       <use xlink:href="#mb336dfed69" x="67.6175" y="158.767" style="stroke: #000000; stroke-width: 0.8"/>
      </g>
     </g>
     <g id="text_12">
      <!-- −0.02 -->
      <g transform="translate(26.907656 162.946141) scale(0.11 -0.11)">
       <use xlink:href="#DejaVuSans-2212"/>
       <use xlink:href="#DejaVuSans-30" x="83.789062"/>
       <use xlink:href="#DejaVuSans-2e" x="147.412109"/>
       <use xlink:href="#DejaVuSans-30" x="179.199219"/>
       <use xlink:href="#DejaVuSans-32" x="242.822266"/>
      </g>
     </g>
    </g>
    <g id="ytick_3">
     <g id="line2d_23">
      <path d="M 67.6175 121.865 
L 448.92 121.865 
" clip-path="url(#p9a28f24b4d)" style="fill: none; stroke: #b0b0b0; stroke-opacity: 0.25; stroke-width: 0.8; stroke-linecap: square"/>
     </g>
     <g id="line2d_24">
      <g>
       <use xlink:href="#mb336dfed69" x="67.6175" y="121.865" style="stroke: #000000; stroke-width: 0.8"/>
      </g>
     </g>
     <g id="text_13">
      <!-- 0.00 -->
      <g transform="translate(36.125313 126.044141) scale(0.11 -0.11)">
       <use xlink:href="#DejaVuSans-30"/>
       <use xlink:href="#DejaVuSans-2e" x="63.623047"/>
       <use xlink:href="#DejaVuSans-30" x="95.410156"/>
       <use xlink:href="#DejaVuSans-30" x="159.033203"/>
      </g>
     </g>
    </g>
    <g id="ytick_4">
     <g id="line2d_25">
      <path d="M 67.6175 84.963 
L 448.92 84.963 
" clip-path="url(#p9a28f24b4d)" style="fill: none; stroke: #b0b0b0; stroke-opacity: 0.25; stroke-width: 0.8; stroke-linecap: square"/>
     </g>
     <g id="line2d_26">
      <g>
       <use xlink:href="#mb336dfed69" x="67.6175" y="84.963" style="stroke: #000000; stroke-width: 0.8"/>
      </g>
     </g>
     <g id="text_14">
      <!-- 0.02 -->
      <g transform="translate(36.125313 89.142141) scale(0.11 -0.11)">
       <use xlink:href="#DejaVuSans-30"/>
       <use xlink:href="#DejaVuSans-2e" x="63.623047"/>
       <use xlink:href="#DejaVuSans-30" x="95.410156"/>
       <use xlink:href="#DejaVuSans-32" x="159.033203"/>
      </g>
     </g>
    </g>
    <g id="ytick_5">
     <g id="line2d_27">
      <path d="M 67.6175 48.061 
L 448.92 48.061 
" clip-path="url(#p9a28f24b4d)" style="fill: none; stroke: #b0b0b0; stroke-opacity: 0.25; stroke-width: 0.8; stroke-linecap: square"/>
     </g>
     <g id="line2d_28">
      <g>
       <use xlink:href="#mb336dfed69" x="67.6175" y="48.061" style="stroke: #000000; stroke-width: 0.8"/>
      </g>
     </g>
     <g id="text_15">
      <!-- 0.04 -->
      <g transform="translate(36.125313 52.240141) scale(0.11 -0.11)">
       <use xlink:href="#DejaVuSans-30"/>
       <use xlink:href="#DejaVuSans-2e" x="63.623047"/>
       <use xlink:href="#DejaVuSans-30" x="95.410156"/>
       <use xlink:href="#DejaVuSans-34" x="159.033203"/>
      </g>
     </g>
    </g>
    <g id="text_16">
     <!-- y -->
     <g transform="translate(20.62 125.120313) rotate(-90) scale(0.11 -0.11)">
      <defs>
       <path id="DejaVuSans-79" d="M 2059 -325 
Q 1816 -950 1584 -1140 
Q 1353 -1331 966 -1331 
L 506 -1331 
L 506 -850 
L 844 -850 
Q 1081 -850 1212 -737 
Q 1344 -625 1503 -206 
L 1606 56 
L 191 3500 
L 800 3500 
L 1894 763 
L 2988 3500 
L 3597 3500 
L 2059 -325 
z
" transform="scale(0.015625)"/>
      </defs>
      <use xlink:href="#DejaVuSans-79"/>
     </g>
    </g>
   </g>
   <g id="line2d_29">
    <path d="M 84.949432 51.092553 
L 87.824123 55.369348 
L 90.842549 60.264024 
L 94.062203 65.916642 
L 97.540579 72.484439 
L 101.392665 80.249189 
L 105.877183 89.811343 
L 112.258998 104.003665 
L 120.078158 121.294449 
L 123.930244 129.264009 
L 127.006163 135.133869 
L 129.622132 139.663679 
L 131.921885 143.217056 
L 133.991663 146.016667 
L 135.860212 148.17995 
L 137.55628 149.815511 
L 139.13736 151.037482 
L 140.603452 151.893557 
L 141.983304 152.443744 
L 143.276915 152.725711 
L 144.541779 152.775918 
L 145.777896 152.604592 
L 147.04276 152.200081 
L 148.336371 151.544349 
L 149.658729 150.620726 
L 151.067328 149.357488 
L 152.562167 147.70823 
L 154.171995 145.590147 
L 155.925556 142.904848 
L 157.909093 139.441076 
L 160.208846 134.957022 
L 163.371006 128.252921 
L 168.487956 117.396761 
L 170.557734 113.552498 
L 172.225055 110.903136 
L 173.633654 109.064637 
L 174.869771 107.80568 
L 175.962153 107.000957 
L 176.939548 106.545184 
L 177.85945 106.356445 
L 178.750604 106.403489 
L 179.641758 106.681147 
L 180.561659 107.210676 
L 181.539054 108.040154 
L 182.60269 109.244023 
L 183.81006 110.964306 
L 185.218659 113.385533 
L 187.000967 116.929248 
L 191.974183 127.094228 
L 193.2103 128.983062 
L 194.216442 130.140486 
L 195.078849 130.810599 
L 195.826269 131.125434 
L 196.516195 131.183633 
L 197.206121 131.012141 
L 197.924794 130.588423 
L 198.70096 129.857159 
L 199.592115 128.6908 
L 200.65575 126.905351 
L 202.121843 123.95713 
L 204.852799 118.408645 
L 205.858941 116.898509 
L 206.635108 116.101675 
L 207.296287 115.725717 
L 207.871225 115.646477 
L 208.417416 115.79278 
L 208.992355 116.179434 
L 209.653534 116.905143 
L 210.458447 118.145749 
L 211.579577 120.340804 
L 213.764342 124.702718 
L 214.540508 125.735559 
L 215.144194 126.194735 
L 215.632891 126.311116 
L 216.092842 126.200226 
L 216.581539 125.849221 
L 217.156477 125.149585 
L 217.903897 123.861197 
L 220.519866 118.985536 
L 221.03731 118.597654 
L 221.468514 118.53803 
L 221.870971 118.708984 
L 222.330921 119.162852 
L 222.934607 120.115356 
L 224.084483 122.485947 
L 224.889397 123.883761 
L 225.378094 124.35645 
L 225.780551 124.457091 
L 226.125514 124.320107 
L 226.527971 123.909636 
L 227.074162 122.99857 
L 228.712736 120.007431 
L 229.086446 119.795929 
L 229.402662 119.849468 
L 229.747625 120.150035 
L 230.207575 120.88111 
L 231.673668 123.464304 
L 231.989884 123.561596 
L 232.277353 123.421298 
L 232.651063 122.939597 
L 233.340989 121.551529 
L 233.915927 120.617694 
L 234.232143 120.449513 
L 234.490865 120.54519 
L 234.807081 120.930943 
L 235.410766 122.136482 
L 235.928211 122.952894 
L 236.21568 123.059474 
L 236.474402 122.893292 
L 236.819365 122.345208 
L 237.653025 120.893669 
L 237.911747 120.8596 
L 238.17047 121.110078 
L 238.63042 122.002398 
L 239.090371 122.708502 
L 239.320346 122.732645 
L 239.550321 122.498761 
L 240.039019 121.536811 
L 240.383982 121.101696 
L 240.58521 121.133602 
L 240.843932 121.48659 
L 241.505111 122.548557 
L 241.677593 122.48892 
L 241.936315 122.088015 
L 242.453759 121.260644 
L 242.626241 121.316624 
L 242.884963 121.739895 
L 243.316167 122.407016 
L 243.488648 122.332574 
L 243.776117 121.810709 
L 244.092333 121.375506 
L 244.264815 121.473222 
L 244.8685 122.290482 
L 244.925994 122.23876 
L 245.213463 121.699799 
L 245.443438 121.460996 
L 245.587173 121.58713 
L 246.047123 122.223058 
L 246.07587 122.203085 
L 246.277099 121.861457 
L 246.535821 121.526962 
L 246.679555 121.67274 
L 247.053265 122.160347 
L 247.225747 121.88449 
L 247.484469 121.587918 
L 247.65695 121.860043 
L 247.886926 122.123411 
L 248.03066 121.91076 
L 248.260636 121.623605 
L 248.40437 121.837924 
L 248.605599 122.092004 
L 248.634345 122.073903 
L 248.950561 121.662741 
L 249.008055 121.73418 
L 249.238031 122.063341 
L 249.266777 122.044376 
L 249.554247 121.699749 
L 249.61174 121.788659 
L 249.812969 122.02788 
L 250.071691 121.71835 
L 250.129185 121.809649 
L 250.301666 122.009406 
L 250.330413 121.974952 
L 250.502895 121.717133 
L 250.560388 121.773842 
L 250.73287 121.99709 
L 250.761617 121.964569 
L 250.934098 121.74045 
L 250.962845 121.774218 
L 251.10658 121.990902 
L 251.164074 121.929461 
L 251.307808 121.755408 
L 251.336555 121.793239 
L 251.48029 121.968251 
L 251.509037 121.928861 
L 251.624024 121.756621 
L 251.681518 121.824481 
L 251.796506 121.960706 
L 251.825253 121.922331 
L 251.94024 121.770327 
L 251.968987 121.804459 
L 252.083975 121.954302 
L 252.112722 121.917545 
L 252.227709 121.786707 
L 252.256456 121.832403 
L 252.342697 121.9503 
L 252.371444 121.920501 
L 252.457685 121.782424 
L 252.515178 121.850635 
L 252.601419 121.932535 
L 252.630166 121.884142 
L 252.716407 121.801183 
L 252.745154 121.850865 
L 252.802648 121.937962 
L 252.860141 121.864698 
L 252.917635 121.795491 
L 252.946382 121.829146 
L 253.032623 121.921721 
L 253.06137 121.870816 
L 253.118864 121.801135 
L 253.147611 121.838343 
L 253.205104 121.927814 
L 253.262598 121.845705 
L 253.320092 121.821351 
L 253.348839 121.877485 
L 253.406333 121.90854 
L 253.43508 121.85289 
L 253.492573 121.825949 
L 253.52132 121.882828 
L 253.550067 121.919237 
L 253.607561 121.836486 
L 253.636308 121.812841 
L 253.693802 121.906117 
L 254.153752 121.860517 
L 254.297487 121.826549 
L 254.469968 121.898189 
L 254.613703 121.832324 
L 254.757438 121.894768 
L 254.901172 121.857425 
L 255.01616 121.879732 
L 255.131147 121.85871 
L 255.303629 121.862943 
L 256.942203 121.864231 
L 257.402153 121.866526 
L 257.402153 121.866526 
" clip-path="url(#p9a28f24b4d)" style="fill: none; stroke: #1f77b4; stroke-linecap: square"/>
   </g>
   <g id="line2d_30">
    <path d="M 259.135347 121.863474 
L 261.665075 121.882999 
L 261.780062 121.835232 
L 261.923797 121.897676 
L 262.067532 121.831811 
L 262.240013 121.903451 
L 262.412494 121.82381 
L 262.613723 121.91134 
L 262.699964 121.83081 
L 262.728711 121.887257 
L 262.757457 121.913973 
L 262.814951 121.821805 
L 263.936081 121.797465 
L 264.022322 121.879365 
L 264.079815 121.947576 
L 264.137309 121.866086 
L 264.22355 121.790955 
L 264.252297 121.837609 
L 264.338538 121.954208 
L 264.367284 121.925765 
L 264.482272 121.775306 
L 264.511019 121.811173 
L 264.626007 121.958505 
L 264.654754 121.922727 
L 264.769741 121.763566 
L 264.798488 121.792191 
L 264.942223 121.96 
L 264.97097 121.917391 
L 265.085957 121.751578 
L 265.114704 121.773283 
L 265.258439 121.984298 
L 265.315933 121.917912 
L 265.459667 121.749984 
L 265.488414 121.787265 
L 265.632149 121.997254 
L 265.689642 121.934449 
L 265.833377 121.725243 
L 265.862124 121.743696 
L 266.063352 122.005349 
L 266.120846 121.925279 
L 266.293328 121.718801 
L 266.322074 121.751455 
L 266.523303 122.026811 
L 266.55205 122.001844 
L 266.782025 121.695325 
L 266.839519 121.766131 
L 267.040747 122.051362 
L 267.069494 122.032758 
L 267.356963 121.683589 
L 267.414457 121.765272 
L 267.644432 122.074428 
L 267.673179 122.052564 
L 267.989395 121.649865 
L 268.046889 121.720728 
L 268.334358 122.10288 
L 268.363105 122.079186 
L 268.736815 121.624651 
L 268.794309 121.700015 
L 269.139272 122.133444 
L 269.311753 121.84551 
L 269.541729 121.554193 
L 269.685463 121.709301 
L 270.059173 122.188402 
L 270.231654 121.929223 
L 270.54787 121.496839 
L 270.691605 121.637589 
L 271.151556 122.257268 
L 271.324037 122.030201 
L 271.726494 121.420047 
L 271.870228 121.514229 
L 272.50266 122.32754 
L 272.531407 122.303311 
L 272.761383 121.919291 
L 273.163839 121.320904 
L 273.336321 121.406355 
L 273.62379 121.929395 
L 273.9975 122.468559 
L 274.169981 122.416262 
L 274.428703 122.004457 
L 274.917401 121.199798 
L 275.118629 121.224107 
L 275.348605 121.538836 
L 276.038531 122.638717 
L 276.239759 122.571437 
L 276.498481 122.193189 
L 277.217154 120.997355 
L 277.447129 121.021498 
L 277.705851 121.33908 
L 278.711993 122.89157 
L 278.941969 122.790141 
L 279.258185 122.332463 
L 280.23558 120.698671 
L 280.494302 120.698254 
L 280.781771 120.976926 
L 281.241721 121.834751 
L 281.960394 123.106849 
L 282.27661 123.280374 
L 282.535332 123.187926 
L 282.851549 122.815385 
L 283.39774 121.754029 
L 284.116413 120.457411 
L 284.490122 120.17904 
L 284.777592 120.213516 
L 285.093808 120.491672 
L 285.553758 121.246444 
L 286.93361 123.734552 
L 287.30732 123.936741 
L 287.623536 123.87219 
L 287.997246 123.533052 
L 288.485943 122.748071 
L 290.296999 119.50073 
L 290.699455 119.281379 
L 291.073165 119.328811 
L 291.475622 119.639191 
L 291.993066 120.371842 
L 292.826727 122.029638 
L 294.00535 124.289714 
L 294.580288 124.956275 
L 295.040239 125.187023 
L 295.442696 125.154627 
L 295.873899 124.884773 
L 296.391344 124.274481 
L 297.110017 123.031265 
L 299.725986 118.12545 
L 300.329671 117.591051 
L 300.847115 117.420964 
L 301.307066 117.497537 
L 301.795763 117.804696 
L 302.399448 118.474533 
L 303.146868 119.666234 
L 304.296744 121.979283 
L 306.222787 125.831004 
L 307.113942 127.109797 
L 307.832615 127.773322 
L 308.4363 128.048394 
L 308.982491 128.069222 
L 309.557429 127.861335 
L 310.189861 127.375483 
L 310.937281 126.489724 
L 311.857182 125.018588 
L 313.150793 122.472639 
L 316.370447 115.957043 
L 317.46283 114.32146 
L 318.353984 113.354394 
L 319.130151 112.811414 
L 319.848824 112.567575 
L 320.538749 112.568741 
L 321.228675 112.795351 
L 321.976095 113.28366 
L 322.809755 114.104358 
L 323.78715 115.395402 
L 324.965774 117.342014 
L 326.518107 120.368571 
L 332.296236 132.068138 
L 333.676088 134.147799 
L 334.854711 135.54516 
L 335.918347 136.478081 
L 336.895742 137.048853 
L 337.815643 137.331614 
L 338.706797 137.371274 
L 339.597952 137.184816 
L 340.517853 136.762921 
L 341.523995 136.047294 
L 342.616377 134.98935 
L 343.852495 133.471032 
L 345.261093 131.37608 
L 346.928414 128.480672 
L 349.026939 124.360682 
L 352.246593 117.479873 
L 356.817352 107.784695 
L 359.232092 103.190714 
L 361.273123 99.768495 
L 363.084178 97.151635 
L 364.722752 95.158007 
L 366.246339 93.641048 
L 367.683684 92.516623 
L 369.034789 91.734966 
L 370.3284 91.237122 
L 371.593264 90.985743 
L 372.858128 90.963854 
L 374.122992 91.166745 
L 375.416603 91.600513 
L 376.767708 92.289699 
L 378.205054 93.276913 
L 379.757387 94.622584 
L 381.424708 96.371606 
L 383.235763 98.601532 
L 385.248047 101.446167 
L 387.461559 104.972026 
L 389.96254 109.38655 
L 392.865979 114.982198 
L 396.373102 122.251345 
L 401.116342 132.639476 
L 413.851224 160.773214 
L 418.105767 169.492192 
L 421.814118 176.600341 
L 425.206254 182.63595 
L 428.368414 187.821863 
L 431.358093 192.309491 
L 431.588068 192.637447 
L 431.588068 192.637447 
" clip-path="url(#p9a28f24b4d)" style="fill: none; stroke: #ff7f0e; stroke-linecap: square"/>
   </g>
   <g id="line2d_31">
    <path d="M 84.949432 48.061 
L 92.653604 54.476458 
L 100.300283 60.555642 
L 107.86072 66.283789 
L 115.363664 71.690699 
L 122.809114 76.782731 
L 130.168323 81.548102 
L 137.470039 86.013234 
L 144.714261 90.184314 
L 151.900989 94.067484 
L 159.030223 97.668833 
L 166.13071 101.007421 
L 173.173703 104.074239 
L 180.187949 106.886288 
L 187.144702 109.436495 
L 194.072708 111.739827 
L 200.971966 113.799219 
L 207.813731 115.61047 
L 214.626749 117.185545 
L 221.439767 118.532536 
L 228.224038 119.647202 
L 234.979563 120.532416 
L 241.735087 121.193379 
L 248.461864 121.628708 
L 255.188641 121.841691 
L 261.923797 121.832177 
L 268.650574 121.600191 
L 275.377352 121.145857 
L 282.104129 120.469178 
L 288.859653 119.565833 
L 295.615177 118.438237 
L 302.399448 117.080159 
L 309.212466 115.488723 
L 316.054231 113.661042 
L 322.924743 111.594218 
L 329.824002 109.285338 
L 336.752007 106.731479 
L 343.70876 103.929704 
L 350.723006 100.86401 
L 357.766 97.542506 
L 364.866487 93.947153 
L 372.024468 90.071933 
L 379.211196 85.927865 
L 386.455417 81.493799 
L 393.757133 76.763595 
L 401.116342 71.731064 
L 408.561792 66.368741 
L 416.064736 60.689453 
L 423.625174 54.686841 
L 431.271852 48.330061 
L 431.588068 48.061 
L 431.588068 48.061 
" clip-path="url(#p9a28f24b4d)" style="fill: none; stroke-dasharray: 5.55,2.4; stroke-dashoffset: 0; stroke: #000000; stroke-opacity: 0.35; stroke-width: 1.5"/>
   </g>
   <g id="line2d_32">
    <path d="M 84.949432 195.669 
L 92.653604 189.253542 
L 100.300283 183.174358 
L 107.86072 177.446211 
L 115.363664 172.039301 
L 122.809114 166.947269 
L 130.168323 162.181898 
L 137.470039 157.716766 
L 144.714261 153.545686 
L 151.900989 149.662516 
L 159.030223 146.061167 
L 166.13071 142.722579 
L 173.173703 139.655761 
L 180.187949 136.843712 
L 187.144702 134.293505 
L 194.072708 131.990173 
L 200.971966 129.930781 
L 207.813731 128.11953 
L 214.626749 126.544455 
L 221.439767 125.197464 
L 228.224038 124.082798 
L 234.979563 123.197584 
L 241.735087 122.536621 
L 248.461864 122.101292 
L 255.188641 121.888309 
L 261.923797 121.897823 
L 268.650574 122.129809 
L 275.377352 122.584143 
L 282.104129 123.260822 
L 288.859653 124.164167 
L 295.615177 125.291763 
L 302.399448 126.649841 
L 309.212466 128.241277 
L 316.054231 130.068958 
L 322.924743 132.135782 
L 329.824002 134.444662 
L 336.752007 136.998521 
L 343.70876 139.800296 
L 350.723006 142.86599 
L 357.766 146.187494 
L 364.866487 149.782847 
L 372.024468 153.658067 
L 379.211196 157.802135 
L 386.455417 162.236201 
L 393.757133 166.966405 
L 401.116342 171.998936 
L 408.561792 177.361259 
L 416.064736 183.040547 
L 423.625174 189.043159 
L 431.271852 195.399939 
L 431.588068 195.669 
L 431.588068 195.669 
" clip-path="url(#p9a28f24b4d)" style="fill: none; stroke-dasharray: 5.55,2.4; stroke-dashoffset: 0; stroke: #000000; stroke-opacity: 0.35; stroke-width: 1.5"/>
   </g>
   <g id="line2d_33">
    <path d="M 258.26875 214.12 
L 258.26875 29.61 
" clip-path="url(#p9a28f24b4d)" style="fill: none; stroke-dasharray: 3.7,1.6; stroke-dashoffset: 0; stroke: #000000; stroke-opacity: 0.15"/>
   </g>
   <g id="patch_3">
    <path d="M 67.6175 214.12 
L 67.6175 29.61 
" style="fill: none; stroke: #000000; stroke-width: 0.8; stroke-linejoin: miter; stroke-linecap: square"/>
   </g>
   <g id="patch_4">
    <path d="M 67.6175 214.12 
L 448.92 214.12 
" style="fill: none; stroke: #000000; stroke-width: 0.8; stroke-linejoin: miter; stroke-linecap: square"/>
   </g>
   <g id="text_17">
    <!-- Carabinieri: $x^2\sin(1/x)\to 0$ per $x\to 0$ -->
    <g transform="translate(152.48875 23.61) scale(0.12 -0.12)">
     <defs>
      <path id="DejaVuSans-43" d="M 4122 4306 
L 4122 3641 
Q 3803 3938 3442 4084 
Q 3081 4231 2675 4231 
Q 1875 4231 1450 3742 
Q 1025 3253 1025 2328 
Q 1025 1406 1450 917 
Q 1875 428 2675 428 
Q 3081 428 3442 575 
Q 3803 722 4122 1019 
L 4122 359 
Q 3791 134 3420 21 
Q 3050 -91 2638 -91 
Q 1578 -91 968 557 
Q 359 1206 359 2328 
Q 359 3453 968 4101 
Q 1578 4750 2638 4750 
Q 3056 4750 3426 4639 
Q 3797 4528 4122 4306 
z
" transform="scale(0.015625)"/>
      <path id="DejaVuSans-61" d="M 2194 1759 
Q 1497 1759 1228 1600 
Q 959 1441 959 1056 
Q 959 750 1161 570 
Q 1363 391 1709 391 
Q 2188 391 2477 730 
Q 2766 1069 2766 1631 
L 2766 1759 
L 2194 1759 
z
M 3341 1997 
L 3341 0 
L 2766 0 
L 2766 531 
Q 2569 213 2275 61 
Q 1981 -91 1556 -91 
Q 1019 -91 701 211 
Q 384 513 384 1019 
Q 384 1609 779 1909 
Q 1175 2209 1959 2209 
L 2766 2209 
L 2766 2266 
Q 2766 2663 2505 2880 
Q 2244 3097 1772 3097 
Q 1472 3097 1187 3025 
Q 903 2953 641 2809 
L 641 3341 
Q 956 3463 1253 3523 
Q 1550 3584 1831 3584 
Q 2591 3584 2966 3190 
Q 3341 2797 3341 1997 
z
" transform="scale(0.015625)"/>
      <path id="DejaVuSans-72" d="M 2631 2963 
Q 2534 3019 2420 3045 
Q 2306 3072 2169 3072 
Q 1681 3072 1420 2755 
Q 1159 2438 1159 1844 
L 1159 0 
L 581 0 
L 581 3500 
L 1159 3500 
L 1159 2956 
Q 1341 3275 1631 3429 
Q 1922 3584 2338 3584 
Q 2397 3584 2469 3576 
Q 2541 3569 2628 3553 
L 2631 2963 
z
" transform="scale(0.015625)"/>
      <path id="DejaVuSans-62" d="M 3116 1747 
Q 3116 2381 2855 2742 
Q 2594 3103 2138 3103 
Q 1681 3103 1420 2742 
Q 1159 2381 1159 1747 
Q 1159 1113 1420 752 
Q 1681 391 2138 391 
Q 2594 391 2855 752 
Q 3116 1113 3116 1747 
z
M 1159 2969 
Q 1341 3281 1617 3432 
Q 1894 3584 2278 3584 
Q 2916 3584 3314 3078 
Q 3713 2572 3713 1747 
Q 3713 922 3314 415 
Q 2916 -91 2278 -91 
Q 1894 -91 1617 61 
Q 1341 213 1159 525 
L 1159 0 
L 581 0 
L 581 4863 
L 1159 4863 
L 1159 2969 
z
" transform="scale(0.015625)"/>
      <path id="DejaVuSans-69" d="M 603 3500 
L 1178 3500 
L 1178 0 
L 603 0 
L 603 3500 
z
M 603 4863 
L 1178 4863 
L 1178 4134 
L 603 4134 
L 603 4863 
z
" transform="scale(0.015625)"/>
      <path id="DejaVuSans-6e" d="M 3513 2113 
L 3513 0 
L 2938 0 
L 2938 2094 
Q 2938 2591 2744 2837 
Q 2550 3084 2163 3084 
Q 1697 3084 1428 2787 
Q 1159 2491 1159 1978 
L 1159 0 
L 581 0 
L 581 3500 
L 1159 3500 
L 1159 2956 
Q 1366 3272 1645 3428 
Q 1925 3584 2291 3584 
Q 2894 3584 3203 3211 
Q 3513 2838 3513 2113 
z
" transform="scale(0.015625)"/>
      <path id="DejaVuSans-65" d="M 3597 1894 
L 3597 1613 
L 953 1613 
Q 991 1019 1311 708 
Q 1631 397 2203 397 
Q 2534 397 2845 478 
Q 3156 559 3463 722 
L 3463 178 
Q 3153 47 2828 -22 
Q 2503 -91 2169 -91 
Q 1331 -91 842 396 
Q 353 884 353 1716 
Q 353 2575 817 3079 
Q 1281 3584 2069 3584 
Q 2775 3584 3186 3129 
Q 3597 2675 3597 1894 
z
M 3022 2063 
Q 3016 2534 2758 2815 
Q 2500 3097 2075 3097 
Q 1594 3097 1305 2825 
Q 1016 2553 972 2059 
L 3022 2063 
z
" transform="scale(0.015625)"/>
      <path id="DejaVuSans-3a" d="M 750 794 
L 1409 794 
L 1409 0 
L 750 0 
L 750 794 
z
M 750 3309 
L 1409 3309 
L 1409 2516 
L 750 2516 
L 750 3309 
z
" transform="scale(0.015625)"/>
      <path id="DejaVuSans-20" transform="scale(0.015625)"/>
      <path id="DejaVuSans-Oblique-78" d="M 3841 3500 
L 2234 1784 
L 3219 0 
L 2559 0 
L 1819 1388 
L 531 0 
L -166 0 
L 1556 1844 
L 641 3500 
L 1300 3500 
L 1972 2234 
L 3144 3500 
L 3841 3500 
z
" transform="scale(0.015625)"/>
      <path id="DejaVuSans-73" d="M 2834 3397 
L 2834 2853 
Q 2591 2978 2328 3040 
Q 2066 3103 1784 3103 
Q 1356 3103 1142 2972 
Q 928 2841 928 2578 
Q 928 2378 1081 2264 
Q 1234 2150 1697 2047 
L 1894 2003 
Q 2506 1872 2764 1633 
Q 3022 1394 3022 966 
Q 3022 478 2636 193 
Q 2250 -91 1575 -91 
Q 1294 -91 989 -36 
Q 684 19 347 128 
L 347 722 
Q 666 556 975 473 
Q 1284 391 1588 391 
Q 1994 391 2212 530 
Q 2431 669 2431 922 
Q 2431 1156 2273 1281 
Q 2116 1406 1581 1522 
L 1381 1569 
Q 847 1681 609 1914 
Q 372 2147 372 2553 
Q 372 3047 722 3315 
Q 1072 3584 1716 3584 
Q 2034 3584 2315 3537 
Q 2597 3491 2834 3397 
z
" transform="scale(0.015625)"/>
      <path id="DejaVuSans-28" d="M 1984 4856 
Q 1566 4138 1362 3434 
Q 1159 2731 1159 2009 
Q 1159 1288 1364 580 
Q 1569 -128 1984 -844 
L 1484 -844 
Q 1016 -109 783 600 
Q 550 1309 550 2009 
Q 550 2706 781 3412 
Q 1013 4119 1484 4856 
L 1984 4856 
z
" transform="scale(0.015625)"/>
      <path id="DejaVuSans-2f" d="M 1625 4666 
L 2156 4666 
L 531 -594 
L 0 -594 
L 1625 4666 
z
" transform="scale(0.015625)"/>
      <path id="DejaVuSans-29" d="M 513 4856 
L 1013 4856 
Q 1481 4119 1714 3412 
Q 1947 2706 1947 2009 
Q 1947 1309 1714 600 
Q 1481 -109 1013 -844 
L 513 -844 
Q 928 -128 1133 580 
Q 1338 1288 1338 2009 
Q 1338 2731 1133 3434 
Q 928 4138 513 4856 
z
" transform="scale(0.015625)"/>
      <path id="DejaVuSans-2192" d="M 5050 2147 
L 5050 1866 
L 3822 638 
L 3447 1013 
L 4175 1741 
L 366 1741 
L 366 2272 
L 4175 2272 
L 3447 3000 
L 3822 3375 
L 5050 2147 
z
" transform="scale(0.015625)"/>
      <path id="DejaVuSans-70" d="M 1159 525 
L 1159 -1331 
L 581 -1331 
L 581 3500 
L 1159 3500 
L 1159 2969 
Q 1341 3281 1617 3432 
Q 1894 3584 2278 3584 
Q 2916 3584 3314 3078 
Q 3713 2572 3713 1747 
Q 3713 922 3314 415 
Q 2916 -91 2278 -91 
Q 1894 -91 1617 61 
Q 1341 213 1159 525 
z
M 3116 1747 
Q 3116 2381 2855 2742 
Q 2594 3103 2138 3103 
Q 1681 3103 1420 2742 
Q 1159 2381 1159 1747 
Q 1159 1113 1420 752 
Q 1681 391 2138 391 
Q 2594 391 2855 752 
Q 3116 1113 3116 1747 
z
" transform="scale(0.015625)"/>
     </defs>
     <use xlink:href="#DejaVuSans-43" transform="translate(0 0.765625)"/>
     <use xlink:href="#DejaVuSans-61" transform="translate(69.824219 0.765625)"/>
     <use xlink:href="#DejaVuSans-72" transform="translate(131.103516 0.765625)"/>
     <use xlink:href="#DejaVuSans-61" transform="translate(172.216797 0.765625)"/>
     <use xlink:href="#DejaVuSans-62" transform="translate(233.496094 0.765625)"/>
     <use xlink:href="#DejaVuSans-69" transform="translate(296.972656 0.765625)"/>
     <use xlink:href="#DejaVuSans-6e" transform="translate(324.755859 0.765625)"/>
     <use xlink:href="#DejaVuSans-69" transform="translate(388.134766 0.765625)"/>
     <use xlink:href="#DejaVuSans-65" transform="translate(415.917969 0.765625)"/>
     <use xlink:href="#DejaVuSans-72" transform="translate(477.441406 0.765625)"/>
     <use xlink:href="#DejaVuSans-69" transform="translate(518.554688 0.765625)"/>
     <use xlink:href="#DejaVuSans-3a" transform="translate(546.337891 0.765625)"/>
     <use xlink:href="#DejaVuSans-20" transform="translate(580.029297 0.765625)"/>
     <use xlink:href="#DejaVuSans-Oblique-78" transform="translate(611.816406 0.765625)"/>
     <use xlink:href="#DejaVuSans-32" transform="translate(675.46224 39.046875) scale(0.7)"/>
     <use xlink:href="#DejaVuSans-73" transform="translate(722.732747 0.765625)"/>
     <use xlink:href="#DejaVuSans-69" transform="translate(774.832357 0.765625)"/>
     <use xlink:href="#DejaVuSans-6e" transform="translate(802.61556 0.765625)"/>
     <use xlink:href="#DejaVuSans-28" transform="translate(865.994466 0.765625)"/>
     <use xlink:href="#DejaVuSans-31" transform="translate(905.008138 0.765625)"/>
     <use xlink:href="#DejaVuSans-2f" transform="translate(968.631185 0.765625)"/>
     <use xlink:href="#DejaVuSans-Oblique-78" transform="translate(1002.322591 0.765625)"/>
     <use xlink:href="#DejaVuSans-29" transform="translate(1061.502279 0.765625)"/>
     <use xlink:href="#DejaVuSans-2192" transform="translate(1119.998372 0.765625)"/>
     <use xlink:href="#DejaVuSans-30" transform="translate(1223.269857 0.765625)"/>
     <use xlink:href="#DejaVuSans-20" transform="translate(1286.892904 0.765625)"/>
     <use xlink:href="#DejaVuSans-70" transform="translate(1318.680013 0.765625)"/>
     <use xlink:href="#DejaVuSans-65" transform="translate(1382.156576 0.765625)"/>
     <use xlink:href="#DejaVuSans-72" transform="translate(1443.680013 0.765625)"/>
     <use xlink:href="#DejaVuSans-20" transform="translate(1484.793294 0.765625)"/>
     <use xlink:href="#DejaVuSans-Oblique-78" transform="translate(1516.580404 0.765625)"/>
     <use xlink:href="#DejaVuSans-2192" transform="translate(1595.242513 0.765625)"/>
     <use xlink:href="#DejaVuSans-30" transform="translate(1698.513997 0.765625)"/>
    </g>
   </g>
   <g id="legend_1">
    <g id="line2d_34">
     <path d="M 215.97375 181.936406 
L 226.97375 181.936406 
L 237.97375 181.936406 
" style="fill: none; stroke: #1f77b4; stroke-linecap: square"/>
    </g>
    <g id="text_18">
     <!-- $x^2\sin(1/x)$ -->
     <g transform="translate(246.77375 185.786406) scale(0.11 -0.11)">
      <use xlink:href="#DejaVuSans-Oblique-78" transform="translate(0 0.765625)"/>
      <use xlink:href="#DejaVuSans-32" transform="translate(63.645833 39.046875) scale(0.7)"/>
      <use xlink:href="#DejaVuSans-73" transform="translate(110.916341 0.765625)"/>
      <use xlink:href="#DejaVuSans-69" transform="translate(163.015951 0.765625)"/>
      <use xlink:href="#DejaVuSans-6e" transform="translate(190.799154 0.765625)"/>
      <use xlink:href="#DejaVuSans-28" transform="translate(254.17806 0.765625)"/>
      <use xlink:href="#DejaVuSans-31" transform="translate(293.191732 0.765625)"/>
      <use xlink:href="#DejaVuSans-2f" transform="translate(356.814779 0.765625)"/>
      <use xlink:href="#DejaVuSans-Oblique-78" transform="translate(390.506185 0.765625)"/>
      <use xlink:href="#DejaVuSans-29" transform="translate(449.685872 0.765625)"/>
     </g>
    </g>
    <g id="line2d_35">
     <path d="M 215.97375 198.082344 
L 226.97375 198.082344 
L 237.97375 198.082344 
" style="fill: none; stroke-dasharray: 5.55,2.4; stroke-dashoffset: 0; stroke: #000000; stroke-opacity: 0.35; stroke-width: 1.5"/>
    </g>
    <g id="text_19">
     <!-- $\pm x^2$ -->
     <g transform="translate(246.77375 201.932344) scale(0.11 -0.11)">
      <defs>
       <path id="DejaVuSans-b1" d="M 2944 4013 
L 2944 2803 
L 4684 2803 
L 4684 2272 
L 2944 2272 
L 2944 1063 
L 2419 1063 
L 2419 2272 
L 678 2272 
L 678 2803 
L 2419 2803 
L 2419 4013 
L 2944 4013 
z
M 678 531 
L 4684 531 
L 4684 0 
L 678 0 
L 678 531 
z
" transform="scale(0.015625)"/>
      </defs>
      <use xlink:href="#DejaVuSans-b1" transform="translate(0 0.765625)"/>
      <use xlink:href="#DejaVuSans-Oblique-78" transform="translate(83.789062 0.765625)"/>
      <use xlink:href="#DejaVuSans-32" transform="translate(147.434896 39.046875) scale(0.7)"/>
     </g>
    </g>
   </g>
  </g>
 </g>
 <defs>
  <clipPath id="p9a28f24b4d">
   <rect x="67.6175" y="29.61" width="381.3025" height="184.51"/>
  </clipPath>
 </defs>
</svg>
