<?xml version="1.0" encoding="utf-8" standalone="no"?>
<!DOCTYPE svg PUBLIC "-//W3C//DTD SVG 1.1//EN"
  "http://www.w3.org/Graphics/SVG/1.1/DTD/svg11.dtd">
<svg xmlns:xlink="http://www.w3.org/1999/xlink" width="518.4pt" height="288pt" viewBox="0 0 518.4 288" xmlns="http://www.w3.org/2000/svg" version="1.1">
 <metadata>
  <rdf:RDF xmlns:dc="http://purl.org/dc/elements/1.1/" xmlns:cc="http://creativecommons.org/ns#" xmlns:rdf="http://www.w3.org/1999/02/22-rdf-syntax-ns#">
   <cc:Work>
    <dc:type rdf:resource="http://purl.org/dc/dcmitype/StillImage"/>
    <dc:date>2025-12-14T20:27:28.047054</dc:date>
    <dc:format>image/svg+xml</dc:format>
    <dc:creator>
     <cc:Agent>
      <dc:title>Matplotlib v3.8.2, https://matplotlib.org/</dc:title>
     </cc:Agent>
    </dc:creator>
   </cc:Work>
  </rdf:RDF>
 </metadata>
 <defs>
  <style type="text/css">*{stroke-linejoin: round; stroke-linecap: butt}</style>
 </defs>
 <g id="figure_1">
  <g id="patch_1">
   <path d="M 0 288 
L 518.4 288 
L 518.4 0 
L 0 0 
z
" style="fill: #ffffff"/>
  </g>
  <g id="axes_1">
   <g id="patch_2">
    <path d="M 45.5425 258.02 
L 499.545 258.02 
L 499.545 27.18 
L 45.5425 27.18 
z
" style="fill: #ffffff"/>
   </g>
   <g id="matplotlib.axis_1">
    <g id="xtick_1">
     <g id="line2d_1">
      <path d="M 45.5425 258.02 
L 45.5425 27.18 
" clip-path="url(#p68375afaf5)" style="fill: none; stroke: #b0b0b0; stroke-opacity: 0.25; stroke-width: 0.8; stroke-linecap: square"/>
     </g>
     <g id="line2d_2">
      <defs>
       <path id="m0ca4a80830" d="M 0 0 
L 0 3.5 
" style="stroke: #000000; stroke-width: 0.8"/>
      </defs>
      <g>
       <use xlink:href="#m0ca4a80830" x="45.5425" y="258.02" style="stroke: #000000; stroke-width: 0.8"/>
      </g>
     </g>
     <g id="text_1">
      <!-- −20 -->
      <g transform="translate(33.934922 273.378281) scale(0.11 -0.11)">
       <defs>
        <path id="DejaVuSans-2212" d="M 678 2272 
L 4684 2272 
L 4684 1741 
L 678 1741 
L 678 2272 
z
" transform="scale(0.015625)"/>
        <path id="DejaVuSans-32" d="M 1228 531 
L 3431 531 
L 3431 0 
L 469 0 
L 469 531 
Q 828 903 1448 1529 
Q 2069 2156 2228 2338 
Q 2531 2678 2651 2914 
Q 2772 3150 2772 3378 
Q 2772 3750 2511 3984 
Q 2250 4219 1831 4219 
Q 1534 4219 1204 4116 
Q 875 4013 500 3803 
L 500 4441 
Q 881 4594 1212 4672 
Q 1544 4750 1819 4750 
Q 2544 4750 2975 4387 
Q 3406 4025 3406 3419 
Q 3406 3131 3298 2873 
Q 3191 2616 2906 2266 
Q 2828 2175 2409 1742 
Q 1991 1309 1228 531 
z
" transform="scale(0.015625)"/>
        <path id="DejaVuSans-30" d="M 2034 4250 
Q 1547 4250 1301 3770 
Q 1056 3291 1056 2328 
Q 1056 1369 1301 889 
Q 1547 409 2034 409 
Q 2525 409 2770 889 
Q 3016 1369 3016 2328 
Q 3016 3291 2770 3770 
Q 2525 4250 2034 4250 
z
M 2034 4750 
Q 2819 4750 3233 4129 
Q 3647 3509 3647 2328 
Q 3647 1150 3233 529 
Q 2819 -91 2034 -91 
Q 1250 -91 836 529 
Q 422 1150 422 2328 
Q 422 3509 836 4129 
Q 1250 4750 2034 4750 
z
" transform="scale(0.015625)"/>
       </defs>
       <use xlink:href="#DejaVuSans-2212"/>
       <use xlink:href="#DejaVuSans-32" x="83.789062"/>
       <use xlink:href="#DejaVuSans-30" x="147.412109"/>
      </g>
     </g>
    </g>
    <g id="xtick_2">
     <g id="line2d_3">
      <path d="M 102.292812 258.02 
L 102.292812 27.18 
" clip-path="url(#p68375afaf5)" style="fill: none; stroke: #b0b0b0; stroke-opacity: 0.25; stroke-width: 0.8; stroke-linecap: square"/>
     </g>
     <g id="line2d_4">
      <g>
       <use xlink:href="#m0ca4a80830" x="102.292812" y="258.02" style="stroke: #000000; stroke-width: 0.8"/>
      </g>
     </g>
     <g id="text_2">
      <!-- −15 -->
      <g transform="translate(90.685234 273.378281) scale(0.11 -0.11)">
       <defs>
        <path id="DejaVuSans-31" d="M 794 531 
L 1825 531 
L 1825 4091 
L 703 3866 
L 703 4441 
L 1819 4666 
L 2450 4666 
L 2450 531 
L 3481 531 
L 3481 0 
L 794 0 
L 794 531 
z
" transform="scale(0.015625)"/>
        <path id="DejaVuSans-35" d="M 691 4666 
L 3169 4666 
L 3169 4134 
L 1269 4134 
L 1269 2991 
Q 1406 3038 1543 3061 
Q 1681 3084 1819 3084 
Q 2600 3084 3056 2656 
Q 3513 2228 3513 1497 
Q 3513 744 3044 326 
Q 2575 -91 1722 -91 
Q 1428 -91 1123 -41 
Q 819 9 494 109 
L 494 744 
Q 775 591 1075 516 
Q 1375 441 1709 441 
Q 2250 441 2565 725 
Q 2881 1009 2881 1497 
Q 2881 1984 2565 2268 
Q 2250 2553 1709 2553 
Q 1456 2553 1204 2497 
Q 953 2441 691 2322 
L 691 4666 
z
" transform="scale(0.015625)"/>
       </defs>
       <use xlink:href="#DejaVuSans-2212"/>
       <use xlink:href="#DejaVuSans-31" x="83.789062"/>
       <use xlink:href="#DejaVuSans-35" x="147.412109"/>
      </g>
     </g>
    </g>
    <g id="xtick_3">
     <g id="line2d_5">
      <path d="M 159.043125 258.02 
L 159.043125 27.18 
" clip-path="url(#p68375afaf5)" style="fill: none; stroke: #b0b0b0; stroke-opacity: 0.25; stroke-width: 0.8; stroke-linecap: square"/>
     </g>
     <g id="line2d_6">
      <g>
       <use xlink:href="#m0ca4a80830" x="159.043125" y="258.02" style="stroke: #000000; stroke-width: 0.8"/>
      </g>
     </g>
     <g id="text_3">
      <!-- −10 -->
      <g transform="translate(147.435547 273.378281) scale(0.11 -0.11)">
       <use xlink:href="#DejaVuSans-2212"/>
       <use xlink:href="#DejaVuSans-31" x="83.789062"/>
       <use xlink:href="#DejaVuSans-30" x="147.412109"/>
      </g>
     </g>
    </g>
    <g id="xtick_4">
     <g id="line2d_7">
      <path d="M 215.793437 258.02 
L 215.793437 27.18 
" clip-path="url(#p68375afaf5)" style="fill: none; stroke: #b0b0b0; stroke-opacity: 0.25; stroke-width: 0.8; stroke-linecap: square"/>
     </g>
     <g id="line2d_8">
      <g>
       <use xlink:href="#m0ca4a80830" x="215.793437" y="258.02" style="stroke: #000000; stroke-width: 0.8"/>
      </g>
     </g>
     <g id="text_4">
      <!-- −5 -->
      <g transform="translate(207.685234 273.378281) scale(0.11 -0.11)">
       <use xlink:href="#DejaVuSans-2212"/>
       <use xlink:href="#DejaVuSans-35" x="83.789062"/>
      </g>
     </g>
    </g>
    <g id="xtick_5">
     <g id="line2d_9">
      <path d="M 272.54375 258.02 
L 272.54375 27.18 
" clip-path="url(#p68375afaf5)" style="fill: none; stroke: #b0b0b0; stroke-opacity: 0.25; stroke-width: 0.8; stroke-linecap: square"/>
     </g>
     <g id="line2d_10">
      <g>
       <use xlink:href="#m0ca4a80830" x="272.54375" y="258.02" style="stroke: #000000; stroke-width: 0.8"/>
      </g>
     </g>
     <g id="text_5">
      <!-- 0 -->
      <g transform="translate(269.044375 273.378281) scale(0.11 -0.11)">
       <use xlink:href="#DejaVuSans-30"/>
      </g>
     </g>
    </g>
    <g id="xtick_6">
     <g id="line2d_11">
      <path d="M 329.294062 258.02 
L 329.294062 27.18 
" clip-path="url(#p68375afaf5)" style="fill: none; stroke: #b0b0b0; stroke-opacity: 0.25; stroke-width: 0.8; stroke-linecap: square"/>
     </g>
     <g id="line2d_12">
      <g>
       <use xlink:href="#m0ca4a80830" x="329.294062" y="258.02" style="stroke: #000000; stroke-width: 0.8"/>
      </g>
     </g>
     <g id="text_6">
      <!-- 5 -->
      <g transform="translate(325.794688 273.378281) scale(0.11 -0.11)">
       <use xlink:href="#DejaVuSans-35"/>
      </g>
     </g>
    </g>
    <g id="xtick_7">
     <g id="line2d_13">
      <path d="M 386.044375 258.02 
L 386.044375 27.18 
" clip-path="url(#p68375afaf5)" style="fill: none; stroke: #b0b0b0; stroke-opacity: 0.25; stroke-width: 0.8; stroke-linecap: square"/>
     </g>
     <g id="line2d_14">
      <g>
       <use xlink:href="#m0ca4a80830" x="386.044375" y="258.02" style="stroke: #000000; stroke-width: 0.8"/>
      </g>
     </g>
     <g id="text_7">
      <!-- 10 -->
      <g transform="translate(379.045625 273.378281) scale(0.11 -0.11)">
       <use xlink:href="#DejaVuSans-31"/>
       <use xlink:href="#DejaVuSans-30" x="63.623047"/>
      </g>
     </g>
    </g>
    <g id="xtick_8">
     <g id="line2d_15">
      <path d="M 442.794688 258.02 
L 442.794688 27.18 
" clip-path="url(#p68375afaf5)" style="fill: none; stroke: #b0b0b0; stroke-opacity: 0.25; stroke-width: 0.8; stroke-linecap: square"/>
     </g>
     <g id="line2d_16">
      <g>
       <use xlink:href="#m0ca4a80830" x="442.794688" y="258.02" style="stroke: #000000; stroke-width: 0.8"/>
      </g>
     </g>
     <g id="text_8">
      <!-- 15 -->
      <g transform="translate(435.795938 273.378281) scale(0.11 -0.11)">
       <use xlink:href="#DejaVuSans-31"/>
       <use xlink:href="#DejaVuSans-35" x="63.623047"/>
      </g>
     </g>
    </g>
    <g id="xtick_9">
     <g id="line2d_17">
      <path d="M 499.545 258.02 
L 499.545 27.18 
" clip-path="url(#p68375afaf5)" style="fill: none; stroke: #b0b0b0; stroke-opacity: 0.25; stroke-width: 0.8; stroke-linecap: square"/>
     </g>
     <g id="line2d_18">
      <g>
       <use xlink:href="#m0ca4a80830" x="499.545" y="258.02" style="stroke: #000000; stroke-width: 0.8"/>
      </g>
     </g>
     <g id="text_9">
      <!-- 20 -->
      <g transform="translate(492.54625 273.378281) scale(0.11 -0.11)">
       <use xlink:href="#DejaVuSans-32"/>
       <use xlink:href="#DejaVuSans-30" x="63.623047"/>
      </g>
     </g>
    </g>
   </g>
   <g id="matplotlib.axis_2">
    <g id="ytick_1">
     <g id="line2d_19">
      <path d="M 45.5425 258.02 
L 499.545 258.02 
" clip-path="url(#p68375afaf5)" style="fill: none; stroke: #b0b0b0; stroke-opacity: 0.25; stroke-width: 0.8; stroke-linecap: square"/>
     </g>
     <g id="line2d_20">
      <defs>
       <path id="mc9d64ae8d4" d="M 0 0 
L -3.5 0 
" style="stroke: #000000; stroke-width: 0.8"/>
      </defs>
      <g>
       <use xlink:href="#mc9d64ae8d4" x="45.5425" y="258.02" style="stroke: #000000; stroke-width: 0.8"/>
      </g>
     </g>
     <g id="text_10">
      <!-- −0.4 -->
      <g transform="translate(11.831406 262.199141) scale(0.11 -0.11)">
       <defs>
        <path id="DejaVuSans-2e" d="M 684 794 
L 1344 794 
L 1344 0 
L 684 0 
L 684 794 
z
" transform="scale(0.015625)"/>
        <path id="DejaVuSans-34" d="M 2419 4116 
L 825 1625 
L 2419 1625 
L 2419 4116 
z
M 2253 4666 
L 3047 4666 
L 3047 1625 
L 3713 1625 
L 3713 1100 
L 3047 1100 
L 3047 0 
L 2419 0 
L 2419 1100 
L 313 1100 
L 313 1709 
L 2253 4666 
z
" transform="scale(0.015625)"/>
       </defs>
       <use xlink:href="#DejaVuSans-2212"/>
       <use xlink:href="#DejaVuSans-30" x="83.789062"/>
       <use xlink:href="#DejaVuSans-2e" x="147.412109"/>
       <use xlink:href="#DejaVuSans-34" x="179.199219"/>
      </g>
     </g>
    </g>
    <g id="ytick_2">
     <g id="line2d_21">
      <path d="M 45.5425 229.165 
L 499.545 229.165 
" clip-path="url(#p68375afaf5)" style="fill: none; stroke: #b0b0b0; stroke-opacity: 0.25; stroke-width: 0.8; stroke-linecap: square"/>
     </g>
     <g id="line2d_22">
      <g>
       <use xlink:href="#mc9d64ae8d4" x="45.5425" y="229.165" style="stroke: #000000; stroke-width: 0.8"/>
      </g>
     </g>
     <g id="text_11">
      <!-- −0.2 -->
      <g transform="translate(11.831406 233.344141) scale(0.11 -0.11)">
       <use xlink:href="#DejaVuSans-2212"/>
       <use xlink:href="#DejaVuSans-30" x="83.789062"/>
       <use xlink:href="#DejaVuSans-2e" x="147.412109"/>
       <use xlink:href="#DejaVuSans-32" x="179.199219"/>
      </g>
     </g>
    </g>
    <g id="ytick_3">
     <g id="line2d_23">
      <path d="M 45.5425 200.31 
L 499.545 200.31 
" clip-path="url(#p68375afaf5)" style="fill: none; stroke: #b0b0b0; stroke-opacity: 0.25; stroke-width: 0.8; stroke-linecap: square"/>
     </g>
     <g id="line2d_24">
      <g>
       <use xlink:href="#mc9d64ae8d4" x="45.5425" y="200.31" style="stroke: #000000; stroke-width: 0.8"/>
      </g>
     </g>
     <g id="text_12">
      <!-- 0.0 -->
      <g transform="translate(21.049063 204.489141) scale(0.11 -0.11)">
       <use xlink:href="#DejaVuSans-30"/>
       <use xlink:href="#DejaVuSans-2e" x="63.623047"/>
       <use xlink:href="#DejaVuSans-30" x="95.410156"/>
      </g>
     </g>
    </g>
    <g id="ytick_4">
     <g id="line2d_25">
      <path d="M 45.5425 171.455 
L 499.545 171.455 
" clip-path="url(#p68375afaf5)" style="fill: none; stroke: #b0b0b0; stroke-opacity: 0.25; stroke-width: 0.8; stroke-linecap: square"/>
     </g>
     <g id="line2d_26">
      <g>
       <use xlink:href="#mc9d64ae8d4" x="45.5425" y="171.455" style="stroke: #000000; stroke-width: 0.8"/>
      </g>
     </g>
     <g id="text_13">
      <!-- 0.2 -->
      <g transform="translate(21.049063 175.634141) scale(0.11 -0.11)">
       <use xlink:href="#DejaVuSans-30"/>
       <use xlink:href="#DejaVuSans-2e" x="63.623047"/>
       <use xlink:href="#DejaVuSans-32" x="95.410156"/>
      </g>
     </g>
    </g>
    <g id="ytick_5">
     <g id="line2d_27">
      <path d="M 45.5425 142.6 
L 499.545 142.6 
" clip-path="url(#p68375afaf5)" style="fill: none; stroke: #b0b0b0; stroke-opacity: 0.25; stroke-width: 0.8; stroke-linecap: square"/>
     </g>
     <g id="line2d_28">
      <g>
       <use xlink:href="#mc9d64ae8d4" x="45.5425" y="142.6" style="stroke: #000000; stroke-width: 0.8"/>
      </g>
     </g>
     <g id="text_14">
      <!-- 0.4 -->
      <g transform="translate(21.049063 146.779141) scale(0.11 -0.11)">
       <use xlink:href="#DejaVuSans-30"/>
       <use xlink:href="#DejaVuSans-2e" x="63.623047"/>
       <use xlink:href="#DejaVuSans-34" x="95.410156"/>
      </g>
     </g>
    </g>
    <g id="ytick_6">
     <g id="line2d_29">
      <path d="M 45.5425 113.745 
L 499.545 113.745 
" clip-path="url(#p68375afaf5)" style="fill: none; stroke: #b0b0b0; stroke-opacity: 0.25; stroke-width: 0.8; stroke-linecap: square"/>
     </g>
     <g id="line2d_30">
      <g>
       <use xlink:href="#mc9d64ae8d4" x="45.5425" y="113.745" style="stroke: #000000; stroke-width: 0.8"/>
      </g>
     </g>
     <g id="text_15">
      <!-- 0.6 -->
      <g transform="translate(21.049063 117.924141) scale(0.11 -0.11)">
       <defs>
        <path id="DejaVuSans-36" d="M 2113 2584 
Q 1688 2584 1439 2293 
Q 1191 2003 1191 1497 
Q 1191 994 1439 701 
Q 1688 409 2113 409 
Q 2538 409 2786 701 
Q 3034 994 3034 1497 
Q 3034 2003 2786 2293 
Q 2538 2584 2113 2584 
z
M 3366 4563 
L 3366 3988 
Q 3128 4100 2886 4159 
Q 2644 4219 2406 4219 
Q 1781 4219 1451 3797 
Q 1122 3375 1075 2522 
Q 1259 2794 1537 2939 
Q 1816 3084 2150 3084 
Q 2853 3084 3261 2657 
Q 3669 2231 3669 1497 
Q 3669 778 3244 343 
Q 2819 -91 2113 -91 
Q 1303 -91 875 529 
Q 447 1150 447 2328 
Q 447 3434 972 4092 
Q 1497 4750 2381 4750 
Q 2619 4750 2861 4703 
Q 3103 4656 3366 4563 
z
" transform="scale(0.015625)"/>
       </defs>
       <use xlink:href="#DejaVuSans-30"/>
       <use xlink:href="#DejaVuSans-2e" x="63.623047"/>
       <use xlink:href="#DejaVuSans-36" x="95.410156"/>
      </g>
     </g>
    </g>
    <g id="ytick_7">
     <g id="line2d_31">
      <path d="M 45.5425 84.89 
L 499.545 84.89 
" clip-path="url(#p68375afaf5)" style="fill: none; stroke: #b0b0b0; stroke-opacity: 0.25; stroke-width: 0.8; stroke-linecap: square"/>
     </g>
     <g id="line2d_32">
      <g>
       <use xlink:href="#mc9d64ae8d4" x="45.5425" y="84.89" style="stroke: #000000; stroke-width: 0.8"/>
      </g>
     </g>
     <g id="text_16">
      <!-- 0.8 -->
      <g transform="translate(21.049063 89.069141) scale(0.11 -0.11)">
       <defs>
        <path id="DejaVuSans-38" d="M 2034 2216 
Q 1584 2216 1326 1975 
Q 1069 1734 1069 1313 
Q 1069 891 1326 650 
Q 1584 409 2034 409 
Q 2484 409 2743 651 
Q 3003 894 3003 1313 
Q 3003 1734 2745 1975 
Q 2488 2216 2034 2216 
z
M 1403 2484 
Q 997 2584 770 2862 
Q 544 3141 544 3541 
Q 544 4100 942 4425 
Q 1341 4750 2034 4750 
Q 2731 4750 3128 4425 
Q 3525 4100 3525 3541 
Q 3525 3141 3298 2862 
Q 3072 2584 2669 2484 
Q 3125 2378 3379 2068 
Q 3634 1759 3634 1313 
Q 3634 634 3220 271 
Q 2806 -91 2034 -91 
Q 1263 -91 848 271 
Q 434 634 434 1313 
Q 434 1759 690 2068 
Q 947 2378 1403 2484 
z
M 1172 3481 
Q 1172 3119 1398 2916 
Q 1625 2713 2034 2713 
Q 2441 2713 2670 2916 
Q 2900 3119 2900 3481 
Q 2900 3844 2670 4047 
Q 2441 4250 2034 4250 
Q 1625 4250 1398 4047 
Q 1172 3844 1172 3481 
z
" transform="scale(0.015625)"/>
       </defs>
       <use xlink:href="#DejaVuSans-30"/>
       <use xlink:href="#DejaVuSans-2e" x="63.623047"/>
       <use xlink:href="#DejaVuSans-38" x="95.410156"/>
      </g>
     </g>
    </g>
    <g id="ytick_8">
     <g id="line2d_33">
      <path d="M 45.5425 56.035 
L 499.545 56.035 
" clip-path="url(#p68375afaf5)" style="fill: none; stroke: #b0b0b0; stroke-opacity: 0.25; stroke-width: 0.8; stroke-linecap: square"/>
     </g>
     <g id="line2d_34">
      <g>
       <use xlink:href="#mc9d64ae8d4" x="45.5425" y="56.035" style="stroke: #000000; stroke-width: 0.8"/>
      </g>
     </g>
     <g id="text_17">
      <!-- 1.0 -->
      <g transform="translate(21.049063 60.214141) scale(0.11 -0.11)">
       <use xlink:href="#DejaVuSans-31"/>
       <use xlink:href="#DejaVuSans-2e" x="63.623047"/>
       <use xlink:href="#DejaVuSans-30" x="95.410156"/>
      </g>
     </g>
    </g>
    <g id="ytick_9">
     <g id="line2d_35">
      <path d="M 45.5425 27.18 
L 499.545 27.18 
" clip-path="url(#p68375afaf5)" style="fill: none; stroke: #b0b0b0; stroke-opacity: 0.25; stroke-width: 0.8; stroke-linecap: square"/>
     </g>
     <g id="line2d_36">
      <g>
       <use xlink:href="#mc9d64ae8d4" x="45.5425" y="27.18" style="stroke: #000000; stroke-width: 0.8"/>
      </g>
     </g>
     <g id="text_18">
      <!-- 1.2 -->
      <g transform="translate(21.049063 31.359141) scale(0.11 -0.11)">
       <use xlink:href="#DejaVuSans-31"/>
       <use xlink:href="#DejaVuSans-2e" x="63.623047"/>
       <use xlink:href="#DejaVuSans-32" x="95.410156"/>
      </g>
     </g>
    </g>
   </g>
   <g id="line2d_37">
    <path d="M 45.5425 193.724241 
L 47.661532 194.32927 
L 49.856243 195.188967 
L 52.277993 196.379821 
L 55.078142 198.010708 
L 59.013486 200.589241 
L 65.219221 204.659483 
L 68.01937 206.217652 
L 70.36544 207.280954 
L 72.484472 208.005938 
L 74.452144 208.451493 
L 76.344137 208.656014 
L 78.160449 208.636373 
L 79.976762 208.401583 
L 81.868754 207.930377 
L 83.836426 207.204143 
L 85.879778 206.213017 
L 88.150169 204.861199 
L 90.798959 203.013127 
L 94.355904 200.230232 
L 101.242757 194.791142 
L 103.891546 193.023002 
L 106.086257 191.81521 
L 108.053929 190.976395 
L 109.870242 190.434853 
L 111.610875 190.143677 
L 113.275828 190.084833 
L 114.940782 190.246699 
L 116.605735 190.630487 
L 118.346368 191.265166 
L 120.162681 192.171618 
L 122.130353 193.415111 
L 124.249384 195.02431 
L 126.746814 197.215766 
L 130.001041 200.397432 
L 137.341972 207.682079 
L 139.763722 209.718322 
L 141.807074 211.160994 
L 143.623387 212.184232 
L 145.28834 212.878227 
L 146.877614 213.302916 
L 148.391208 213.478179 
L 149.829122 213.429515 
L 151.267036 213.16692 
L 152.78063 212.658426 
L 154.294224 211.914833 
L 155.883498 210.88883 
L 157.624131 209.492332 
L 159.516123 207.678414 
L 161.635155 205.329072 
L 164.208264 202.121687 
L 167.992249 196.995356 
L 172.76007 190.597787 
L 175.2575 187.627249 
L 177.225172 185.611152 
L 178.965805 184.129752 
L 180.555079 183.065067 
L 181.992993 182.364771 
L 183.355228 181.949821 
L 184.641782 181.792231 
L 185.852658 181.859852 
L 187.063533 182.142153 
L 188.350088 182.680622 
L 189.636642 183.465586 
L 190.998877 184.562966 
L 192.436791 186.011546 
L 194.026065 187.945091 
L 195.766698 190.436877 
L 197.65869 193.543878 
L 199.853401 197.586004 
L 202.65355 203.24258 
L 211.129676 220.729093 
L 213.173028 224.266471 
L 214.913661 226.851404 
L 216.427255 228.710661 
L 217.71381 229.966473 
L 218.924685 230.847973 
L 219.984201 231.362001 
L 220.968037 231.611438 
L 221.951873 231.630965 
L 222.935709 231.411417 
L 223.919545 230.944721 
L 224.903381 230.223965 
L 225.962897 229.157136 
L 227.098092 227.673653 
L 228.308967 225.698246 
L 229.595522 223.152328 
L 230.957757 219.955929 
L 232.471351 215.808168 
L 234.060624 210.795139 
L 235.801257 204.564791 
L 237.768929 196.652538 
L 239.963641 186.84967 
L 242.461071 174.636538 
L 245.563938 158.2973 
L 256.688854 98.585397 
L 259.034924 87.764839 
L 261.078276 79.350379 
L 262.894589 72.796584 
L 264.483862 67.858465 
L 265.921777 64.08181 
L 267.208331 61.290096 
L 268.343527 59.305498 
L 269.403043 57.869152 
L 270.386879 56.901777 
L 271.295035 56.325875 
L 272.127512 56.067337 
L 272.884309 56.056647 
L 273.641106 56.259665 
L 274.473582 56.729152 
L 275.306059 57.455043 
L 276.214215 58.53658 
L 277.273731 60.174903 
L 278.408926 62.370853 
L 279.619802 65.201035 
L 280.982036 68.963308 
L 282.49563 73.823703 
L 284.160583 79.937519 
L 286.052576 87.764839 
L 288.247287 97.854648 
L 290.820397 110.782923 
L 294.301663 129.51371 
L 302.39939 173.479088 
L 305.123859 186.84967 
L 307.46993 197.292049 
L 309.513282 205.419738 
L 311.405274 212.048526 
L 313.070228 217.117614 
L 314.659501 221.259889 
L 316.097415 224.407805 
L 317.45965 226.859535 
L 318.670525 228.606292 
L 319.805721 229.877856 
L 320.865236 230.750298 
L 321.849072 231.294486 
L 322.832908 231.589273 
L 323.816744 231.64238 
L 324.800581 231.462645 
L 325.784417 231.059954 
L 326.843932 230.38942 
L 328.054807 229.340851 
L 329.341362 227.922395 
L 330.779277 226.002791 
L 332.44423 223.396651 
L 334.411902 219.882235 
L 336.909332 214.931047 
L 341.525793 205.154132 
L 345.082739 197.879389 
L 347.504489 193.41235 
L 349.547841 190.090921 
L 351.364154 187.5508 
L 353.029107 185.602011 
L 354.542701 184.167044 
L 355.980616 183.112583 
L 357.34285 182.3965 
L 358.629405 181.973929 
L 359.84028 181.799478 
L 361.051155 181.8374 
L 362.33771 182.103438 
L 363.699945 182.627789 
L 365.137859 183.436115 
L 366.651453 184.547565 
L 368.316406 186.046536 
L 370.208398 188.050854 
L 372.478789 190.789493 
L 375.581657 194.911311 
L 382.31715 203.954837 
L 384.81458 206.874863 
L 386.933611 209.014063 
L 388.825604 210.60883 
L 390.566237 211.783399 
L 392.155511 212.594562 
L 393.669104 213.126766 
L 395.182698 213.42105 
L 396.620613 213.480898 
L 398.134207 213.317081 
L 399.6478 212.928945 
L 401.237074 212.293169 
L 402.977707 211.34954 
L 404.8697 210.063058 
L 407.064411 208.285321 
L 409.7132 205.833555 
L 413.951263 201.553945 
L 418.340686 197.215766 
L 420.989475 194.901013 
L 423.259866 193.207175 
L 425.227538 192.003863 
L 427.043851 191.137982 
L 428.784484 190.544295 
L 430.449437 190.200736 
L 432.11439 190.079225 
L 433.779344 190.177708 
L 435.519977 190.508679 
L 437.336289 191.089026 
L 439.228282 191.927581 
L 441.347313 193.115674 
L 443.769064 194.736758 
L 446.871931 197.100181 
L 456.029174 204.256564 
L 458.526604 205.833347 
L 460.721316 206.96945 
L 462.764667 207.783677 
L 464.73234 208.325667 
L 466.624332 208.612197 
L 468.440645 208.6676 
L 470.332637 208.49931 
L 472.22463 208.10933 
L 474.267981 207.456366 
L 476.462693 206.515749 
L 478.960123 205.19392 
L 482.06299 203.280067 
L 493.036546 196.25856 
L 495.533976 195.057197 
L 497.804367 194.204408 
L 499.545 193.724241 
L 499.545 193.724241 
" clip-path="url(#p68375afaf5)" style="fill: none; stroke: #1f77b4; stroke-width: 1.5; stroke-linecap: square"/>
   </g>
   <g id="line2d_38">
    <path d="M 45.5425 200.31 
L 499.545 200.31 
" clip-path="url(#p68375afaf5)" style="fill: none; stroke: #000000; stroke-opacity: 0.25; stroke-linecap: square"/>
   </g>
   <g id="line2d_39">
    <path d="M 272.54375 258.02 
L 272.54375 27.18 
" clip-path="url(#p68375afaf5)" style="fill: none; stroke: #000000; stroke-opacity: 0.25; stroke-linecap: square"/>
   </g>
   <g id="line2d_40">
    <path d="M 45.5425 200.31 
L 499.545 200.31 
" clip-path="url(#p68375afaf5)" style="fill: none; stroke-dasharray: 5.55,2.4; stroke-dashoffset: 0; stroke: #000000; stroke-opacity: 0.25; stroke-width: 1.5"/>
   </g>
   <g id="patch_3">
    <path d="M 45.5425 258.02 
L 45.5425 27.18 
" style="fill: none; stroke: #000000; stroke-width: 0.8; stroke-linejoin: miter; stroke-linecap: square"/>
   </g>
   <g id="patch_4">
    <path d="M 45.5425 258.02 
L 499.545 258.02 
" style="fill: none; stroke: #000000; stroke-width: 0.8; stroke-linejoin: miter; stroke-linecap: square"/>
   </g>
   <g id="text_19">
    <!-- Studio 09: $\sin x/x$ estesa in $0$ -->
    <g transform="translate(186.56375 21.18) scale(0.12 -0.12)">
     <defs>
      <path id="DejaVuSans-53" d="M 3425 4513 
L 3425 3897 
Q 3066 4069 2747 4153 
Q 2428 4238 2131 4238 
Q 1616 4238 1336 4038 
Q 1056 3838 1056 3469 
Q 1056 3159 1242 3001 
Q 1428 2844 1947 2747 
L 2328 2669 
Q 3034 2534 3370 2195 
Q 3706 1856 3706 1288 
Q 3706 609 3251 259 
Q 2797 -91 1919 -91 
Q 1588 -91 1214 -16 
Q 841 59 441 206 
L 441 856 
Q 825 641 1194 531 
Q 1563 422 1919 422 
Q 2459 422 2753 634 
Q 3047 847 3047 1241 
Q 3047 1584 2836 1778 
Q 2625 1972 2144 2069 
L 1759 2144 
Q 1053 2284 737 2584 
Q 422 2884 422 3419 
Q 422 4038 858 4394 
Q 1294 4750 2059 4750 
Q 2388 4750 2728 4690 
Q 3069 4631 3425 4513 
z
" transform="scale(0.015625)"/>
      <path id="DejaVuSans-74" d="M 1172 4494 
L 1172 3500 
L 2356 3500 
L 2356 3053 
L 1172 3053 
L 1172 1153 
Q 1172 725 1289 603 
Q 1406 481 1766 481 
L 2356 481 
L 2356 0 
L 1766 0 
Q 1100 0 847 248 
Q 594 497 594 1153 
L 594 3053 
L 172 3053 
L 172 3500 
L 594 3500 
L 594 4494 
L 1172 4494 
z
" transform="scale(0.015625)"/>
      <path id="DejaVuSans-75" d="M 544 1381 
L 544 3500 
L 1119 3500 
L 1119 1403 
Q 1119 906 1312 657 
Q 1506 409 1894 409 
Q 2359 409 2629 706 
Q 2900 1003 2900 1516 
L 2900 3500 
L 3475 3500 
L 3475 0 
L 2900 0 
L 2900 538 
Q 2691 219 2414 64 
Q 2138 -91 1772 -91 
Q 1169 -91 856 284 
Q 544 659 544 1381 
z
M 1991 3584 
L 1991 3584 
z
" transform="scale(0.015625)"/>
      <path id="DejaVuSans-64" d="M 2906 2969 
L 2906 4863 
L 3481 4863 
L 3481 0 
L 2906 0 
L 2906 525 
Q 2725 213 2448 61 
Q 2172 -91 1784 -91 
Q 1150 -91 751 415 
Q 353 922 353 1747 
Q 353 2572 751 3078 
Q 1150 3584 1784 3584 
Q 2172 3584 2448 3432 
Q 2725 3281 2906 2969 
z
M 947 1747 
Q 947 1113 1208 752 
Q 1469 391 1925 391 
Q 2381 391 2643 752 
Q 2906 1113 2906 1747 
Q 2906 2381 2643 2742 
Q 2381 3103 1925 3103 
Q 1469 3103 1208 2742 
Q 947 2381 947 1747 
z
" transform="scale(0.015625)"/>
      <path id="DejaVuSans-69" d="M 603 3500 
L 1178 3500 
L 1178 0 
L 603 0 
L 603 3500 
z
M 603 4863 
L 1178 4863 
L 1178 4134 
L 603 4134 
L 603 4863 
z
" transform="scale(0.015625)"/>
      <path id="DejaVuSans-6f" d="M 1959 3097 
Q 1497 3097 1228 2736 
Q 959 2375 959 1747 
Q 959 1119 1226 758 
Q 1494 397 1959 397 
Q 2419 397 2687 759 
Q 2956 1122 2956 1747 
Q 2956 2369 2687 2733 
Q 2419 3097 1959 3097 
z
M 1959 3584 
Q 2709 3584 3137 3096 
Q 3566 2609 3566 1747 
Q 3566 888 3137 398 
Q 2709 -91 1959 -91 
Q 1206 -91 779 398 
Q 353 888 353 1747 
Q 353 2609 779 3096 
Q 1206 3584 1959 3584 
z
" transform="scale(0.015625)"/>
      <path id="DejaVuSans-20" transform="scale(0.015625)"/>
      <path id="DejaVuSans-39" d="M 703 97 
L 703 672 
Q 941 559 1184 500 
Q 1428 441 1663 441 
Q 2288 441 2617 861 
Q 2947 1281 2994 2138 
Q 2813 1869 2534 1725 
Q 2256 1581 1919 1581 
Q 1219 1581 811 2004 
Q 403 2428 403 3163 
Q 403 3881 828 4315 
Q 1253 4750 1959 4750 
Q 2769 4750 3195 4129 
Q 3622 3509 3622 2328 
Q 3622 1225 3098 567 
Q 2575 -91 1691 -91 
Q 1453 -91 1209 -44 
Q 966 3 703 97 
z
M 1959 2075 
Q 2384 2075 2632 2365 
Q 2881 2656 2881 3163 
Q 2881 3666 2632 3958 
Q 2384 4250 1959 4250 
Q 1534 4250 1286 3958 
Q 1038 3666 1038 3163 
Q 1038 2656 1286 2365 
Q 1534 2075 1959 2075 
z
" transform="scale(0.015625)"/>
      <path id="DejaVuSans-3a" d="M 750 794 
L 1409 794 
L 1409 0 
L 750 0 
L 750 794 
z
M 750 3309 
L 1409 3309 
L 1409 2516 
L 750 2516 
L 750 3309 
z
" transform="scale(0.015625)"/>
      <path id="DejaVuSans-73" d="M 2834 3397 
L 2834 2853 
Q 2591 2978 2328 3040 
Q 2066 3103 1784 3103 
Q 1356 3103 1142 2972 
Q 928 2841 928 2578 
Q 928 2378 1081 2264 
Q 1234 2150 1697 2047 
L 1894 2003 
Q 2506 1872 2764 1633 
Q 3022 1394 3022 966 
Q 3022 478 2636 193 
Q 2250 -91 1575 -91 
Q 1294 -91 989 -36 
Q 684 19 347 128 
L 347 722 
Q 666 556 975 473 
Q 1284 391 1588 391 
Q 1994 391 2212 530 
Q 2431 669 2431 922 
Q 2431 1156 2273 1281 
Q 2116 1406 1581 1522 
L 1381 1569 
Q 847 1681 609 1914 
Q 372 2147 372 2553 
Q 372 3047 722 3315 
Q 1072 3584 1716 3584 
Q 2034 3584 2315 3537 
Q 2597 3491 2834 3397 
z
" transform="scale(0.015625)"/>
      <path id="DejaVuSans-6e" d="M 3513 2113 
L 3513 0 
L 2938 0 
L 2938 2094 
Q 2938 2591 2744 2837 
Q 2550 3084 2163 3084 
Q 1697 3084 1428 2787 
Q 1159 2491 1159 1978 
L 1159 0 
L 581 0 
L 581 3500 
L 1159 3500 
L 1159 2956 
Q 1366 3272 1645 3428 
Q 1925 3584 2291 3584 
Q 2894 3584 3203 3211 
Q 3513 2838 3513 2113 
z
" transform="scale(0.015625)"/>
      <path id="DejaVuSans-Oblique-78" d="M 3841 3500 
L 2234 1784 
L 3219 0 
L 2559 0 
L 1819 1388 
L 531 0 
L -166 0 
L 1556 1844 
L 641 3500 
L 1300 3500 
L 1972 2234 
L 3144 3500 
L 3841 3500 
z
" transform="scale(0.015625)"/>
      <path id="DejaVuSans-2f" d="M 1625 4666 
L 2156 4666 
L 531 -594 
L 0 -594 
L 1625 4666 
z
" transform="scale(0.015625)"/>
      <path id="DejaVuSans-65" d="M 3597 1894 
L 3597 1613 
L 953 1613 
Q 991 1019 1311 708 
Q 1631 397 2203 397 
Q 2534 397 2845 478 
Q 3156 559 3463 722 
L 3463 178 
Q 3153 47 2828 -22 
Q 2503 -91 2169 -91 
Q 1331 -91 842 396 
Q 353 884 353 1716 
Q 353 2575 817 3079 
Q 1281 3584 2069 3584 
Q 2775 3584 3186 3129 
Q 3597 2675 3597 1894 
z
M 3022 2063 
Q 3016 2534 2758 2815 
Q 2500 3097 2075 3097 
Q 1594 3097 1305 2825 
Q 1016 2553 972 2059 
L 3022 2063 
z
" transform="scale(0.015625)"/>
      <path id="DejaVuSans-61" d="M 2194 1759 
Q 1497 1759 1228 1600 
Q 959 1441 959 1056 
Q 959 750 1161 570 
Q 1363 391 1709 391 
Q 2188 391 2477 730 
Q 2766 1069 2766 1631 
L 2766 1759 
L 2194 1759 
z
M 3341 1997 
L 3341 0 
L 2766 0 
L 2766 531 
Q 2569 213 2275 61 
Q 1981 -91 1556 -91 
Q 1019 -91 701 211 
Q 384 513 384 1019 
Q 384 1609 779 1909 
Q 1175 2209 1959 2209 
L 2766 2209 
L 2766 2266 
Q 2766 2663 2505 2880 
Q 2244 3097 1772 3097 
Q 1472 3097 1187 3025 
Q 903 2953 641 2809 
L 641 3341 
Q 956 3463 1253 3523 
Q 1550 3584 1831 3584 
Q 2591 3584 2966 3190 
Q 3341 2797 3341 1997 
z
" transform="scale(0.015625)"/>
     </defs>
     <use xlink:href="#DejaVuSans-53" transform="translate(0 0.015625)"/>
     <use xlink:href="#DejaVuSans-74" transform="translate(63.476562 0.015625)"/>
     <use xlink:href="#DejaVuSans-75" transform="translate(102.685547 0.015625)"/>
     <use xlink:href="#DejaVuSans-64" transform="translate(166.064453 0.015625)"/>
     <use xlink:href="#DejaVuSans-69" transform="translate(229.541016 0.015625)"/>
     <use xlink:href="#DejaVuSans-6f" transform="translate(257.324219 0.015625)"/>
     <use xlink:href="#DejaVuSans-20" transform="translate(318.505859 0.015625)"/>
     <use xlink:href="#DejaVuSans-30" transform="translate(350.292969 0.015625)"/>
     <use xlink:href="#DejaVuSans-39" transform="translate(413.916016 0.015625)"/>
     <use xlink:href="#DejaVuSans-3a" transform="translate(477.539062 0.015625)"/>
     <use xlink:href="#DejaVuSans-20" transform="translate(511.230469 0.015625)"/>
     <use xlink:href="#DejaVuSans-73" transform="translate(543.017578 0.015625)"/>
     <use xlink:href="#DejaVuSans-69" transform="translate(595.117188 0.015625)"/>
     <use xlink:href="#DejaVuSans-6e" transform="translate(622.900391 0.015625)"/>
     <use xlink:href="#DejaVuSans-Oblique-78" transform="translate(702.514973 0.015625)"/>
     <use xlink:href="#DejaVuSans-2f" transform="translate(761.694661 0.015625)"/>
     <use xlink:href="#DejaVuSans-Oblique-78" transform="translate(795.386067 0.015625)"/>
     <use xlink:href="#DejaVuSans-20" transform="translate(854.565754 0.015625)"/>
     <use xlink:href="#DejaVuSans-65" transform="translate(886.352864 0.015625)"/>
     <use xlink:href="#DejaVuSans-73" transform="translate(947.876301 0.015625)"/>
     <use xlink:href="#DejaVuSans-74" transform="translate(999.975911 0.015625)"/>
     <use xlink:href="#DejaVuSans-65" transform="translate(1039.184895 0.015625)"/>
     <use xlink:href="#DejaVuSans-73" transform="translate(1100.708333 0.015625)"/>
     <use xlink:href="#DejaVuSans-61" transform="translate(1152.807942 0.015625)"/>
     <use xlink:href="#DejaVuSans-20" transform="translate(1214.087239 0.015625)"/>
     <use xlink:href="#DejaVuSans-69" transform="translate(1245.874348 0.015625)"/>
     <use xlink:href="#DejaVuSans-6e" transform="translate(1273.657551 0.015625)"/>
     <use xlink:href="#DejaVuSans-20" transform="translate(1337.036458 0.015625)"/>
     <use xlink:href="#DejaVuSans-30" transform="translate(1368.823567 0.015625)"/>
    </g>
   </g>
   <g id="PathCollection_1">
    <defs>
     <path id="mfe8738ef6f" d="M 0 3.535534 
C 0.937635 3.535534 1.836992 3.163008 2.5 2.5 
C 3.163008 1.836992 3.535534 0.937635 3.535534 0 
C 3.535534 -0.937635 3.163008 -1.836992 2.5 -2.5 
C 1.836992 -3.163008 0.937635 -3.535534 0 -3.535534 
C -0.937635 -3.535534 -1.836992 -3.163008 -2.5 -2.5 
C -3.163008 -1.836992 -3.535534 -0.937635 -3.535534 0 
C -3.535534 0.937635 -3.163008 1.836992 -2.5 2.5 
C -1.836992 3.163008 -0.937635 3.535534 0 3.535534 
z
" style="stroke: #1f77b4"/>
    </defs>
    <g clip-path="url(#p68375afaf5)">
     <use xlink:href="#mfe8738ef6f" x="272.54375" y="56.035" style="fill: #1f77b4; stroke: #1f77b4"/>
    </g>
   </g>
   <g id="legend_1">
    <g id="line2d_41">
     <path d="M 316.725 41.588281 
L 327.725 41.588281 
L 338.725 41.588281 
" style="fill: none; stroke: #1f77b4; stroke-width: 1.5; stroke-linecap: square"/>
    </g>
    <g id="text_20">
     <!-- $f(x)=\sin x/x$ (con $f(0)=1$) -->
     <g transform="translate(347.525 45.438281) scale(0.11 -0.11)">
      <defs>
       <path id="DejaVuSans-Oblique-66" d="M 3059 4863 
L 2969 4384 
L 2419 4384 
Q 2106 4384 1964 4261 
Q 1822 4138 1753 3809 
L 1691 3500 
L 2638 3500 
L 2553 3053 
L 1606 3053 
L 1013 0 
L 434 0 
L 1031 3053 
L 481 3053 
L 563 3500 
L 1113 3500 
L 1159 3744 
Q 1278 4363 1576 4613 
Q 1875 4863 2516 4863 
L 3059 4863 
z
" transform="scale(0.015625)"/>
       <path id="DejaVuSans-28" d="M 1984 4856 
Q 1566 4138 1362 3434 
Q 1159 2731 1159 2009 
Q 1159 1288 1364 580 
Q 1569 -128 1984 -844 
L 1484 -844 
Q 1016 -109 783 600 
Q 550 1309 550 2009 
Q 550 2706 781 3412 
Q 1013 4119 1484 4856 
L 1984 4856 
z
" transform="scale(0.015625)"/>
       <path id="DejaVuSans-29" d="M 513 4856 
L 1013 4856 
Q 1481 4119 1714 3412 
Q 1947 2706 1947 2009 
Q 1947 1309 1714 600 
Q 1481 -109 1013 -844 
L 513 -844 
Q 928 -128 1133 580 
Q 1338 1288 1338 2009 
Q 1338 2731 1133 3434 
Q 928 4138 513 4856 
z
" transform="scale(0.015625)"/>
       <path id="DejaVuSans-3d" d="M 678 2906 
L 4684 2906 
L 4684 2381 
L 678 2381 
L 678 2906 
z
M 678 1631 
L 4684 1631 
L 4684 1100 
L 678 1100 
L 678 1631 
z
" transform="scale(0.015625)"/>
       <path id="DejaVuSans-63" d="M 3122 3366 
L 3122 2828 
Q 2878 2963 2633 3030 
Q 2388 3097 2138 3097 
Q 1578 3097 1268 2742 
Q 959 2388 959 1747 
Q 959 1106 1268 751 
Q 1578 397 2138 397 
Q 2388 397 2633 464 
Q 2878 531 3122 666 
L 3122 134 
Q 2881 22 2623 -34 
Q 2366 -91 2075 -91 
Q 1284 -91 818 406 
Q 353 903 353 1747 
Q 353 2603 823 3093 
Q 1294 3584 2113 3584 
Q 2378 3584 2631 3529 
Q 2884 3475 3122 3366 
z
" transform="scale(0.015625)"/>
      </defs>
      <use xlink:href="#DejaVuSans-Oblique-66" transform="translate(0 0.015625)"/>
      <use xlink:href="#DejaVuSans-28" transform="translate(35.205078 0.015625)"/>
      <use xlink:href="#DejaVuSans-Oblique-78" transform="translate(74.21875 0.015625)"/>
      <use xlink:href="#DejaVuSans-29" transform="translate(133.398438 0.015625)"/>
      <use xlink:href="#DejaVuSans-3d" transform="translate(191.894531 0.015625)"/>
      <use xlink:href="#DejaVuSans-73" transform="translate(295.166016 0.015625)"/>
      <use xlink:href="#DejaVuSans-69" transform="translate(347.265625 0.015625)"/>
      <use xlink:href="#DejaVuSans-6e" transform="translate(375.048828 0.015625)"/>
      <use xlink:href="#DejaVuSans-Oblique-78" transform="translate(454.663411 0.015625)"/>
      <use xlink:href="#DejaVuSans-2f" transform="translate(513.843098 0.015625)"/>
      <use xlink:href="#DejaVuSans-Oblique-78" transform="translate(547.534504 0.015625)"/>
      <use xlink:href="#DejaVuSans-20" transform="translate(606.714192 0.015625)"/>
      <use xlink:href="#DejaVuSans-28" transform="translate(638.501301 0.015625)"/>
      <use xlink:href="#DejaVuSans-63" transform="translate(677.514973 0.015625)"/>
      <use xlink:href="#DejaVuSans-6f" transform="translate(732.495442 0.015625)"/>
      <use xlink:href="#DejaVuSans-6e" transform="translate(793.677083 0.015625)"/>
      <use xlink:href="#DejaVuSans-20" transform="translate(857.055989 0.015625)"/>
      <use xlink:href="#DejaVuSans-Oblique-66" transform="translate(888.843098 0.015625)"/>
      <use xlink:href="#DejaVuSans-28" transform="translate(924.048176 0.015625)"/>
      <use xlink:href="#DejaVuSans-30" transform="translate(963.061848 0.015625)"/>
      <use xlink:href="#DejaVuSans-29" transform="translate(1026.684895 0.015625)"/>
      <use xlink:href="#DejaVuSans-3d" transform="translate(1085.180989 0.015625)"/>
      <use xlink:href="#DejaVuSans-31" transform="translate(1188.452473 0.015625)"/>
      <use xlink:href="#DejaVuSans-29" transform="translate(1252.07552 0.015625)"/>
     </g>
    </g>
    <g id="line2d_42">
     <path d="M 316.725 57.735937 
L 327.725 57.735937 
L 338.725 57.735937 
" style="fill: none; stroke-dasharray: 5.55,2.4; stroke-dashoffset: 0; stroke: #000000; stroke-opacity: 0.25; stroke-width: 1.5"/>
    </g>
    <g id="text_21">
     <!-- asintoto $y=0$ -->
     <g transform="translate(347.525 61.585938) scale(0.11 -0.11)">
      <defs>
       <path id="DejaVuSans-Oblique-79" d="M 1588 -325 
Q 1188 -997 936 -1164 
Q 684 -1331 294 -1331 
L -159 -1331 
L -63 -850 
L 269 -850 
Q 509 -850 678 -719 
Q 847 -588 1056 -206 
L 1234 128 
L 459 3500 
L 1069 3500 
L 1650 819 
L 3256 3500 
L 3859 3500 
L 1588 -325 
z
" transform="scale(0.015625)"/>
      </defs>
      <use xlink:href="#DejaVuSans-61" transform="translate(0 0.015625)"/>
      <use xlink:href="#DejaVuSans-73" transform="translate(61.279297 0.015625)"/>
      <use xlink:href="#DejaVuSans-69" transform="translate(113.378906 0.015625)"/>
      <use xlink:href="#DejaVuSans-6e" transform="translate(141.162109 0.015625)"/>
      <use xlink:href="#DejaVuSans-74" transform="translate(204.541016 0.015625)"/>
      <use xlink:href="#DejaVuSans-6f" transform="translate(243.75 0.015625)"/>
      <use xlink:href="#DejaVuSans-74" transform="translate(304.931641 0.015625)"/>
      <use xlink:href="#DejaVuSans-6f" transform="translate(344.140625 0.015625)"/>
      <use xlink:href="#DejaVuSans-20" transform="translate(405.322266 0.015625)"/>
      <use xlink:href="#DejaVuSans-Oblique-79" transform="translate(437.109375 0.015625)"/>
      <use xlink:href="#DejaVuSans-3d" transform="translate(515.771484 0.015625)"/>
      <use xlink:href="#DejaVuSans-30" transform="translate(619.042969 0.015625)"/>
     </g>
    </g>
   </g>
  </g>
 </g>
 <defs>
  <clipPath id="p68375afaf5">
   <rect x="45.5425" y="27.18" width="454.0025" height="230.84"/>
  </clipPath>
 </defs>
</svg>
