<?xml version="1.0" encoding="utf-8" standalone="no"?>
<!DOCTYPE svg PUBLIC "-//W3C//DTD SVG 1.1//EN"
  "http://www.w3.org/Graphics/SVG/1.1/DTD/svg11.dtd">
<svg xmlns:xlink="http://www.w3.org/1999/xlink" width="518.4pt" height="288pt" viewBox="0 0 518.4 288" xmlns="http://www.w3.org/2000/svg" version="1.1">
 <metadata>
  <rdf:RDF xmlns:dc="http://purl.org/dc/elements/1.1/" xmlns:cc="http://creativecommons.org/ns#" xmlns:rdf="http://www.w3.org/1999/02/22-rdf-syntax-ns#">
   <cc:Work>
    <dc:type rdf:resource="http://purl.org/dc/dcmitype/StillImage"/>
    <dc:date>2025-12-14T20:27:27.451739</dc:date>
    <dc:format>image/svg+xml</dc:format>
    <dc:creator>
     <cc:Agent>
      <dc:title>Matplotlib v3.8.2, https://matplotlib.org/</dc:title>
     </cc:Agent>
    </dc:creator>
   </cc:Work>
  </rdf:RDF>
 </metadata>
 <defs>
  <style type="text/css">*{stroke-linejoin: round; stroke-linecap: butt}</style>
 </defs>
 <g id="figure_1">
  <g id="patch_1">
   <path d="M 0 288 
L 518.4 288 
L 518.4 0 
L 0 0 
z
" style="fill: #ffffff"/>
  </g>
  <g id="axes_1">
   <g id="patch_2">
    <path d="M 35.08 258.02 
L 503.05125 258.02 
L 503.05125 29.01 
L 35.08 29.01 
z
" style="fill: #ffffff"/>
   </g>
   <g id="matplotlib.axis_1">
    <g id="xtick_1">
     <g id="line2d_1">
      <path d="M 35.08 258.02 
L 35.08 29.01 
" clip-path="url(#p87d514f8ae)" style="fill: none; stroke: #b0b0b0; stroke-opacity: 0.25; stroke-width: 0.8; stroke-linecap: square"/>
     </g>
     <g id="line2d_2">
      <defs>
       <path id="md74eb5805b" d="M 0 0 
L 0 3.5 
" style="stroke: #000000; stroke-width: 0.8"/>
      </defs>
      <g>
       <use xlink:href="#md74eb5805b" x="35.08" y="258.02" style="stroke: #000000; stroke-width: 0.8"/>
      </g>
     </g>
     <g id="text_1">
      <!-- −6 -->
      <g transform="translate(26.971797 273.378281) scale(0.11 -0.11)">
       <defs>
        <path id="DejaVuSans-2212" d="M 678 2272 
L 4684 2272 
L 4684 1741 
L 678 1741 
L 678 2272 
z
" transform="scale(0.015625)"/>
        <path id="DejaVuSans-36" d="M 2113 2584 
Q 1688 2584 1439 2293 
Q 1191 2003 1191 1497 
Q 1191 994 1439 701 
Q 1688 409 2113 409 
Q 2538 409 2786 701 
Q 3034 994 3034 1497 
Q 3034 2003 2786 2293 
Q 2538 2584 2113 2584 
z
M 3366 4563 
L 3366 3988 
Q 3128 4100 2886 4159 
Q 2644 4219 2406 4219 
Q 1781 4219 1451 3797 
Q 1122 3375 1075 2522 
Q 1259 2794 1537 2939 
Q 1816 3084 2150 3084 
Q 2853 3084 3261 2657 
Q 3669 2231 3669 1497 
Q 3669 778 3244 343 
Q 2819 -91 2113 -91 
Q 1303 -91 875 529 
Q 447 1150 447 2328 
Q 447 3434 972 4092 
Q 1497 4750 2381 4750 
Q 2619 4750 2861 4703 
Q 3103 4656 3366 4563 
z
" transform="scale(0.015625)"/>
       </defs>
       <use xlink:href="#DejaVuSans-2212"/>
       <use xlink:href="#DejaVuSans-36" x="83.789062"/>
      </g>
     </g>
    </g>
    <g id="xtick_2">
     <g id="line2d_3">
      <path d="M 113.075208 258.02 
L 113.075208 29.01 
" clip-path="url(#p87d514f8ae)" style="fill: none; stroke: #b0b0b0; stroke-opacity: 0.25; stroke-width: 0.8; stroke-linecap: square"/>
     </g>
     <g id="line2d_4">
      <g>
       <use xlink:href="#md74eb5805b" x="113.075208" y="258.02" style="stroke: #000000; stroke-width: 0.8"/>
      </g>
     </g>
     <g id="text_2">
      <!-- −4 -->
      <g transform="translate(104.967005 273.378281) scale(0.11 -0.11)">
       <defs>
        <path id="DejaVuSans-34" d="M 2419 4116 
L 825 1625 
L 2419 1625 
L 2419 4116 
z
M 2253 4666 
L 3047 4666 
L 3047 1625 
L 3713 1625 
L 3713 1100 
L 3047 1100 
L 3047 0 
L 2419 0 
L 2419 1100 
L 313 1100 
L 313 1709 
L 2253 4666 
z
" transform="scale(0.015625)"/>
       </defs>
       <use xlink:href="#DejaVuSans-2212"/>
       <use xlink:href="#DejaVuSans-34" x="83.789062"/>
      </g>
     </g>
    </g>
    <g id="xtick_3">
     <g id="line2d_5">
      <path d="M 191.070417 258.02 
L 191.070417 29.01 
" clip-path="url(#p87d514f8ae)" style="fill: none; stroke: #b0b0b0; stroke-opacity: 0.25; stroke-width: 0.8; stroke-linecap: square"/>
     </g>
     <g id="line2d_6">
      <g>
       <use xlink:href="#md74eb5805b" x="191.070417" y="258.02" style="stroke: #000000; stroke-width: 0.8"/>
      </g>
     </g>
     <g id="text_3">
      <!-- −2 -->
      <g transform="translate(182.962214 273.378281) scale(0.11 -0.11)">
       <defs>
        <path id="DejaVuSans-32" d="M 1228 531 
L 3431 531 
L 3431 0 
L 469 0 
L 469 531 
Q 828 903 1448 1529 
Q 2069 2156 2228 2338 
Q 2531 2678 2651 2914 
Q 2772 3150 2772 3378 
Q 2772 3750 2511 3984 
Q 2250 4219 1831 4219 
Q 1534 4219 1204 4116 
Q 875 4013 500 3803 
L 500 4441 
Q 881 4594 1212 4672 
Q 1544 4750 1819 4750 
Q 2544 4750 2975 4387 
Q 3406 4025 3406 3419 
Q 3406 3131 3298 2873 
Q 3191 2616 2906 2266 
Q 2828 2175 2409 1742 
Q 1991 1309 1228 531 
z
" transform="scale(0.015625)"/>
       </defs>
       <use xlink:href="#DejaVuSans-2212"/>
       <use xlink:href="#DejaVuSans-32" x="83.789062"/>
      </g>
     </g>
    </g>
    <g id="xtick_4">
     <g id="line2d_7">
      <path d="M 269.065625 258.02 
L 269.065625 29.01 
" clip-path="url(#p87d514f8ae)" style="fill: none; stroke: #b0b0b0; stroke-opacity: 0.25; stroke-width: 0.8; stroke-linecap: square"/>
     </g>
     <g id="line2d_8">
      <g>
       <use xlink:href="#md74eb5805b" x="269.065625" y="258.02" style="stroke: #000000; stroke-width: 0.8"/>
      </g>
     </g>
     <g id="text_4">
      <!-- 0 -->
      <g transform="translate(265.56625 273.378281) scale(0.11 -0.11)">
       <defs>
        <path id="DejaVuSans-30" d="M 2034 4250 
Q 1547 4250 1301 3770 
Q 1056 3291 1056 2328 
Q 1056 1369 1301 889 
Q 1547 409 2034 409 
Q 2525 409 2770 889 
Q 3016 1369 3016 2328 
Q 3016 3291 2770 3770 
Q 2525 4250 2034 4250 
z
M 2034 4750 
Q 2819 4750 3233 4129 
Q 3647 3509 3647 2328 
Q 3647 1150 3233 529 
Q 2819 -91 2034 -91 
Q 1250 -91 836 529 
Q 422 1150 422 2328 
Q 422 3509 836 4129 
Q 1250 4750 2034 4750 
z
" transform="scale(0.015625)"/>
       </defs>
       <use xlink:href="#DejaVuSans-30"/>
      </g>
     </g>
    </g>
    <g id="xtick_5">
     <g id="line2d_9">
      <path d="M 347.060833 258.02 
L 347.060833 29.01 
" clip-path="url(#p87d514f8ae)" style="fill: none; stroke: #b0b0b0; stroke-opacity: 0.25; stroke-width: 0.8; stroke-linecap: square"/>
     </g>
     <g id="line2d_10">
      <g>
       <use xlink:href="#md74eb5805b" x="347.060833" y="258.02" style="stroke: #000000; stroke-width: 0.8"/>
      </g>
     </g>
     <g id="text_5">
      <!-- 2 -->
      <g transform="translate(343.561458 273.378281) scale(0.11 -0.11)">
       <use xlink:href="#DejaVuSans-32"/>
      </g>
     </g>
    </g>
    <g id="xtick_6">
     <g id="line2d_11">
      <path d="M 425.056042 258.02 
L 425.056042 29.01 
" clip-path="url(#p87d514f8ae)" style="fill: none; stroke: #b0b0b0; stroke-opacity: 0.25; stroke-width: 0.8; stroke-linecap: square"/>
     </g>
     <g id="line2d_12">
      <g>
       <use xlink:href="#md74eb5805b" x="425.056042" y="258.02" style="stroke: #000000; stroke-width: 0.8"/>
      </g>
     </g>
     <g id="text_6">
      <!-- 4 -->
      <g transform="translate(421.556667 273.378281) scale(0.11 -0.11)">
       <use xlink:href="#DejaVuSans-34"/>
      </g>
     </g>
    </g>
    <g id="xtick_7">
     <g id="line2d_13">
      <path d="M 503.05125 258.02 
L 503.05125 29.01 
" clip-path="url(#p87d514f8ae)" style="fill: none; stroke: #b0b0b0; stroke-opacity: 0.25; stroke-width: 0.8; stroke-linecap: square"/>
     </g>
     <g id="line2d_14">
      <g>
       <use xlink:href="#md74eb5805b" x="503.05125" y="258.02" style="stroke: #000000; stroke-width: 0.8"/>
      </g>
     </g>
     <g id="text_7">
      <!-- 6 -->
      <g transform="translate(499.551875 273.378281) scale(0.11 -0.11)">
       <use xlink:href="#DejaVuSans-36"/>
      </g>
     </g>
    </g>
   </g>
   <g id="matplotlib.axis_2">
    <g id="ytick_1">
     <g id="line2d_15">
      <path d="M 35.08 258.02 
L 503.05125 258.02 
" clip-path="url(#p87d514f8ae)" style="fill: none; stroke: #b0b0b0; stroke-opacity: 0.25; stroke-width: 0.8; stroke-linecap: square"/>
     </g>
     <g id="line2d_16">
      <defs>
       <path id="m8141ca1a31" d="M 0 0 
L -3.5 0 
" style="stroke: #000000; stroke-width: 0.8"/>
      </defs>
      <g>
       <use xlink:href="#m8141ca1a31" x="35.08" y="258.02" style="stroke: #000000; stroke-width: 0.8"/>
      </g>
     </g>
     <g id="text_8">
      <!-- −6 -->
      <g transform="translate(11.863594 262.199141) scale(0.11 -0.11)">
       <use xlink:href="#DejaVuSans-2212"/>
       <use xlink:href="#DejaVuSans-36" x="83.789062"/>
      </g>
     </g>
    </g>
    <g id="ytick_2">
     <g id="line2d_17">
      <path d="M 35.08 225.304286 
L 503.05125 225.304286 
" clip-path="url(#p87d514f8ae)" style="fill: none; stroke: #b0b0b0; stroke-opacity: 0.25; stroke-width: 0.8; stroke-linecap: square"/>
     </g>
     <g id="line2d_18">
      <g>
       <use xlink:href="#m8141ca1a31" x="35.08" y="225.304286" style="stroke: #000000; stroke-width: 0.8"/>
      </g>
     </g>
     <g id="text_9">
      <!-- −4 -->
      <g transform="translate(11.863594 229.483426) scale(0.11 -0.11)">
       <use xlink:href="#DejaVuSans-2212"/>
       <use xlink:href="#DejaVuSans-34" x="83.789062"/>
      </g>
     </g>
    </g>
    <g id="ytick_3">
     <g id="line2d_19">
      <path d="M 35.08 192.588571 
L 503.05125 192.588571 
" clip-path="url(#p87d514f8ae)" style="fill: none; stroke: #b0b0b0; stroke-opacity: 0.25; stroke-width: 0.8; stroke-linecap: square"/>
     </g>
     <g id="line2d_20">
      <g>
       <use xlink:href="#m8141ca1a31" x="35.08" y="192.588571" style="stroke: #000000; stroke-width: 0.8"/>
      </g>
     </g>
     <g id="text_10">
      <!-- −2 -->
      <g transform="translate(11.863594 196.767712) scale(0.11 -0.11)">
       <use xlink:href="#DejaVuSans-2212"/>
       <use xlink:href="#DejaVuSans-32" x="83.789062"/>
      </g>
     </g>
    </g>
    <g id="ytick_4">
     <g id="line2d_21">
      <path d="M 35.08 159.872857 
L 503.05125 159.872857 
" clip-path="url(#p87d514f8ae)" style="fill: none; stroke: #b0b0b0; stroke-opacity: 0.25; stroke-width: 0.8; stroke-linecap: square"/>
     </g>
     <g id="line2d_22">
      <g>
       <use xlink:href="#m8141ca1a31" x="35.08" y="159.872857" style="stroke: #000000; stroke-width: 0.8"/>
      </g>
     </g>
     <g id="text_11">
      <!-- 0 -->
      <g transform="translate(21.08125 164.051998) scale(0.11 -0.11)">
       <use xlink:href="#DejaVuSans-30"/>
      </g>
     </g>
    </g>
    <g id="ytick_5">
     <g id="line2d_23">
      <path d="M 35.08 127.157143 
L 503.05125 127.157143 
" clip-path="url(#p87d514f8ae)" style="fill: none; stroke: #b0b0b0; stroke-opacity: 0.25; stroke-width: 0.8; stroke-linecap: square"/>
     </g>
     <g id="line2d_24">
      <g>
       <use xlink:href="#m8141ca1a31" x="35.08" y="127.157143" style="stroke: #000000; stroke-width: 0.8"/>
      </g>
     </g>
     <g id="text_12">
      <!-- 2 -->
      <g transform="translate(21.08125 131.336283) scale(0.11 -0.11)">
       <use xlink:href="#DejaVuSans-32"/>
      </g>
     </g>
    </g>
    <g id="ytick_6">
     <g id="line2d_25">
      <path d="M 35.08 94.441429 
L 503.05125 94.441429 
" clip-path="url(#p87d514f8ae)" style="fill: none; stroke: #b0b0b0; stroke-opacity: 0.25; stroke-width: 0.8; stroke-linecap: square"/>
     </g>
     <g id="line2d_26">
      <g>
       <use xlink:href="#m8141ca1a31" x="35.08" y="94.441429" style="stroke: #000000; stroke-width: 0.8"/>
      </g>
     </g>
     <g id="text_13">
      <!-- 4 -->
      <g transform="translate(21.08125 98.620569) scale(0.11 -0.11)">
       <use xlink:href="#DejaVuSans-34"/>
      </g>
     </g>
    </g>
    <g id="ytick_7">
     <g id="line2d_27">
      <path d="M 35.08 61.725714 
L 503.05125 61.725714 
" clip-path="url(#p87d514f8ae)" style="fill: none; stroke: #b0b0b0; stroke-opacity: 0.25; stroke-width: 0.8; stroke-linecap: square"/>
     </g>
     <g id="line2d_28">
      <g>
       <use xlink:href="#m8141ca1a31" x="35.08" y="61.725714" style="stroke: #000000; stroke-width: 0.8"/>
      </g>
     </g>
     <g id="text_14">
      <!-- 6 -->
      <g transform="translate(21.08125 65.904855) scale(0.11 -0.11)">
       <use xlink:href="#DejaVuSans-36"/>
      </g>
     </g>
    </g>
    <g id="ytick_8">
     <g id="line2d_29">
      <path d="M 35.08 29.01 
L 503.05125 29.01 
" clip-path="url(#p87d514f8ae)" style="fill: none; stroke: #b0b0b0; stroke-opacity: 0.25; stroke-width: 0.8; stroke-linecap: square"/>
     </g>
     <g id="line2d_30">
      <g>
       <use xlink:href="#m8141ca1a31" x="35.08" y="29.01" style="stroke: #000000; stroke-width: 0.8"/>
      </g>
     </g>
     <g id="text_15">
      <!-- 8 -->
      <g transform="translate(21.08125 33.189141) scale(0.11 -0.11)">
       <defs>
        <path id="DejaVuSans-38" d="M 2034 2216 
Q 1584 2216 1326 1975 
Q 1069 1734 1069 1313 
Q 1069 891 1326 650 
Q 1584 409 2034 409 
Q 2484 409 2743 651 
Q 3003 894 3003 1313 
Q 3003 1734 2745 1975 
Q 2488 2216 2034 2216 
z
M 1403 2484 
Q 997 2584 770 2862 
Q 544 3141 544 3541 
Q 544 4100 942 4425 
Q 1341 4750 2034 4750 
Q 2731 4750 3128 4425 
Q 3525 4100 3525 3541 
Q 3525 3141 3298 2862 
Q 3072 2584 2669 2484 
Q 3125 2378 3379 2068 
Q 3634 1759 3634 1313 
Q 3634 634 3220 271 
Q 2806 -91 2034 -91 
Q 1263 -91 848 271 
Q 434 634 434 1313 
Q 434 1759 690 2068 
Q 947 2378 1403 2484 
z
M 1172 3481 
Q 1172 3119 1398 2916 
Q 1625 2713 2034 2713 
Q 2441 2713 2670 2916 
Q 2900 3119 2900 3481 
Q 2900 3844 2670 4047 
Q 2441 4250 2034 4250 
Q 1625 4250 1398 4047 
Q 1172 3844 1172 3481 
z
" transform="scale(0.015625)"/>
       </defs>
       <use xlink:href="#DejaVuSans-38"/>
      </g>
     </g>
    </g>
   </g>
   <g id="line2d_31">
    <path d="M 35.08 144.917102 
L 68.111888 145.43545 
L 92.40004 146.028706 
L 111.053342 146.697988 
L 125.820538 147.443329 
L 137.770309 148.263276 
L 147.582723 149.152995 
L 155.840695 150.120121 
L 162.835683 151.158571 
L 168.859145 152.274053 
L 174.008233 153.445911 
L 178.574406 154.707777 
L 182.557663 156.031192 
L 186.15231 157.454943 
L 189.358346 158.958911 
L 192.272924 160.568592 
L 194.896045 162.265214 
L 197.32486 164.097816 
L 199.55937 166.060264 
L 201.599575 168.138988 
L 203.542627 170.434053 
L 205.388527 172.967612 
L 207.137274 175.762974 
L 208.788868 178.84406 
L 210.34331 182.234502 
L 211.800599 185.956286 
L 213.160735 190.027749 
L 214.520872 194.832377 
L 215.783856 200.134239 
L 216.949687 205.95486 
L 218.115519 212.933395 
L 219.184197 220.666204 
L 220.252876 230.10766 
L 221.224402 240.695596 
L 222.195928 253.924263 
L 223.070302 268.997806 
L 223.847523 285.979037 
L 223.967682 289 
L 223.967682 289 
" clip-path="url(#p87d514f8ae)" style="fill: none; stroke: #1f77b4; stroke-width: 1.5; stroke-linecap: square"/>
   </g>
   <g id="line2d_32">
    <path d="M 237.37365 -1 
L 238.304143 13.617752 
L 239.298299 25.932764 
L 240.368929 36.48737 
L 241.477795 45.279778 
L 242.663135 52.911904 
L 243.886712 59.359894 
L 245.148525 64.854718 
L 246.486812 69.69604 
L 247.863336 73.848801 
L 249.278096 77.42634 
L 250.731094 80.516458 
L 252.260564 83.250508 
L 253.828272 85.599716 
L 255.434216 87.61099 
L 257.078397 89.320915 
L 258.760815 90.757709 
L 260.48147 91.942599 
L 262.240361 92.890751 
L 264.03749 93.611833 
L 265.872855 94.110276 
L 267.70822 94.381901 
L 269.581821 94.432829 
L 271.417186 94.262341 
L 273.252551 93.869163 
L 275.04968 93.258084 
L 276.808571 92.427465 
L 278.529226 91.370682 
L 280.211644 90.076054 
L 281.855825 88.526482 
L 283.461769 86.698794 
L 284.99124 84.619448 
L 286.482474 82.21415 
L 287.935471 79.439239 
L 289.350232 76.23968 
L 290.688519 72.657399 
L 291.988569 68.534743 
L 293.250382 63.772631 
L 294.473959 58.243977 
L 295.621062 52.012145 
L 296.729928 44.730372 
L 297.800558 36.14925 
L 298.794714 26.352695 
L 299.750633 14.671525 
L 300.668316 0.565081 
L 300.7576 -1 
L 300.7576 -1 
" clip-path="url(#p87d514f8ae)" style="fill: none; stroke: #ff7f0e; stroke-width: 1.5; stroke-linecap: square"/>
   </g>
   <g id="line2d_33">
    <path d="M 314.163568 289 
L 314.963796 270.910091 
L 315.935322 253.924263 
L 316.906848 240.695596 
L 317.975527 229.164185 
L 319.044205 219.900124 
L 320.210037 211.67571 
L 321.473021 204.402977 
L 322.736005 198.403522 
L 324.096141 193.020489 
L 325.456278 188.498464 
L 326.913567 184.396303 
L 328.468009 180.685343 
L 330.119603 177.334365 
L 331.86835 174.311683 
L 333.617097 171.719646 
L 335.560149 169.243793 
L 337.600354 167.012206 
L 339.737711 164.999605 
L 342.069374 163.109891 
L 344.595342 161.352732 
L 347.315615 159.731365 
L 350.327346 158.198614 
L 353.630535 156.770113 
L 357.322334 155.420962 
L 361.402744 154.168564 
L 366.066069 152.976099 
L 371.31231 151.869076 
L 377.335772 150.830681 
L 384.33076 149.85841 
L 392.491579 148.957347 
L 402.109688 148.127617 
L 413.573696 147.369593 
L 427.466519 146.681383 
L 444.662531 146.060988 
L 466.424716 145.508912 
L 494.598973 145.027464 
L 503.05125 144.917102 
L 503.05125 144.917102 
" clip-path="url(#p87d514f8ae)" style="fill: none; stroke: #2ca02c; stroke-width: 1.5; stroke-linecap: square"/>
   </g>
   <g id="line2d_34">
    <path d="M 35.08 159.872857 
L 503.05125 159.872857 
" clip-path="url(#p87d514f8ae)" style="fill: none; stroke: #000000; stroke-opacity: 0.25; stroke-linecap: square"/>
   </g>
   <g id="line2d_35">
    <path d="M 269.065625 258.02 
L 269.065625 29.01 
" clip-path="url(#p87d514f8ae)" style="fill: none; stroke: #000000; stroke-opacity: 0.25; stroke-linecap: square"/>
   </g>
   <g id="line2d_36">
    <path d="M 230.068021 258.02 
L 230.068021 29.01 
" clip-path="url(#p87d514f8ae)" style="fill: none; stroke-dasharray: 5.55,2.4; stroke-dashoffset: 0; stroke: #000000; stroke-opacity: 0.35; stroke-width: 1.5"/>
   </g>
   <g id="line2d_37">
    <path d="M 308.063229 258.02 
L 308.063229 29.01 
" clip-path="url(#p87d514f8ae)" style="fill: none; stroke-dasharray: 5.55,2.4; stroke-dashoffset: 0; stroke: #000000; stroke-opacity: 0.35; stroke-width: 1.5"/>
   </g>
   <g id="line2d_38">
    <path d="M 35.08 143.515 
L 503.05125 143.515 
" clip-path="url(#p87d514f8ae)" style="fill: none; stroke-dasharray: 5.55,2.4; stroke-dashoffset: 0; stroke: #000000; stroke-opacity: 0.35; stroke-width: 1.5"/>
   </g>
   <g id="patch_3">
    <path d="M 35.08 258.02 
L 35.08 29.01 
" style="fill: none; stroke: #000000; stroke-width: 0.8; stroke-linejoin: miter; stroke-linecap: square"/>
   </g>
   <g id="patch_4">
    <path d="M 35.08 258.02 
L 503.05125 258.02 
" style="fill: none; stroke: #000000; stroke-width: 0.8; stroke-linejoin: miter; stroke-linecap: square"/>
   </g>
   <g id="text_16">
    <!-- Studio 02: $(x^2-4)/(x^2-1)$ -->
    <g transform="translate(189.385625 23.01) scale(0.12 -0.12)">
     <defs>
      <path id="DejaVuSans-53" d="M 3425 4513 
L 3425 3897 
Q 3066 4069 2747 4153 
Q 2428 4238 2131 4238 
Q 1616 4238 1336 4038 
Q 1056 3838 1056 3469 
Q 1056 3159 1242 3001 
Q 1428 2844 1947 2747 
L 2328 2669 
Q 3034 2534 3370 2195 
Q 3706 1856 3706 1288 
Q 3706 609 3251 259 
Q 2797 -91 1919 -91 
Q 1588 -91 1214 -16 
Q 841 59 441 206 
L 441 856 
Q 825 641 1194 531 
Q 1563 422 1919 422 
Q 2459 422 2753 634 
Q 3047 847 3047 1241 
Q 3047 1584 2836 1778 
Q 2625 1972 2144 2069 
L 1759 2144 
Q 1053 2284 737 2584 
Q 422 2884 422 3419 
Q 422 4038 858 4394 
Q 1294 4750 2059 4750 
Q 2388 4750 2728 4690 
Q 3069 4631 3425 4513 
z
" transform="scale(0.015625)"/>
      <path id="DejaVuSans-74" d="M 1172 4494 
L 1172 3500 
L 2356 3500 
L 2356 3053 
L 1172 3053 
L 1172 1153 
Q 1172 725 1289 603 
Q 1406 481 1766 481 
L 2356 481 
L 2356 0 
L 1766 0 
Q 1100 0 847 248 
Q 594 497 594 1153 
L 594 3053 
L 172 3053 
L 172 3500 
L 594 3500 
L 594 4494 
L 1172 4494 
z
" transform="scale(0.015625)"/>
      <path id="DejaVuSans-75" d="M 544 1381 
L 544 3500 
L 1119 3500 
L 1119 1403 
Q 1119 906 1312 657 
Q 1506 409 1894 409 
Q 2359 409 2629 706 
Q 2900 1003 2900 1516 
L 2900 3500 
L 3475 3500 
L 3475 0 
L 2900 0 
L 2900 538 
Q 2691 219 2414 64 
Q 2138 -91 1772 -91 
Q 1169 -91 856 284 
Q 544 659 544 1381 
z
M 1991 3584 
L 1991 3584 
z
" transform="scale(0.015625)"/>
      <path id="DejaVuSans-64" d="M 2906 2969 
L 2906 4863 
L 3481 4863 
L 3481 0 
L 2906 0 
L 2906 525 
Q 2725 213 2448 61 
Q 2172 -91 1784 -91 
Q 1150 -91 751 415 
Q 353 922 353 1747 
Q 353 2572 751 3078 
Q 1150 3584 1784 3584 
Q 2172 3584 2448 3432 
Q 2725 3281 2906 2969 
z
M 947 1747 
Q 947 1113 1208 752 
Q 1469 391 1925 391 
Q 2381 391 2643 752 
Q 2906 1113 2906 1747 
Q 2906 2381 2643 2742 
Q 2381 3103 1925 3103 
Q 1469 3103 1208 2742 
Q 947 2381 947 1747 
z
" transform="scale(0.015625)"/>
      <path id="DejaVuSans-69" d="M 603 3500 
L 1178 3500 
L 1178 0 
L 603 0 
L 603 3500 
z
M 603 4863 
L 1178 4863 
L 1178 4134 
L 603 4134 
L 603 4863 
z
" transform="scale(0.015625)"/>
      <path id="DejaVuSans-6f" d="M 1959 3097 
Q 1497 3097 1228 2736 
Q 959 2375 959 1747 
Q 959 1119 1226 758 
Q 1494 397 1959 397 
Q 2419 397 2687 759 
Q 2956 1122 2956 1747 
Q 2956 2369 2687 2733 
Q 2419 3097 1959 3097 
z
M 1959 3584 
Q 2709 3584 3137 3096 
Q 3566 2609 3566 1747 
Q 3566 888 3137 398 
Q 2709 -91 1959 -91 
Q 1206 -91 779 398 
Q 353 888 353 1747 
Q 353 2609 779 3096 
Q 1206 3584 1959 3584 
z
" transform="scale(0.015625)"/>
      <path id="DejaVuSans-20" transform="scale(0.015625)"/>
      <path id="DejaVuSans-3a" d="M 750 794 
L 1409 794 
L 1409 0 
L 750 0 
L 750 794 
z
M 750 3309 
L 1409 3309 
L 1409 2516 
L 750 2516 
L 750 3309 
z
" transform="scale(0.015625)"/>
      <path id="DejaVuSans-28" d="M 1984 4856 
Q 1566 4138 1362 3434 
Q 1159 2731 1159 2009 
Q 1159 1288 1364 580 
Q 1569 -128 1984 -844 
L 1484 -844 
Q 1016 -109 783 600 
Q 550 1309 550 2009 
Q 550 2706 781 3412 
Q 1013 4119 1484 4856 
L 1984 4856 
z
" transform="scale(0.015625)"/>
      <path id="DejaVuSans-Oblique-78" d="M 3841 3500 
L 2234 1784 
L 3219 0 
L 2559 0 
L 1819 1388 
L 531 0 
L -166 0 
L 1556 1844 
L 641 3500 
L 1300 3500 
L 1972 2234 
L 3144 3500 
L 3841 3500 
z
" transform="scale(0.015625)"/>
      <path id="DejaVuSans-29" d="M 513 4856 
L 1013 4856 
Q 1481 4119 1714 3412 
Q 1947 2706 1947 2009 
Q 1947 1309 1714 600 
Q 1481 -109 1013 -844 
L 513 -844 
Q 928 -128 1133 580 
Q 1338 1288 1338 2009 
Q 1338 2731 1133 3434 
Q 928 4138 513 4856 
z
" transform="scale(0.015625)"/>
      <path id="DejaVuSans-2f" d="M 1625 4666 
L 2156 4666 
L 531 -594 
L 0 -594 
L 1625 4666 
z
" transform="scale(0.015625)"/>
      <path id="DejaVuSans-31" d="M 794 531 
L 1825 531 
L 1825 4091 
L 703 3866 
L 703 4441 
L 1819 4666 
L 2450 4666 
L 2450 531 
L 3481 531 
L 3481 0 
L 794 0 
L 794 531 
z
" transform="scale(0.015625)"/>
     </defs>
     <use xlink:href="#DejaVuSans-53" transform="translate(0 0.765625)"/>
     <use xlink:href="#DejaVuSans-74" transform="translate(63.476562 0.765625)"/>
     <use xlink:href="#DejaVuSans-75" transform="translate(102.685547 0.765625)"/>
     <use xlink:href="#DejaVuSans-64" transform="translate(166.064453 0.765625)"/>
     <use xlink:href="#DejaVuSans-69" transform="translate(229.541016 0.765625)"/>
     <use xlink:href="#DejaVuSans-6f" transform="translate(257.324219 0.765625)"/>
     <use xlink:href="#DejaVuSans-20" transform="translate(318.505859 0.765625)"/>
     <use xlink:href="#DejaVuSans-30" transform="translate(350.292969 0.765625)"/>
     <use xlink:href="#DejaVuSans-32" transform="translate(413.916016 0.765625)"/>
     <use xlink:href="#DejaVuSans-3a" transform="translate(477.539062 0.765625)"/>
     <use xlink:href="#DejaVuSans-20" transform="translate(511.230469 0.765625)"/>
     <use xlink:href="#DejaVuSans-28" transform="translate(543.017578 0.765625)"/>
     <use xlink:href="#DejaVuSans-Oblique-78" transform="translate(582.03125 0.765625)"/>
     <use xlink:href="#DejaVuSans-32" transform="translate(645.677083 39.046875) scale(0.7)"/>
     <use xlink:href="#DejaVuSans-2212" transform="translate(712.430013 0.765625)"/>
     <use xlink:href="#DejaVuSans-34" transform="translate(815.701497 0.765625)"/>
     <use xlink:href="#DejaVuSans-29" transform="translate(879.324544 0.765625)"/>
     <use xlink:href="#DejaVuSans-2f" transform="translate(918.338216 0.765625)"/>
     <use xlink:href="#DejaVuSans-28" transform="translate(952.029622 0.765625)"/>
     <use xlink:href="#DejaVuSans-Oblique-78" transform="translate(991.043294 0.765625)"/>
     <use xlink:href="#DejaVuSans-32" transform="translate(1054.689128 39.046875) scale(0.7)"/>
     <use xlink:href="#DejaVuSans-2212" transform="translate(1121.442057 0.765625)"/>
     <use xlink:href="#DejaVuSans-31" transform="translate(1224.713542 0.765625)"/>
     <use xlink:href="#DejaVuSans-29" transform="translate(1288.336589 0.765625)"/>
    </g>
   </g>
   <g id="PathCollection_1">
    <defs>
     <path id="md635ab285f" d="M 0 3.535534 
C 0.937635 3.535534 1.836992 3.163008 2.5 2.5 
C 3.163008 1.836992 3.535534 0.937635 3.535534 0 
C 3.535534 -0.937635 3.163008 -1.836992 2.5 -2.5 
C 1.836992 -3.163008 0.937635 -3.535534 0 -3.535534 
C -0.937635 -3.535534 -1.836992 -3.163008 -2.5 -2.5 
C -3.163008 -1.836992 -3.535534 -0.937635 -3.535534 0 
C -3.535534 0.937635 -3.163008 1.836992 -2.5 2.5 
C -1.836992 3.163008 -0.937635 3.535534 0 3.535534 
z
" style="stroke: #1f77b4"/>
    </defs>
    <g clip-path="url(#p87d514f8ae)">
     <use xlink:href="#md635ab285f" x="191.070417" y="159.872857" style="fill: #1f77b4; stroke: #1f77b4"/>
     <use xlink:href="#md635ab285f" x="347.060833" y="159.872857" style="fill: #1f77b4; stroke: #1f77b4"/>
     <use xlink:href="#md635ab285f" x="269.065625" y="94.441429" style="fill: #1f77b4; stroke: #1f77b4"/>
    </g>
   </g>
   <g id="legend_1">
    <g id="line2d_39">
     <path d="M 377.32125 46.83 
L 388.32125 46.83 
L 399.32125 46.83 
" style="fill: none; stroke: #1f77b4; stroke-width: 1.5; stroke-linecap: square"/>
    </g>
    <g id="text_17">
     <!-- $f(x)=\frac{x^2-4}{x^2-1}$ -->
     <g transform="translate(408.12125 50.68) scale(0.11 -0.11)">
      <defs>
       <path id="DejaVuSans-Oblique-66" d="M 3059 4863 
L 2969 4384 
L 2419 4384 
Q 2106 4384 1964 4261 
Q 1822 4138 1753 3809 
L 1691 3500 
L 2638 3500 
L 2553 3053 
L 1606 3053 
L 1013 0 
L 434 0 
L 1031 3053 
L 481 3053 
L 563 3500 
L 1113 3500 
L 1159 3744 
Q 1278 4363 1576 4613 
Q 1875 4863 2516 4863 
L 3059 4863 
z
" transform="scale(0.015625)"/>
       <path id="DejaVuSans-3d" d="M 678 2906 
L 4684 2906 
L 4684 2381 
L 678 2381 
L 678 2906 
z
M 678 1631 
L 4684 1631 
L 4684 1100 
L 678 1100 
L 678 1631 
z
" transform="scale(0.015625)"/>
      </defs>
      <use xlink:href="#DejaVuSans-Oblique-66" transform="translate(0 0.039062)"/>
      <use xlink:href="#DejaVuSans-28" transform="translate(35.205078 0.039062)"/>
      <use xlink:href="#DejaVuSans-Oblique-78" transform="translate(74.21875 0.039062)"/>
      <use xlink:href="#DejaVuSans-29" transform="translate(133.398438 0.039062)"/>
      <use xlink:href="#DejaVuSans-3d" transform="translate(191.894531 0.039062)"/>
      <use xlink:href="#DejaVuSans-Oblique-78" transform="translate(295.166016 43.835938) scale(0.7)"/>
      <use xlink:href="#DejaVuSans-32" transform="translate(339.718099 70.632812) scale(0.49)"/>
      <use xlink:href="#DejaVuSans-2212" transform="translate(386.44515 43.835938) scale(0.7)"/>
      <use xlink:href="#DejaVuSans-34" transform="translate(458.735189 43.835938) scale(0.7)"/>
      <use xlink:href="#DejaVuSans-Oblique-78" transform="translate(295.166016 -50.578125) scale(0.7)"/>
      <use xlink:href="#DejaVuSans-32" transform="translate(339.718099 -23.78125) scale(0.49)"/>
      <use xlink:href="#DejaVuSans-2212" transform="translate(386.44515 -50.578125) scale(0.7)"/>
      <use xlink:href="#DejaVuSans-31" transform="translate(458.735189 -50.578125) scale(0.7)"/>
      <path d="M 295.166016 18.835938 
L 295.166016 25.085938 
L 503.271322 25.085938 
L 503.271322 18.835938 
L 295.166016 18.835938 
z
"/>
     </g>
    </g>
    <g id="line2d_40">
     <path d="M 377.32125 66.298281 
L 388.32125 66.298281 
L 399.32125 66.298281 
" style="fill: none; stroke-dasharray: 5.55,2.4; stroke-dashoffset: 0; stroke: #000000; stroke-opacity: 0.35; stroke-width: 1.5"/>
    </g>
    <g id="text_18">
     <!-- asintoti $x=\pm1$ -->
     <g transform="translate(408.12125 70.148281) scale(0.11 -0.11)">
      <defs>
       <path id="DejaVuSans-61" d="M 2194 1759 
Q 1497 1759 1228 1600 
Q 959 1441 959 1056 
Q 959 750 1161 570 
Q 1363 391 1709 391 
Q 2188 391 2477 730 
Q 2766 1069 2766 1631 
L 2766 1759 
L 2194 1759 
z
M 3341 1997 
L 3341 0 
L 2766 0 
L 2766 531 
Q 2569 213 2275 61 
Q 1981 -91 1556 -91 
Q 1019 -91 701 211 
Q 384 513 384 1019 
Q 384 1609 779 1909 
Q 1175 2209 1959 2209 
L 2766 2209 
L 2766 2266 
Q 2766 2663 2505 2880 
Q 2244 3097 1772 3097 
Q 1472 3097 1187 3025 
Q 903 2953 641 2809 
L 641 3341 
Q 956 3463 1253 3523 
Q 1550 3584 1831 3584 
Q 2591 3584 2966 3190 
Q 3341 2797 3341 1997 
z
" transform="scale(0.015625)"/>
       <path id="DejaVuSans-73" d="M 2834 3397 
L 2834 2853 
Q 2591 2978 2328 3040 
Q 2066 3103 1784 3103 
Q 1356 3103 1142 2972 
Q 928 2841 928 2578 
Q 928 2378 1081 2264 
Q 1234 2150 1697 2047 
L 1894 2003 
Q 2506 1872 2764 1633 
Q 3022 1394 3022 966 
Q 3022 478 2636 193 
Q 2250 -91 1575 -91 
Q 1294 -91 989 -36 
Q 684 19 347 128 
L 347 722 
Q 666 556 975 473 
Q 1284 391 1588 391 
Q 1994 391 2212 530 
Q 2431 669 2431 922 
Q 2431 1156 2273 1281 
Q 2116 1406 1581 1522 
L 1381 1569 
Q 847 1681 609 1914 
Q 372 2147 372 2553 
Q 372 3047 722 3315 
Q 1072 3584 1716 3584 
Q 2034 3584 2315 3537 
Q 2597 3491 2834 3397 
z
" transform="scale(0.015625)"/>
       <path id="DejaVuSans-6e" d="M 3513 2113 
L 3513 0 
L 2938 0 
L 2938 2094 
Q 2938 2591 2744 2837 
Q 2550 3084 2163 3084 
Q 1697 3084 1428 2787 
Q 1159 2491 1159 1978 
L 1159 0 
L 581 0 
L 581 3500 
L 1159 3500 
L 1159 2956 
Q 1366 3272 1645 3428 
Q 1925 3584 2291 3584 
Q 2894 3584 3203 3211 
Q 3513 2838 3513 2113 
z
" transform="scale(0.015625)"/>
       <path id="DejaVuSans-b1" d="M 2944 4013 
L 2944 2803 
L 4684 2803 
L 4684 2272 
L 2944 2272 
L 2944 1063 
L 2419 1063 
L 2419 2272 
L 678 2272 
L 678 2803 
L 2419 2803 
L 2419 4013 
L 2944 4013 
z
M 678 531 
L 4684 531 
L 4684 0 
L 678 0 
L 678 531 
z
" transform="scale(0.015625)"/>
      </defs>
      <use xlink:href="#DejaVuSans-61" transform="translate(0 0.015625)"/>
      <use xlink:href="#DejaVuSans-73" transform="translate(61.279297 0.015625)"/>
      <use xlink:href="#DejaVuSans-69" transform="translate(113.378906 0.015625)"/>
      <use xlink:href="#DejaVuSans-6e" transform="translate(141.162109 0.015625)"/>
      <use xlink:href="#DejaVuSans-74" transform="translate(204.541016 0.015625)"/>
      <use xlink:href="#DejaVuSans-6f" transform="translate(243.75 0.015625)"/>
      <use xlink:href="#DejaVuSans-74" transform="translate(304.931641 0.015625)"/>
      <use xlink:href="#DejaVuSans-69" transform="translate(344.140625 0.015625)"/>
      <use xlink:href="#DejaVuSans-20" transform="translate(371.923828 0.015625)"/>
      <use xlink:href="#DejaVuSans-Oblique-78" transform="translate(403.710938 0.015625)"/>
      <use xlink:href="#DejaVuSans-3d" transform="translate(482.373047 0.015625)"/>
      <use xlink:href="#DejaVuSans-b1" transform="translate(605.126953 0.015625)"/>
      <use xlink:href="#DejaVuSans-31" transform="translate(708.398438 0.015625)"/>
     </g>
    </g>
    <g id="line2d_41">
     <path d="M 377.32125 82.445937 
L 388.32125 82.445937 
L 399.32125 82.445937 
" style="fill: none; stroke-dasharray: 5.55,2.4; stroke-dashoffset: 0; stroke: #000000; stroke-opacity: 0.35; stroke-width: 1.5"/>
    </g>
    <g id="text_19">
     <!-- asintoto $y=1$ -->
     <g transform="translate(408.12125 86.295937) scale(0.11 -0.11)">
      <defs>
       <path id="DejaVuSans-Oblique-79" d="M 1588 -325 
Q 1188 -997 936 -1164 
Q 684 -1331 294 -1331 
L -159 -1331 
L -63 -850 
L 269 -850 
Q 509 -850 678 -719 
Q 847 -588 1056 -206 
L 1234 128 
L 459 3500 
L 1069 3500 
L 1650 819 
L 3256 3500 
L 3859 3500 
L 1588 -325 
z
" transform="scale(0.015625)"/>
      </defs>
      <use xlink:href="#DejaVuSans-61" transform="translate(0 0.015625)"/>
      <use xlink:href="#DejaVuSans-73" transform="translate(61.279297 0.015625)"/>
      <use xlink:href="#DejaVuSans-69" transform="translate(113.378906 0.015625)"/>
      <use xlink:href="#DejaVuSans-6e" transform="translate(141.162109 0.015625)"/>
      <use xlink:href="#DejaVuSans-74" transform="translate(204.541016 0.015625)"/>
      <use xlink:href="#DejaVuSans-6f" transform="translate(243.75 0.015625)"/>
      <use xlink:href="#DejaVuSans-74" transform="translate(304.931641 0.015625)"/>
      <use xlink:href="#DejaVuSans-6f" transform="translate(344.140625 0.015625)"/>
      <use xlink:href="#DejaVuSans-20" transform="translate(405.322266 0.015625)"/>
      <use xlink:href="#DejaVuSans-Oblique-79" transform="translate(437.109375 0.015625)"/>
      <use xlink:href="#DejaVuSans-3d" transform="translate(515.771484 0.015625)"/>
      <use xlink:href="#DejaVuSans-31" transform="translate(619.042969 0.015625)"/>
     </g>
    </g>
   </g>
  </g>
 </g>
 <defs>
  <clipPath id="p87d514f8ae">
   <rect x="35.08" y="29.01" width="467.97125" height="229.01"/>
  </clipPath>
 </defs>
</svg>
